<?xml version="1.0" encoding="UTF-8" standalone="no"?>
<!-- Created with Inkscape (http://www.inkscape.org/) -->

<svg
   width="210mm"
   height="297mm"
   viewBox="0 0 210 297"
   version="1.1"
   id="svg1"
   xml:space="preserve"
   inkscape:version="1.4.2 (ebf0e940d0, 2025-05-08)"
   sodipodi:docname="battery.svg"
   xmlns:inkscape="http://www.inkscape.org/namespaces/inkscape"
   xmlns:sodipodi="http://sodipodi.sourceforge.net/DTD/sodipodi-0.dtd"
   xmlns="http://www.w3.org/2000/svg"
   xmlns:svg="http://www.w3.org/2000/svg"><sodipodi:namedview
     id="namedview1"
     pagecolor="#ffffff"
     bordercolor="#000000"
     borderopacity="0.25"
     inkscape:showpageshadow="2"
     inkscape:pageopacity="0.0"
     inkscape:pagecheckerboard="0"
     inkscape:deskcolor="#d1d1d1"
     inkscape:document-units="mm"
     inkscape:zoom="1.6881664"
     inkscape:cx="396.58413"
     inkscape:cy="561.25984"
     inkscape:window-width="3840"
     inkscape:window-height="2124"
     inkscape:window-x="0"
     inkscape:window-y="0"
     inkscape:window-maximized="1"
     inkscape:current-layer="layer1" /><defs
     id="defs1" /><g
     inkscape:label="Layer 1"
     inkscape:groupmode="layer"
     id="layer1"><path
       style="fill:#000000"
       d="m 65.021622,217.75212 c -2.985963,-0.43894 -6.446495,-2.91091 -7.81067,-5.57941 -1.273596,-2.49133 -1.305035,-2.92408 -1.308372,-18.01 -0.003,-13.45641 0.02437,-14.28256 0.526634,-15.9087 0.94979,-3.07506 3.796904,-6.04998 6.811271,-7.11703 0.811335,-0.2872 9.283743,-0.35162 46.242655,-0.35162 h 45.24933 l 1.7836,0.87807 c 3.26103,1.60541 5.43456,4.52515 6.11314,8.21188 l 0.32357,1.75797 2.63646,0.14539 c 2.03281,0.1121 2.93815,0.29103 3.95406,0.7815 1.937,0.93514 3.6416,2.6559 4.52447,4.56736 0.76102,1.64766 0.76187,1.65554 0.76187,7.07345 0,5.35645 -0.009,5.44318 -0.72337,6.96804 -1.1413,2.43619 -2.13343,3.49482 -4.25529,4.54053 -1.63339,0.80499 -2.2564,0.9597 -4.43275,1.10082 l -2.53225,0.16419 -0.29223,1.706 c -0.81375,4.75068 -4.50895,8.41441 -9.16642,9.08838 -1.93544,0.28006 -86.495504,0.26398 -88.405708,-0.0168 z m 89.369818,-4.23485 c 2.74239,-1.02606 4.41495,-3.55504 4.4251,-6.69093 0.007,-2.16064 0.52119,-3.55799 1.37744,-3.74331 0.33701,-0.0729 2.10103,-0.16647 3.92004,-0.20785 2.94582,-0.067 3.41768,-0.14386 4.31729,-0.70314 0.5555,-0.34534 1.3294,-1.11055 1.71979,-1.70047 0.70929,-1.07181 0.70979,-1.07621 0.70979,-6.25126 v -5.1787 l -0.79375,-1.10963 c -1.37943,-1.92838 -2.35849,-2.29603 -6.53989,-2.45583 -4.5604,-0.17428 -4.48626,-0.11694 -4.7058,-3.63997 -0.0886,-1.42128 -0.32042,-2.88181 -0.51522,-3.24561 -0.80859,-1.51006 -1.96993,-2.65834 -3.39762,-3.35943 l -1.51022,-0.74161 H 109.34527 65.292147 l -1.510219,0.74161 c -0.859703,0.42217 -1.858532,1.1814 -2.318854,1.7626 -1.644034,2.07577 -1.595129,1.54551 -1.5923,17.26489 l 0.0026,14.36214 0.626472,1.32292 c 0.797072,1.68317 2.101082,2.92213 3.755472,3.56812 1.264335,0.49369 2.547295,0.50852 45.013892,0.52055 43.03329,0.0122 43.73437,0.004 45.12224,-0.51509 z"
       id="path1" /></g></svg>
