<?xml version="1.0" encoding="UTF-8" standalone="no"?>
<!-- Created with Inkscape (http://www.inkscape.org/) -->

<svg
   width="210mm"
   height="297mm"
   viewBox="0 0 210 297"
   version="1.1"
   id="svg1"
   xml:space="preserve"
   inkscape:version="1.4.2 (ebf0e940d0, 2025-05-08)"
   sodipodi:docname="cutoff.svg"
   xmlns:inkscape="http://www.inkscape.org/namespaces/inkscape"
   xmlns:sodipodi="http://sodipodi.sourceforge.net/DTD/sodipodi-0.dtd"
   xmlns="http://www.w3.org/2000/svg"
   xmlns:svg="http://www.w3.org/2000/svg"><sodipodi:namedview
     id="namedview1"
     pagecolor="#ffffff"
     bordercolor="#000000"
     borderopacity="0.25"
     inkscape:showpageshadow="2"
     inkscape:pageopacity="0.0"
     inkscape:pagecheckerboard="0"
     inkscape:deskcolor="#d1d1d1"
     inkscape:document-units="mm"
     inkscape:zoom="1.6881664"
     inkscape:cx="117.5832"
     inkscape:cy="131.7998"
     inkscape:window-width="3840"
     inkscape:window-height="2124"
     inkscape:window-x="0"
     inkscape:window-y="0"
     inkscape:window-maximized="1"
     inkscape:current-layer="layer1" /><defs
     id="defs1" /><g
     inkscape:label="Layer 1"
     inkscape:groupmode="layer"
     id="layer1"><path
       style="fill:#000000"
       d="m 111.25903,123.0255 c -1.08488,-0.12467 -2.23505,-0.55313 -3.063,-1.14105 -1.30409,-0.92601 -2.12547,-2.15853 -2.52076,-3.78251 -0.20154,-0.82801 -0.20211,-2.44222 -10e-4,-3.27885 0.44929,-1.87052 1.33039,-3.37632 2.73648,-4.67663 0.88861,-0.82175 1.39581,-1.17647 2.28504,-1.59811 1.32985,-0.63055 2.29164,-0.85687 3.63079,-0.85438 0.77216,0.001 1.0011,0.024 1.53317,0.15143 0.344,0.0824 0.83497,0.24115 1.09103,0.35285 0.37506,0.16362 0.4799,0.18874 0.53928,0.12918 0.0826,-0.0829 4.4441,-7.09566 4.5077,-7.24792 0.0525,-0.12558 -8.68597,-16.064593 -10.14732,-18.508868 -0.46439,-0.776737 -0.59879,-1.208758 -0.59735,-1.920105 7.9e-4,-0.389109 0.0427,-0.723823 0.12966,-1.03511 0.15679,-0.561379 0.69061,-1.577107 1.12861,-2.147469 l 0.32429,-0.422284 6.0037,9.651976 c 3.30203,5.308587 6.02549,9.65865 6.05213,9.666807 0.0266,0.0082 2.75663,-4.334277 6.06666,-9.649852 l 6.01822,-9.664682 0.28606,0.368251 c 1.1274,1.451354 1.57713,3.153533 1.13491,4.295469 -0.055,0.14191 -0.43477,0.84061 -0.84404,1.552666 -1.25471,2.18301 -3.67787,6.5553 -6.80785,12.283905 l -2.98796,5.468676 2.24519,3.61731 c 1.23485,1.98952 2.27846,3.65061 2.31913,3.69132 0.0597,0.0597 0.14719,0.0406 0.45352,-0.099 0.92706,-0.42253 2.28506,-0.63509 3.3564,-0.52535 1.10952,0.11365 1.90493,0.33635 2.94529,0.82459 0.84268,0.39548 1.50688,0.85706 2.32709,1.61722 3.52659,3.2684 3.89216,8.53848 0.78166,11.26843 -1.65094,1.44896 -3.70093,1.94137 -6.05229,1.45377 -2.69485,-0.55883 -5.12844,-2.51325 -6.34937,-5.09919 -0.36199,-0.7667 -0.52989,-1.34706 -0.8142,-2.81438 -0.59754,-3.08389 -1.17812,-5.03234 -2.07355,-6.95888 -0.49968,-1.07508 -1.23962,-2.27563 -1.81789,-2.94952 l -0.18704,-0.21798 -0.28689,0.36174 c -1.83394,2.31242 -3.13974,5.8131 -3.91817,10.50405 -0.0544,0.32795 -0.20943,0.89983 -0.34447,1.27084 -1.28133,3.52053 -4.57172,5.98189 -8.1124,6.06845 -0.41316,0.0101 -0.84979,0.007 -0.9703,-0.007 z m 2.00468,-3.79771 c 1.23277,-0.44358 2.30248,-1.35858 2.95206,-2.52509 0.49025,-0.8804 0.6956,-1.6217 0.69179,-2.49731 -0.008,-1.86767 -1.13884,-3.03942 -2.81539,-2.91759 -1.64227,0.11934 -3.40174,1.42592 -4.1549,3.08541 -0.35442,0.78092 -0.44067,1.13185 -0.4746,1.93116 -0.0366,0.86138 0.049,1.30931 0.3575,1.87065 0.49341,0.89791 1.23204,1.28415 2.37786,1.2434 0.47332,-0.0168 0.69081,-0.0557 1.06568,-0.19063 z m 25.56918,0.01 c 0.69386,-0.30606 1.20596,-0.93949 1.43981,-1.78094 0.12096,-0.43523 0.12349,-1.39535 0.005,-1.91259 -0.4562,-1.99226 -2.04412,-3.67617 -3.91595,-4.15267 -2.14896,-0.54706 -3.70169,0.93332 -3.43962,3.27933 0.21456,1.92073 1.55808,3.70555 3.3617,4.4659 0.55257,0.23294 0.92676,0.29975 1.58008,0.28211 0.50444,-0.0136 0.65149,-0.0411 0.96893,-0.18114 z"
       id="path1" /></g></svg>
