<?xml version="1.0" encoding="UTF-8" standalone="no"?>
<!-- Created with Inkscape (http://www.inkscape.org/) -->

<svg
   width="210mm"
   height="297mm"
   viewBox="0 0 210 297"
   version="1.1"
   id="svg1"
   xml:space="preserve"
   inkscape:version="1.4.2 (ebf0e940d0, 2025-05-08)"
   sodipodi:docname="eyes.svg"
   xmlns:inkscape="http://www.inkscape.org/namespaces/inkscape"
   xmlns:sodipodi="http://sodipodi.sourceforge.net/DTD/sodipodi-0.dtd"
   xmlns="http://www.w3.org/2000/svg"
   xmlns:svg="http://www.w3.org/2000/svg"><sodipodi:namedview
     id="namedview1"
     pagecolor="#ffffff"
     bordercolor="#000000"
     borderopacity="0.25"
     inkscape:showpageshadow="2"
     inkscape:pageopacity="0.0"
     inkscape:pagecheckerboard="0"
     inkscape:deskcolor="#d1d1d1"
     inkscape:document-units="mm"
     inkscape:zoom="1.6881664"
     inkscape:cx="-669.06912"
     inkscape:cy="1145.9179"
     inkscape:window-width="3840"
     inkscape:window-height="2124"
     inkscape:window-x="0"
     inkscape:window-y="0"
     inkscape:window-maximized="1"
     inkscape:current-layer="layer1" /><defs
     id="defs1" /><g
     inkscape:label="Layer 1"
     inkscape:groupmode="layer"
     id="layer1"><path
       style="fill:#000000"
       d="m 66.067316,284.41489 c -0.972979,-0.11106 -1.735044,-0.44369 -2.345201,-1.02363 -0.497434,-0.4728 -0.823693,-1.10342 -0.992143,-1.91769 -0.141466,-0.68384 -0.16721,-1.51026 -0.07159,-2.29812 0.09277,-0.76435 0.326615,-1.42151 0.685319,-1.9259 0.05255,-0.0739 0.09555,-0.13896 0.09555,-0.14459 0,-0.006 -0.078,-0.0102 -0.173323,-0.0103 -0.319594,-2e-5 -0.756795,-0.0537 -1.09234,-0.134 -0.720991,-0.17265 -1.38895,-0.55336 -1.84898,-1.05387 -0.513594,-0.55878 -0.828306,-1.33093 -0.940805,-2.30828 -0.0141,-0.12252 -0.02984,-0.4155 -0.03498,-0.65108 -0.02933,-1.34516 0.221558,-2.36005 0.764784,-3.09365 0.1108,-0.14963 0.385638,-0.42886 0.548151,-0.55692 0.512833,-0.40408 1.174447,-0.66491 1.939093,-0.76445 0.22172,-0.0289 0.575927,-0.0556 0.737181,-0.0557 l 0.116441,-3e-5 -0.118401,-0.16951 c -0.465293,-0.66612 -0.698256,-1.50467 -0.729408,-2.62551 -0.03177,-1.14324 0.157498,-2.0812 0.56632,-2.80646 0.170511,-0.30249 0.457624,-0.634 0.74564,-0.86094 0.273842,-0.21577 0.652502,-0.42123 1.010964,-0.54853 0.860651,-0.30565 2.105985,-0.35646 3.056377,-0.1247 0.793413,0.19348 1.521708,0.64493 1.973647,1.22342 0.05171,0.0662 0.09858,0.1201 0.104155,0.11981 0.0056,-2.9e-4 0.05004,-0.0579 0.09882,-0.12791 0.10095,-0.14502 0.355283,-0.40628 0.527741,-0.54212 0.274012,-0.21583 0.652566,-0.42122 1.010964,-0.5485 0.776284,-0.27569 1.889637,-0.34655 2.811677,-0.17897 0.848963,0.1543 1.599025,0.56709 2.124567,1.16923 0.06534,0.0749 0.121735,0.13775 0.125329,0.13975 0.0036,0.002 0.04081,-0.0403 0.08271,-0.094 0.298801,-0.38281 0.773103,-0.7355 1.273757,-0.94715 0.794001,-0.33565 1.913283,-0.44716 2.905958,-0.28951 0.821543,0.13048 1.480956,0.44191 2.033639,0.96044 0.36725,0.34456 0.593171,0.66837 0.781198,1.11969 0.234996,0.56405 0.343029,1.15689 0.360686,1.97927 0.02746,1.27911 -0.214926,2.29687 -0.715192,3.003 l -0.100167,0.14139 0.265558,0.0103 c 0.478131,0.0186 0.863757,0.0736 1.225045,0.1747 0.451464,0.12635 0.830665,0.30758 1.200022,0.57353 0.194987,0.14039 0.56147,0.49096 0.692297,0.66224 0.404935,0.53014 0.652584,1.21172 0.751249,2.0676 0.03481,0.30198 0.04856,1.02818 0.02538,1.34076 -0.06952,0.93758 -0.273436,1.64286 -0.639994,2.21356 -0.444854,0.69261 -1.137831,1.17678 -2.0301,1.41838 -0.367149,0.0994 -0.742675,0.14903 -1.21317,0.1603 l -0.358645,0.009 0.05674,0.0716 c 0.602261,0.76027 0.870622,1.7567 0.841052,3.12285 -0.0202,0.93344 -0.16804,1.63736 -0.471229,2.24378 -0.168517,0.33705 -0.338627,0.57266 -0.603807,0.8363 -0.579314,0.57596 -1.28595,0.89777 -2.257531,1.02812 -0.251895,0.0338 -1.000683,0.0474 -1.270221,0.0231 -0.582733,-0.0526 -1.054096,-0.17368 -1.511013,-0.38819 -0.47205,-0.22161 -0.898961,-0.54935 -1.200385,-0.92155 -0.04698,-0.058 -0.08745,-0.10342 -0.08995,-0.10093 -0.0025,0.002 -0.03918,0.05 -0.08152,0.10545 -0.100143,0.13124 -0.369236,0.39741 -0.522608,0.51691 -0.517159,0.40297 -1.167802,0.65604 -1.967018,0.76507 -0.286853,0.0391 -1.056827,0.0482 -1.35434,0.0159 -0.584254,-0.0634 -0.999619,-0.17549 -1.451078,-0.39157 -0.491908,-0.23545 -0.920865,-0.57323 -1.211414,-0.95392 -0.117123,-0.15345 -0.119072,-0.15509 -0.142926,-0.12003 -0.179398,0.26364 -0.522423,0.60821 -0.782952,0.78649 -0.567299,0.38819 -1.172858,0.59494 -1.986019,0.67805 -0.280199,0.0286 -0.972982,0.0278 -1.229557,-0.001 z m 1.230189,-0.81243 c 0.689684,-0.13487 1.145966,-0.48753 1.468898,-1.13529 0.211702,-0.42466 0.331742,-0.87281 0.40755,-1.52155 0.03968,-0.33954 0.03981,-1.31527 2.21e-4,-1.66408 -0.109607,-0.9658 -0.366315,-1.60958 -0.817116,-2.04918 -0.386398,-0.3768 -0.872415,-0.55886 -1.556141,-0.58291 -0.766938,-0.027 -1.363602,0.1651 -1.790459,0.57641 -0.446843,0.43057 -0.707661,1.13189 -0.800122,2.15145 -0.02661,0.2934 -0.02661,1.17162 -1.1e-5,1.45185 0.127844,1.34668 0.565142,2.20074 1.317166,2.57247 0.177335,0.0877 0.323005,0.13846 0.523702,0.18261 0.243334,0.0535 0.340465,0.0612 0.717478,0.0566 0.288569,-0.004 0.387175,-0.0107 0.528834,-0.0384 z m -0.891604,-2.57287 c -0.221128,-0.0566 -0.425679,-0.18704 -0.507601,-0.32376 -0.08361,-0.13953 -0.108791,-0.26029 -0.116738,-0.55989 -0.0083,-0.3122 0.0092,-0.43409 0.08595,-0.59876 0.133265,-0.28599 0.62479,-0.46524 1.04217,-0.38005 0.22358,0.0456 0.459041,0.19381 0.556927,0.35048 0.100812,0.16136 0.124372,0.26885 0.124108,0.56622 -2.55e-4,0.28806 -0.01751,0.38253 -0.100115,0.54803 -0.08639,0.17308 -0.316489,0.3413 -0.545418,0.39872 -0.12092,0.0303 -0.418971,0.0298 -0.53928,-9.9e-4 z m 7.663304,2.57287 c 0.561283,-0.10976 0.970208,-0.36595 1.267582,-0.79411 0.335214,-0.48265 0.523412,-1.07435 0.61716,-1.94037 0.0323,-0.29836 0.02708,-1.27838 -0.0084,-1.58384 -0.114287,-0.98301 -0.365169,-1.61372 -0.81615,-2.05178 -0.388416,-0.37729 -0.873352,-0.55887 -1.556743,-0.58291 -0.766938,-0.027 -1.363602,0.1651 -1.790459,0.57641 -0.352372,0.33954 -0.589778,0.84712 -0.715766,1.53033 -0.133897,0.7261 -0.146573,1.72345 -0.03168,2.49222 0.04487,0.30024 0.101043,0.5344 0.192935,0.80429 0.295153,0.86686 0.806811,1.35809 1.595244,1.53154 0.243334,0.0535 0.340465,0.0612 0.717478,0.0566 0.288569,-0.004 0.387175,-0.0107 0.528834,-0.0384 z m -0.891604,-2.57254 c -0.04877,-0.0123 -0.14779,-0.0502 -0.22004,-0.0843 -0.300744,-0.14193 -0.410226,-0.36985 -0.410226,-0.85399 0,-0.48738 0.102121,-0.68772 0.427364,-0.83837 0.347198,-0.16082 0.748439,-0.13959 1.044559,0.0553 0.26214,0.1725 0.341546,0.35456 0.341546,0.7831 0,0.27248 -0.02247,0.38992 -0.104571,0.54656 -0.09285,0.17714 -0.309493,0.33477 -0.539352,0.39243 -0.120062,0.0301 -0.418613,0.0298 -0.53928,-6.6e-4 z m 7.504582,2.57958 c 0.765682,-0.13952 1.272785,-0.56473 1.593613,-1.33625 0.242158,-0.58234 0.349939,-1.24711 0.349939,-2.15837 0,-1.18345 -0.183293,-1.97952 -0.594288,-2.58109 -0.401972,-0.58837 -1.054847,-0.88938 -1.928976,-0.88938 -0.862734,0 -1.520021,0.2938 -1.908145,0.85293 -0.358142,0.51594 -0.535564,1.19848 -0.584219,2.24747 -0.05008,1.07971 0.09957,2.0347 0.421079,2.6871 0.255277,0.51801 0.577551,0.83576 1.044151,1.02949 0.170395,0.0707 0.389018,0.12961 0.599872,0.16149 0.209056,0.0316 0.803352,0.0237 1.006974,-0.0134 z m -0.894113,-2.59153 c -0.248659,-0.0713 -0.402972,-0.18329 -0.491618,-0.35675 -0.08098,-0.15844 -0.108198,-0.30141 -0.108464,-0.56963 -4.76e-4,-0.48095 0.106236,-0.68882 0.430639,-0.83884 0.393028,-0.18176 0.848422,-0.12939 1.148422,0.13207 0.175324,0.1528 0.246376,0.35663 0.246376,0.70677 0,0.34894 -0.08132,0.57992 -0.258552,0.73438 -0.10874,0.0948 -0.250696,0.16835 -0.394346,0.20438 -0.146519,0.0367 -0.421903,0.0308 -0.572457,-0.0124 z m -15.751022,-4.76016 c 0.697619,-0.14547 1.123788,-0.47122 1.454592,-1.11184 0.230108,-0.44562 0.361735,-0.94525 0.433627,-1.64595 0.03148,-0.30682 0.0265,-1.24199 -0.0082,-1.54503 -0.07115,-0.62089 -0.183846,-1.05401 -0.375459,-1.44294 -0.391992,-0.79566 -1.02105,-1.17284 -2.013659,-1.20738 -0.8895,-0.0309 -1.564711,0.24368 -1.99212,0.81027 -0.106264,0.14087 -0.27284,0.46858 -0.343345,0.67547 -0.175646,0.51541 -0.24982,1.02447 -0.263584,1.80899 -0.01709,0.97417 0.08836,1.69715 0.334239,2.29153 0.343705,0.83087 0.877597,1.25875 1.732748,1.38871 0.22203,0.0337 0.836471,0.0209 1.041182,-0.0218 z m -0.879951,-2.57054 c -0.289284,-0.0708 -0.472494,-0.20615 -0.563757,-0.41651 -0.0702,-0.1618 -0.10346,-0.49341 -0.07347,-0.73242 0.03726,-0.29692 0.111928,-0.44599 0.277703,-0.55441 0.210357,-0.13758 0.429572,-0.19404 0.697448,-0.17964 0.199852,0.0108 0.325504,0.0504 0.484528,0.15281 0.250215,0.16118 0.334349,0.32768 0.35595,0.70441 0.01613,0.28128 -0.03892,0.53613 -0.153343,0.70989 -0.08493,0.12897 -0.300901,0.26611 -0.496275,0.31512 -0.112672,0.0283 -0.41461,0.0287 -0.528786,7.5e-4 z m 7.619815,2.57163 c 0.436695,-0.0879 0.746828,-0.24147 1.023149,-0.50681 0.385154,-0.36985 0.670003,-0.99535 0.79698,-1.7501 0.108698,-0.6461 0.12472,-1.54158 0.03945,-2.2049 -0.113109,-0.8799 -0.36923,-1.49394 -0.796432,-1.9094 -0.390104,-0.37939 -0.873773,-0.5587 -1.572678,-0.58302 -0.638866,-0.0222 -1.179216,0.11586 -1.574163,0.40229 -0.568768,0.41249 -0.87969,1.12338 -1.000207,2.28685 -0.02823,0.27258 -0.02831,1.26921 -1.19e-4,1.53726 0.0902,0.85761 0.282665,1.45917 0.620825,1.94041 0.08011,0.11401 0.294774,0.33143 0.413909,0.41924 0.262598,0.19354 0.614502,0.33006 0.999632,0.38782 0.227167,0.0341 0.839662,0.0226 1.049653,-0.0196 z m -0.888422,-2.57313 c -0.145014,-0.0385 -0.316372,-0.12468 -0.402896,-0.20262 -0.167207,-0.15063 -0.231445,-0.35696 -0.231633,-0.744 -1.72e-4,-0.35211 0.04722,-0.52394 0.183866,-0.66672 0.0872,-0.0911 0.215579,-0.16592 0.378263,-0.22042 0.115604,-0.0387 0.151176,-0.0432 0.346492,-0.0438 0.261106,-8.2e-4 0.368692,0.028 0.556867,0.14923 0.18794,0.12106 0.265963,0.22478 0.32526,0.43238 0.04019,0.14073 0.04044,0.56972 4.07e-4,0.71102 -0.06215,0.21936 -0.153513,0.34598 -0.330774,0.45839 -0.181258,0.11495 -0.268125,0.1392 -0.519514,0.14506 -0.158609,0.004 -0.24172,-0.001 -0.306338,-0.0185 z m 7.537547,2.5711 c 0.445197,-0.0928 0.740254,-0.23928 1.016739,-0.50478 0.467572,-0.44899 0.760009,-1.21085 0.864446,-2.25207 0.02735,-0.27265 0.02711,-1.18063 -3.77e-4,-1.45962 -0.101101,-1.02607 -0.359745,-1.70188 -0.823881,-2.15271 -0.30207,-0.29342 -0.647912,-0.46023 -1.129154,-0.54465 -0.248207,-0.0435 -0.830306,-0.0481 -1.064643,-0.008 -0.584419,0.0991 -1.017847,0.34015 -1.331974,0.74065 -0.18491,0.23575 -0.370995,0.64387 -0.473684,1.03887 -0.215294,0.82816 -0.233326,2.22416 -0.04011,3.10549 0.264138,1.20484 0.851298,1.86416 1.813334,2.0362 0.252763,0.0452 0.238713,0.0443 0.637244,0.0393 0.306873,-0.004 0.398639,-0.0105 0.532062,-0.0383 z m -0.894832,-2.57085 c -0.129651,-0.034 -0.305805,-0.12138 -0.391761,-0.19425 -0.09568,-0.0811 -0.180746,-0.24469 -0.213733,-0.41101 -0.03268,-0.16476 -0.03264,-0.52551 7.5e-5,-0.67717 0.05352,-0.24814 0.162127,-0.38187 0.403013,-0.49623 0.316333,-0.15018 0.709179,-0.1421 0.994365,0.0205 0.192338,0.10963 0.305289,0.25287 0.364262,0.46195 0.04044,0.14338 0.03944,0.57052 -0.0017,0.71429 -0.06314,0.22081 -0.150951,0.3424 -0.328701,0.45512 -0.181257,0.11495 -0.268125,0.1392 -0.519513,0.14506 -0.157382,0.004 -0.242221,-10e-4 -0.306339,-0.0182 z m 7.534319,2.5718 c 0.68104,-0.13332 1.127323,-0.47045 1.451265,-1.09632 0.2537,-0.49016 0.391167,-1.05284 0.44765,-1.83229 0.02407,-0.33215 0.01067,-1.12929 -0.02402,-1.42856 -0.173868,-1.50024 -0.762335,-2.3148 -1.832278,-2.53627 -0.461414,-0.0955 -1.051983,-0.0808 -1.47483,0.0367 -0.934246,0.25961 -1.441557,0.99128 -1.61887,2.33483 -0.09596,0.72714 -0.07682,1.65895 0.0482,2.34642 0.13654,0.7508 0.443666,1.37561 0.843327,1.71564 0.306613,0.26086 0.649732,0.40827 1.121688,0.48189 0.219858,0.0343 0.814633,0.0217 1.037865,-0.022 z m -0.891604,-2.57265 c -0.127771,-0.0323 -0.304885,-0.11975 -0.391761,-0.1934 -0.09253,-0.0784 -0.17902,-0.24086 -0.214731,-0.40324 -0.03481,-0.15828 -0.03487,-0.52719 -1.18e-4,-0.68323 0.05608,-0.25174 0.166851,-0.38822 0.405072,-0.49906 0.29861,-0.13892 0.637565,-0.14394 0.919016,-0.0136 0.344613,0.15959 0.475631,0.39547 0.475631,0.85629 0,0.3464 -0.08176,0.57828 -0.258077,0.73194 -0.110182,0.096 -0.253668,0.17071 -0.394265,0.20519 -0.122168,0.03 -0.420697,0.0295 -0.540767,-9e-4 z m -15.929401,-4.70109 c 0.460523,-0.0833 0.786889,-0.23986 1.072953,-0.51455 0.61055,-0.58629 0.9245,-1.70844 0.888561,-3.17598 -0.01052,-0.42949 -0.02763,-0.64381 -0.07605,-0.95255 -0.11824,-0.754 -0.364498,-1.32193 -0.740544,-1.70786 -0.293817,-0.30154 -0.676324,-0.49179 -1.169327,-0.58158 -0.209502,-0.0382 -0.873616,-0.0374 -1.084049,0.001 -0.35002,0.0643 -0.702514,0.20393 -0.923787,0.36599 -0.574906,0.42105 -0.8902,1.14707 -1.002312,2.30798 -0.02771,0.2869 -0.02733,1.23727 6.02e-4,1.5062 0.04393,0.423 0.117862,0.80745 0.211709,1.10089 0.321994,1.00678 0.896376,1.52443 1.845579,1.66331 0.198158,0.029 0.787792,0.0211 0.97666,-0.0131 z m -0.838618,-2.58053 c -0.04877,-0.0128 -0.147791,-0.0511 -0.22004,-0.0852 -0.301694,-0.14238 -0.412184,-0.37335 -0.412244,-0.86175 -5.9e-5,-0.47415 0.107556,-0.68547 0.424967,-0.8345 0.180526,-0.0847 0.316244,-0.11043 0.533273,-0.10088 0.220758,0.01 0.336233,0.0449 0.505851,0.15416 0.242841,0.15643 0.335556,0.33988 0.355576,0.70358 0.02349,0.42684 -0.09112,0.71621 -0.351139,0.88653 -0.181297,0.11876 -0.285592,0.14895 -0.537967,0.15569 -0.151399,0.004 -0.234224,-8.4e-4 -0.298277,-0.0176 z m 7.610318,2.58053 c 0.460523,-0.0833 0.786889,-0.23986 1.072953,-0.51455 0.467572,-0.44899 0.760009,-1.21086 0.864446,-2.25208 0.02735,-0.27264 0.02711,-1.18062 -3.77e-4,-1.45961 -0.101981,-1.03501 -0.358341,-1.7008 -0.831893,-2.1605 -0.299249,-0.2905 -0.644899,-0.45751 -1.129531,-0.54578 -0.209502,-0.0382 -0.873616,-0.0374 -1.084048,0.001 -0.32958,0.0605 -0.634748,0.17498 -0.860854,0.32285 -0.148638,0.0972 -0.366152,0.30536 -0.479561,0.45891 -0.191797,0.25968 -0.363427,0.6624 -0.45899,1.077 -0.213442,0.926 -0.203256,2.3337 0.0232,3.2065 0.295513,1.13895 0.896837,1.73117 1.907994,1.87911 0.198158,0.029 0.787792,0.0211 0.97666,-0.0131 z m -0.838618,-2.58139 c -0.09634,-0.0243 -0.326188,-0.12942 -0.380311,-0.17396 -0.06986,-0.0575 -0.149724,-0.17608 -0.182203,-0.27054 -0.05408,-0.15727 -0.06736,-0.25458 -0.06756,-0.49496 -2.12e-4,-0.25297 0.02802,-0.42247 0.09213,-0.55307 0.0783,-0.1595 0.311992,-0.31239 0.566404,-0.37054 0.180279,-0.0412 0.439743,-0.0259 0.603424,0.0356 0.134132,0.0504 0.305898,0.15977 0.374835,0.23868 0.06302,0.0721 0.118596,0.18552 0.149393,0.30482 0.03798,0.14713 0.03771,0.54514 -4.77e-4,0.69325 -0.03846,0.14915 -0.129147,0.30791 -0.22164,0.388 -0.09501,0.0823 -0.268708,0.17177 -0.394711,0.20338 -0.120062,0.0301 -0.418613,0.0298 -0.53928,-6.6e-4 z m 7.534319,2.57225 c 0.680228,-0.13191 1.126831,-0.46918 1.451265,-1.09601 0.2537,-0.49016 0.391168,-1.05283 0.44765,-1.83228 0.02393,-0.33018 0.01069,-1.12964 -0.02356,-1.42318 -0.08897,-0.76255 -0.261607,-1.29052 -0.565324,-1.72896 -0.339952,-0.49075 -0.809835,-0.76241 -1.476582,-0.85367 -0.197097,-0.027 -0.64165,-0.0309 -0.838339,-0.007 -1.091559,0.13062 -1.717968,0.75681 -1.971888,1.97121 -0.203851,0.97495 -0.178117,2.2942 0.062,3.17845 0.277371,1.02144 0.847321,1.61427 1.714265,1.78308 0.229825,0.0448 0.332272,0.0519 0.679739,0.0472 0.277351,-0.004 0.381454,-0.0115 0.520772,-0.0385 z m -0.891604,-2.57233 c -0.127771,-0.0323 -0.304885,-0.11976 -0.391761,-0.1934 -0.09253,-0.0784 -0.17902,-0.24087 -0.214731,-0.40324 -0.03481,-0.15828 -0.03487,-0.5272 -1.18e-4,-0.68323 0.0655,-0.29405 0.213322,-0.44342 0.556761,-0.56259 0.128018,-0.0444 0.424515,-0.0556 0.566204,-0.0213 0.252797,0.0611 0.492121,0.22765 0.578344,0.40241 0.06711,0.13601 0.09841,0.30241 0.09841,0.52313 0,0.23059 -0.03155,0.39126 -0.105782,0.53863 -0.09509,0.18879 -0.301896,0.34032 -0.54656,0.40047 -0.122123,0.03 -0.420552,0.0296 -0.540767,-8.4e-4 z"
       id="path1"
       inkscape:transform-center-x="31.815831"
       inkscape:transform-center-y="-22.412137" /></g></svg>
