<?xml version="1.0" encoding="UTF-8" standalone="no"?>
<!-- Created with Inkscape (http://www.inkscape.org/) -->

<svg
   width="210mm"
   height="297mm"
   viewBox="0 0 210 297"
   version="1.1"
   id="svg1"
   xml:space="preserve"
   inkscape:version="1.4.2 (ebf0e940d0, 2025-05-08)"
   sodipodi:docname="heater.svg"
   xmlns:inkscape="http://www.inkscape.org/namespaces/inkscape"
   xmlns:sodipodi="http://sodipodi.sourceforge.net/DTD/sodipodi-0.dtd"
   xmlns="http://www.w3.org/2000/svg"
   xmlns:svg="http://www.w3.org/2000/svg"><sodipodi:namedview
     id="namedview1"
     pagecolor="#ffffff"
     bordercolor="#000000"
     borderopacity="0.25"
     inkscape:showpageshadow="2"
     inkscape:pageopacity="0.0"
     inkscape:pagecheckerboard="0"
     inkscape:deskcolor="#d1d1d1"
     inkscape:document-units="mm"
     inkscape:zoom="3.3763328"
     inkscape:cx="463.37257"
     inkscape:cy="222.87495"
     inkscape:window-width="3840"
     inkscape:window-height="2124"
     inkscape:window-x="0"
     inkscape:window-y="0"
     inkscape:window-maximized="1"
     inkscape:current-layer="layer1" /><defs
     id="defs1" /><g
     inkscape:label="Layer 1"
     inkscape:groupmode="layer"
     id="layer1"><path
       style="fill:#000000"
       d="m 141.15383,143.29781 c 0.0256,-0.021 0.68868,-0.29484 1.4735,-0.60849 4.58477,-1.83231 7.74809,-3.69844 10.24828,-6.04575 0.96864,-0.9094 1.51818,-1.53145 2.18873,-2.47754 1.57601,-2.22359 2.44939,-4.62447 2.80238,-7.70364 0.10616,-0.92605 0.16079,-2.71282 0.0829,-2.71282 -0.0715,0 -0.2389,0.2214 -0.66493,0.87961 -0.17897,0.2765 -0.53443,0.77278 -0.78991,1.10284 -2.07573,2.68167 -4.35525,4.27064 -6.63103,4.62226 -0.67648,0.10451 -1.80657,0.0712 -2.41129,-0.0711 -1.76237,-0.41472 -2.82641,-1.57743 -3.41905,-3.73612 -0.31312,-1.14052 -0.4627,-2.16287 -1.02399,-6.99875 -0.40813,-3.51626 -0.76203,-5.34609 -1.50439,-7.77835 -1.53038,-5.01415 -4.10133,-8.99305 -8.08015,-12.505209 -0.87627,-0.773492 -1.94992,-1.63705 -2.335,-1.878087 -0.22228,-0.139134 -0.23567,-0.141797 -0.25083,-0.04991 -0.009,0.05339 0.19025,0.546261 0.44236,1.095269 0.80936,1.762527 1.23757,2.820037 1.81371,4.479247 2.14299,6.17145 2.51767,11.98432 1.06772,16.56502 -0.37622,1.18857 -1.11835,2.76506 -1.72912,3.67311 -1.60837,2.39123 -3.6767,3.92638 -6.12504,4.54611 -0.59117,0.14964 -0.6199,0.15213 -1.79837,0.15569 -1.35788,0.004 -1.78771,-0.0495 -2.70099,-0.33694 -1.46515,-0.46111 -2.69712,-1.21353 -3.90673,-2.38602 -1.73584,-1.68256 -2.82815,-3.58198 -3.8634,-6.71808 -0.12818,-0.3883 -0.25915,-0.7212 -0.29104,-0.73977 -0.0431,-0.0251 -0.0498,0.31034 -0.0261,1.30619 0.12339,5.1873 1.27236,9.49582 3.5392,13.27157 2.43315,4.05278 6.39064,7.52166 11.70824,10.26269 0.53255,0.27451 0.99121,0.52193 1.01924,0.54982 0.20257,0.20155 -3.83499,-0.6592 -6.01188,-1.28165 -3.03399,-0.86753 -6.27247,-2.17935 -8.53776,-3.45842 -6.41927,-3.62456 -10.70494,-8.51003 -12.88741,-14.69105 -0.78455,-2.22194 -1.12994,-3.82773 -1.46651,-6.81806 -0.19413,-1.72484 -0.19489,-3.18647 -0.003,-5.30561 0.16191,-1.78555 0.24077,-2.41552 0.4478,-3.57708 0.60454,-3.39185 1.7578,-6.68005 3.33808,-9.517591 0.55018,-0.98792 1.61609,-2.654089 1.69791,-2.654089 0.0196,0 0.0752,0.696811 0.12353,1.548468 0.0483,0.851658 0.12252,1.872567 0.16485,2.268687 0.49937,4.672155 1.85644,7.202585 4.42242,8.246185 1.00101,0.4071 1.75878,0.53366 3.21927,0.53766 1.07986,0.003 1.44317,-0.0485 2.35196,-0.33337 1.12592,-0.35288 2.0068,-0.87664 2.89784,-1.72303 1.28544,-1.22103 1.84806,-2.40285 2.01789,-4.23875 0.11099,-1.19975 -0.1159,-2.841239 -0.85067,-6.154494 -1.49481,-6.740403 -1.85582,-9.240389 -1.8559,-12.85202 -6e-5,-2.822238 0.25386,-4.791437 0.9196,-7.131448 0.76166,-2.677184 2.02817,-5.103463 3.8712,-7.416136 1.94534,-2.441052 4.68554,-4.736676 7.74581,-6.489104 0.52516,-0.300727 0.76443,-0.421503 0.76443,-0.38586 0,0.0067 -0.26205,0.746006 -0.58232,1.642991 -1.41936,3.975142 -2.20859,7.184248 -2.57976,10.489565 -0.17176,1.529595 -0.14268,4.968699 0.053,6.265896 0.48797,3.235153 1.49112,5.749168 3.15162,7.898391 1.45496,1.883187 3.05757,3.129051 5.28511,4.108632 3.01575,1.3262 6.6539,1.353721 9.47501,0.07167 2.23762,-1.016882 4.00232,-2.94124 4.93425,-5.380671 0.59009,-1.544611 1.00462,-3.726809 1.00462,-5.288571 0,-0.33462 0.0154,-0.425158 0.0721,-0.425158 0.12497,0 0.90384,0.901868 1.61718,1.872567 1.5858,2.157927 2.7141,4.879828 3.04939,7.356285 0.1,0.738368 0.15532,2.582211 0.10322,3.438119 -0.14146,2.324047 -0.52498,3.897013 -2.37278,9.731806 -0.63499,2.0051 -0.96117,3.24775 -1.17307,4.469 -0.13026,0.75075 -0.15991,2.80795 -0.0496,3.43923 0.28362,1.62256 1.34162,3.22658 2.77693,4.21006 0.76017,0.52088 1.92408,1.0185 2.8819,1.23215 0.22268,0.0497 0.65892,0.0681 1.6053,0.0679 1.0855,-2.8e-4 1.37088,-0.0152 1.73271,-0.0909 2.74204,-0.57337 4.59504,-2.48456 5.53208,-5.70579 0.57227,-1.96727 0.87734,-4.35015 0.95426,-7.45357 0.007,-0.26804 0.0323,-0.45462 0.0623,-0.45246 0.15771,0.0114 1.10189,2.08796 1.57633,3.46688 0.88211,2.56379 1.50778,5.62888 1.76041,8.62408 0.23344,2.7676 -0.23724,6.17472 -1.24798,9.03376 -2.10034,5.94116 -6.76554,11.09938 -13.14148,14.5303 -3.83808,2.06529 -7.92936,3.40891 -12.31333,4.04384 -1.21808,0.17642 -2.98842,0.35452 -4.10244,0.41273 -0.53255,0.0278 -1.04656,0.0602 -1.14224,0.072 -0.0957,0.0118 -0.15302,0.004 -0.12741,-0.0168 z"
       id="path1" /></g></svg>
