<?xml version="1.0" encoding="UTF-8" standalone="no"?>
<!-- Created with Inkscape (http://www.inkscape.org/) -->

<svg
   width="210mm"
   height="297mm"
   viewBox="0 0 210 297"
   version="1.1"
   id="svg1"
   xml:space="preserve"
   inkscape:version="1.4.2 (ebf0e940d0, 2025-05-08)"
   sodipodi:docname="QRcode.svg"
   xmlns:inkscape="http://www.inkscape.org/namespaces/inkscape"
   xmlns:sodipodi="http://sodipodi.sourceforge.net/DTD/sodipodi-0.dtd"
   xmlns="http://www.w3.org/2000/svg"
   xmlns:svg="http://www.w3.org/2000/svg"><sodipodi:namedview
     id="namedview1"
     pagecolor="#ffffff"
     bordercolor="#000000"
     borderopacity="0.25"
     inkscape:showpageshadow="2"
     inkscape:pageopacity="0.0"
     inkscape:pagecheckerboard="0"
     inkscape:deskcolor="#d1d1d1"
     inkscape:document-units="mm"
     inkscape:zoom="0.84408319"
     inkscape:cx="-409.31984"
     inkscape:cy="436.56834"
     inkscape:window-width="3840"
     inkscape:window-height="2124"
     inkscape:window-x="0"
     inkscape:window-y="0"
     inkscape:window-maximized="1"
     inkscape:current-layer="layer1" /><defs
     id="defs1" /><g
     inkscape:label="Layer 1"
     inkscape:groupmode="layer"
     id="layer1"><path
       style="fill:#000000"
       d="m 11.719607,223.01297 v -16.13959 h 16.00729 16.0073 v 16.13959 16.13958 h -16.0073 -16.00729 z m 27.51667,-0.13511 v -11.51218 l -11.44323,0.069 -11.44323,0.069 -0.069,11.44323 -0.069,11.44323 h 11.51218 11.51219 z m -18.52083,0.13511 v -6.87917 h 7.01145 7.01146 v 6.87917 6.87916 h -7.01146 -7.01145 z m 32.27916,13.75833 v -2.38125 h 2.38125 2.38125 v 2.38125 2.38125 h -2.38125 -2.38125 z m 18.25625,0 v -2.38125 h 2.38125 2.38125 v 2.38125 2.38125 h -2.38125 -2.38125 z m 18.52083,-4.49792 v -6.87916 h 2.24896 2.24896 v -11.50938 -11.50937 h 4.63021 4.630213 v -2.24896 -2.24896 H 92.152937 80.775857 v 2.24896 2.24896 h 4.49792 4.49791 v 2.38125 2.38125 h -2.24895 -2.24896 v 2.24895 2.24896 h 2.24896 2.24895 v 2.24896 2.24896 h -2.24895 -2.24896 v 7.01146 7.01146 h -4.63021 -4.63021 v -2.38125 -2.38125 h -2.24896 -2.24896 v 2.38125 2.38125 h -4.6302 -4.63021 v -2.38125 -2.38125 h 4.49791 4.49792 v -2.38125 -2.38125 h 2.38125 2.38125 v -2.24896 -2.24896 h -6.87917 -6.87916 v 2.38125 2.38125 h -4.49792 -4.49791 v 2.24896 2.24896 h 2.24895 2.24896 v 2.38125 2.38125 h -4.63021 -4.6302 v -7.01146 -7.01146 h 4.49791 4.49792 v -2.24896 -2.24896 h 4.63021 4.6302 v -6.87916 -6.87917 h -2.24895 -2.24896 v 4.63021 4.63021 h -6.87917 -6.87916 v -2.38125 -2.38125 h 2.24895 2.24896 v -2.24896 -2.24896 h -2.24896 -2.24895 v -4.63021 -4.63021 h 2.38125 2.38125 v 2.24896 2.24896 h 2.11666 2.11667 v -2.24896 -2.24896 h 2.38125 2.38125 v -2.24896 -2.24895 h -2.38125 -2.38125 v -2.24896 -2.24896 h -2.11667 -2.11666 v 2.24896 2.24896 h -7.01146 -7.01146 v -2.24896 -2.24896 h -4.49792 -4.49791 v 2.24896 2.24896 h -6.87917 -6.87917 v 9.12812 9.12813 h -2.38125 -2.38125 v -11.50938 -11.50937 h 2.24896 2.24896 v -4.49792 -4.49792 h -2.24896 -2.24896 v -2.38125 -2.38125 h 2.24896 2.24896 v -2.24896 -2.24895 h -2.24896 -2.24896 v -4.63021 -4.63021 h 2.38125 2.38125 v 4.63021 4.63021 h 4.49792 4.49792 v -2.38125 -2.38125 h 2.24895 2.24896 v -4.49792 -4.49792 h -2.24896 -2.24895 v -2.24896 -2.24896 h -2.24896 -2.24896 v 2.24896 2.24896 h -4.63021 -4.63021 v -2.38125 -2.38125 h 2.24896 2.24896 v -2.24896 -2.24896 h -2.24896 -2.24896 v -9.26042 -9.26041 h 4.49792 4.49792 v -2.24896 -2.24896 h -4.49792 -4.49792 v -2.24896 -2.24896 h 2.24896 2.24896 v -2.24896 -2.24895 h -2.24896 -2.24896 v -2.38125 -2.38125 h 2.24896 2.24896 v -4.630209 -4.63021 h 2.24896 2.24896 v -2.24896 -2.24896 h 7.01145 7.01146 v 2.24896 2.24896 h 2.24896 2.24896 v -2.24896 -2.24896 h 2.38125 2.38125 v 2.24896 2.24896 h 2.24896 2.24896 v -9.128126 -9.128126 h 2.38125 2.38125 v 4.497917 4.497917 h 2.11666 2.11667 v -2.248958 -2.248959 h 2.38125 2.38125 v 2.248959 2.248958 h 2.24896 2.24895 v -4.497917 -4.497917 h -2.24895 -2.24896 v -2.248958 -2.248958 h -4.63021 -4.63021 v -2.38125 -2.38125 h -2.24896 -2.24895 v -6.879167 -6.879167 h 2.38125 2.38125 v 4.630208 4.630209 h 2.11666 2.11667 v -4.630209 -4.630208 h 4.7625 4.7625 v 2.248958 2.248959 h 2.11666 2.11667 v -2.248959 -2.248958 h 4.7625 4.7625 v 2.38125 2.38125 h -4.63021 -4.63021 v 2.248958 2.248959 h 2.24896 2.24896 v 2.248958 2.248959 h -6.87917 -6.87916 v 2.248958 2.248958 h 2.38125 2.38125 v 2.38125 2.38125 h 2.11666 2.11667 v -2.38125 -2.38125 h 2.38125 2.38125 v 2.38125 2.38125 h 2.24896 2.24896 v -2.38125 -2.38125 h 2.38125 2.38125 v -9.128125 -9.128125 h 13.75833 13.758333 v 2.38125 2.38125 h -2.24895 -2.24896 v 2.248958 2.248959 h 2.24896 2.24895 v 2.248958 2.248959 h 4.49792 4.49792 v -2.248959 -2.248958 h 2.38125 2.38125 v 4.497917 4.497916 h 4.63021 4.63021 v -2.248958 -2.248958 h -2.38125 -2.38125 v -2.248959 -2.248958 h 2.38125 2.38125 v -2.248959 -2.248958 h -2.38125 -2.38125 v -2.38125 -2.38125 h 2.38125 2.38125 v 2.248958 2.248959 h 2.24895 2.24896 v -2.248959 -2.248958 h 11.50938 11.50937 v 2.38125 2.38125 h -6.87916 -6.87917 v 2.248958 2.248959 h 2.38125 2.38125 v 2.248958 2.248959 h -4.7625 -4.7625 v -4.497917 -4.497917 h -2.24896 -2.24896 v 2.248958 2.248959 h -2.24896 -2.24895 v 2.248958 2.248959 h 2.24895 2.24896 v 2.38125 2.38125 h -2.24896 -2.24895 v 2.248958 2.248958 h 6.87916 6.87917 v -2.38125 -2.38125 h 6.87917 6.87916 v 9.260417 9.260415 h 6.87917 6.87916 v 2.24896 2.24896 h 2.38125 2.38125 v 4.63021 4.630209 h 2.24896 2.24896 v 2.24895 2.24896 h 4.49792 4.49791 v -2.24896 -2.24895 h 2.38125 2.38125 v 2.38125 2.38125 h -2.24895 -2.24896 v 2.24895 2.24896 h 2.24896 2.24895 v 2.24896 2.24896 h -2.38125 -2.38125 v -2.24896 -2.24896 h -6.74687 -6.74688 v 2.24896 2.24896 h 4.49792 4.49792 v 2.38125 2.38125 h -2.24896 -2.24896 v 2.24896 2.24896 h 4.49792 4.49791 v -2.38125 -2.38125 h 2.38125 2.38125 v 2.38125 2.38125 h -2.24895 -2.24896 v 2.24895 2.24896 h 2.24896 2.24895 v 2.38125 2.38125 h -4.6302 -4.63021 v -2.24895 -2.24896 h -2.24896 -2.24896 v -2.38125 -2.38125 h -2.38125 -2.38125 v -4.63021 -4.63021 h -2.24896 -2.24896 v 6.87917 6.87916 h 2.38125 2.38125 v 4.63021 4.63021 h 2.24896 2.24896 v 2.24896 2.24896 h 2.24896 2.24896 v -2.24896 -2.24896 h 4.63021 4.6302 v 6.87917 6.87917 h -4.6302 -4.63021 v 2.24896 2.24896 h 4.63021 4.6302 v 7.01145 7.01146 h -4.6302 -4.63021 v -2.38125 -2.38125 h 2.24896 2.24895 v -2.24896 -2.24895 h -2.24895 -2.24896 v -2.24896 -2.24896 h -2.24896 -2.24896 v -2.38125 -2.38125 h 2.24896 2.24896 v -2.24896 -2.24896 h -2.24896 -2.24896 v -2.24896 -2.24896 h -2.24896 -2.24896 v 9.12813 9.12813 h -2.38125 -2.38125 v -2.24896 -2.24896 h -2.24895 -2.24896 v 2.24896 2.24896 h -9.26042 -9.26041 v -2.24896 -2.24896 h -2.24896 -2.24896 v -2.38125 -2.38125 h -2.24896 -2.24896 v 2.38125 2.38125 h -4.63021 -4.6302 v -2.38125 -2.38125 h 2.24895 2.24896 v -2.24896 -2.24896 h -2.24896 -2.24895 v -2.24896 -2.24896 h -6.87917 -6.87917 v 2.11667 2.11667 h 4.63021 4.63021 v 13.89062 13.89063 h -2.38125 -2.38125 v -4.63021 -4.63021 h -2.24896 -2.24896 v 4.63021 4.63021 h -4.63021 -4.63021 v 4.49792 4.49791 h 2.38125 2.38125 v 2.38125 2.38125 h -2.38125 -2.38125 v 2.24896 2.24896 h 2.38125 2.38125 v 2.38125 2.38125 h -2.38125 -2.38125 v 2.24896 2.24896 h 2.38125 2.38125 v 4.6302 4.63021 h -2.38125 -2.38125 v -2.24896 -2.24895 h -6.87916 -6.879173 v 2.24895 2.24896 h 4.630213 4.63021 v 2.24896 2.24896 h 2.24896 2.24895 v 2.24896 2.24896 h 2.24896 2.24896 v -2.24896 -2.24896 h 9.26042 9.26042 v -2.24896 -2.24896 h -2.38125 -2.38125 v -2.38125 -2.38125 h 4.6302 4.63021 v -2.24896 -2.24895 h -6.87916 -6.87917 v 4.6302 4.63021 h -2.38125 -2.38125 v -4.63021 -4.6302 h 2.38125 2.38125 v -2.38125 -2.38125 h 4.63021 4.63021 v -4.49792 -4.49792 h -2.38125 -2.38125 v -2.38125 -2.38125 h 4.6302 4.63021 v -2.11666 -2.11667 h -2.24896 -2.24895 v -4.7625 -4.7625 h 2.24895 2.24896 v -2.24896 -2.24896 h -2.24896 -2.24895 v -2.24896 -2.24895 h 6.87916 6.87917 v 4.6302 4.63021 h -4.63021 -4.63021 v 4.49792 4.49792 h 4.63021 4.63021 v -2.24896 -2.24896 h 4.49792 4.49791 v -2.24896 -2.24896 h -2.24896 -2.24895 v -2.38125 -2.38125 h 2.38125 2.38125 v 2.24896 2.24896 h 4.49791 4.49792 v -2.24896 -2.24896 h 9.26041 9.26042 v 2.38125 2.38125 h -4.63021 -4.63021 v 2.24896 2.24896 h 4.63021 4.63021 v 2.24896 2.24896 h 2.24896 2.24896 v -2.24896 -2.24896 h 2.38125 2.38125 v 4.49792 4.49791 h 2.24896 2.24895 v 2.38125 2.38125 h -2.38125 -2.38125 v -2.24896 -2.24895 h -2.24895 -2.24896 v 4.6302 4.63021 h -2.24896 -2.24896 v 2.11667 2.11667 h 2.24896 2.24896 v 2.38125 2.38125 h 2.24896 2.24895 v -4.63021 -4.63021 h 2.38125 2.38125 v 7.01146 7.01146 h -2.24895 -2.24896 v 2.24895 2.24896 h 2.24896 2.24895 v 2.24896 2.24896 h -2.24895 -2.24896 v 2.24896 2.24896 h 2.24896 2.24895 v 2.38125 2.38125 h -2.24895 -2.24896 v 4.6302 4.63021 h -6.87917 -6.87917 v 2.24896 2.24896 h -4.7625 -4.76249 v -2.24896 -2.24896 h -6.74688 -6.74687 v 2.24896 2.24896 h -2.38125 -2.38125 v -2.24896 -2.24896 h -2.24896 -2.24896 v 2.24896 2.24896 h -2.38125 -2.38125 v -2.24896 -2.24896 h -2.24896 -2.24896 v 2.24896 2.24896 h -2.24896 -2.24895 v -2.24896 -2.24896 h -6.87917 -6.87917 v 2.24896 2.24896 h -2.38125 -2.38125 v -2.24896 -2.24896 h -2.24896 -2.24896 v 2.24896 2.24896 h -6.87916 -6.879173 v -4.63021 -4.63021 h 2.248963 2.24896 v -2.24896 -2.24895 h -4.497923 -4.49792 v 6.87916 6.87917 h -2.38125 -2.38125 z m 18.256253,0 v -2.11666 h -2.11666 -2.11667 v 2.11666 2.11667 h 2.11667 2.11666 z m 13.75834,0 v -2.11666 h -2.11667 -2.11667 v 2.11666 2.11667 h 2.11667 2.11667 z m 27.78125,-0.13229 v -2.24896 h 2.38125 2.38125 v 2.24896 2.24896 h 2.11667 2.11666 v -2.24896 -2.24896 h 2.38125 2.38125 v -2.24896 -2.24895 h -2.38125 -2.38125 v -4.63021 -4.63021 h -6.87916 -6.87917 v -4.49792 -4.49791 h -2.24896 -2.24896 v 4.49791 4.49792 h -2.24896 -2.24895 v 4.63021 4.63021 h 2.24895 2.24896 v -2.38125 -2.38125 h 2.38125 2.38125 v 6.87916 6.87917 h 2.24896 2.24896 z m 0,-9.12812 v -2.38125 h 2.38125 2.38125 v 2.38125 2.38125 h -2.38125 -2.38125 z m 27.51666,9.26041 v -2.11666 h -2.24895 -2.24896 v 2.11666 2.11667 h 2.24896 2.24895 z m -64.29375,-4.63021 v -2.24895 h -2.24895 -2.24896 v 2.24895 2.24896 h 2.24896 2.24895 z m 73.55417,0 v -2.24895 h -2.24896 -2.24896 v 2.24895 2.24896 h 2.24896 2.24896 z m -78.31667,-4.49791 v -2.24896 h -2.11666 -2.11667 v 2.24896 2.24896 h 2.11667 2.11666 z m 13.75834,0 v -2.24896 h -2.11667 -2.11667 v 2.24896 2.24896 h 2.11667 2.11667 z m 50.53542,0 v -2.24896 h -2.11667 -2.11667 v 2.24896 2.24896 h 2.11667 2.11667 z m 9.26041,0 v -2.24896 h -2.24896 -2.24896 v 2.24896 2.24896 h 2.24896 2.24896 z m 4.7625,-4.7625 v -2.24896 h 2.24896 2.24896 v -6.87917 -6.87916 h -2.24896 -2.24896 v -2.24896 -2.24896 h -2.24896 -2.24896 v 4.49792 4.49791 h 2.24896 2.24896 v 4.63021 4.63021 h -2.24896 -2.24896 v 2.24896 2.24896 h 2.24896 2.24896 z M 80.511277,211.63588 v -4.49791 h -2.24896 -2.24896 v 4.49791 4.49792 h 2.24896 2.24896 z m 96.572913,-2.38125 v -6.87916 h -6.87916 -6.87917 v 6.87916 6.87917 h 6.87917 6.87916 z m -9.26041,0 v -2.38125 h 2.38125 2.38125 v 2.38125 2.38125 h -2.38125 -2.38125 z m -13.75833,0.13229 v -2.24895 h -2.24896 -2.24896 v 2.24895 2.24896 h 2.24896 2.24896 z m 4.49791,-4.7625 v -2.24895 h -2.11666 -2.11667 v 2.24895 2.24896 h 2.11667 2.11666 z m -13.75833,-4.6302 v -2.38125 h 2.38125 2.38125 v 2.38125 2.38125 h 2.24896 2.24896 v -6.87917 -6.87917 h 2.24895 2.24896 v -2.24896 -2.24895 h -2.24896 -2.24895 v -2.24896 -2.24896 h -2.24896 -2.24896 v 2.24896 2.24896 h -4.63021 -4.63021 v 2.24895 2.24896 h 2.38125 2.38125 v 2.38125 2.38125 h -2.38125 -2.38125 v 4.49792 4.49792 h 2.24896 2.24896 z M 62.255027,195.4963 v -2.11667 h -2.24896 -2.24896 v 2.11667 2.11667 h 2.24896 2.24896 z m 13.75833,-0.13229 v -2.24896 h 6.87917 6.87916 v -2.24896 -2.24896 h -6.87916 -6.87917 v -4.63021 -4.6302 h 2.24896 2.24896 v -2.24896 -2.24896 h -2.24896 -2.24896 v -2.24896 -2.24896 h -2.24896 -2.24896 v 2.24896 2.24896 h -2.24895 -2.24896 v 2.24896 2.24896 h 2.24896 2.24895 v 2.38125 2.38125 h -2.24895 -2.24896 v 2.24895 2.24896 h 2.24896 2.24895 v 2.38125 2.38125 h -2.24895 -2.24896 v 2.11667 2.11667 h 4.49791 4.49792 z m 36.777083,0.13229 v -2.11667 h -2.24895 -2.24896 v 2.11667 2.11667 h 2.24896 2.24895 z m 68.79167,0 v -2.11667 h -2.24896 -2.24896 v 2.11667 2.11667 h 2.24896 2.24896 z m -73.55417,-6.87917 v -4.49791 h -2.11666 -2.11667 v 2.24895 2.24896 h -2.38125 -2.381253 v -2.24896 -2.24895 h -2.24896 -2.24896 v 4.49791 4.49792 h 6.746883 6.74687 z m 55.29792,2.24896 v -2.24896 h 6.87917 6.87916 v -2.38125 -2.38125 h 2.24896 2.24896 v -2.11666 -2.11667 h -2.24896 -2.24896 v -2.38125 -2.38125 h -2.38125 -2.38124 v -2.24896 -2.24896 h -2.11667 -2.11667 v 2.24896 2.24896 h -2.38125 -2.38125 v 2.24896 2.24896 h 2.38125 2.38125 v 2.38125 2.38125 h -2.38125 -2.38125 v 2.24895 2.24896 h -2.24896 -2.24895 v 2.24896 2.24896 h 2.24895 2.24896 z m -69.056253,-9.12812 v -2.11667 h -2.24896 -2.24896 v -2.38125 -2.38125 h 2.38125 2.38125 v 2.24896 2.24896 h 4.49792 4.497923 v -2.24896 -2.24896 h -2.24896 -2.248963 v -2.24896 -2.24896 h -2.38125 -2.38125 v -2.38125 -2.38125 h -4.49792 -4.49791 v 9.12813 9.12812 h 4.49791 4.49792 z m 69.056253,0 v -2.11667 h -2.24896 -2.24895 v 2.11667 2.11666 h 2.24895 2.24896 z M 29.975857,177.10776 v -2.24896 h -2.24896 -2.24895 v -2.38125 -2.38125 h 2.24895 2.24896 v -4.49792 -4.49791 h -2.24896 -2.24895 v 2.24895 2.24896 h -4.49792 -4.49792 v 2.24896 2.24896 h 2.24896 2.24896 v 4.63021 4.63021 h 4.49792 4.49791 z m 18.52084,-2.24896 v -4.49792 h -2.24896 -2.24896 v 2.24896 2.24896 h -2.38125 -2.38125 v 2.24896 2.24896 h 4.63021 4.63021 z m 13.75833,2.24896 v -2.24896 h 2.24896 2.24895 v -2.24896 -2.24896 h -2.24895 -2.24896 v 2.24896 2.24896 h -2.24896 -2.24896 v 2.24896 2.24896 h 2.24896 2.24896 z m -4.7625,-4.49792 v -2.24896 h -2.11667 -2.11666 v 2.24896 2.24896 h 2.11666 2.11667 z m 55.297913,-2.38125 v -4.63021 h -2.24895 -2.24896 v 4.63021 4.63021 h 2.24896 2.24895 z m -69.056243,-2.38125 v -2.24896 h -2.24896 -2.24896 v -2.24896 -2.24895 h 2.24896 2.24896 v -2.24896 -2.24896 h -4.49792 -4.49792 v 6.74687 6.74688 h 4.49792 4.49792 z m 18.52083,0 v -2.24896 h 2.24896 2.24895 v -2.24896 -2.24895 h -2.24895 -2.24896 v -4.63021 -4.63021 h -2.24896 -2.24896 v 4.63021 4.63021 h 2.24896 2.24896 v 2.24895 2.24896 h -2.24896 -2.24896 v 2.24896 2.24896 h 2.24896 2.24896 z m 18.25625,0 v -2.24896 h -2.24896 -2.24896 v 2.24896 2.24896 h 2.24896 2.24896 z m 23.018753,0 v -2.24896 h 2.24896 2.24895 v -2.24896 -2.24895 h -2.24895 -2.24896 v -2.24896 -2.24896 h -2.24896 -2.248963 v 6.74687 6.74688 h 2.248963 2.24896 z m -55.033333,-4.49792 v -2.24895 h -2.24896 -2.24896 v 2.24895 2.24896 h 2.24896 2.24896 z m 27.51666,-4.49791 v -2.24896 h -2.24896 -2.24896 v 2.24896 2.24896 h 2.24896 2.24896 z m 13.75833,0 v -2.24896 h -4.49791 -4.49792 v 2.24896 2.24896 h 4.49792 4.49791 z m 23.018753,0 v -2.24896 h -2.24895 -2.24896 v 2.24896 2.24896 h 2.24896 2.24895 z m 8.99584,0 v -2.24896 h -2.11667 -2.11667 v 2.24896 2.24896 h 2.11667 2.11667 z m -50.535423,-4.7625 v -2.24896 h -2.11667 -2.11666 v 2.24896 2.24896 h 2.11666 2.11667 z m 9.26042,0 v -2.24896 h -2.24896 -2.24896 v 2.24896 2.24896 h 2.24896 2.24896 z m 18.52083,0 v -2.24896 h -4.63021 -4.63021 v -2.24896 -2.24896 h -2.24895 -2.24896 v 2.24896 2.24896 h 2.24896 2.24895 v 2.24896 2.24896 h 4.63021 4.63021 z m 8.995833,0 v -2.24896 h -2.11666 -2.11667 v 2.24896 2.24896 h 2.11667 2.11666 z m 18.52084,0 v -2.24896 h -2.24896 -2.24896 v 2.24896 2.24896 h 2.24896 2.24896 z m 32.01458,0 v -2.24896 h -2.11666 -2.11667 v 2.24896 2.24896 h 2.11667 2.11666 z m 13.75834,0 v -2.24896 h -2.11667 -2.11667 v 2.24896 2.24896 h 2.11667 2.11667 z M 48.496697,149.59109 v -2.24896 h -6.87917 -6.87917 v 2.24896 2.24896 h 6.87917 6.87917 z m 8.99583,0 v -2.24896 h -2.11667 -2.11666 v 2.24896 2.24896 h 2.11666 2.11667 z m 64.293753,0 v -2.24896 h -6.74688 -6.74687 v 2.24896 2.24896 h 6.74687 6.74688 z m 32.27917,0 v -2.24896 h -2.24896 -2.24896 v 2.24896 2.24896 h 2.24896 2.24896 z m 23.01874,0 v -2.24896 h -2.24895 -2.24896 v 2.24896 2.24896 h 2.24896 2.24895 z M 34.738357,144.96088 v -2.11667 h -2.24896 -2.24895 v 2.11667 2.11667 h 2.24895 2.24896 z m 18.25625,-0.13229 v -2.24896 h 2.24896 2.24896 v -2.24896 -2.24896 h -2.24896 -2.24896 v -4.49792 -4.49791 h -2.24896 -2.24895 v 4.49791 4.49792 h -4.63021 -4.63021 v 2.24896 2.24896 h 4.63021 4.63021 v 2.24896 2.24896 h 2.24895 2.24896 z m 23.01875,0.13229 v -2.11667 h -2.24896 -2.24896 v 2.11667 2.11667 h 2.24896 2.24896 z m 27.516673,0 v -2.11667 h -2.24896 -2.248963 v -2.38125 -2.38125 h 2.381253 2.38125 v 2.24896 2.24896 h 4.49792 4.49791 v -2.24896 -2.24896 h -2.38125 -2.38125 v -2.38125 -2.38125 h 2.38125 2.38125 v -2.11667 -2.11666 h -4.49791 -4.49792 v 2.24896 2.24895 h -9.260423 -9.26041 v 2.24896 2.24896 h -2.38125 -2.38125 v -2.38125 -2.38125 h 2.38125 2.38125 v -2.11667 -2.11666 h -2.38125 -2.38125 v -2.38125 -2.38125 h -2.24896 -2.24896 v -4.63021 -4.63021 h -2.24896 -2.24896 v 6.87917 6.87916 h 2.24896 2.24896 v 2.38125 2.38125 h -2.38125 -2.38125 v -2.24895 -2.24896 h -2.11667 -2.11666 v 4.49791 4.49792 h 4.49791 4.49792 v 2.24896 2.24896 h 6.87917 6.87916 v 2.24896 2.24896 h 6.87917 6.879173 z m 46.0375,-0.13229 v -2.24896 h 4.63021 4.63021 v 2.24896 2.24896 h 6.74687 6.74688 v -2.24896 -2.24896 h 2.38124 2.38125 v -4.49792 -4.49792 h -4.6302 -4.63021 v -2.24895 -2.24896 h -2.24896 -2.24896 v 4.49791 4.49792 h -2.38125 -2.38125 v -2.24896 -2.24896 h -2.11666 -2.11667 v 2.24896 2.24896 h -2.38125 -2.38125 v -4.49792 -4.49791 h -2.24896 -2.24896 v 4.49791 4.49792 h -2.38125 -2.38125 v 2.24896 2.24896 h 2.38125 2.38125 v 2.24896 2.24896 h 2.24896 2.24896 z m 45.77291,0.13229 v -2.11667 h -2.24895 -2.24896 v 2.11667 2.11667 h 2.24896 2.24895 z M 29.975857,137.94942 v -4.63021 h 2.38125 2.38125 v -2.11667 -2.11666 h -6.87916 -6.87917 v 4.49791 4.49792 h 2.24896 2.24896 v 2.24896 2.24896 h 2.24895 2.24896 z m 36.77708,2.38125 v -2.24896 h -2.24895 -2.24896 v 2.24896 2.24896 h 2.24896 2.24895 z m -23.01874,-9.12813 v -2.11666 h -2.24896 -2.24896 v 2.11666 2.11667 h 2.24896 2.24896 z m 18.52083,0 v -2.11666 h -2.24896 -2.24896 v 2.11666 2.11667 h 2.24896 2.24896 z m 78.052083,-0.13229 v -2.24896 h 2.24896 2.24896 v -2.24896 -2.24895 h -2.24896 -2.24896 v -2.38125 -2.38125 h 2.24896 2.24896 v -2.24896 -2.24896 h -6.74688 -6.74687 v 4.63021 4.63021 h 2.24896 2.24896 v 2.38125 2.38125 h -2.24896 -2.24896 v 2.11666 2.11667 h 4.49792 4.49791 z M 39.236277,126.57233 v -2.24895 h 2.24896 2.24896 v -2.24896 -2.24896 h -4.49792 -4.49792 v 4.49792 4.49791 h 2.24896 2.24896 z m 18.25625,0 v -2.24895 h 2.38125 2.38125 v -2.24896 -2.24896 h -2.38125 -2.38125 v -2.38125 -2.38125 h -2.11667 -2.11666 v 2.38125 2.38125 h -2.38125 -2.38125 v 2.24896 2.24896 h 2.38125 2.38125 v 2.24895 2.24896 h 2.11666 2.11667 z m 41.53958,0 v -2.24895 h 2.248963 2.24896 v -2.24896 -2.24896 h -4.497923 -4.49792 v 4.49792 4.49791 h 2.24896 2.24896 z m 22.754173,0 v -2.24895 h -2.11667 -2.11667 v 2.24895 2.24896 h 2.11667 2.11667 z m 41.53958,0 v -2.24895 h 2.24896 2.24896 v -2.24896 -2.24896 h -4.63021 -4.63021 v -2.38125 -2.38125 h 2.38125 2.38125 v -2.24896 -2.24896 h 2.24896 2.24896 v -2.24896 -2.24895 h -2.24896 -2.24896 v 2.24895 2.24896 h -4.49791 -4.49792 v 2.24896 2.24896 h -2.38125 -2.38125 v -2.24896 -2.24896 h 2.24896 2.24896 v -2.24896 -2.24895 h -2.24896 -2.24896 v 2.24895 2.24896 h -2.24896 -2.24896 v 2.24896 2.24896 h 2.24896 2.24896 v 2.38125 2.38125 h -2.24896 -2.24896 v 2.24896 2.24896 h 2.24896 2.24896 v 2.24895 2.24896 h 6.87917 6.87916 z m 8.99584,0 v -2.24895 h -2.11667 -2.11667 v 2.24895 2.24896 h 2.11667 2.11667 z M 25.477947,122.07442 v -2.24896 h -2.24896 -2.24896 v 2.24896 2.24896 h 2.24896 2.24896 z m 59.79583,-2.38125 v -4.63021 h 9.12812 9.128133 v -2.24896 -2.24896 h -2.24896 -2.248963 v -2.24896 -2.24895 h -2.38125 -2.38125 v -2.38125 -2.38125 h -2.24896 -2.24896 v 2.38125 2.38125 h -4.49791 -4.49792 v 2.24895 2.24896 h 2.24896 2.24896 v 2.24896 2.24896 h -2.24896 -2.24896 v 4.63021 4.63021 h 2.24896 2.24896 z m -55.29792,-4.63021 v -4.49792 h -2.24896 -2.24895 v 4.49792 4.49792 h 2.24895 2.24896 z m 18.52084,2.24896 v -2.24896 h -2.24896 -2.24896 v 2.24896 2.24896 h 2.24896 2.24896 z m 18.25624,0 v -2.24896 h 2.24896 2.24896 v -6.87917 -6.87916 h 2.38125 2.38125 v 2.24895 2.24896 h 2.24896 2.24896 v -4.63021 -4.630199 h 2.38125 2.38125 v -2.11667 -2.11667 h -2.38125 -2.38125 v -4.63021 -4.630205 h -2.24896 -2.24896 v -2.38125 -2.38125 h -2.24896 -2.24896 v 4.630209 4.630206 h -2.24895 -2.24896 v 2.24896 2.24896 h 2.24896 2.24895 v 2.38125 2.38125 h -6.87916 -6.87917 v 2.24896 2.248959 h 2.24896 2.24896 v 9.12812 9.12813 h 2.24896 2.24895 z m 41.275003,0 v -2.24896 h -2.11666 -2.11667 v 2.24896 2.24896 h 2.11667 2.11666 z m 18.52084,0 v -2.24896 h -2.38125 -2.38125 v -2.24896 -2.24896 h 2.38125 2.38125 v -2.24896 -2.24895 h -2.38125 -2.38125 V 89.927541 73.787959 h -4.49792 -4.49792 v 2.248959 2.248958 h -2.24895 -2.24896 v 2.248959 2.248958 h 2.24896 2.24895 v -2.248958 -2.248959 h 2.38125 2.38125 v 2.38125 2.38125 h -2.38125 -2.38125 v 2.248955 2.24896 h -4.49791 -4.49792 v 2.24896 2.24896 h 2.24896 2.24896 v 2.38125 2.38125 h -2.24896 -2.24896 v 2.24896 2.248959 h -2.38125 -2.381253 v 2.24895 2.24896 h 2.381253 2.38125 v 2.38125 2.38125 h 4.49792 4.49791 v 2.24896 2.24896 h 2.38125 2.38125 v 2.24896 2.24896 h 4.49792 4.49792 z M 112.79044,94.425461 v -6.87917 h 2.38125 2.38125 v 6.87917 6.879169 h -2.38125 -2.38125 z m 59.53126,20.637499 v -4.49792 h -2.11667 -2.11667 v 4.49792 4.49792 h 2.11667 2.11667 z M 43.734197,112.814 v -2.24896 h -4.49792 -4.49792 v -2.24896 -2.24895 h -2.24896 -2.24895 v 2.24895 2.24896 h 2.24895 2.24896 v 2.24896 2.24896 h 4.49792 4.49792 z m 4.7625,-4.49792 v -2.24895 h -2.24896 -2.24896 v 2.24895 2.24896 h 2.24896 2.24896 z m 87.312503,-2.38125 v -4.6302 h -2.38125 -2.38125 v -2.381249 -2.38125 h 4.6302 4.63021 v -2.24896 -2.24896 h 2.24896 2.24896 v -2.24896 -2.24896 h 2.38125 2.38125 v 2.24896 2.24896 h 6.87917 6.87916 v -2.24896 -2.24896 h -2.38125 -2.38125 v -6.879165 -6.879167 h -4.49791 -4.49792 v 2.248959 2.248958 h -2.24896 -2.24896 v 2.38125 2.38125 h -2.38125 -2.38125 v 2.248955 2.24896 h -2.24896 -2.24895 v -2.24896 -2.248955 h -2.24896 -2.24896 v 2.248955 2.24896 h 2.24896 2.24896 v 2.38125 2.38125 h -2.38125 -2.38125 v -2.38125 -2.38125 h -2.24896 -2.24896 v 9.12813 9.128119 h 2.38125 2.38125 v 2.38125 2.38125 h 2.24896 2.24896 z m 13.75833,-25.267704 v -2.38125 h 2.38125 2.38125 v 2.38125 2.38125 h -2.38125 -2.38125 z m -4.7625,27.648954 v -2.24895 h -2.24896 -2.24896 v 2.24895 2.24896 h 2.24896 2.24896 z m 36.77708,0 v -2.24895 h -4.49792 -4.49791 v 2.24895 2.24896 h 4.49791 4.49792 z m -137.847913,-4.7625 v -2.24895 h -2.24896 -2.24896 v -2.248959 -2.24896 h -2.24896 -2.24896 v 2.24896 2.248959 h 2.24896 2.24896 v 2.24895 2.24896 h 2.24896 2.24896 z m 9.26041,0 v -2.24895 h -2.24896 -2.24895 v -2.248959 -2.24896 h -2.24896 -2.24896 v 2.24896 2.248959 h 2.24896 2.24896 v 2.24895 2.24896 h 2.24895 2.24896 z m 96.572923,0 v -2.24895 h 4.49792 4.49791 v -2.248959 -2.24896 h -4.49791 -4.49792 v 2.24896 2.248959 h -2.24896 -2.24896 v 2.24895 2.24896 h 2.24896 2.24896 z M 25.477947,98.923381 v -2.38125 h 4.6302 4.63021 v -2.11667 -2.11667 h -6.87916 -6.87917 v 4.49792 4.497919 h 2.24896 2.24896 z m 142.345833,0.13229 v -2.24896 h -2.24896 -2.24896 v 2.24896 2.248959 h 2.24896 2.24896 z M 43.734197,94.425461 v -2.11667 h -2.24896 -2.24896 v 2.11667 2.11667 h 2.24896 2.24896 z m 13.75833,-0.13229 v -2.24896 h 2.38125 2.38125 v -2.24896 -2.24896 h -4.49792 -4.49791 v 4.49792 4.49792 h 2.11666 2.11667 z m 46.037503,0.13229 v -2.11667 h -2.24896 -2.248963 v 2.11667 2.11667 h 2.248963 2.24896 z m -13.758343,-4.63021 v -2.24896 h -2.24895 -2.24896 v 2.24896 2.24896 h 2.24896 2.24895 z m 9.26042,0 v -2.24896 h 2.248963 2.24896 v -4.630206 -4.630209 h -2.24896 -2.248963 v -2.248958 -2.248959 h 2.248963 2.24896 v -6.879166 -6.879167 h -2.24896 -2.248963 v -2.248959 -2.248958 h -4.63021 -4.63021 v 4.497917 4.497917 h 4.63021 4.63021 v 2.38125 2.38125 h -6.87917 -6.87916 v 2.248958 2.248958 h -2.24896 -2.24896 v 4.497917 4.497917 h 2.24896 2.24896 v -4.497917 -4.497917 h 2.24896 2.24895 v 4.497917 4.497917 h 2.24896 2.24896 v -2.248958 -2.248959 h 2.38125 2.38125 v 2.38125 2.38125 h -2.24896 -2.24896 v 4.497915 4.49792 h 2.24896 2.24896 z M 131.0467,80.534835 v -2.248959 h 2.38125 2.38125 v 2.248959 2.248958 h 2.24895 2.24896 v -2.248958 -2.248959 h -2.24896 -2.24895 v -2.248958 -2.248959 h -4.63021 -4.63021 v 4.497917 4.497917 h 2.24896 2.24896 z M 112.79044,66.776501 v -2.248958 h -2.24895 -2.24896 v 2.248958 2.248958 h 2.24896 2.24895 z M 66.752937,57.780667 v -2.248958 h -2.24895 -2.24896 v 2.248958 2.248959 h 2.24896 2.24895 z M 25.477947,199.99422 v -2.38125 h 2.24895 2.24896 v -2.11667 -2.11667 h -4.63021 -4.6302 v -2.38125 -2.38125 h 7.01145 7.01146 v 2.24896 2.24896 h 2.24896 2.24896 v -2.24896 -2.24896 h 2.38125 2.38125 v 2.38125 2.38125 h -2.38125 -2.38125 v 2.11667 2.11667 h 2.38125 2.38125 v 2.38125 2.38125 h -2.38125 -2.38125 v -2.24896 -2.24896 h -2.24896 -2.24896 v 2.24896 2.24896 h -4.63021 -4.6302 z m 96.308333,-11.37709 v -4.7625 h 2.38125 2.38125 v 4.7625 4.7625 h -2.38125 -2.38125 z m 64.55833,-96.440629 v -4.63021 h 6.87917 6.87916 v 4.63021 4.63021 h -6.87916 -6.87917 z m -174.625003,-25.4 V 50.769209 h 16.00729 16.0073 v 16.007292 16.007292 h -16.0073 -16.00729 z m 27.51667,0 V 55.267126 h -11.50938 -11.50937 v 11.509375 11.509375 h 11.50937 11.50938 z m -18.52083,0.132292 v -6.879167 h 7.01145 7.01146 v 6.879167 6.879166 h -7.01146 -7.01145 z M 167.82378,66.776501 V 50.769209 h 16.13958 16.13958 v 16.007292 16.007292 h -16.13958 -16.13958 z m 27.51666,-0.0028 V 55.261505 l -11.44322,0.06896 -11.44323,0.06896 -0.069,11.44323 -0.069,11.443229 h 11.51219 11.51218 z m -18.25625,0.135103 v -6.879178 h 6.87917 6.87917 v 6.879167 6.879166 h -6.87917 -6.87917 z m -18.52083,-4.63022 v -2.248958 h 2.38125 2.38125 v 2.248958 2.248959 h -2.38125 -2.38125 z"
       id="path1" /></g></svg>
