<?xml version="1.0" encoding="UTF-8" standalone="no"?>
<!-- Created with Inkscape (http://www.inkscape.org/) -->

<svg
   width="210mm"
   height="297mm"
   viewBox="0 0 210 297"
   version="1.1"
   id="svg1"
   xml:space="preserve"
   inkscape:version="1.4.2 (ebf0e940d0, 2025-05-08)"
   sodipodi:docname="t.svg"
   xmlns:inkscape="http://www.inkscape.org/namespaces/inkscape"
   xmlns:sodipodi="http://sodipodi.sourceforge.net/DTD/sodipodi-0.dtd"
   xmlns="http://www.w3.org/2000/svg"
   xmlns:svg="http://www.w3.org/2000/svg"><sodipodi:namedview
     id="namedview1"
     pagecolor="#ffffff"
     bordercolor="#000000"
     borderopacity="0.25"
     inkscape:showpageshadow="2"
     inkscape:pageopacity="0.0"
     inkscape:pagecheckerboard="0"
     inkscape:deskcolor="#d1d1d1"
     inkscape:document-units="mm"
     inkscape:zoom="1.6881664"
     inkscape:cx="-66.640351"
     inkscape:cy="1049.3634"
     inkscape:window-width="3840"
     inkscape:window-height="2124"
     inkscape:window-x="0"
     inkscape:window-y="0"
     inkscape:window-maximized="1"
     inkscape:current-layer="layer1" /><defs
     id="defs1" /><g
     inkscape:label="Layer 1"
     inkscape:groupmode="layer"
     id="layer1"><path
       style="fill:#000000"
       d="m 118.76672,238.7028 v -0.85363 h -0.97282 -0.97282 v -0.72673 -0.72674 h 0.97282 0.97282 v -0.69169 -0.69169 l -0.0592,-0.0111 c -0.0325,-0.006 -0.13015,-0.0226 -0.21691,-0.0366 -0.27916,-0.0452 -0.73139,-0.15655 -0.98547,-0.24265 -1.98698,-0.67335 -3.36044,-2.21805 -3.62997,-4.08251 -0.0389,-0.26882 -0.039,-0.91125 -2.9e-4,-1.17663 0.11116,-0.76168 0.43762,-1.54612 0.89649,-2.15416 l 0.16316,-0.2162 -0.35816,-0.31427 -0.35815,-0.31427 -0.4933,0.43242 c -0.27132,0.23782 -0.50517,0.43241 -0.51966,0.43241 -0.0145,0 -0.21539,-0.16612 -0.44644,-0.36916 l -0.42009,-0.36916 0.50585,-0.44431 0.50585,-0.4443 -0.53856,-0.47216 -0.53856,-0.47215 -0.007,0.62664 -0.007,0.62663 -0.50613,-0.25409 -0.50613,-0.25409 v -1.32481 -1.32482 h 1.52206 1.52205 l 0.27241,0.4193 c 0.14982,0.23061 0.27634,0.42787 0.28116,0.43835 0.005,0.0105 -0.31459,0.019 -0.70981,0.019 h -0.71859 l 0.54541,0.47858 0.5454,0.47858 0.50649,-0.444 0.50649,-0.44399 0.43327,0.38071 0.43328,0.38072 -0.50591,0.44436 -0.5059,0.44436 0.36157,0.31431 0.36158,0.31432 0.26217,-0.15974 c 0.2954,-0.17998 0.82092,-0.42206 1.14894,-0.52925 0.71916,-0.23502 1.31458,-0.32988 2.05949,-0.32811 1.14805,0.003 2.20163,0.28287 3.14572,0.83644 l 0.30613,0.17951 1.33705,-1.1734 1.33705,-1.1734 h -0.71857 c -0.39521,0 -0.71462,-0.009 -0.7098,-0.019 0.005,-0.0105 0.13135,-0.20774 0.28117,-0.43835 l 0.2724,-0.4193 h 1.52227 1.52227 l -0.007,1.32972 -0.007,1.32972 -0.49955,0.24995 -0.49956,0.24995 -0.0131,-0.62234 -0.0132,-0.62234 -1.32448,1.1624 -1.32448,1.16241 0.16222,0.21606 c 0.44768,0.59628 0.7611,1.31831 0.88008,2.02743 0.22905,1.36517 -0.20374,2.76146 -1.19421,3.85287 -0.22348,0.24624 -0.70728,0.66076 -0.9926,0.85044 -0.66289,0.4407 -1.49298,0.77101 -2.29323,0.91253 l -0.30236,0.0535 -0.007,0.69521 -0.007,0.69522 h 0.9732 0.97321 v 0.72674 0.72673 h -0.97282 -0.97282 v 0.85363 0.85363 h -0.82811 -0.82821 z m 1.68688,-5.097 c 1.21691,-0.22966 2.24326,-0.91094 2.81785,-1.87045 0.28797,-0.48088 0.43024,-0.95285 0.45609,-1.51306 0.0186,-0.40358 -0.0136,-0.68136 -0.12323,-1.06331 -0.37126,-1.2931 -1.59867,-2.32787 -3.10296,-2.61597 -0.91179,-0.17461 -1.88538,-0.0656 -2.71946,0.30447 -0.40865,0.18132 -0.70617,0.37238 -1.0542,0.67695 -1.53211,1.34078 -1.62419,3.43771 -0.2151,4.89823 0.621,0.64366 1.50625,1.07284 2.50807,1.21593 0.33733,0.0482 1.09587,0.0308 1.43294,-0.0328 z"
       id="path1" /></g></svg>
