<?xml version="1.0" standalone="no"?>
 <!DOCTYPE svg PUBLIC "-//W3C//DTD SVG 1.1//EN" 
 "http://www.w3.org/Graphics/SVG/1.1/DTD/svg11.dtd"> 
<svg
  xmlns:svg="http://www.w3.org/2000/svg"
  xmlns="http://www.w3.org/2000/svg"
  xmlns:xlink="http://www.w3.org/1999/xlink"
  version="1.1"
  width="297.0022mm" height="210.0072mm" viewBox="0.0000 0.0000 297.0022 210.0072">
<title>SVG Image created as default-In2_Cu.svg date 2025/06/02 11:08:05 </title>
  <desc>Image generated by PCBNEW </desc>
<g style="fill:#000000; fill-opacity:1.0000;stroke:#000000; stroke-opacity:1.0000;
stroke-linecap:round; stroke-linejoin:round;"
 transform="translate(0 0) scale(1 1)">
</g>
<g style="fill:#000000; fill-opacity:1.0000; stroke:none;">
<circle cx="43.6000" cy="76.6000" r="0.9000" /> 
</g>
<g style="fill:#000000; fill-opacity:1.0000; stroke:none;">
<circle cx="43.6000" cy="74.1000" r="0.9000" /> 
</g>
<g style="fill:#000000; fill-opacity:1.0000; stroke:none;">
<circle cx="56.1825" cy="50.5175" r="0.2500" /> 
</g>
<g style="fill:#000000; fill-opacity:1.0000; stroke:none;">
<circle cx="56.1825" cy="50.5175" r="0.2500" /> 
</g>
<g style="fill:#000000; fill-opacity:1.0000; stroke:none;">
<circle cx="56.1825" cy="50.5175" r="0.2500" /> 
</g>
<g style="fill:#000000; fill-opacity:1.0000; stroke:none;">
<circle cx="56.1825" cy="50.5175" r="0.2500" /> 
</g>
<g style="fill:#000000; fill-opacity:1.0000; stroke:none;">
<circle cx="56.1825" cy="50.5175" r="0.2500" /> 
</g>
<g style="fill:#000000; fill-opacity:1.0000; stroke:none;">
<circle cx="56.1825" cy="50.5175" r="0.2500" /> 
</g>
<g style="fill:#000000; fill-opacity:1.0000; stroke:none;">
<circle cx="56.1825" cy="50.5175" r="0.2500" /> 
</g>
<g style="fill:#000000; fill-opacity:1.0000; stroke:none;">
<circle cx="56.1825" cy="50.5175" r="0.2500" /> 
</g>
<g style="fill:#000000; fill-opacity:1.0000; stroke:none;">
<circle cx="56.1825" cy="50.5175" r="0.2500" /> 
</g>
<g style="fill:#000000; fill-opacity:1.0000; stroke:none;">
<circle cx="56.1825" cy="50.5175" r="0.2500" /> 
</g>
<g style="fill:#000000; fill-opacity:1.0000; stroke:none;">
<circle cx="56.1825" cy="50.5175" r="0.2500" /> 
</g>
<g style="fill:#000000; fill-opacity:1.0000; stroke:none;">
<circle cx="56.1825" cy="50.5175" r="0.2500" /> 
</g>
<g style="fill:#000000; fill-opacity:1.0000; stroke:none;">
<circle cx="37.4000" cy="76.6000" r="0.9000" /> 
</g>
<g style="fill:#000000; fill-opacity:1.0000; stroke:none;">
<circle cx="37.4000" cy="74.1000" r="0.9000" /> 
</g>
<g style="fill:#000000; fill-opacity:1.0000; stroke:none;">
<circle cx="68.0000" cy="76.0000" r="0.9000" /> 
</g>
<g style="fill:#000000; fill-opacity:1.0000; stroke:none;">
<circle cx="65.5000" cy="76.0000" r="0.9000" /> 
</g>
<g style="fill:#000000; fill-opacity:1.0000; stroke:none;">
<circle cx="52.0000" cy="75.5000" r="0.8000" /> 
</g>
<g style="fill:#000000; fill-opacity:1.0000; stroke:none;">
<circle cx="55.5000" cy="75.5000" r="0.8000" /> 
</g>
<g style="fill:#000000; fill-opacity:1.0000; stroke:none;">
<circle cx="65.2025" cy="71.1400" r="0.3500" /> 
</g>
<g style="fill:#000000; fill-opacity:1.0000; stroke:none;">
<circle cx="65.2025" cy="71.1400" r="0.3500" /> 
</g>
<g style="fill:none; 
stroke:#000000; stroke-width:1.2000; stroke-opacity:1; 
stroke-linecap:round; stroke-linejoin:round;">
<path d="M64.2625 72.5700
L65.0625 72.5700
" />
<path d="M64.2625 63.9300
L65.0625 63.9300
" />
<path d="M68.5525 72.5700
L69.1525 72.5700
" />
<path d="M68.5525 63.9300
L69.1525 63.9300
" />
</g>
<g style="fill:#000000; fill-opacity:1.0000; stroke:none;">
<circle cx="41.3000" cy="64.6000" r="0.3000" /> 
</g>
<g style="fill:#000000; fill-opacity:1.0000; stroke:none;">
<circle cx="46.9000" cy="47.3000" r="0.3000" /> 
</g>
<g style="fill:#000000; fill-opacity:1.0000; stroke:none;">
<circle cx="52.8000" cy="51.7000" r="0.3000" /> 
</g>
<g style="fill:#000000; fill-opacity:1.0000; stroke:none;">
<circle cx="61.8000" cy="68.0000" r="0.3000" /> 
</g>
<g style="fill:#000000; fill-opacity:1.0000; stroke:none;">
<circle cx="36.5000" cy="59.5500" r="0.3000" /> 
</g>
<g style="fill:#000000; fill-opacity:1.0000; stroke:none;">
<circle cx="48.0000" cy="76.9000" r="0.3000" /> 
</g>
<g style="fill:#000000; fill-opacity:1.0000; stroke:none;">
<circle cx="34.5500" cy="53.1000" r="0.3000" /> 
</g>
<g style="fill:#000000; fill-opacity:1.0000; stroke:none;">
<circle cx="35.0000" cy="53.1000" r="0.3000" /> 
</g>
<g style="fill:#000000; fill-opacity:1.0000; stroke:none;">
<circle cx="56.2000" cy="68.6000" r="0.3000" /> 
</g>
<g style="fill:#000000; fill-opacity:1.0000; stroke:none;">
<circle cx="64.2500" cy="42.5000" r="0.3000" /> 
</g>
<g style="fill:#000000; fill-opacity:1.0000; stroke:none;">
<circle cx="50.9800" cy="42.0000" r="0.3000" /> 
</g>
<g style="fill:#000000; fill-opacity:1.0000; stroke:none;">
<circle cx="61.4000" cy="67.3000" r="0.3000" /> 
</g>
<g style="fill:#000000; fill-opacity:1.0000; stroke:none;">
<circle cx="49.4250" cy="65.8250" r="0.3000" /> 
</g>
<g style="fill:#000000; fill-opacity:1.0000; stroke:none;">
<circle cx="34.3000" cy="69.3000" r="0.3000" /> 
</g>
<g style="fill:#000000; fill-opacity:1.0000; stroke:none;">
<circle cx="40.5000" cy="67.0700" r="0.3000" /> 
</g>
<g style="fill:#000000; fill-opacity:1.0000; stroke:none;">
<circle cx="58.2000" cy="50.5000" r="0.3000" /> 
</g>
<g style="fill:#000000; fill-opacity:1.0000; stroke:none;">
<circle cx="56.1500" cy="64.7000" r="0.3000" /> 
</g>
<g style="fill:#000000; fill-opacity:1.0000; stroke:none;">
<circle cx="53.3000" cy="53.0000" r="0.3000" /> 
</g>
<g style="fill:#000000; fill-opacity:1.0000; stroke:none;">
<circle cx="41.2500" cy="50.7500" r="0.3000" /> 
</g>
<g style="fill:#000000; fill-opacity:1.0000; stroke:none;">
<circle cx="53.0000" cy="49.3000" r="0.3000" /> 
</g>
<g style="fill:#000000; fill-opacity:1.0000; stroke:none;">
<circle cx="58.1000" cy="74.3000" r="0.3000" /> 
</g>
<g style="fill:#000000; fill-opacity:1.0000; stroke:none;">
<circle cx="36.5100" cy="66.8000" r="0.3000" /> 
</g>
<g style="fill:#000000; fill-opacity:1.0000; stroke:none;">
<circle cx="37.0000" cy="70.7250" r="0.3000" /> 
</g>
<g style="fill:#000000; fill-opacity:1.0000; stroke:none;">
<circle cx="56.3000" cy="41.8000" r="0.3000" /> 
</g>
<g style="fill:#000000; fill-opacity:1.0000; stroke:none;">
<circle cx="38.2000" cy="48.5500" r="0.3000" /> 
</g>
<g style="fill:#000000; fill-opacity:1.0000; stroke:none;">
<circle cx="37.2100" cy="66.8000" r="0.3000" /> 
</g>
<g style="fill:#000000; fill-opacity:1.0000; stroke:none;">
<circle cx="52.8000" cy="50.5000" r="0.3000" /> 
</g>
<g style="fill:#000000; fill-opacity:1.0000; stroke:none;">
<circle cx="42.3000" cy="44.9000" r="0.3000" /> 
</g>
<g style="fill:#000000; fill-opacity:1.0000; stroke:none;">
<circle cx="39.0000" cy="68.1000" r="0.3000" /> 
</g>
<g style="fill:#000000; fill-opacity:1.0000; stroke:none;">
<circle cx="36.0000" cy="42.9000" r="0.3000" /> 
</g>
<g style="fill:#000000; fill-opacity:1.0000; stroke:none;">
<circle cx="58.1000" cy="74.8000" r="0.3000" /> 
</g>
<g style="fill:#000000; fill-opacity:1.0000; stroke:none;">
<circle cx="59.0000" cy="53.5000" r="0.3000" /> 
</g>
<g style="fill:#000000; fill-opacity:1.0000; stroke:none;">
<circle cx="63.6500" cy="43.0000" r="0.3000" /> 
</g>
<g style="fill:#000000; fill-opacity:1.0000; stroke:none;">
<circle cx="37.2000" cy="59.5500" r="0.3000" /> 
</g>
<g style="fill:#000000; fill-opacity:1.0000; stroke:none;">
<circle cx="56.3000" cy="41.2000" r="0.3000" /> 
</g>
<g style="fill:#000000; fill-opacity:1.0000; stroke:none;">
<circle cx="41.0000" cy="46.9000" r="0.3000" /> 
</g>
<g style="fill:#000000; fill-opacity:1.0000; stroke:none;">
<circle cx="40.6000" cy="65.9000" r="0.3000" /> 
</g>
<g style="fill:#000000; fill-opacity:1.0000; stroke:none;">
<circle cx="41.0000" cy="46.4000" r="0.3000" /> 
</g>
<g style="fill:#000000; fill-opacity:1.0000; stroke:none;">
<circle cx="60.3000" cy="43.0000" r="0.3000" /> 
</g>
<g style="fill:#000000; fill-opacity:1.0000; stroke:none;">
<circle cx="42.6500" cy="49.3500" r="0.3000" /> 
</g>
<g style="fill:#000000; fill-opacity:1.0000; stroke:none;">
<circle cx="42.3000" cy="49.2000" r="0.3000" /> 
</g>
<g style="fill:#000000; fill-opacity:1.0000; stroke:none;">
<circle cx="42.3000" cy="49.7000" r="0.3000" /> 
</g>
<g style="fill:#000000; fill-opacity:1.0000; stroke:none;">
<circle cx="52.3000" cy="64.1000" r="0.3000" /> 
</g>
<g style="fill:#000000; fill-opacity:1.0000; stroke:none;">
<circle cx="52.6500" cy="64.4500" r="0.3000" /> 
</g>
<g style="fill:#000000; fill-opacity:1.0000; stroke:none;">
<circle cx="48.7000" cy="52.4000" r="0.3000" /> 
</g>
<g style="fill:#000000; fill-opacity:1.0000; stroke:none;">
<circle cx="40.5000" cy="57.2000" r="0.3000" /> 
</g>
<g style="fill:#000000; fill-opacity:1.0000; stroke:none;">
<circle cx="51.9500" cy="63.7500" r="0.3000" /> 
</g>
<g style="fill:#000000; fill-opacity:1.0000; stroke:none;">
<circle cx="60.7000" cy="77.9000" r="0.3000" /> 
</g>
<g style="fill:#000000; fill-opacity:1.0000; stroke:none;">
<circle cx="47.8000" cy="60.8000" r="0.3000" /> 
</g>
<g style="fill:#000000; fill-opacity:1.0000; stroke:none;">
<circle cx="61.8500" cy="60.9500" r="0.3000" /> 
</g>
<g style="fill:#000000; fill-opacity:1.0000; stroke:none;">
<circle cx="41.3000" cy="67.7000" r="0.3000" /> 
</g>
<g style="fill:#000000; fill-opacity:1.0000; stroke:none;">
<circle cx="37.9000" cy="67.6000" r="0.3000" /> 
</g>
<g style="fill:#000000; fill-opacity:1.0000; stroke:none;">
<circle cx="56.7000" cy="45.6000" r="0.3000" /> 
</g>
<g style="fill:#000000; fill-opacity:1.0000; stroke:none;">
<circle cx="37.1000" cy="42.2000" r="0.3000" /> 
</g>
<g style="fill:#000000; fill-opacity:1.0000; stroke:none;">
<circle cx="36.7000" cy="62.7000" r="0.3000" /> 
</g>
<g style="fill:#000000; fill-opacity:1.0000; stroke:none;">
<circle cx="38.9400" cy="55.2000" r="0.3000" /> 
</g>
<g style="fill:#000000; fill-opacity:1.0000; stroke:none;">
<circle cx="53.8000" cy="67.5000" r="0.3000" /> 
</g>
<g style="fill:#000000; fill-opacity:1.0000; stroke:none;">
<circle cx="55.5000" cy="45.6000" r="0.3000" /> 
</g>
<g style="fill:#000000; fill-opacity:1.0000; stroke:none;">
<circle cx="49.9879" cy="67.2848" r="0.3000" /> 
</g>
<g style="fill:#000000; fill-opacity:1.0000; stroke:none;">
<circle cx="40.9000" cy="43.0000" r="0.3000" /> 
</g>
<g style="fill:#000000; fill-opacity:1.0000; stroke:none;">
<circle cx="36.7000" cy="63.7000" r="0.3000" /> 
</g>
<g style="fill:#000000; fill-opacity:1.0000; stroke:none;">
<circle cx="39.7000" cy="55.9000" r="0.3000" /> 
</g>
<g style="fill:#000000; fill-opacity:1.0000; stroke:none;">
<circle cx="47.1000" cy="51.4000" r="0.3000" /> 
</g>
<g style="fill:#000000; fill-opacity:1.0000; stroke:none;">
<circle cx="45.4015" cy="67.4329" r="0.3000" /> 
</g>
<g style="fill:#000000; fill-opacity:1.0000; stroke:none;">
<circle cx="48.0500" cy="57.7500" r="0.3000" /> 
</g>
<g style="fill:#000000; fill-opacity:1.0000; stroke:none;">
<circle cx="46.8000" cy="67.7000" r="0.3000" /> 
</g>
<g style="fill:#000000; fill-opacity:1.0000; stroke:none;">
<circle cx="48.9000" cy="56.9000" r="0.3000" /> 
</g>
<g style="fill:#000000; fill-opacity:1.0000; stroke:none;">
<circle cx="44.7342" cy="67.8742" r="0.3000" /> 
</g>
<g style="fill:#000000; fill-opacity:1.0000; stroke:none;">
<circle cx="43.9382" cy="67.9550" r="0.3000" /> 
</g>
<g style="fill:#000000; fill-opacity:1.0000; stroke:none;">
<circle cx="46.2500" cy="50.4500" r="0.3000" /> 
</g>
<g style="fill:#000000; fill-opacity:1.0000; stroke:none;">
<circle cx="47.6000" cy="42.8000" r="0.3000" /> 
</g>
<g style="fill:#000000; fill-opacity:1.0000; stroke:none;">
<circle cx="65.3000" cy="66.7000" r="0.3000" /> 
</g>
<g style="fill:#000000; fill-opacity:1.0000; stroke:none;">
<circle cx="46.2500" cy="42.8500" r="0.3000" /> 
</g>
<g style="fill:#000000; fill-opacity:1.0000; stroke:none;">
<circle cx="65.1000" cy="67.6000" r="0.3000" /> 
</g>
<g style="fill:#000000; fill-opacity:1.0000; stroke:none;">
<circle cx="65.6000" cy="70.0000" r="0.3000" /> 
</g>
<g style="fill:#000000; fill-opacity:1.0000; stroke:none;">
<circle cx="65.9000" cy="69.6000" r="0.3000" /> 
</g>
<g style="fill:#000000; fill-opacity:1.0000; stroke:none;">
<circle cx="46.3000" cy="70.7000" r="0.3000" /> 
</g>
<g style="fill:#000000; fill-opacity:1.0000; stroke:none;">
<circle cx="60.0000" cy="66.0000" r="0.3000" /> 
</g>
<g style="fill:#000000; fill-opacity:1.0000; stroke:none;">
<circle cx="50.5025" cy="62.1675" r="0.3000" /> 
</g>
<g style="fill:#000000; fill-opacity:1.0000; stroke:none;">
<circle cx="49.6000" cy="71.3000" r="0.3000" /> 
<path style="fill:#000000; fill-opacity:1.0000; stroke:none;fill-rule:evenodd;"
d="M 64.3930,40.8702
64.4388,40.9230
64.4500,40.9745
64.4500,62.7060
64.4303,62.7730
64.3775,62.8188
64.3260,62.8300
64.1759,62.8300
64.0049,62.8571
63.8402,62.9106
63.6860,62.9892
63.5459,63.0910
63.4235,63.2134
63.3217,63.3535
63.2431,63.5077
63.1896,63.6724
63.1884,63.6800
63.1884,63.6800
63.9175,63.6800
63.8824,63.7151
63.8364,63.7949
63.8125,63.8839
63.8125,63.9761
63.8364,64.0651
63.8824,64.1449
63.9175,64.1800
63.1884,64.1800
63.1896,64.1876
63.2431,64.3523
63.3217,64.5065
63.4235,64.6466
63.5459,64.7690
63.6860,64.8708
63.8402,64.9494
64.0049,65.0029
64.1759,65.0300
64.4125,65.0300
64.4125,64.2800
64.9125,64.2800
64.9125,65.0300
65.1491,65.0300
65.3201,65.0029
65.4848,64.9494
65.6390,64.8708
65.7791,64.7690
65.9015,64.6466
66.0033,64.5065
66.0819,64.3523
66.1354,64.1876
66.1366,64.1800
65.4075,64.1800
65.4426,64.1449
65.4886,64.0651
65.5125,63.9761
65.5125,63.8839
65.4886,63.7949
65.4426,63.7151
65.4075,63.6800
66.1366,63.6800
66.1366,63.6800
66.1354,63.6724
66.0819,63.5077
66.0033,63.3535
65.9015,63.2134
65.8998,63.2117
65.8994,63.2109
65.8984,63.2097
65.8986,63.2095
65.8663,63.1504
65.8713,63.0807
65.9132,63.0247
65.9787,63.0003
65.9875,63.0000
67.6275,63.0000
67.6945,63.0197
67.7403,63.0725
67.7502,63.1416
67.7212,63.2052
67.7152,63.2117
67.7135,63.2134
67.6117,63.3535
67.5331,63.5077
67.4796,63.6724
67.4784,63.6800
67.4784,63.6800
68.2575,63.6800
68.2224,63.7151
68.1764,63.7949
68.1525,63.8839
68.1525,63.9761
68.1764,64.0651
68.2224,64.1449
68.2575,64.1800
67.4784,64.1800
67.4796,64.1876
67.5331,64.3523
67.6117,64.5065
67.7135,64.6466
67.8359,64.7690
67.9760,64.8708
68.1302,64.9494
68.2949,65.0029
68.4659,65.0300
68.6025,65.0300
68.6025,64.2800
69.1025,64.2800
69.1025,65.0300
69.2391,65.0300
69.4101,65.0029
69.5748,64.9494
69.7290,64.8708
69.8691,64.7690
69.9915,64.6466
70.0933,64.5065
70.1150,64.4639
70.1630,64.4131
70.2308,64.3963
70.2969,64.4189
70.3404,64.4736
70.3495,64.5202
70.3495,71.9798
70.3298,72.0468
70.2770,72.0926
70.2079,72.1025
70.1443,72.0735
70.1150,72.0361
70.0933,71.9935
69.9915,71.8534
69.8691,71.7310
69.7290,71.6292
69.5748,71.5506
69.4101,71.4971
69.2391,71.4700
69.1025,71.4700
69.1025,72.2200
68.6025,72.2200
68.6025,71.4700
68.4659,71.4700
68.2949,71.4971
68.1302,71.5506
67.9760,71.6292
67.8359,71.7310
67.7135,71.8534
67.6117,71.9935
67.5331,72.1477
67.4796,72.3124
67.4784,72.3200
67.4784,72.3200
68.2575,72.3200
68.2224,72.3551
68.1764,72.4349
68.1525,72.5239
68.1525,72.6161
68.1764,72.7051
68.2224,72.7849
68.2575,72.8200
67.4784,72.8200
67.4796,72.8276
67.5331,72.9923
67.6117,73.1465
67.7135,73.2866
67.8359,73.4090
67.9760,73.5108
68.1302,73.5894
68.2949,73.6429
68.4659,73.6700
68.6025,73.6700
68.6025,72.9200
69.1025,72.9200
69.1025,73.6700
69.2391,73.6700
69.4101,73.6429
69.5748,73.5894
69.7290,73.5108
69.8691,73.4090
69.9915,73.2866
70.0933,73.1465
70.1150,73.1039
70.1630,73.0531
70.2308,73.0363
70.2969,73.0589
70.3404,73.1136
70.3495,73.1602
70.3495,79.1501
70.3298,79.2171
70.2770,79.2629
70.2254,79.2741
33.8748,79.2499
33.8078,79.2302
33.7621,79.1773
33.7509,79.1258
33.7542,73.9898
35.9995,73.9898
35.9995,74.2102
36.0340,74.4280
36.1021,74.6376
36.1021,74.6376
36.1701,74.7711
36.1942,74.8184
36.2022,74.8340
36.3318,75.0124
36.3318,75.0124
36.4876,75.1682
36.4876,75.1682
36.5997,75.2497
36.6424,75.3050
36.6484,75.3746
36.6158,75.4364
36.5997,75.4503
36.4876,75.5318
36.4876,75.5318
36.3318,75.6876
36.3318,75.6876
36.2022,75.8660
36.1021,76.0624
36.1021,76.0624
36.0340,76.2720
36.0340,76.2720
35.9995,76.4898
35.9995,76.7102
36.0087,76.7685
36.0340,76.9280
36.1021,77.1376
36.1021,77.1376
36.2022,77.3340
36.3318,77.5124
36.3318,77.5124
36.4876,77.6682
36.4876,77.6682
36.5516,77.7147
36.6660,77.7978
36.7944,77.8632
36.8624,77.8979
36.8624,77.8979
36.9672,77.9320
37.0720,77.9660
37.2898,78.0005
37.2898,78.0005
37.5102,78.0005
37.5102,78.0005
37.7280,77.9660
37.9376,77.8979
38.1340,77.7978
38.3124,77.6682
38.4682,77.5124
38.5978,77.3340
38.6979,77.1376
38.7660,76.9280
38.8005,76.7102
38.8005,76.4898
38.7660,76.2720
38.7134,76.1102
38.6979,76.0624
38.6979,76.0624
38.6292,75.9276
38.5978,75.8660
38.5409,75.7877
38.4682,75.6876
38.4682,75.6876
38.3124,75.5318
38.3124,75.5318
38.2003,75.4503
38.1576,75.3950
38.1516,75.3254
38.1842,75.2636
38.2003,75.2497
38.3124,75.1682
38.4682,75.0124
38.5978,74.8340
38.6979,74.6376
38.7660,74.4280
38.8005,74.2102
38.8005,73.9898
42.1995,73.9898
42.1995,74.2102
42.2340,74.4280
42.3021,74.6376
42.3021,74.6376
42.3701,74.7711
42.3942,74.8184
42.4022,74.8340
42.5318,75.0124
42.5318,75.0124
42.6876,75.1682
42.6876,75.1682
42.7997,75.2497
42.8424,75.3050
42.8484,75.3746
42.8158,75.4364
42.7997,75.4503
42.6876,75.5318
42.6876,75.5318
42.5318,75.6876
42.5318,75.6876
42.4022,75.8660
42.3021,76.0624
42.3021,76.0624
42.2340,76.2720
42.2340,76.2720
42.1995,76.4898
42.1995,76.7102
42.2087,76.7685
42.2340,76.9280
42.3021,77.1376
42.3021,77.1376
42.4022,77.3340
42.5318,77.5124
42.5318,77.5124
42.6876,77.6682
42.6876,77.6682
42.7516,77.7147
42.8660,77.7978
42.9944,77.8632
43.0624,77.8979
43.0624,77.8979
43.1672,77.9320
43.2720,77.9660
43.4898,78.0005
43.4898,78.0005
43.7102,78.0005
43.7102,78.0005
43.9280,77.9660
44.1376,77.8979
44.2882,77.8212
59.8995,77.8212
59.8995,77.9788
59.9303,78.1335
59.9303,78.1335
59.9906,78.2792
59.9906,78.2792
60.0782,78.4103
60.0782,78.4103
60.1897,78.5218
60.1897,78.5218
60.3208,78.6094
60.3208,78.6094
60.4665,78.6697
60.4665,78.6697
60.6212,78.7005
60.6212,78.7005
60.6212,78.7005
60.7788,78.7005
60.7788,78.7005
60.9335,78.6697
61.0792,78.6094
61.2103,78.5218
61.3218,78.4103
61.4094,78.2792
61.4697,78.1335
61.5005,77.9788
61.5005,77.8212
61.5005,77.8212
61.5005,77.8212
61.4959,77.7978
61.4697,77.6665
61.4697,77.6665
61.4094,77.5208
61.4094,77.5208
61.3218,77.3897
61.3218,77.3897
61.2103,77.2782
61.2103,77.2782
61.1036,77.2069
61.0792,77.1906
61.0792,77.1906
60.9335,77.1303
60.9335,77.1303
60.7788,77.0995
60.7788,77.0995
60.6212,77.0995
60.6212,77.0995
60.4665,77.1303
60.4665,77.1303
60.3208,77.1906
60.3208,77.1906
60.1897,77.2782
60.1897,77.2782
60.0782,77.3897
60.0782,77.3897
59.9906,77.5208
59.9906,77.5208
59.9303,77.6665
59.9303,77.6665
59.8995,77.8212
44.2882,77.8212
44.3340,77.7978
44.3851,77.7607
44.4484,77.7147
44.5124,77.6682
44.5124,77.6682
44.5124,77.6682
44.6682,77.5124
44.7978,77.3340
44.8979,77.1376
44.9660,76.9280
45.0005,76.7102
45.0005,76.4898
44.9660,76.2720
44.9134,76.1102
44.8979,76.0624
44.8979,76.0624
44.8292,75.9276
44.7978,75.8660
44.7409,75.7877
44.6682,75.6876
44.6682,75.6876
44.5124,75.5318
44.5124,75.5318
44.4003,75.4503
44.3597,75.3976
50.6995,75.3976
50.6995,75.6024
50.7315,75.8045
50.7948,75.9992
50.8877,76.1816
51.0080,76.3472
51.1528,76.4920
51.3077,76.6046
51.3184,76.6123
51.4346,76.6715
51.5008,76.7052
51.5008,76.7052
51.5008,76.7052
51.5894,76.7340
51.6955,76.7685
51.7922,76.7838
51.8976,76.8005
51.8976,76.8005
52.1024,76.8005
52.1024,76.8005
52.3045,76.7685
52.4992,76.7052
52.6816,76.6123
52.7746,76.5447
52.8472,76.4920
52.8472,76.4920
52.8472,76.4920
52.9920,76.3472
52.9920,76.3472
52.9920,76.3472
53.0466,76.2720
53.1123,76.1816
53.2052,75.9992
53.2685,75.8045
53.3005,75.6024
53.3005,75.3976
54.1995,75.3976
54.1995,75.6024
54.2315,75.8045
54.2948,75.9992
54.3877,76.1816
54.5080,76.3472
54.6528,76.4920
54.8077,76.6046
54.8184,76.6123
54.9346,76.6715
55.0008,76.7052
55.0008,76.7052
55.0008,76.7052
55.0894,76.7340
55.1955,76.7685
55.2922,76.7838
55.3976,76.8005
55.3976,76.8005
55.6024,76.8005
55.6024,76.8005
55.8045,76.7685
55.9992,76.7052
56.1816,76.6123
56.2746,76.5447
56.3472,76.4920
56.3472,76.4920
56.3472,76.4920
56.4920,76.3472
56.4920,76.3472
56.4920,76.3472
56.5466,76.2720
56.6123,76.1816
56.7052,75.9992
56.7408,75.8898
64.1000,75.8898
64.1000,76.1102
64.1345,76.3278
64.2026,76.5374
64.3026,76.7338
64.3489,76.7975
64.9762,76.1702
64.9875,76.2123
65.0599,76.3377
65.1623,76.4401
65.2877,76.5125
65.3298,76.5238
64.7025,77.1511
64.7025,77.1511
64.7662,77.1974
64.9626,77.2974
65.1722,77.3655
65.3898,77.4000
65.6102,77.4000
65.8278,77.3655
66.0374,77.2974
66.2338,77.1974
66.2975,77.1511
66.2975,77.1511
65.6702,76.5238
65.7123,76.5125
65.8377,76.4401
65.9401,76.3377
66.0125,76.2123
66.0238,76.1702
66.6511,76.7975
66.6525,76.7974
66.7047,76.7572
66.7743,76.7512
66.8361,76.7838
66.8500,76.7998
66.9318,76.9124
67.0876,77.0682
67.0876,77.0682
67.1831,77.1376
67.2660,77.1978
67.3944,77.2632
67.4624,77.2979
67.4624,77.2979
67.5672,77.3320
67.6720,77.3660
67.8898,77.4005
67.8898,77.4005
68.1102,77.4005
68.1102,77.4005
68.3280,77.3660
68.5376,77.2979
68.7340,77.1978
68.9124,77.0682
69.0682,76.9124
69.1978,76.7340
69.2979,76.5376
69.3660,76.3280
69.4005,76.1102
69.4005,75.8898
69.3660,75.6720
69.3296,75.5599
69.2979,75.4624
69.2979,75.4624
69.2532,75.3746
69.1978,75.2660
69.1500,75.2002
69.0682,75.0876
69.0682,75.0876
68.9124,74.9318
68.9124,74.9318
68.7340,74.8022
68.7340,74.8022
68.7340,74.8022
68.6711,74.7701
68.5376,74.7021
68.5376,74.7021
68.3280,74.6340
68.2191,74.6167
68.1102,74.5995
67.8898,74.5995
67.8172,74.6110
67.6720,74.6340
67.4624,74.7021
67.4624,74.7021
67.2660,74.8022
67.0876,74.9318
67.0876,74.9318
66.9318,75.0876
66.8500,75.2002
66.7947,75.2428
66.7251,75.2488
66.6633,75.2162
66.6514,75.2025
66.6511,75.2025
66.0238,75.8298
66.0125,75.7877
65.9401,75.6623
65.8377,75.5599
65.7123,75.4875
65.6702,75.4762
66.2975,74.8489
66.2338,74.8026
66.0374,74.7026
65.8278,74.6345
65.6102,74.6000
65.3898,74.6000
65.1722,74.6345
64.9626,74.7026
64.7662,74.8026
64.7025,74.8489
64.7025,74.8489
65.3298,75.4762
65.2877,75.4875
65.1623,75.5599
65.0599,75.6623
64.9875,75.7877
64.9762,75.8298
64.3489,75.2025
64.3489,75.2025
64.3026,75.2662
64.2026,75.4626
64.1345,75.6722
64.1000,75.8898
56.7408,75.8898
56.7685,75.8045
56.8005,75.6024
56.8005,75.3976
56.7696,75.2025
56.7685,75.1955
56.7489,75.1352
56.7052,75.0008
56.7052,75.0008
56.7052,75.0008
56.6806,74.9525
56.6806,74.9525
56.6700,74.9318
56.6123,74.8184
56.6123,74.8184
56.6123,74.8184
56.4920,74.6528
56.3472,74.5080
56.1816,74.3877
56.1816,74.3877
56.1816,74.3877
56.1247,74.3587
55.9992,74.2948
55.8045,74.2315
55.6300,74.2039
55.6024,74.1995
55.3976,74.1995
55.3733,74.2034
55.1955,74.2315
55.0008,74.2948
54.8184,74.3877
54.6528,74.5080
54.5080,74.6528
54.3877,74.8184
54.2948,75.0008
54.2315,75.1955
54.1995,75.3976
53.3005,75.3976
53.2696,75.2025
53.2685,75.1955
53.2391,75.1051
53.2052,75.0008
53.2052,75.0008
53.2052,75.0008
53.1700,74.9318
53.1123,74.8184
53.1005,74.8022
52.9920,74.6528
52.8472,74.5080
52.6816,74.3877
52.6816,74.3877
52.6816,74.3877
52.6247,74.3587
52.4992,74.2948
52.3045,74.2315
52.1300,74.2039
52.1024,74.1995
51.8976,74.1995
51.8733,74.2034
51.6955,74.2315
51.5008,74.2948
51.3184,74.3877
51.1528,74.5080
51.0080,74.6528
50.8877,74.8184
50.7948,75.0008
50.7315,75.1955
50.6995,75.3976
44.3597,75.3976
44.3576,75.3950
44.3516,75.3254
44.3842,75.2636
44.4003,75.2497
44.5124,75.1682
44.6682,75.0124
44.7978,74.8340
44.8979,74.6376
44.9660,74.4280
45.0005,74.2102
45.0005,73.9898
44.9660,73.7720
44.9241,73.6429
44.8979,73.5624
44.8979,73.5624
44.8198,73.4090
44.7978,73.3660
44.7813,73.3432
44.6682,73.1876
44.6682,73.1876
44.5124,73.0318
44.5124,73.0318
44.3340,72.9022
44.3168,72.8934
44.3168,72.8934
44.1376,72.8021
44.1376,72.8021
43.9280,72.7340
43.8191,72.7167
43.7102,72.6995
43.4898,72.6995
43.4172,72.7110
43.2720,72.7340
43.0624,72.8021
43.0624,72.8021
42.8660,72.9022
42.6876,73.0318
42.6876,73.0318
42.5318,73.1876
42.5318,73.1876
42.4022,73.3660
42.3021,73.5624
42.3021,73.5624
42.2340,73.7720
42.1995,73.9898
38.8005,73.9898
38.7660,73.7720
38.7241,73.6429
38.6979,73.5624
38.6979,73.5624
38.6198,73.4090
38.5978,73.3660
38.5813,73.3432
38.4682,73.1876
38.4682,73.1876
38.3124,73.0318
38.3124,73.0318
38.1340,72.9022
38.1340,72.9022
38.1340,72.9022
38.0711,72.8701
37.9376,72.8021
37.9376,72.8021
37.7280,72.7340
37.6191,72.7167
37.5102,72.6995
37.2898,72.6995
37.2172,72.7110
37.0720,72.7340
36.8624,72.8021
36.8624,72.8021
36.6660,72.9022
36.4876,73.0318
36.4876,73.0318
36.3318,73.1876
36.3318,73.1876
36.2022,73.3660
36.1021,73.5624
36.1021,73.5624
36.0340,73.7720
35.9995,73.9898
33.7542,73.9898
33.7552,72.3200
63.1884,72.3200
63.1884,72.3200
63.9175,72.3200
63.8824,72.3551
63.8364,72.4349
63.8125,72.5239
63.8125,72.6161
63.8364,72.7051
63.8824,72.7849
63.9175,72.8200
63.1884,72.8200
63.1896,72.8276
63.2431,72.9923
63.3217,73.1465
63.4235,73.2866
63.5459,73.4090
63.6860,73.5108
63.8402,73.5894
64.0049,73.6429
64.1759,73.6700
64.4125,73.6700
64.4125,72.9200
64.9125,72.9200
64.9125,73.6700
65.1491,73.6700
65.3201,73.6429
65.4848,73.5894
65.6390,73.5108
65.7791,73.4090
65.9015,73.2866
66.0033,73.1465
66.0819,72.9923
66.1354,72.8276
66.1366,72.8200
65.4075,72.8200
65.4426,72.7849
65.4886,72.7051
65.5125,72.6161
65.5125,72.5239
65.4886,72.4349
65.4426,72.3551
65.4075,72.3200
66.1366,72.3200
66.1366,72.3200
66.1354,72.3124
66.0819,72.1477
66.0033,71.9935
65.9015,71.8534
65.8819,71.8337
65.8484,71.7724
65.8534,71.7027
65.8665,71.6772
65.9562,71.5429
66.0203,71.3881
66.0530,71.2238
66.0530,71.0562
66.0203,70.8919
65.9911,70.8214
65.9837,70.7520
66.0149,70.6895
66.0368,70.6709
66.1103,70.6218
66.2218,70.5103
66.3094,70.3792
66.3465,70.2895
66.3904,70.2351
66.3921,70.2340
66.4103,70.2218
66.5218,70.1103
66.6094,69.9792
66.6697,69.8335
66.7005,69.6788
66.7005,69.5212
66.7005,69.5212
66.7005,69.5212
66.6697,69.3665
66.6697,69.3665
66.6696,69.3661
66.6094,69.2208
66.6094,69.2208
66.5218,69.0897
66.5218,69.0897
66.4103,68.9782
66.4103,68.9782
66.2792,68.8906
66.2792,68.8906
66.1335,68.8303
66.1335,68.8303
65.9788,68.7995
65.9788,68.7995
65.8212,68.7995
65.8212,68.7995
65.6665,68.8303
65.6665,68.8303
65.5208,68.8906
65.5208,68.8906
65.3897,68.9782
65.3897,68.9782
65.2782,69.0897
65.2782,69.0897
65.1906,69.2208
65.1906,69.2208
65.1535,69.3105
65.1096,69.3649
65.1078,69.3661
65.0897,69.3782
65.0897,69.3782
64.9782,69.4897
64.9782,69.4897
64.8906,69.6208
64.8906,69.6208
64.8303,69.7665
64.8303,69.7665
64.7995,69.9212
64.7995,70.0788
64.8303,70.2335
64.8303,70.2335
64.8343,70.2431
64.8417,70.3126
64.8104,70.3751
64.7886,70.3937
64.6603,70.4794
64.6603,70.4794
64.5419,70.5978
64.4488,70.7371
64.3847,70.8919
64.3847,70.8919
64.3520,71.0562
64.3520,71.2238
64.3715,71.3218
64.3653,71.3914
64.3224,71.4466
64.2565,71.4698
64.2499,71.4700
64.1759,71.4700
64.0049,71.4971
63.8402,71.5506
63.6860,71.6292
63.5459,71.7310
63.4235,71.8534
63.3217,71.9935
63.2431,72.1477
63.1896,72.3124
63.1884,72.3200
33.7552,72.3200
33.7563,70.6212
45.4995,70.6212
45.4995,70.7788
45.5303,70.9335
45.5303,70.9335
45.5906,71.0792
45.5906,71.0792
45.6782,71.2103
45.6782,71.2103
45.7897,71.3218
45.7897,71.3218
45.9208,71.4094
45.9208,71.4094
46.0665,71.4697
46.0665,71.4697
46.2040,71.4971
46.2212,71.5005
46.2212,71.5005
46.2212,71.5005
46.3788,71.5005
46.3788,71.5005
46.5335,71.4697
46.6792,71.4094
46.8103,71.3218
46.9109,71.2212
48.7995,71.2212
48.7995,71.3788
48.8303,71.5335
48.8303,71.5335
48.8906,71.6792
48.8906,71.6792
48.9782,71.8103
48.9782,71.8103
49.0897,71.9218
49.0897,71.9218
49.2208,72.0094
49.2208,72.0094
49.3665,72.0697
49.3665,72.0697
49.4814,72.0926
49.5212,72.1005
49.5212,72.1005
49.5212,72.1005
49.6788,72.1005
49.6788,72.1005
49.8335,72.0697
49.9792,72.0094
50.1103,71.9218
50.2218,71.8103
50.3094,71.6792
50.3697,71.5335
50.4005,71.3788
50.4005,71.2212
50.4005,71.2212
50.4005,71.2212
50.3856,71.1462
50.3697,71.0665
50.3655,71.0562
50.3094,70.9208
50.3094,70.9208
50.2218,70.7897
50.2218,70.7897
50.1103,70.6782
50.1103,70.6782
49.9792,70.5906
49.9792,70.5906
49.8335,70.5303
49.8335,70.5303
49.6788,70.4995
49.6788,70.4995
49.5212,70.4995
49.5212,70.4995
49.3665,70.5303
49.3665,70.5303
49.2208,70.5906
49.2208,70.5906
49.0897,70.6782
49.0897,70.6782
48.9782,70.7897
48.9782,70.7897
48.8906,70.9208
48.8906,70.9208
48.8303,71.0665
48.8303,71.0665
48.7995,71.2212
46.9109,71.2212
46.9218,71.2103
47.0094,71.0792
47.0189,71.0562
47.0697,70.9335
47.0697,70.9335
47.1005,70.7788
47.1005,70.6212
47.1005,70.6212
47.1005,70.6212
47.0697,70.4665
47.0336,70.3792
47.0094,70.3208
47.0094,70.3208
46.9218,70.1897
46.9218,70.1897
46.8103,70.0782
46.8103,70.0782
46.6792,69.9906
46.6792,69.9906
46.5335,69.9303
46.5335,69.9303
46.3788,69.8995
46.3788,69.8995
46.2212,69.8995
46.2212,69.8995
46.0665,69.9303
46.0665,69.9303
45.9208,69.9906
45.9208,69.9906
45.7897,70.0782
45.7897,70.0782
45.6782,70.1897
45.6782,70.1897
45.5906,70.3208
45.5906,70.3208
45.5303,70.4665
45.5303,70.4665
45.4995,70.6212
33.7563,70.6212
33.7583,67.5212
37.0995,67.5212
37.0995,67.6788
37.1303,67.8335
37.1303,67.8335
37.1906,67.9792
37.1906,67.9792
37.2782,68.1103
37.2782,68.1103
37.3897,68.2218
37.3897,68.2218
37.5208,68.3094
37.5208,68.3094
37.5807,68.3342
37.6665,68.3697
37.8212,68.4005
37.8212,68.4005
37.8212,68.4005
37.9788,68.4005
37.9788,68.4005
38.1335,68.3697
38.2792,68.3094
38.4103,68.2218
38.5218,68.1103
38.6094,67.9792
38.6697,67.8335
38.7005,67.6788
38.7005,67.6212
40.4995,67.6212
40.4995,67.7788
40.5303,67.9335
40.5303,67.9335
40.5906,68.0792
40.5906,68.0792
40.6782,68.2103
40.6782,68.2103
40.7897,68.3218
40.7897,68.3218
40.9208,68.4094
40.9208,68.4094
41.0558,68.4653
41.0665,68.4697
41.1982,68.4959
41.2212,68.5005
41.2212,68.5005
41.2212,68.5005
41.3788,68.5005
41.3788,68.5005
41.5335,68.4697
41.6792,68.4094
41.8103,68.3218
41.9218,68.2103
42.0094,68.0792
42.0697,67.9335
42.0811,67.8762
43.1377,67.8762
43.1377,68.0338
43.1685,68.1885
43.1685,68.1885
43.2288,68.3342
43.2289,68.3342
43.3165,68.4653
43.3165,68.4653
43.4280,68.5768
43.4280,68.5768
43.5591,68.6644
43.5591,68.6644
43.7047,68.7247
43.7047,68.7247
43.8594,68.7555
43.8594,68.7555
43.8594,68.7555
44.0171,68.7555
44.0171,68.7555
44.1717,68.7247
44.3174,68.6644
44.3514,68.6417
44.4180,68.6208
44.4677,68.6302
44.5007,68.6439
44.6037,68.6644
44.6553,68.6747
44.6553,68.6747
44.6553,68.6747
44.8130,68.6747
44.8130,68.6747
44.9676,68.6439
45.1133,68.5836
45.2444,68.4959
45.3559,68.3844
45.4247,68.2815
45.4783,68.2367
45.5036,68.2288
45.6350,68.2026
45.7806,68.1423
45.8286,68.1103
45.9168,68.0513
45.9176,68.0525
45.9752,68.0281
46.0441,68.0398
46.0927,68.0823
46.1782,68.2103
46.2897,68.3218
46.2897,68.3218
46.4208,68.4094
46.4208,68.4094
46.5558,68.4653
46.5665,68.4697
46.6982,68.4959
46.7212,68.5005
46.7212,68.5005
46.7212,68.5005
46.8788,68.5005
46.8788,68.5005
47.0335,68.4697
47.1792,68.4094
47.3103,68.3218
47.4218,68.2103
47.5094,68.0792
47.5697,67.9335
47.6005,67.7788
47.6005,67.6212
47.6005,67.6212
47.6005,67.6212
47.5697,67.4665
47.5510,67.4212
47.5094,67.3208
47.5094,67.3208
47.4746,67.2687
47.4326,67.2059
49.1874,67.2059
49.1874,67.3636
49.2182,67.5183
49.2182,67.5183
49.2786,67.6639
49.2786,67.6639
49.3662,67.7951
49.3662,67.7951
49.4777,67.9065
49.4777,67.9066
49.6088,67.9942
49.6088,67.9942
49.7190,68.0398
49.7545,68.0545
49.8785,68.0792
49.9091,68.0853
49.9091,68.0853
49.9091,68.0853
50.0668,68.0853
50.0668,68.0853
50.2214,68.0545
50.3671,67.9942
50.4982,67.9066
50.6097,67.7951
50.6973,67.6639
50.7577,67.5183
50.7770,67.4212
52.9995,67.4212
52.9995,67.5788
53.0303,67.7335
53.0303,67.7335
53.0906,67.8792
53.0906,67.8792
53.1782,68.0103
53.1782,68.0103
53.2897,68.1218
53.2897,68.1218
53.4208,68.2094
53.4208,68.2094
53.5665,68.2697
53.5665,68.2697
53.7212,68.3005
53.7212,68.3005
53.7212,68.3005
53.8788,68.3005
53.8788,68.3005
54.0335,68.2697
54.1792,68.2094
54.3103,68.1218
54.4218,68.0103
54.5094,67.8792
54.5697,67.7335
54.6005,67.5788
54.6005,67.5212
64.2995,67.5212
64.2995,67.6788
64.3303,67.8335
64.3303,67.8335
64.3906,67.9792
64.3906,67.9792
64.4782,68.1103
64.4782,68.1103
64.5897,68.2218
64.5897,68.2218
64.7208,68.3094
64.7208,68.3094
64.7807,68.3342
64.8665,68.3697
65.0212,68.4005
65.0212,68.4005
65.0212,68.4005
65.1788,68.4005
65.1788,68.4005
65.3335,68.3697
65.4792,68.3094
65.6103,68.2218
65.7218,68.1103
65.8094,67.9792
65.8697,67.8335
65.9005,67.6788
65.9005,67.5212
65.9005,67.5212
65.9005,67.5212
65.8999,67.5183
65.8697,67.3665
65.8697,67.3665
65.8680,67.3607
65.8699,67.3601
65.8635,67.2999
65.8947,67.2375
65.8978,67.2343
65.9218,67.2103
66.0094,67.0792
66.0150,67.0657
66.0392,67.0071
66.0697,66.9335
66.1005,66.7788
66.1005,66.6212
66.1005,66.6212
66.1005,66.6212
66.0982,66.6094
66.0697,66.4665
66.0336,66.3792
66.0094,66.3208
66.0094,66.3208
65.9218,66.1897
65.9218,66.1897
65.8103,66.0782
65.8103,66.0782
65.6792,65.9906
65.6792,65.9906
65.5335,65.9303
65.5335,65.9303
65.3788,65.8995
65.3788,65.8995
65.2212,65.8995
65.2212,65.8995
65.0665,65.9303
65.0665,65.9303
64.9208,65.9906
64.9208,65.9906
64.7897,66.0782
64.7897,66.0782
64.6782,66.1897
64.6782,66.1897
64.5906,66.3208
64.5906,66.3208
64.5303,66.4665
64.5303,66.4665
64.4995,66.6212
64.4995,66.7788
64.5303,66.9335
64.5320,66.9393
64.5301,66.9399
64.5365,67.0001
64.5053,67.0626
64.5022,67.0657
64.4782,67.0897
64.4782,67.0897
64.3906,67.2208
64.3906,67.2208
64.3303,67.3665
64.3303,67.3665
64.2995,67.5212
54.6005,67.5212
54.6005,67.4212
54.6005,67.4212
54.6005,67.4212
54.5885,67.3607
54.5697,67.2665
54.5611,67.2456
54.5094,67.1208
54.5094,67.1208
54.4218,66.9897
54.4218,66.9897
54.3103,66.8782
54.3103,66.8782
54.1792,66.7906
54.1792,66.7906
54.0335,66.7303
54.0335,66.7303
53.8788,66.6995
53.8788,66.6995
53.7212,66.6995
53.7212,66.6995
53.5665,66.7303
53.5665,66.7303
53.4208,66.7906
53.4208,66.7906
53.2897,66.8782
53.2897,66.8782
53.1782,66.9897
53.1782,66.9897
53.0906,67.1208
53.0906,67.1208
53.0303,67.2665
53.0303,67.2665
52.9995,67.4212
50.7770,67.4212
50.7830,67.3909
50.7884,67.3636
50.7884,67.2059
50.7884,67.2059
50.7782,67.1545
50.7577,67.0513
50.7394,67.0071
50.6973,66.9056
50.6973,66.9056
50.6097,66.7745
50.6097,66.7745
50.4982,66.6630
50.4982,66.6630
50.3671,66.5754
50.3671,66.5754
50.2214,66.5150
50.2214,66.5150
50.0668,66.4843
50.0668,66.4843
49.9091,66.4843
49.9091,66.4843
49.7545,66.5150
49.7544,66.5150
49.6088,66.5754
49.6088,66.5754
49.4777,66.6630
49.4777,66.6630
49.3662,66.7745
49.3662,66.7745
49.2786,66.9056
49.2786,66.9056
49.2182,67.0513
49.2182,67.0513
49.1874,67.2059
47.4326,67.2059
47.4218,67.1897
47.4218,67.1897
47.3103,67.0782
47.3103,67.0782
47.1792,66.9906
47.1792,66.9906
47.0335,66.9303
47.0335,66.9303
46.8788,66.8995
46.8788,66.8995
46.7212,66.8995
46.7212,66.8995
46.5665,66.9303
46.5665,66.9303
46.4208,66.9906
46.4208,66.9906
46.2846,67.0816
46.2838,67.0804
46.2262,67.1049
46.1573,67.0931
46.1088,67.0506
46.0233,66.9226
46.0232,66.9226
45.9118,66.8111
45.9118,66.8111
45.7806,66.7235
45.7806,66.7235
45.6350,66.6632
45.6350,66.6632
45.4803,66.6324
45.4803,66.6324
45.3226,66.6324
45.3226,66.6324
45.1680,66.6632
45.1680,66.6632
45.0223,66.7235
45.0223,66.7235
44.8912,66.8111
44.8912,66.8111
44.7797,66.9226
44.7797,66.9226
44.7109,67.0256
44.6573,67.0704
44.6320,67.0783
44.5007,67.1044
44.5006,67.1044
44.3550,67.1648
44.3550,67.1648
44.3210,67.1874
44.2543,67.2083
44.2047,67.1989
44.1717,67.1853
44.1717,67.1853
44.1717,67.1853
44.0171,67.1545
44.0171,67.1545
43.8594,67.1545
43.8594,67.1545
43.7048,67.1853
43.7047,67.1853
43.5591,67.2456
43.5591,67.2456
43.4280,67.3332
43.4280,67.3332
43.3165,67.4447
43.3165,67.4447
43.2289,67.5758
43.2288,67.5758
43.1685,67.7215
43.1685,67.7215
43.1377,67.8762
42.0811,67.8762
42.0896,67.8335
42.1005,67.7788
42.1005,67.6212
42.1005,67.6212
42.0697,67.4665
42.0510,67.4212
42.0094,67.3208
42.0094,67.3208
41.9218,67.1897
41.9218,67.1897
41.8103,67.0782
41.8103,67.0782
41.6792,66.9906
41.6792,66.9906
41.5335,66.9303
41.5335,66.9303
41.3788,66.8995
41.3788,66.8995
41.2212,66.8995
41.2212,66.8995
41.0665,66.9303
41.0665,66.9303
40.9208,66.9906
40.9208,66.9906
40.7897,67.0782
40.7897,67.0782
40.6782,67.1897
40.6782,67.1897
40.5906,67.3208
40.5906,67.3208
40.5303,67.4665
40.5303,67.4665
40.4995,67.6212
38.7005,67.6212
38.7005,67.5212
38.7005,67.5212
38.7005,67.5212
38.6999,67.5183
38.6697,67.3665
38.6685,67.3636
38.6094,67.2208
38.6094,67.2208
38.5218,67.0897
38.5218,67.0897
38.4103,66.9782
38.4103,66.9782
38.2792,66.8906
38.2792,66.8906
38.1335,66.8303
38.1335,66.8303
37.9788,66.7995
37.9788,66.7995
37.8212,66.7995
37.8212,66.7995
37.6665,66.8303
37.6665,66.8303
37.5208,66.8906
37.5208,66.8906
37.3897,66.9782
37.3897,66.9782
37.2782,67.0897
37.2782,67.0897
37.1906,67.2208
37.1906,67.2208
37.1303,67.3665
37.1303,67.3665
37.0995,67.5212
33.7583,67.5212
33.7593,65.8212
39.7995,65.8212
39.7995,65.9788
39.8303,66.1335
39.8303,66.1335
39.8906,66.2792
39.8906,66.2792
39.9782,66.4103
39.9782,66.4103
40.0897,66.5218
40.0897,66.5218
40.2208,66.6094
40.2208,66.6094
40.3507,66.6632
40.3665,66.6697
40.5161,66.6995
40.5212,66.7005
40.5212,66.7005
40.5212,66.7005
40.6788,66.7005
40.6788,66.7005
40.8335,66.6697
40.9792,66.6094
41.1103,66.5218
41.2218,66.4103
41.3094,66.2792
41.3697,66.1335
41.4005,65.9788
41.4005,65.9212
59.1995,65.9212
59.1995,66.0788
59.2303,66.2335
59.2303,66.2335
59.2906,66.3792
59.2906,66.3792
59.3782,66.5103
59.3782,66.5103
59.4897,66.6218
59.4897,66.6218
59.6208,66.7094
59.6208,66.7094
59.7665,66.7697
59.7665,66.7697
59.9161,66.7995
59.9212,66.8005
59.9212,66.8005
59.9212,66.8005
60.0788,66.8005
60.0788,66.8005
60.2335,66.7697
60.3792,66.7094
60.5103,66.6218
60.6218,66.5103
60.7094,66.3792
60.7697,66.2335
60.8005,66.0788
60.8005,65.9212
60.8005,65.9212
60.8005,65.9212
60.7962,65.8995
60.7697,65.7665
60.7283,65.6665
60.7094,65.6208
60.7094,65.6208
60.6218,65.4897
60.6218,65.4897
60.5103,65.3782
60.5103,65.3782
60.3792,65.2906
60.3792,65.2906
60.2335,65.2303
60.2335,65.2303
60.0788,65.1995
60.0788,65.1995
59.9212,65.1995
59.9212,65.1995
59.7665,65.2303
59.7665,65.2303
59.6208,65.2906
59.6208,65.2906
59.4897,65.3782
59.4897,65.3782
59.3782,65.4897
59.3782,65.4897
59.2906,65.6208
59.2906,65.6208
59.2303,65.7665
59.2303,65.7665
59.1995,65.9212
41.4005,65.9212
41.4005,65.8212
41.4005,65.8212
41.4005,65.8212
41.3697,65.6665
41.3508,65.6208
41.3265,65.5620
41.3190,65.4925
41.3503,65.4301
41.4104,65.3944
41.4168,65.3929
41.5335,65.3697
41.6792,65.3094
41.8103,65.2218
41.9218,65.1103
42.0094,64.9792
42.0697,64.8335
42.1005,64.6788
42.1005,64.5212
42.1005,64.5212
42.1005,64.5212
42.0894,64.4652
42.0697,64.3665
42.0339,64.2800
42.0094,64.2208
42.0094,64.2208
41.9218,64.0897
41.9218,64.0897
41.8103,63.9782
41.8103,63.9782
41.6792,63.8906
41.6792,63.8906
41.5335,63.8303
41.5335,63.8303
41.3788,63.7995
41.3788,63.7995
41.2212,63.7995
41.2212,63.7995
41.0665,63.8303
41.0665,63.8303
40.9208,63.8906
40.9208,63.8906
40.7897,63.9782
40.7897,63.9782
40.6782,64.0897
40.6782,64.0897
40.5906,64.2208
40.5906,64.2208
40.5303,64.3665
40.5303,64.3665
40.4995,64.5212
40.4995,64.6788
40.5303,64.8335
40.5303,64.8335
40.5735,64.9380
40.5810,65.0075
40.5497,65.0699
40.4896,65.1056
40.4832,65.1071
40.3665,65.1303
40.3665,65.1303
40.2208,65.1906
40.2208,65.1906
40.0897,65.2782
40.0897,65.2782
39.9782,65.3897
39.9782,65.3897
39.8906,65.5208
39.8906,65.5208
39.8303,65.6665
39.8303,65.6665
39.7995,65.8212
33.7593,65.8212
33.7614,62.6212
35.8995,62.6212
35.8995,62.7788
35.9303,62.9335
35.9303,62.9335
35.9906,63.0792
35.9906,63.0792
36.0253,63.1311
36.0462,63.1978
36.0277,63.2652
36.0253,63.2689
35.9906,63.3208
35.9906,63.3208
35.9303,63.4665
35.9303,63.4665
35.8995,63.6212
35.8995,63.7788
35.9303,63.9335
35.9303,63.9335
35.9906,64.0792
35.9906,64.0792
36.0782,64.2103
36.0782,64.2103
36.1897,64.3218
36.1897,64.3218
36.3208,64.4094
36.3208,64.4094
36.4665,64.4697
36.4665,64.4697
36.6212,64.5005
36.6212,64.5005
36.6212,64.5005
36.7788,64.5005
36.7788,64.5005
36.9335,64.4697
37.0563,64.4189
37.0792,64.4094
37.0792,64.4094
37.0792,64.4094
37.2103,64.3218
37.3218,64.2103
37.4094,64.0792
37.4129,64.0708
37.4512,63.9782
37.4697,63.9335
37.5005,63.7788
37.5005,63.6712
51.1495,63.6712
51.1495,63.8288
51.1803,63.9835
51.1803,63.9835
51.2406,64.1292
51.2406,64.1292
51.3282,64.2603
51.3282,64.2603
51.4397,64.3718
51.4397,64.3718
51.5622,64.4536
51.5964,64.4878
51.6782,64.6103
51.7897,64.7218
51.7897,64.7218
51.9122,64.8036
51.9464,64.8378
52.0282,64.9603
52.1397,65.0718
52.1397,65.0718
52.2708,65.1594
52.2708,65.1594
52.3462,65.1906
52.4165,65.2197
52.5712,65.2505
52.5712,65.2505
52.5712,65.2505
52.7288,65.2505
52.7288,65.2505
52.8835,65.2197
53.0292,65.1594
53.1603,65.0718
53.2718,64.9603
53.3594,64.8292
53.4197,64.6835
53.4505,64.5288
53.4505,64.3712
53.4505,64.3712
53.4505,64.3712
53.4284,64.2603
53.4197,64.2165
53.4089,64.1904
53.3594,64.0708
53.3594,64.0708
53.2718,63.9397
53.2718,63.9397
53.1603,63.8282
53.0378,63.7464
53.0036,63.7122
52.9218,63.5897
52.9218,63.5897
52.8103,63.4782
52.6878,63.3964
52.6536,63.3622
52.5718,63.2397
52.5718,63.2397
52.4603,63.1282
52.4603,63.1282
52.3292,63.0406
52.3292,63.0406
52.1835,62.9803
52.1835,62.9803
52.0288,62.9495
52.0288,62.9495
51.8712,62.9495
51.8712,62.9495
51.7165,62.9803
51.7165,62.9803
51.5708,63.0406
51.5708,63.0406
51.4397,63.1282
51.4397,63.1282
51.3282,63.2397
51.3282,63.2397
51.2406,63.3708
51.2406,63.3708
51.1803,63.5165
51.1803,63.5165
51.1495,63.6712
37.5005,63.6712
37.5005,63.6212
37.5005,63.6212
37.5005,63.6212
37.4797,63.5165
37.4697,63.4665
37.4383,63.3906
37.4094,63.3208
37.4094,63.3208
37.4094,63.3208
37.3747,63.2689
37.3538,63.2022
37.3723,63.1348
37.3747,63.1311
37.4094,63.0792
37.4697,62.9335
37.5005,62.7788
37.5005,62.6212
37.5005,62.6212
37.5005,62.6212
37.4697,62.4665
37.4697,62.4665
37.4094,62.3208
37.4094,62.3208
37.3218,62.1897
37.3218,62.1897
37.2207,62.0887
49.7020,62.0887
49.7020,62.2463
49.7328,62.4010
49.7328,62.4010
49.7931,62.5467
49.7931,62.5467
49.8807,62.6778
49.8807,62.6778
49.9922,62.7893
49.9922,62.7893
50.1233,62.8769
50.1233,62.8769
50.2047,62.9106
50.2690,62.9372
50.4237,62.9680
50.4237,62.9680
50.4237,62.9680
50.5813,62.9680
50.5813,62.9680
50.7360,62.9372
50.8817,62.8769
51.0128,62.7893
51.1243,62.6778
51.2119,62.5467
51.2722,62.4010
51.3030,62.2463
51.3030,62.0887
51.3030,62.0887
51.3030,62.0887
51.3009,62.0782
51.2722,61.9340
51.2707,61.9303
51.2119,61.7883
51.2119,61.7883
51.1243,61.6572
51.1243,61.6572
51.0128,61.5457
51.0128,61.5457
50.8817,61.4581
50.8817,61.4581
50.7360,61.3978
50.7360,61.3978
50.5813,61.3670
50.5813,61.3670
50.4237,61.3670
50.4237,61.3670
50.2690,61.3978
50.2690,61.3978
50.1233,61.4581
50.1233,61.4581
49.9922,61.5457
49.9922,61.5457
49.8807,61.6572
49.8807,61.6572
49.7931,61.7883
49.7931,61.7883
49.7328,61.9340
49.7328,61.9340
49.7020,62.0887
37.2207,62.0887
37.2103,62.0782
37.2103,62.0782
37.0792,61.9906
37.0792,61.9906
36.9335,61.9303
36.9335,61.9303
36.7788,61.8995
36.7788,61.8995
36.6212,61.8995
36.6212,61.8995
36.4665,61.9303
36.4665,61.9303
36.3208,61.9906
36.3208,61.9906
36.1897,62.0782
36.1897,62.0782
36.0782,62.1897
36.0782,62.1897
35.9906,62.3208
35.9906,62.3208
35.9303,62.4665
35.9303,62.4665
35.8995,62.6212
33.7614,62.6212
33.7626,60.7212
46.9995,60.7212
46.9995,60.8788
47.0303,61.0335
47.0303,61.0335
47.0906,61.1792
47.0906,61.1792
47.1782,61.3103
47.1782,61.3103
47.2897,61.4218
47.2897,61.4218
47.4208,61.5094
47.4208,61.5094
47.5085,61.5457
47.5665,61.5697
47.7212,61.6005
47.7212,61.6005
47.7212,61.6005
47.8788,61.6005
47.8788,61.6005
48.0335,61.5697
48.1792,61.5094
48.3103,61.4218
48.4218,61.3103
48.5094,61.1792
48.5697,61.0335
48.6005,60.8788
48.6005,60.8712
61.0495,60.8712
61.0495,61.0288
61.0803,61.1835
61.0803,61.1835
61.1406,61.3292
61.1406,61.3292
61.2282,61.4603
61.2282,61.4603
61.3397,61.5718
61.3397,61.5718
61.4708,61.6594
61.4708,61.6594
61.6165,61.7197
61.6165,61.7197
61.7712,61.7505
61.7712,61.7505
61.7712,61.7505
61.9288,61.7505
61.9288,61.7505
62.0835,61.7197
62.2292,61.6594
62.3603,61.5718
62.4718,61.4603
62.5594,61.3292
62.6197,61.1835
62.6505,61.0288
62.6505,60.8712
62.6505,60.8712
62.6505,60.8712
62.6197,60.7165
62.6197,60.7165
62.6191,60.7150
62.5594,60.5708
62.5594,60.5708
62.4718,60.4397
62.4718,60.4397
62.3603,60.3282
62.3603,60.3282
62.2292,60.2406
62.2292,60.2406
62.0835,60.1803
62.0835,60.1803
61.9288,60.1495
61.9288,60.1495
61.7712,60.1495
61.7712,60.1495
61.6165,60.1803
61.6165,60.1803
61.4708,60.2406
61.4708,60.2406
61.3397,60.3282
61.3397,60.3282
61.2282,60.4397
61.2282,60.4397
61.1406,60.5708
61.1406,60.5708
61.0803,60.7165
61.0803,60.7165
61.0495,60.8712
48.6005,60.8712
48.6005,60.7212
48.6005,60.7212
48.6005,60.7212
48.5996,60.7165
48.5697,60.5665
48.5697,60.5665
48.5094,60.4208
48.5094,60.4208
48.4218,60.2897
48.4218,60.2897
48.3103,60.1782
48.3103,60.1782
48.1792,60.0906
48.1792,60.0906
48.0335,60.0303
48.0335,60.0303
47.8788,59.9995
47.8788,59.9995
47.7212,59.9995
47.7212,59.9995
47.5665,60.0303
47.5665,60.0303
47.4208,60.0906
47.4208,60.0906
47.2897,60.1782
47.2897,60.1782
47.1782,60.2897
47.1782,60.2897
47.0906,60.4208
47.0906,60.4208
47.0303,60.5665
47.0303,60.5665
46.9995,60.7212
33.7626,60.7212
33.7661,55.1212
38.1395,55.1212
38.1395,55.2788
38.1703,55.4335
38.1703,55.4335
38.2306,55.5792
38.2306,55.5792
38.3182,55.7103
38.3182,55.7103
38.4297,55.8218
38.4297,55.8218
38.5608,55.9094
38.5608,55.9094
38.7065,55.9697
38.7065,55.9697
38.7523,55.9788
38.8243,55.9932
38.8862,56.0256
38.9208,56.0863
38.9217,56.0906
38.9303,56.1335
38.9303,56.1335
38.9906,56.2792
38.9906,56.2792
39.0782,56.4103
39.0782,56.4103
39.1897,56.5218
39.1897,56.5218
39.3208,56.6094
39.3208,56.6094
39.4587,56.6665
39.4665,56.6697
39.6212,56.7005
39.6212,56.7005
39.6549,56.7005
39.7219,56.7202
39.7677,56.7730
39.7776,56.8421
39.7694,56.8720
39.7303,56.9665
39.7303,56.9665
39.6995,57.1212
39.6995,57.2788
39.7303,57.4335
39.7303,57.4335
39.7906,57.5792
39.7906,57.5792
39.8782,57.7103
39.8782,57.7103
39.9897,57.8218
39.9897,57.8218
40.1208,57.9094
40.1208,57.9094
40.2665,57.9697
40.2665,57.9697
40.4212,58.0005
40.4212,58.0005
40.4212,58.0005
40.5788,58.0005
40.5788,58.0005
40.7335,57.9697
40.8792,57.9094
41.0103,57.8218
41.1218,57.7103
41.1479,57.6712
47.2495,57.6712
47.2495,57.8288
47.2803,57.9835
47.2803,57.9835
47.3406,58.1292
47.3406,58.1292
47.4282,58.2603
47.4282,58.2603
47.5397,58.3718
47.5397,58.3718
47.6708,58.4594
47.6708,58.4594
47.8165,58.5197
47.8165,58.5197
47.9712,58.5505
47.9712,58.5505
47.9712,58.5505
48.1288,58.5505
48.1288,58.5505
48.2835,58.5197
48.4292,58.4594
48.5603,58.3718
48.6718,58.2603
48.7594,58.1292
48.8197,57.9835
48.8505,57.8288
48.8505,57.8245
48.8702,57.7575
48.9230,57.7117
48.9745,57.7005
48.9788,57.7005
48.9788,57.7005
49.1335,57.6697
49.2792,57.6094
49.4103,57.5218
49.5218,57.4103
49.6094,57.2792
49.6697,57.1335
49.7005,56.9788
49.7005,56.8212
49.7005,56.8212
49.7005,56.8212
49.7004,56.8208
49.6697,56.6665
49.6461,56.6094
49.6094,56.5208
49.6094,56.5208
49.5218,56.3897
49.5218,56.3897
49.4103,56.2782
49.4103,56.2782
49.2792,56.1906
49.2792,56.1906
49.1335,56.1303
49.1335,56.1303
48.9788,56.0995
48.9788,56.0995
48.8212,56.0995
48.8212,56.0995
48.6665,56.1303
48.6665,56.1303
48.5208,56.1906
48.5208,56.1906
48.3897,56.2782
48.3897,56.2782
48.2782,56.3897
48.2782,56.3897
48.1906,56.5208
48.1906,56.5208
48.1303,56.6665
48.1303,56.6665
48.0995,56.8212
48.0995,56.8255
48.0798,56.8925
48.0270,56.9383
47.9755,56.9495
47.9712,56.9495
47.8165,56.9803
47.8165,56.9803
47.6708,57.0406
47.6708,57.0406
47.5397,57.1282
47.5397,57.1282
47.4282,57.2397
47.4282,57.2397
47.3406,57.3708
47.3406,57.3708
47.2803,57.5165
47.2803,57.5165
47.2495,57.6712
41.1479,57.6712
41.2094,57.5792
41.2697,57.4335
41.3005,57.2788
41.3005,57.1212
41.3005,57.1212
41.3005,57.1212
41.2697,56.9665
41.2581,56.9383
41.2094,56.8208
41.2094,56.8208
41.1218,56.6897
41.1218,56.6897
41.0103,56.5782
41.0103,56.5782
40.8792,56.4906
40.8792,56.4906
40.7335,56.4303
40.7335,56.4303
40.5788,56.3995
40.5788,56.3995
40.5451,56.3995
40.4781,56.3798
40.4323,56.3270
40.4224,56.2579
40.4306,56.2280
40.4697,56.1335
40.5005,55.9788
40.5005,55.8212
40.5005,55.8212
40.5005,55.8212
40.4784,55.7103
40.4697,55.6665
40.4336,55.5792
40.4094,55.5208
40.4094,55.5208
40.3218,55.3897
40.3218,55.3897
40.2103,55.2782
40.2103,55.2782
40.0792,55.1906
40.0792,55.1906
39.9335,55.1303
39.9335,55.1303
39.8157,55.1068
39.7538,55.0744
39.7192,55.0137
39.7183,55.0094
39.7097,54.9665
39.7097,54.9665
39.7097,54.9665
39.6494,54.8208
39.6494,54.8208
39.5618,54.6897
39.5618,54.6897
39.4503,54.5782
39.4503,54.5782
39.3192,54.4906
39.3192,54.4906
39.1735,54.4303
39.1735,54.4303
39.0188,54.3995
39.0188,54.3995
38.8612,54.3995
38.8612,54.3995
38.7065,54.4303
38.7065,54.4303
38.5608,54.4906
38.5608,54.4906
38.4297,54.5782
38.4297,54.5782
38.3182,54.6897
38.3182,54.6897
38.2306,54.8208
38.2306,54.8208
38.1703,54.9665
38.1703,54.9665
38.1395,55.1212
33.7661,55.1212
33.7679,52.3212
47.8995,52.3212
47.8995,52.4788
47.9303,52.6335
47.9303,52.6335
47.9906,52.7792
47.9906,52.7792
48.0782,52.9103
48.0782,52.9103
48.1897,53.0218
48.1897,53.0218
48.3208,53.1094
48.3208,53.1094
48.4665,53.1697
48.4665,53.1697
48.6212,53.2005
48.6212,53.2005
48.6212,53.2005
48.7788,53.2005
48.7788,53.2005
48.9335,53.1697
49.0792,53.1094
49.2103,53.0218
49.3218,52.9103
49.4094,52.7792
49.4697,52.6335
49.5005,52.4788
49.5005,52.3212
49.5005,52.3212
49.5005,52.3212
49.4697,52.1665
49.4697,52.1665
49.4098,52.0218
49.4094,52.0208
49.4094,52.0208
49.3218,51.8897
49.3218,51.8897
49.2103,51.7782
49.2103,51.7782
49.0792,51.6906
49.0792,51.6906
48.9335,51.6303
48.9335,51.6303
48.7788,51.5995
48.7788,51.5995
48.6212,51.5995
48.6212,51.5995
48.4665,51.6303
48.4665,51.6303
48.3208,51.6906
48.3208,51.6906
48.1897,51.7782
48.1897,51.7782
48.0782,51.8897
48.0782,51.8897
47.9906,52.0208
47.9906,52.0208
47.9303,52.1665
47.9303,52.1665
47.8995,52.3212
33.7679,52.3212
33.7699,49.1212
41.4995,49.1212
41.4995,49.2788
41.5287,49.4258
41.5287,49.4742
41.4995,49.6212
41.4995,49.7788
41.5303,49.9335
41.5303,49.9335
41.5906,50.0792
41.5906,50.0792
41.6782,50.2103
41.6782,50.2103
41.7897,50.3218
41.7897,50.3218
41.9208,50.4094
41.9208,50.4094
42.0665,50.4697
42.0665,50.4697
42.2212,50.5005
42.2212,50.5005
42.2212,50.5005
42.3788,50.5005
42.3788,50.5005
42.5335,50.4697
42.6792,50.4094
42.7364,50.3712
45.4495,50.3712
45.4495,50.5288
45.4803,50.6835
45.4803,50.6835
45.5406,50.8292
45.5406,50.8292
45.6282,50.9603
45.6282,50.9603
45.7397,51.0718
45.7397,51.0718
45.8708,51.1594
45.8708,51.1594
46.0165,51.2197
46.0165,51.2197
46.1712,51.2505
46.1712,51.2505
46.1712,51.2505
46.1755,51.2505
46.2425,51.2702
46.2883,51.3230
46.2995,51.3745
46.2995,51.4788
46.3303,51.6335
46.3303,51.6335
46.3906,51.7792
46.3906,51.7792
46.4782,51.9103
46.4782,51.9103
46.5897,52.0218
46.5897,52.0218
46.7208,52.1094
46.7208,52.1094
46.8587,52.1665
46.8665,52.1697
47.0212,52.2005
47.0212,52.2005
47.0212,52.2005
47.1788,52.2005
47.1788,52.2005
47.1892,52.1984
47.2143,52.1934
47.2143,52.1934
47.2998,52.1764
47.3335,52.1697
47.4792,52.1094
47.6103,52.0218
47.7218,51.9103
47.8094,51.7792
47.8697,51.6335
47.9005,51.4788
47.9005,51.3212
47.9005,51.3212
47.9005,51.3212
47.8842,51.2392
47.8697,51.1665
47.8424,51.1005
47.8094,51.0208
47.8094,51.0208
47.7218,50.8897
47.7218,50.8897
47.6103,50.7782
47.6103,50.7782
47.4792,50.6906
47.4792,50.6906
47.3335,50.6303
47.3335,50.6303
47.1788,50.5995
47.1788,50.5995
47.1745,50.5995
47.1658,50.5969
47.1569,50.5982
47.1419,50.5914
55.4320,50.5914
55.4608,50.7364
55.4608,50.7364
55.5174,50.8730
55.5174,50.8730
55.5995,50.9959
55.5996,50.9959
55.7041,51.1004
55.7041,51.1005
55.8270,51.1826
55.8270,51.1826
55.9636,51.2392
55.9636,51.2392
55.9636,51.2392
55.9636,51.2392
56.1086,51.2680
56.1086,51.2680
56.2564,51.2680
56.3540,51.2486
56.4014,51.2392
56.5380,51.1826
56.6609,51.1005
56.7655,50.9959
56.8476,50.8730
56.9042,50.7364
56.9147,50.6835
56.9330,50.5914
56.9330,50.4436
56.9042,50.2986
56.9042,50.2986
56.9042,50.2986
56.8676,50.2103
56.8476,50.1620
56.8476,50.1620
56.7655,50.0391
56.7654,50.0391
56.6609,49.9346
56.6609,49.9345
56.5380,49.8524
56.5380,49.8524
56.4014,49.7958
56.4014,49.7958
56.2564,49.7670
56.2564,49.7670
56.1086,49.7670
56.1086,49.7670
55.9636,49.7958
55.9636,49.7958
55.8270,49.8524
55.8270,49.8524
55.7041,49.9345
55.7041,49.9346
55.5996,50.0391
55.5995,50.0391
55.5174,50.1620
55.5174,50.1620
55.4608,50.2986
55.4608,50.2986
55.4320,50.4436
55.4320,50.4436
55.4320,50.5914
55.4320,50.5914
55.4320,50.5914
47.1419,50.5914
47.1328,50.5873
47.1075,50.5798
47.1015,50.5730
47.0933,50.5692
47.0790,50.5470
47.0617,50.5270
47.0594,50.5165
47.0555,50.5104
47.0505,50.4755
47.0505,50.3712
47.0505,50.3712
47.0407,50.3218
47.0197,50.2165
46.9972,50.1620
46.9594,50.0708
46.9594,50.0708
46.8718,49.9397
46.8718,49.9397
46.7603,49.8282
46.7603,49.8282
46.6292,49.7406
46.6292,49.7406
46.4835,49.6803
46.4835,49.6803
46.3288,49.6495
46.3288,49.6495
46.1712,49.6495
46.1712,49.6495
46.0165,49.6803
46.0165,49.6803
45.8708,49.7406
45.8708,49.7406
45.7397,49.8282
45.7397,49.8282
45.6282,49.9397
45.6282,49.9397
45.5406,50.0708
45.5406,50.0708
45.4803,50.2165
45.4803,50.2165
45.4495,50.3712
42.7364,50.3712
42.8103,50.3218
42.8103,50.3218
42.8547,50.2774
42.9218,50.2103
42.9218,50.2103
42.9218,50.2103
43.0036,50.0878
43.0378,50.0536
43.1603,49.9718
43.2718,49.8603
43.3594,49.7292
43.4197,49.5835
43.4505,49.4288
43.4505,49.2712
43.4505,49.2712
43.4505,49.2712
43.4197,49.1165
43.4197,49.1165
43.4191,49.1150
43.3594,48.9708
43.3594,48.9708
43.2718,48.8397
43.2718,48.8397
43.1603,48.7282
43.1603,48.7282
43.0292,48.6406
43.0292,48.6406
42.8835,48.5803
42.8835,48.5803
42.8078,48.5652
42.7631,48.5467
42.6792,48.4906
42.6792,48.4906
42.5335,48.4303
42.5335,48.4303
42.3788,48.3995
42.3788,48.3995
42.2212,48.3995
42.2212,48.3995
42.0665,48.4303
42.0665,48.4303
41.9208,48.4906
41.9208,48.4906
41.7897,48.5782
41.7897,48.5782
41.6782,48.6897
41.6782,48.6897
41.5906,48.8208
41.5906,48.8208
41.5303,48.9665
41.5303,48.9665
41.4995,49.1212
33.7699,49.1212
33.7717,46.3212
40.1995,46.3212
40.1995,46.4788
40.2287,46.6258
40.2287,46.6742
40.1995,46.8212
40.1995,46.9788
40.2303,47.1335
40.2303,47.1335
40.2906,47.2792
40.2906,47.2792
40.3782,47.4103
40.3782,47.4103
40.4897,47.5218
40.4897,47.5218
40.6208,47.6094
40.6208,47.6094
40.7665,47.6697
40.7665,47.6697
40.9212,47.7005
40.9212,47.7005
40.9212,47.7005
41.0788,47.7005
41.0788,47.7005
41.2335,47.6697
41.3792,47.6094
41.5103,47.5218
41.6218,47.4103
41.7094,47.2792
41.7334,47.2212
46.0995,47.2212
46.0995,47.3788
46.1303,47.5335
46.1303,47.5335
46.1906,47.6792
46.1906,47.6792
46.2782,47.8103
46.2782,47.8103
46.3897,47.9218
46.3897,47.9218
46.5208,48.0094
46.5208,48.0094
46.6665,48.0697
46.6665,48.0697
46.8212,48.1005
46.8212,48.1005
46.8212,48.1005
46.9788,48.1005
46.9788,48.1005
47.1335,48.0697
47.2792,48.0094
47.4103,47.9218
47.5218,47.8103
47.6094,47.6792
47.6697,47.5335
47.7005,47.3788
47.7005,47.2212
47.7005,47.2212
47.7005,47.2212
47.6697,47.0665
47.6697,47.0665
47.6334,46.9788
47.6094,46.9208
47.6094,46.9208
47.5218,46.7897
47.5218,46.7897
47.4103,46.6782
47.4103,46.6782
47.2792,46.5906
47.2792,46.5906
47.1335,46.5303
47.1335,46.5303
46.9788,46.4995
46.9788,46.4995
46.8212,46.4995
46.8212,46.4995
46.6665,46.5303
46.6665,46.5303
46.5208,46.5906
46.5208,46.5906
46.3897,46.6782
46.3897,46.6782
46.2782,46.7897
46.2782,46.7897
46.1906,46.9208
46.1906,46.9208
46.1303,47.0665
46.1303,47.0665
46.0995,47.2212
41.7334,47.2212
41.7556,47.1676
41.7556,47.1676
41.7697,47.1335
41.8005,46.9788
41.8005,46.8212
41.8005,46.8212
41.7721,46.6782
41.7713,46.6742
41.7713,46.6258
41.7783,46.5906
41.7867,46.5480
41.8005,46.4788
41.8005,46.3212
41.8005,46.3212
41.7697,46.1665
41.7465,46.1103
41.7094,46.0208
41.7094,46.0208
41.6218,45.8897
41.6218,45.8897
41.5103,45.7782
41.5103,45.7782
41.3792,45.6906
41.3792,45.6906
41.2335,45.6303
41.2335,45.6303
41.0788,45.5995
41.0788,45.5995
40.9212,45.5995
40.9212,45.5995
40.7665,45.6303
40.7665,45.6303
40.6208,45.6906
40.6208,45.6906
40.4897,45.7782
40.4897,45.7782
40.3782,45.8897
40.3782,45.8897
40.2906,46.0208
40.2906,46.0208
40.2303,46.1665
40.2303,46.1665
40.1995,46.3212
33.7717,46.3212
33.7722,45.5212
54.6995,45.5212
54.6995,45.6788
54.7303,45.8335
54.7303,45.8335
54.7906,45.9792
54.7906,45.9792
54.8782,46.1103
54.8782,46.1103
54.9897,46.2218
54.9897,46.2218
55.1208,46.3094
55.1208,46.3094
55.2665,46.3697
55.2665,46.3697
55.4212,46.4005
55.4212,46.4005
55.4212,46.4005
55.5788,46.4005
55.5788,46.4005
55.7335,46.3697
55.8792,46.3094
56.0103,46.2218
56.0123,46.2198
56.0136,46.2190
56.0150,46.2179
56.0152,46.2182
56.0736,46.1863
56.1433,46.1913
56.1849,46.2180
56.1850,46.2179
56.1856,46.2185
56.1877,46.2198
56.1897,46.2218
56.3208,46.3094
56.3208,46.3094
56.4665,46.3697
56.4665,46.3697
56.6212,46.4005
56.6212,46.4005
56.6212,46.4005
56.7788,46.4005
56.7788,46.4005
56.9335,46.3697
57.0792,46.3094
57.2103,46.2218
57.3218,46.1103
57.4094,45.9792
57.4697,45.8335
57.5005,45.6788
57.5005,45.5212
57.5005,45.5212
57.5005,45.5212
57.4697,45.3665
57.4697,45.3665
57.4697,45.3665
57.4094,45.2208
57.4094,45.2208
57.3218,45.0897
57.3218,45.0897
57.2103,44.9782
57.2103,44.9782
57.0792,44.8906
57.0792,44.8906
56.9335,44.8303
56.9335,44.8303
56.7788,44.7995
56.7788,44.7995
56.6212,44.7995
56.6212,44.7995
56.4665,44.8303
56.4665,44.8303
56.3208,44.8906
56.3208,44.8906
56.1897,44.9782
56.1897,44.9782
56.1877,44.9802
56.1864,44.9810
56.1850,44.9821
56.1848,44.9818
56.1264,45.0137
56.0567,45.0087
56.0151,44.9820
56.0150,44.9821
56.0144,44.9816
56.0123,44.9802
56.0103,44.9782
56.0103,44.9782
55.8792,44.8906
55.8792,44.8906
55.7335,44.8303
55.7335,44.8303
55.5788,44.7995
55.5788,44.7995
55.4212,44.7995
55.4212,44.7995
55.2665,44.8303
55.2665,44.8303
55.1208,44.8906
55.1208,44.8906
54.9897,44.9782
54.9897,44.9782
54.8782,45.0897
54.8782,45.0897
54.7906,45.2208
54.7906,45.2208
54.7303,45.3665
54.7303,45.3665
54.6995,45.5212
33.7722,45.5212
33.7744,42.1212
36.2995,42.1212
36.2995,42.2788
36.3303,42.4335
36.3303,42.4335
36.3906,42.5792
36.3906,42.5792
36.4782,42.7103
36.4782,42.7103
36.5897,42.8218
36.5897,42.8218
36.7208,42.9094
36.7208,42.9094
36.8665,42.9697
36.8665,42.9697
37.0212,43.0005
37.0212,43.0005
37.0212,43.0005
37.1788,43.0005
37.1788,43.0005
37.3335,42.9697
37.4508,42.9212
40.0995,42.9212
40.0995,43.0788
40.1303,43.2335
40.1303,43.2335
40.1906,43.3792
40.1906,43.3792
40.2782,43.5103
40.2782,43.5103
40.3897,43.6218
40.3897,43.6218
40.5208,43.7094
40.5208,43.7094
40.6665,43.7697
40.6665,43.7697
40.8212,43.8005
40.8212,43.8005
40.8212,43.8005
40.9788,43.8005
40.9788,43.8005
41.1335,43.7697
41.2792,43.7094
41.4103,43.6218
41.5218,43.5103
41.6094,43.3792
41.6133,43.3698
41.6379,43.3103
41.6697,43.2335
41.7005,43.0788
41.7005,42.9212
41.7005,42.9212
41.7005,42.9212
41.6743,42.7893
41.6707,42.7712
45.4495,42.7712
45.4495,42.9288
45.4803,43.0835
45.4803,43.0835
45.5406,43.2292
45.5406,43.2292
45.6282,43.3603
45.6282,43.3603
45.7397,43.4718
45.7397,43.4718
45.8708,43.5594
45.8708,43.5594
45.9701,43.6005
46.0165,43.6197
46.1712,43.6505
46.1712,43.6505
46.1712,43.6505
46.3288,43.6505
46.3288,43.6505
46.4835,43.6197
46.6292,43.5594
46.7603,43.4718
46.8103,43.4218
46.8623,43.3698
46.9236,43.3363
46.9933,43.3413
47.0377,43.3698
47.0897,43.4218
47.0897,43.4218
47.2208,43.5094
47.2208,43.5094
47.3665,43.5697
47.3665,43.5697
47.5212,43.6005
47.5212,43.6005
47.5212,43.6005
47.6788,43.6005
47.6788,43.6005
47.8335,43.5697
47.9792,43.5094
48.1103,43.4218
48.2218,43.3103
48.3094,43.1792
48.3697,43.0335
48.3906,42.9288
48.3921,42.9212
59.4995,42.9212
59.4995,43.0788
59.5303,43.2335
59.5303,43.2335
59.5906,43.3792
59.5906,43.3792
59.6782,43.5103
59.6782,43.5103
59.7897,43.6218
59.7897,43.6218
59.9208,43.7094
59.9208,43.7094
60.0665,43.7697
60.0665,43.7697
60.2212,43.8005
60.2212,43.8005
60.2212,43.8005
60.3788,43.8005
60.3788,43.8005
60.5335,43.7697
60.6792,43.7094
60.8103,43.6218
60.9218,43.5103
61.0094,43.3792
61.0133,43.3698
61.0379,43.3103
61.0697,43.2335
61.1005,43.0788
61.1005,42.9212
61.1005,42.9212
61.1005,42.9212
61.0807,42.8218
61.0697,42.7665
61.0510,42.7212
61.0094,42.6208
61.0094,42.6208
60.9218,42.4897
60.9218,42.4897
60.8103,42.3782
60.8103,42.3782
60.6792,42.2906
60.6792,42.2906
60.5335,42.2303
60.5335,42.2303
60.3788,42.1995
60.3788,42.1995
60.2212,42.1995
60.2212,42.1995
60.0665,42.2303
60.0665,42.2303
59.9208,42.2906
59.9208,42.2906
59.7897,42.3782
59.7897,42.3782
59.6782,42.4897
59.6782,42.4897
59.5906,42.6208
59.5906,42.6208
59.5303,42.7665
59.5303,42.7665
59.4995,42.9212
48.3921,42.9212
48.3981,42.8909
48.3981,42.8909
48.4005,42.8788
48.4005,42.7212
48.4005,42.7212
48.3805,42.6208
48.3697,42.5665
48.3379,42.4897
48.3094,42.4208
48.3094,42.4208
48.2218,42.2897
48.2218,42.2897
48.1103,42.1782
48.1103,42.1782
47.9792,42.0906
47.9792,42.0906
47.8335,42.0303
47.8335,42.0303
47.6788,41.9995
47.6788,41.9995
47.5212,41.9995
47.5212,41.9995
47.3665,42.0303
47.3665,42.0303
47.2208,42.0906
47.2208,42.0906
47.0897,42.1782
47.0897,42.1782
46.9877,42.2802
46.9264,42.3137
46.8567,42.3087
46.8123,42.2802
46.7603,42.2282
46.7603,42.2282
46.6292,42.1406
46.6292,42.1406
46.4835,42.0803
46.4835,42.0803
46.3288,42.0495
46.3288,42.0495
46.1712,42.0495
46.1712,42.0495
46.0165,42.0803
46.0165,42.0803
45.8708,42.1406
45.8708,42.1406
45.7397,42.2282
45.7397,42.2282
45.6282,42.3397
45.6282,42.3397
45.5406,42.4708
45.5406,42.4708
45.4803,42.6165
45.4803,42.6165
45.4495,42.7712
41.6707,42.7712
41.6697,42.7665
41.6697,42.7665
41.6094,42.6208
41.6094,42.6208
41.5218,42.4897
41.5218,42.4897
41.4103,42.3782
41.4103,42.3782
41.2792,42.2906
41.2792,42.2906
41.1335,42.2303
41.1335,42.2303
40.9788,42.1995
40.9788,42.1995
40.8212,42.1995
40.8212,42.1995
40.6665,42.2303
40.6665,42.2303
40.5208,42.2906
40.5208,42.2906
40.3897,42.3782
40.3897,42.3782
40.2782,42.4897
40.2782,42.4897
40.1906,42.6208
40.1906,42.6208
40.1303,42.7665
40.1303,42.7665
40.0995,42.9212
37.4508,42.9212
37.4792,42.9094
37.6103,42.8218
37.7218,42.7103
37.8094,42.5792
37.8697,42.4335
37.9005,42.2788
37.9005,42.1212
37.9005,42.1212
37.9005,42.1212
37.8697,41.9665
37.8697,41.9665
37.8094,41.8208
37.8094,41.8208
37.7218,41.6897
37.7218,41.6897
37.6103,41.5782
37.6103,41.5782
37.4792,41.4906
37.4792,41.4906
37.3335,41.4303
37.3335,41.4303
37.1788,41.3995
37.1788,41.3995
37.0212,41.3995
37.0212,41.3995
36.8665,41.4303
36.8665,41.4303
36.7208,41.4906
36.7208,41.4906
36.5897,41.5782
36.5897,41.5782
36.4782,41.6897
36.4782,41.6897
36.3906,41.8208
36.3906,41.8208
36.3303,41.9665
36.3303,41.9665
36.2995,42.1212
33.7744,42.1212
33.7751,40.9744
33.7948,40.9074
33.8477,40.8617
33.8991,40.8505
64.3260,40.8505
Z" /> 
</g> 
</svg>
