<?xml version="1.0" standalone="no"?>
 <!DOCTYPE svg PUBLIC "-//W3C//DTD SVG 1.1//EN" 
 "http://www.w3.org/Graphics/SVG/1.1/DTD/svg11.dtd"> 
<svg
  xmlns:svg="http://www.w3.org/2000/svg"
  xmlns="http://www.w3.org/2000/svg"
  xmlns:xlink="http://www.w3.org/1999/xlink"
  version="1.1"
  width="297.0022mm" height="210.0072mm" viewBox="0.0000 0.0000 297.0022 210.0072">
<title>SVG Image created as default-B_Silkscreen.svg date 2025/06/02 11:08:05 </title>
  <desc>Image generated by PCBNEW </desc>
<g style="fill:#000000; fill-opacity:1.0000;stroke:#000000; stroke-opacity:1.0000;
stroke-linecap:round; stroke-linejoin:round;"
 transform="translate(0 0) scale(1 1)">
<path style="fill:#000000; fill-opacity:1.0000; stroke:none;fill-rule:evenodd;"
d="M 68.4918,50.9510
68.4918,51.0463
68.3966,51.0463
68.3013,51.0463
68.3013,50.9510
68.3013,50.8558
68.3966,50.8558
68.4918,50.8558
Z" /> 
<path style="fill:#000000; fill-opacity:1.0000; stroke:none;fill-rule:evenodd;"
d="M 63.8987,44.7915
63.2531,44.7915
62.6075,44.7915
62.6075,44.1512
62.6075,43.6906
62.7980,43.6906
62.7980,44.1511
62.7980,44.6116
63.2585,44.6116
63.7190,44.6116
63.7162,44.1539
63.7135,43.6961
63.2557,43.6934
62.7980,43.6906
62.6075,43.6906
62.6075,43.5109
63.2531,43.5109
63.8987,43.5109
63.8987,44.1512
63.8987,44.6116
Z" /> 
<path style="fill:#000000; fill-opacity:1.0000; stroke:none;fill-rule:evenodd;"
d="M 67.7616,50.9510
67.7616,51.0463
67.6663,51.0463
67.5711,51.0463
67.5711,50.9510
67.5711,50.8558
67.6663,50.8558
67.7616,50.8558
Z" /> 
<path style="fill:#000000; fill-opacity:1.0000; stroke:none;fill-rule:evenodd;"
d="M 63.8987,49.8503
63.8987,49.9456
63.8034,49.9456
63.7082,49.9456
63.7082,49.8503
63.7082,49.7551
63.8034,49.7551
63.8987,49.7551
Z" /> 
<path style="fill:#000000; fill-opacity:1.0000; stroke:none;fill-rule:evenodd;"
d="M 64.6289,44.7068
64.6289,44.8021
64.5337,44.8021
64.4384,44.8021
64.4384,44.7068
64.4384,44.6116
64.5337,44.6116
64.6289,44.6116
Z" /> 
<path style="fill:#000000; fill-opacity:1.0000; stroke:none;fill-rule:evenodd;"
d="M 69.0422,49.1148
69.0422,49.2047
69.1321,49.2047
69.2221,49.2047
69.2221,49.1148
69.2221,49.0248
69.5025,49.0248
69.7830,49.0248
69.7830,49.1201
69.7830,49.2153
69.5978,49.2153
69.4126,49.2153
69.4126,49.3000
69.4126,49.3847
69.5025,49.3847
69.5925,49.3847
69.5925,49.4799
69.5925,49.5752
69.4073,49.5752
69.2221,49.5752
69.2221,49.4852
69.2221,49.3952
69.1321,49.3952
69.0422,49.3952
69.0422,49.4852
69.0422,49.5752
68.9469,49.5752
68.8517,49.5752
68.8517,49.4799
68.8517,49.3847
68.9469,49.3847
69.0422,49.3847
69.0422,49.3000
69.0422,49.2153
68.9469,49.2153
68.8517,49.2153
68.8517,49.1201
68.8517,49.0248
68.9469,49.0248
69.0422,49.0248
Z" /> 
<path style="fill:#000000; fill-opacity:1.0000; stroke:none;fill-rule:evenodd;"
d="M 63.5283,44.1565
63.5283,44.4317
63.2531,44.4317
62.9779,44.4317
62.9779,44.1565
62.9779,43.8813
63.2531,43.8813
63.5283,43.8813
Z" /> 
<path style="fill:#000000; fill-opacity:1.0000; stroke:none;fill-rule:evenodd;"
d="M 66.1000,48.4745
66.1000,48.4745
66.1000,48.4745
66.1000,48.4745
Z" /> 
<path style="fill:#000000; fill-opacity:1.0000; stroke:none;fill-rule:evenodd;"
d="M 65.7402,49.0248
65.7402,49.2153
65.6449,49.2153
65.5497,49.2153
65.5497,49.0248
65.5497,48.8343
65.6449,48.8343
65.7402,48.8343
Z" /> 
<path style="fill:#000000; fill-opacity:1.0000; stroke:none;fill-rule:evenodd;"
d="M 63.1578,45.1672
63.1578,45.3524
62.8827,45.3524
62.6075,45.3524
62.6075,45.1672
62.6075,44.9820
62.8827,44.9820
63.1578,44.9820
Z" /> 
<path style="fill:#000000; fill-opacity:1.0000; stroke:none;fill-rule:evenodd;"
d="M 64.6289,50.4007
64.6289,50.4959
64.5337,50.4959
64.4384,50.4959
64.4384,50.4007
64.4384,50.3054
64.5337,50.3054
64.6289,50.3054
Z" /> 
<path style="fill:#000000; fill-opacity:1.0000; stroke:none;fill-rule:evenodd;"
d="M 70.1428,51.0463
69.5025,51.0463
68.8623,51.0463
68.8623,50.4007
68.8623,49.9348
69.0422,49.9348
69.0422,50.3953
69.0422,50.8558
69.5027,50.8558
69.9631,50.8558
69.9604,50.3980
69.9576,49.9403
69.4999,49.9375
69.0422,49.9348
68.8623,49.9348
68.8623,49.7551
69.5025,49.7551
70.1428,49.7551
70.1428,50.4007
70.1428,50.8558
Z" /> 
<path style="fill:#000000; fill-opacity:1.0000; stroke:none;fill-rule:evenodd;"
d="M 68.3119,43.8813
68.3966,43.8813
68.4813,43.8813
68.4813,43.6961
68.4813,43.5109
68.5765,43.5109
68.6718,43.5109
68.6718,43.7861
68.6718,44.0612
68.5818,44.0612
68.4918,44.0612
68.4918,44.1565
68.4918,44.2517
68.3066,44.2517
68.1214,44.2517
68.1214,44.3417
68.1214,44.4317
68.0315,44.4317
67.9415,44.4317
67.9415,44.4317
67.9415,44.6116
67.9415,44.7915
68.0315,44.7915
68.1214,44.7915
68.1214,44.7015
68.1214,44.6116
68.2167,44.6116
68.3119,44.6116
68.3119,44.7015
68.3119,44.7915
68.3966,44.7915
68.4813,44.7915
68.4813,44.6116
68.4813,44.4317
68.5765,44.4317
68.6718,44.4317
68.6718,44.7968
68.6718,45.1619
68.7617,45.1619
68.8517,45.1619
68.8517,45.0720
68.8517,44.9820
68.9469,44.9820
69.0422,44.9820
69.0422,45.0720
69.0422,45.1619
69.1321,45.1619
69.2221,45.1619
69.2221,45.0720
69.2221,44.9820
69.5025,44.9820
69.7830,44.9820
69.7830,45.0720
69.7830,45.1619
69.8730,45.1619
69.9629,45.1619
69.9629,45.1619
69.9629,45.3471
69.9629,45.3524
69.9629,45.5323
70.0529,45.5323
70.1428,45.5323
70.1428,45.6223
70.1428,45.6276
70.1428,45.7228
70.0529,45.7228
69.9629,45.7228
69.9629,45.8128
69.9629,45.8128
69.9629,45.9027
70.0529,45.9027
70.1428,45.9027
70.1428,45.9927
70.1428,46.0827
69.9629,46.0827
69.7830,46.0827
69.7830,46.0827
69.7830,46.1726
69.7830,46.2626
69.9629,46.2626
70.1428,46.2626
70.1428,46.3631
70.1428,46.6330
70.1428,46.8235
70.1428,47.0034
70.0529,47.0034
69.9629,47.0034
69.9629,47.0934
69.9629,47.1833
70.0529,47.1833
70.1428,47.1833
70.1428,47.2786
70.1428,47.3738
69.9576,47.3738
69.7724,47.3738
69.7724,47.2839
69.7724,47.1939
69.6825,47.1939
69.5925,47.1939
69.5925,47.2786
69.5925,47.2839
69.5925,47.3738
69.5025,47.3738
69.4126,47.3738
69.4126,47.4638
69.4126,47.5537
69.4126,47.7337
69.5025,47.7337
69.5925,47.7337
69.5925,47.7390
69.5925,47.8289
69.5925,47.9242
69.7724,47.9242
69.9523,47.9242
69.9523,47.7390
69.9523,47.5537
70.0476,47.5537
70.1428,47.5537
70.1428,47.7390
70.1428,47.9242
70.0529,47.9242
69.9629,47.9242
69.9629,48.0141
69.9629,48.1041
70.0529,48.1041
70.1428,48.1041
70.1428,48.1041
70.1428,48.1993
70.1428,48.2946
70.0529,48.2946
69.9629,48.2946
69.9629,48.4745
69.9629,48.6544
70.0529,48.6544
70.1428,48.6544
70.1428,49.1148
70.1428,49.5752
70.0476,49.5752
69.9523,49.5752
69.9523,49.2100
69.9523,48.8449
69.6772,48.8449
69.4020,48.8449
69.4020,48.7550
69.4020,48.6650
69.2221,48.6650
69.0422,48.6650
69.0422,48.7550
69.0422,48.8449
68.7617,48.8449
68.4813,48.8449
68.4813,48.7550
68.4813,48.6650
68.3966,48.6650
68.3119,48.6650
68.3119,48.7550
68.3119,48.8449
68.2167,48.8449
68.1214,48.8449
68.1214,48.9349
68.1214,49.0248
68.2167,49.0248
68.3119,49.0248
68.3119,49.1148
68.3119,49.2047
68.3966,49.2047
68.4813,49.2047
68.4813,49.1148
68.4813,49.0248
68.5765,49.0248
68.6718,49.0248
68.6718,49.2100
68.6718,49.3000
68.6718,49.3952
68.5818,49.3952
68.4918,49.3952
68.4918,49.4852
68.4918,49.5752
68.5818,49.5752
68.6718,49.5752
68.6718,49.6704
68.6718,49.7657
68.3966,49.7657
68.1214,49.7657
68.1214,49.5805
68.1214,49.3952
68.0315,49.3952
67.9415,49.3952
67.9415,49.6704
67.9415,49.9456
68.1267,49.9456
68.3119,49.9456
68.3119,50.0355
68.3119,50.1255
68.4918,50.1255
68.6718,50.1255
68.6718,50.4060
68.6718,50.6864
68.4865,50.6864
68.3013,50.6864
68.3013,50.5912
68.3013,50.4959
68.3913,50.4959
68.4813,50.4959
68.4813,50.4060
68.4813,50.3160
68.3013,50.3160
68.1214,50.3160
68.1214,50.2207
68.1214,50.1255
67.8463,50.1255
67.5711,50.1255
67.5711,50.2155
67.5711,50.3054
67.6663,50.3054
67.7616,50.3054
67.7616,50.4007
67.7616,50.4959
67.9415,50.4959
68.1214,50.4959
68.1214,50.5912
68.1214,50.6864
67.9362,50.6864
67.7510,50.6864
67.7510,50.5912
67.7510,50.4959
67.6610,50.4959
67.5711,50.4959
67.5711,50.5912
67.5711,50.6864
67.3859,50.6864
67.2007,50.6864
67.2007,50.4060
67.2007,50.1255
67.1107,50.1255
67.0208,50.1255
67.0208,50.0355
67.0208,49.9456
67.1107,49.9456
67.2007,49.9456
67.2007,49.8556
67.2007,49.7657
67.3912,49.7657
67.3912,49.9456
67.3912,50.1255
67.4811,50.1255
67.5711,50.1255
67.5711,49.9456
67.5711,49.7657
67.4811,49.7657
67.3912,49.7657
67.2007,49.7657
67.1107,49.7657
67.0208,49.7657
67.0208,49.6704
67.0208,49.5752
67.2007,49.5752
67.3806,49.5752
67.3806,49.4852
67.3806,49.3952
66.9255,49.3952
66.4704,49.3952
66.4704,49.4852
66.4704,49.5752
66.6556,49.5752
66.8408,49.5752
66.8408,50.0355
66.8408,50.4060
66.8408,50.4959
66.9308,50.4959
67.0208,50.4959
67.0208,50.7711
67.0208,51.0462
66.9255,51.0462
66.8303,51.0462
66.8303,50.7711
66.8303,50.4959
66.6503,50.4959
66.4704,50.4959
66.4704,50.5859
66.4704,50.5859
66.4704,50.6758
66.5604,50.6758
66.6503,50.6758
66.6503,50.7711
66.6503,50.8610
66.6503,51.0462
66.3752,51.0462
66.1000,51.0462
66.1000,50.9563
66.1000,50.8663
66.0100,50.8663
65.9201,50.8663
65.9201,50.9563
65.9201,51.0462
65.8248,51.0462
65.7296,51.0462
65.7296,50.9563
65.7296,50.8663
65.4544,50.8663
65.1793,50.8663
65.1793,50.9563
65.1793,51.0462
65.0893,51.0462
64.9993,51.0462
64.9993,50.9563
64.9993,50.8663
64.9094,50.8663
64.8194,50.8663
64.8194,50.9563
64.8194,51.0462
64.7242,51.0462
64.6289,51.0462
64.6289,50.9563
64.6289,50.8663
64.5390,50.8663
64.4490,50.8663
64.4490,50.9563
64.4490,51.0462
64.3538,51.0462
64.2585,51.0462
64.2585,50.9563
64.2585,50.8663
63.9886,50.8663
63.7188,50.8663
63.7188,50.9563
63.7188,51.0462
63.5283,51.0462
63.3378,51.0462
63.3378,50.9563
63.3378,50.8663
63.0626,50.8663
62.7874,50.8663
62.7874,50.6864
63.5282,50.6864
63.5282,50.7711
63.5282,50.8558
63.6182,50.8558
63.7082,50.8558
63.7082,50.7711
63.7082,50.6864
63.6182,50.6864
63.5282,50.6864
62.7874,50.6864
62.7874,50.6811
62.7874,50.4959
63.1578,50.4959
63.1578,50.5859
63.1578,50.6758
63.2478,50.6758
63.3377,50.6758
63.3377,50.5859
63.3377,50.4959
63.2478,50.4959
63.1578,50.4959
62.7874,50.4959
62.7874,50.4959
62.6975,50.4959
62.6075,50.4959
62.6075,50.4007
62.6075,50.3160
63.3483,50.3160
63.3483,50.4060
63.3483,50.4959
63.4383,50.4959
63.5283,50.4959
63.7188,50.4959
63.8034,50.4959
63.8881,50.4959
63.8881,50.4959
64.0786,50.4959
64.0786,50.5859
64.0786,50.5859
64.0786,50.6758
64.1738,50.6758
64.2691,50.6758
64.2691,50.7658
64.2691,50.7711
64.2691,50.8558
64.3537,50.8558
64.4384,50.8558
64.4384,50.7658
64.4384,50.6758
64.5337,50.6758
64.6289,50.6758
64.6289,50.7658
64.6289,50.8557
64.7189,50.8557
64.8088,50.8557
64.8088,50.6864
65.7402,50.6864
65.7402,50.7711
65.7402,50.8558
65.8248,50.8558
65.9095,50.8558
66.2905,50.8558
66.3752,50.8558
66.4598,50.8558
66.4598,50.7711
66.4598,50.6864
66.3752,50.6864
66.2905,50.6864
66.2905,50.7711
66.2905,50.8558
65.9095,50.8558
65.9095,50.7711
65.9095,50.6864
65.8248,50.6864
65.7402,50.6864
64.8088,50.6864
64.8088,50.5806
64.8088,50.3054
64.9041,50.3054
64.9993,50.3054
64.9993,50.4007
64.9993,50.4959
65.0893,50.4959
65.1792,50.4959
65.1792,50.3160
65.7402,50.3160
65.7402,50.4060
65.7402,50.4959
65.8248,50.4959
65.9095,50.4959
66.1000,50.4959
66.1000,50.5859
66.1000,50.6758
66.1900,50.6758
66.2799,50.6758
66.2799,50.5859
66.2799,50.4959
66.2905,50.4959
66.3752,50.4959
66.4598,50.4959
66.4598,50.4060
66.4598,50.3160
66.3752,50.3160
66.2905,50.3160
66.2905,50.4060
66.2905,50.4959
66.2799,50.4959
66.1900,50.4959
66.1000,50.4959
65.9095,50.4959
65.9095,50.4060
65.9095,50.3160
65.8248,50.3160
65.7402,50.3160
65.1792,50.3160
65.1792,50.3107
65.1792,50.1255
65.0893,50.1255
64.9993,50.1255
64.9993,49.9456
64.9993,49.7657
64.9094,49.7657
64.8194,49.7657
64.8194,49.8556
64.8194,49.9456
64.8194,50.1255
64.5442,50.1255
64.2691,50.1255
64.2691,50.3107
64.2691,50.4060
64.2691,50.4959
64.1738,50.4959
64.0786,50.4959
63.8881,50.4959
63.8881,50.4060
63.8881,50.3160
63.8034,50.3160
63.7188,50.3160
63.7188,50.4060
63.7188,50.4959
63.5283,50.4959
63.5283,50.4060
63.5283,50.3160
63.4383,50.3160
63.3483,50.3160
62.6075,50.3160
62.6075,50.3054
62.6975,50.3054
62.7874,50.3054
62.7874,50.2155
63.1578,50.2155
63.1578,50.3054
63.2478,50.3054
63.3378,50.3054
63.3378,50.2155
63.3378,50.1255
63.2478,50.1255
63.1578,50.1255
63.1578,50.2155
62.7874,50.2155
62.7874,50.2155
62.7874,50.1255
62.6975,50.1255
62.6075,50.1255
62.6075,50.0355
62.6075,49.9456
62.6975,49.9456
62.7874,49.9456
62.7874,49.8556
62.7874,49.7657
62.6975,49.7657
62.6075,49.7657
62.6075,49.5752
62.9779,49.5752
62.9779,49.8503
62.9779,50.1255
63.0679,50.1255
63.1578,50.1255
63.1578,49.9403
63.1578,49.8503
63.5282,49.8503
63.5282,50.1255
63.8034,50.1255
64.0786,50.1255
64.0786,49.8556
64.4490,49.8556
64.4490,49.9456
64.5390,49.9456
64.6289,49.9456
64.6289,49.8556
64.6289,49.7657
64.5390,49.7657
64.4490,49.7657
64.4490,49.8503
64.4490,49.8556
64.0786,49.8556
64.0786,49.8503
64.0786,49.5752
64.2691,49.5752
64.2691,49.6651
64.2691,49.7551
64.3537,49.7551
64.4384,49.7551
64.4384,49.6651
64.4384,49.5752
64.3537,49.5752
64.2691,49.5752
64.0786,49.5752
64.0786,49.5752
63.8034,49.5752
63.5282,49.5752
63.5282,49.5752
63.5282,49.8503
63.1578,49.8503
63.1578,49.7551
63.2478,49.7551
63.3378,49.7551
63.3378,49.5752
63.3378,49.3952
63.2478,49.3952
63.1578,49.3952
63.1578,49.4852
63.1578,49.5752
63.0679,49.5752
62.9779,49.5752
62.6075,49.5752
62.6075,49.4852
62.6075,49.2047
62.7028,49.2047
62.7980,49.2047
62.7980,49.3900
62.7980,49.5752
62.8880,49.5752
62.9779,49.5752
62.9779,49.4799
62.9779,49.3847
63.0679,49.3847
63.1578,49.3847
63.1578,49.3000
63.1578,49.2153
63.3483,49.2153
63.3483,49.3000
63.3483,49.3847
63.4383,49.3847
63.5282,49.3847
63.5282,49.3000
63.5282,49.2153
63.4383,49.2153
63.3483,49.2153
63.1578,49.2153
63.1578,49.2153
63.0679,49.2153
62.9779,49.2153
62.9779,49.0301
62.9779,48.8449
62.8880,48.8449
62.7980,48.8449
62.7980,48.9349
62.7980,49.0248
62.7028,49.0248
62.6075,49.0248
62.6075,48.9296
62.6075,48.8343
62.6975,48.8343
62.7874,48.8343
62.7874,48.6650
63.3483,48.6650
63.3483,48.7497
63.3483,48.8343
63.4383,48.8343
63.5282,48.8343
63.5282,48.9296
63.5282,49.0248
63.8034,49.0248
64.0786,49.0248
64.0786,49.1148
64.0786,49.2048
64.1685,49.2048
64.2585,49.2048
64.2585,49.1148
64.2585,49.0248
64.1685,49.0248
64.0786,49.0248
64.0786,48.9349
64.0786,48.8449
64.2691,48.8449
64.2691,48.9349
64.2691,49.0248
64.3590,49.0248
64.4490,49.0248
64.4490,49.3000
64.4490,49.5752
64.5390,49.5752
64.6289,49.5752
64.6289,49.4799
64.6289,49.3847
64.7242,49.3847
64.8194,49.3847
64.8194,49.4799
64.8194,49.5752
64.9094,49.5752
64.9993,49.5752
64.9993,49.3953
64.9993,49.2153
64.9041,49.2153
64.8088,49.2153
64.8088,49.1201
64.8088,49.0248
64.9041,49.0248
64.9993,49.0248
64.9993,48.9349
64.9993,48.8449
64.8141,48.8449
64.6289,48.8449
64.6289,48.7550
64.6289,48.6650
64.5390,48.6650
64.4490,48.6650
64.4490,48.7497
64.4490,48.7550
64.4490,48.8449
64.3590,48.8449
64.2691,48.8449
64.0786,48.8449
63.9833,48.8449
63.8881,48.8449
63.8881,48.7497
63.8881,48.6650
64.0786,48.6650
64.0786,48.7497
64.0786,48.8343
64.1685,48.8343
64.2585,48.8343
64.2585,48.7497
64.2585,48.6650
64.1685,48.6650
64.0786,48.6650
63.8881,48.6650
63.8881,48.6544
63.9833,48.6544
64.0786,48.6544
64.0786,48.5645
64.0786,48.4745
63.9833,48.4745
63.8881,48.4745
63.8881,48.3845
63.8881,48.2946
63.8034,48.2946
63.7188,48.2946
63.7188,48.3845
63.7188,48.4745
63.6235,48.4745
63.5282,48.4745
63.5282,48.5697
63.5282,48.6650
63.4383,48.6650
63.3483,48.6650
62.7874,48.6650
62.7874,48.6544
62.7874,48.4745
62.8827,48.4745
62.9779,48.4745
62.9779,48.5645
62.9779,48.6544
63.0679,48.6544
63.1578,48.6544
63.1578,48.5645
63.1578,48.4745
63.3430,48.4745
63.5283,48.4745
63.5283,48.3845
63.5283,48.2946
63.3430,48.2946
63.1578,48.2946
63.1578,48.1993
63.1578,48.1041
63.5283,48.1041
63.8987,48.1041
63.8987,48.1940
63.8987,48.2840
64.0786,48.2840
64.2585,48.2840
64.2585,48.1940
64.2585,48.1041
64.3538,48.1041
64.4490,48.1041
64.4490,48.1993
64.4490,48.2946
64.3590,48.2946
64.2691,48.2946
64.2691,48.3845
64.2691,48.4745
64.4490,48.4745
64.6289,48.4745
64.6289,48.5645
64.6289,48.6544
64.8141,48.6544
64.9993,48.6544
64.9993,48.4745
64.9993,48.2946
64.8141,48.2946
64.6289,48.2946
64.6289,48.1094
64.6289,47.9242
64.9041,47.9242
65.1793,47.9242
65.1793,48.0141
65.1793,48.1041
65.0893,48.1041
64.9993,48.1041
64.9993,48.1940
64.9993,48.2840
65.0893,48.2840
65.1793,48.2840
65.1793,48.4745
65.1793,48.6650
65.0893,48.6650
64.9993,48.6650
64.9993,48.7497
64.9993,48.8343
65.1845,48.8343
65.3698,48.8343
65.3698,48.8449
65.3698,48.9296
65.3698,49.0248
65.2745,49.0248
65.1793,49.0248
65.1793,49.2047
65.1793,49.3847
65.3645,49.3847
65.5497,49.3847
65.5497,49.4799
65.5497,49.5752
65.2745,49.5752
64.9993,49.5752
64.9993,49.6651
64.9993,49.6651
64.9993,49.7551
65.1845,49.7551
65.3698,49.7551
65.3698,49.8503
65.3698,49.9456
65.2745,49.9456
65.1793,49.9456
65.1793,50.0355
65.1793,50.1255
65.5497,50.1255
65.9201,50.1255
65.9201,50.1255
65.9201,50.2155
65.9201,50.3054
66.0100,50.3054
66.1000,50.3054
66.1000,50.2155
66.1000,50.1255
66.1900,50.1255
66.2799,50.1255
66.2799,50.0355
66.2799,49.9456
66.4651,49.9456
66.6503,49.9456
66.6503,49.8556
66.6503,49.7657
66.3752,49.7657
66.1000,49.7657
66.1000,49.8556
66.1000,49.9456
66.0048,49.9456
65.9095,49.9456
65.9095,49.7604
65.9095,49.5752
66.0048,49.5752
66.1000,49.5752
66.1000,49.4852
66.1000,49.3952
66.0048,49.3952
65.9095,49.3952
65.9095,49.3000
65.9095,49.2153
66.1000,49.2153
66.1000,49.3000
66.1000,49.3847
66.1900,49.3847
66.2799,49.3847
66.2799,49.3000
66.2799,49.2153
66.1900,49.2153
66.1000,49.2153
65.9095,49.2153
65.9095,49.2047
66.0048,49.2047
66.1000,49.2047
66.1000,49.1148
66.1000,49.0248
66.0048,49.0248
65.9095,49.0248
65.9095,48.9296
65.9095,48.8449
66.2905,48.8449
66.2905,49.0248
66.2905,49.2048
66.5604,49.2048
66.8302,49.2048
66.8302,49.0248
66.8302,49.0248
67.0207,49.0248
67.0207,49.0248
67.0207,49.1148
67.0207,49.2047
67.2959,49.2047
67.5711,49.2047
67.5711,49.2947
67.5711,49.3000
67.5711,49.3847
67.7510,49.3847
67.9309,49.3847
67.9309,49.3000
67.9309,49.2153
68.1214,49.2153
68.1214,49.3000
68.1214,49.3847
68.2114,49.3847
68.3013,49.3847
68.3013,49.3000
68.3013,49.2153
68.2114,49.2153
68.1214,49.2153
67.9309,49.2153
67.8410,49.2153
67.7510,49.2153
67.7510,49.1201
67.7510,49.0248
67.8410,49.0248
67.9309,49.0248
67.9309,48.9349
67.9309,48.8449
67.8410,48.8449
67.7510,48.8449
67.7510,48.7497
67.7510,48.6544
67.8410,48.6544
67.9309,48.6544
67.9309,48.5645
67.9309,48.4745
67.8410,48.4745
67.7510,48.4745
67.7510,48.3845
67.7510,48.2946
67.9415,48.2946
67.9415,48.3845
67.9415,48.4745
68.0315,48.4745
68.1214,48.4745
68.1214,48.5645
68.1214,48.6544
68.2114,48.6544
68.3013,48.6544
68.3013,48.5645
68.3013,48.4745
68.3119,48.4745
68.3966,48.4745
68.4813,48.4745
68.6718,48.4745
68.6718,48.5645
68.6718,48.6544
68.8570,48.6544
69.0422,48.6544
69.0422,48.5645
69.0422,48.4745
68.9469,48.4745
68.8517,48.4745
68.8517,48.3845
68.8517,48.2946
68.7617,48.2946
68.6718,48.2946
68.6718,48.3845
68.6718,48.4745
68.4813,48.4745
68.4813,48.3845
68.4813,48.2946
68.3966,48.2946
68.3119,48.2946
68.3119,48.3845
68.3119,48.4745
68.3013,48.4745
68.2114,48.4745
68.1214,48.4745
68.1214,48.3845
68.1214,48.2946
68.0315,48.2946
67.9415,48.2946
67.7510,48.2946
67.6610,48.2946
67.5711,48.2946
67.5711,48.3845
67.5711,48.4692
67.5711,48.4745
67.4811,48.4745
67.3912,48.4745
67.3912,48.5645
67.3912,48.6544
67.4811,48.6544
67.5711,48.6544
67.5711,48.8396
67.5711,49.0248
67.2959,49.0248
67.0207,49.0248
66.8302,49.0248
66.8302,48.8449
66.7403,48.8449
66.6503,48.8449
66.6503,48.9349
66.6503,49.0248
66.5551,49.0248
66.4598,49.0248
66.4598,48.9349
66.4598,48.8449
66.3752,48.8449
66.2905,48.8449
65.9095,48.8449
65.9095,48.8343
66.0048,48.8343
66.1000,48.8343
66.1000,48.6544
66.1000,48.4745
66.4704,48.4745
66.4704,48.5645
66.4704,48.6544
66.6503,48.6544
66.8303,48.6544
66.8303,48.5645
66.8303,48.4745
66.9255,48.4745
67.0207,48.4745
67.0207,48.5697
67.0207,48.6650
66.9308,48.6650
66.8408,48.6650
66.8408,48.7497
66.8408,48.8343
67.0207,48.8343
67.2007,48.8343
67.2007,48.4692
67.2007,48.1041
67.3912,48.1041
67.3912,48.1940
67.3912,48.2840
67.4811,48.2840
67.5711,48.2840
68.1214,48.2840
68.2114,48.2840
68.3013,48.2840
68.3013,48.1940
68.3013,48.1041
68.6718,48.1041
68.7617,48.1041
68.8517,48.1041
68.8623,48.1041
68.8623,48.1940
68.8623,48.2840
69.0422,48.2840
69.2221,48.2840
69.2221,48.1041
69.4126,48.1041
69.4126,48.2840
69.5025,48.2840
69.5925,48.2840
69.5925,48.3792
69.5925,48.4745
69.5025,48.4745
69.4126,48.4745
69.4126,48.5645
69.4126,48.6544
69.5925,48.6544
69.7724,48.6544
69.7724,48.4692
69.7724,48.2840
69.8624,48.2840
69.9523,48.2840
69.9523,48.1940
69.9523,48.1041
69.7724,48.1041
69.5925,48.1041
69.5925,48.0141
69.5925,47.9242
69.5025,47.9242
69.4126,47.9242
69.4126,48.0141
69.4126,48.1041
69.2221,48.1041
69.2221,48.0141
69.2221,47.7442
69.0422,47.7442
68.8623,47.7442
68.8623,47.8342
68.8623,47.9242
68.9522,47.9242
69.0422,47.9242
69.0422,48.0141
69.0422,48.1041
68.9522,48.1041
68.8623,48.1041
68.8517,48.1041
68.8517,48.0141
68.8517,47.9242
68.7617,47.9242
68.6718,47.9242
68.6718,48.0141
68.6718,48.1041
68.3013,48.1041
68.2114,48.1041
68.1214,48.1041
68.1214,48.1940
68.1214,48.2840
67.5711,48.2840
67.5711,48.1940
67.5711,48.1041
67.9415,48.1041
68.0315,48.1041
68.1214,48.1041
68.1214,48.0141
68.1214,47.9242
68.0315,47.9242
67.9415,47.9242
67.9415,48.0141
67.9415,48.1041
67.5711,48.1041
67.4811,48.1041
67.3912,48.1041
67.2007,48.1041
67.0207,48.1041
66.8408,48.1041
66.8408,48.1993
66.8408,48.2946
66.7456,48.2946
66.6503,48.2946
66.6503,48.3845
66.6503,48.4745
66.5604,48.4745
66.4704,48.4745
66.1000,48.4745
66.1000,48.4745
66.1900,48.4745
66.2799,48.4745
66.2799,48.2893
66.2799,48.1041
66.1900,48.1041
66.1000,48.1041
66.1000,48.2893
66.1000,48.4745
65.9148,48.4745
65.7296,48.4745
65.7296,48.2893
65.7296,48.1041
65.6396,48.1041
65.5497,48.1041
65.5497,48.2893
65.5497,48.4745
65.4544,48.4745
65.3592,48.4745
65.3592,47.9189
65.3592,47.7442
65.7402,47.7442
65.7402,47.8342
65.7402,47.9242
65.8248,47.9242
65.9095,47.9242
66.1000,47.9242
66.1900,47.9242
66.2799,47.9242
66.2905,47.9242
66.2905,48.0141
66.2905,48.1041
66.3805,48.1041
66.4704,48.1041
66.4704,48.1940
66.4704,48.2840
66.5604,48.2840
66.6503,48.2840
66.6503,48.0141
66.6503,47.7442
67.0208,47.7442
67.0208,47.8342
67.0208,47.9242
67.2007,47.9242
67.3806,47.9242
67.5711,47.9242
67.6610,47.9242
67.7510,47.9242
67.7510,47.8342
67.7510,47.7442
67.6610,47.7442
67.5711,47.7442
67.5711,47.8342
67.5711,47.9242
67.3806,47.9242
67.3806,47.8342
67.3806,47.7442
67.2007,47.7442
67.0208,47.7442
66.6503,47.7442
66.5604,47.7442
66.4704,47.7442
66.4704,47.8342
66.4704,47.9242
66.3805,47.9242
66.2905,47.9242
66.2799,47.9242
66.2799,47.8342
66.2799,47.7442
66.1900,47.7442
66.1000,47.7442
66.1000,47.8342
66.1000,47.9242
65.9095,47.9242
65.9095,47.8342
65.9095,47.7442
65.8248,47.7442
65.7402,47.7442
65.3592,47.7442
65.3592,47.7390
68.1214,47.7390
68.1214,47.8342
68.1214,47.9242
68.2114,47.9242
68.3013,47.9242
68.3013,47.7390
68.3013,47.5538
68.2114,47.5538
68.1214,47.5538
68.1214,47.6437
68.1214,47.7390
65.3592,47.7390
65.3592,47.5537
65.5497,47.5537
65.5497,47.6437
65.5497,47.7337
65.6396,47.7337
65.7296,47.7337
66.2905,47.7337
66.3752,47.7337
66.4598,47.7337
66.6503,47.7337
66.8355,47.7337
67.0208,47.7337
67.3912,47.7337
67.4811,47.7337
67.5711,47.7337
67.7616,47.7337
67.8463,47.7337
67.9309,47.7337
67.9309,47.6437
67.9309,47.5537
67.8463,47.5537
67.7616,47.5537
67.7616,47.6437
67.7616,47.7337
67.5711,47.7337
67.5711,47.6437
67.5711,47.5537
67.4811,47.5537
67.3912,47.5537
67.3912,47.6437
67.3912,47.7337
67.0208,47.7337
67.0208,47.6437
67.0208,47.5537
67.1107,47.5537
67.2007,47.5537
67.2007,47.4638
68.3119,47.4638
68.3119,47.5538
68.3966,47.5538
68.4813,47.5538
68.6718,47.5538
68.9469,47.5538
69.2221,47.5538
69.2221,47.4638
69.2221,47.3738
68.9469,47.3738
68.6718,47.3738
68.6718,47.4638
68.6718,47.5538
68.4813,47.5538
68.4813,47.4638
68.4813,47.3738
68.3966,47.3738
68.3119,47.3738
68.3119,47.4638
68.3119,47.4638
67.2007,47.4638
67.2007,47.4638
67.2007,47.3738
67.1107,47.3738
67.0208,47.3738
67.0208,47.4638
67.0208,47.4638
67.0208,47.5537
66.8355,47.5537
66.6503,47.5537
66.6503,47.6437
66.6503,47.7337
66.4598,47.7337
66.4598,47.6437
66.4598,47.5537
66.3752,47.5537
66.2905,47.5537
66.2905,47.6437
66.2905,47.7337
65.7296,47.7337
65.7296,47.6437
65.7296,47.5537
65.6396,47.5537
65.5497,47.5537
65.3592,47.5537
65.3592,47.3738
65.7402,47.3738
65.7402,47.4638
65.7402,47.5538
66.0100,47.5538
66.2799,47.5538
66.2799,47.4638
66.2799,47.3738
66.0100,47.3738
65.7402,47.3738
65.3592,47.3738
65.3592,47.3632
65.5444,47.3632
65.7296,47.3632
65.7296,47.2786
65.7296,47.1939
65.4544,47.1939
65.1793,47.1939
65.1793,47.2839
65.1793,47.3738
65.0893,47.3738
64.9993,47.3738
64.9993,47.4638
64.9993,47.4638
64.9993,47.5537
65.0893,47.5537
65.1793,47.5537
65.1793,47.6490
65.1793,47.7442
64.9940,47.7442
64.8088,47.7442
64.8088,47.6490
64.8088,47.5537
64.7189,47.5537
64.6289,47.5537
64.6289,47.6437
64.6289,47.6490
64.6289,47.7442
64.5390,47.7442
64.4490,47.7442
64.4490,47.8342
64.4490,47.9242
64.0786,47.9242
63.7082,47.9242
63.7082,47.8342
63.7082,47.7442
63.6182,47.7442
63.5283,47.7442
63.5283,47.8342
63.5283,47.9242
63.4330,47.9242
63.3378,47.9242
63.3378,47.5590
63.3378,47.3738
63.5282,47.3738
63.5282,47.4638
63.5282,47.5538
63.6182,47.5538
63.7082,47.5538
63.7082,47.5537
63.7188,47.5537
63.7188,47.6437
63.7188,47.7337
63.8034,47.7337
63.8881,47.7337
64.2691,47.7337
64.3537,47.7337
64.4384,47.7337
64.4384,47.6437
64.4384,47.5538
64.4490,47.5538
64.5390,47.5538
64.6289,47.5538
64.6289,47.4638
64.6289,47.3738
64.5390,47.3738
64.4490,47.3738
64.4490,47.4638
64.4490,47.5538
64.4384,47.5538
64.4384,47.5537
64.3537,47.5537
64.2691,47.5537
64.2691,47.6437
64.2691,47.7337
63.8881,47.7337
63.8881,47.6437
63.8881,47.5537
63.8034,47.5537
63.7188,47.5537
63.7082,47.5537
63.7082,47.4638
63.7082,47.3738
63.6182,47.3738
63.5282,47.3738
63.3378,47.3738
63.3378,47.1939
63.2478,47.1939
63.1578,47.1939
63.1578,47.2786
63.1578,47.2839
63.1578,47.3738
63.0679,47.3738
62.9779,47.3738
62.9779,47.4638
62.9779,47.5537
63.0679,47.5537
63.1578,47.5537
63.1578,47.6490
63.1578,47.7442
63.0679,47.7442
62.9779,47.7442
62.9779,47.8342
62.9779,47.9242
62.8880,47.9242
62.7980,47.9242
62.7980,48.0141
62.7980,48.1041
62.8880,48.1041
62.9779,48.1041
62.9779,48.1993
62.9779,48.2946
62.7927,48.2946
62.6075,48.2946
62.6075,48.0141
62.6075,47.7337
62.7927,47.7337
62.9779,47.7337
62.9779,47.6437
62.9779,47.5537
62.7927,47.5537
62.6075,47.5537
62.6075,47.2786
62.6075,47.1939
62.7980,47.1939
62.7980,47.2786
62.7980,47.3633
62.8880,47.3633
62.9779,47.3633
62.9779,47.2786
62.9779,47.1939
62.8880,47.1939
62.7980,47.1939
62.6075,47.1939
62.6075,47.0034
62.7927,47.0034
62.9779,47.0034
62.9779,47.0934
62.9779,47.1833
63.0679,47.1833
63.1578,47.1833
63.1578,47.0934
63.1578,47.0034
63.2478,47.0034
63.3378,47.0034
63.3378,46.8235
63.5283,46.8235
63.5283,47.0034
63.5283,47.1833
63.6235,47.1833
63.7188,47.1833
63.7188,47.2733
63.7188,47.3633
63.9886,47.3633
64.2585,47.3633
64.2585,47.2733
64.2585,47.1833
64.4437,47.1833
64.6289,47.1833
64.6289,47.2733
64.6289,47.3633
64.7189,47.3633
64.8088,47.3633
64.8088,47.2733
64.8088,47.1833
64.9041,47.1833
64.9993,47.1833
64.9993,47.0934
64.9993,47.0034
64.9041,47.0034
64.8088,47.0034
64.8088,46.8235
64.8088,46.6436
64.7189,46.6436
64.6289,46.6436
64.6289,46.8235
64.6289,47.0034
64.5337,47.0034
64.4384,47.0034
64.4384,46.9135
64.4384,46.8235
64.3538,46.8235
64.2691,46.8235
64.2691,46.9135
64.2691,47.0034
64.1738,47.0034
64.0786,47.0034
64.0786,46.8235
64.0786,46.6436
63.9886,46.6436
63.8987,46.6436
63.8987,46.7335
63.8987,46.8235
63.7135,46.8235
63.5283,46.8235
63.3378,46.8235
63.3378,46.8182
63.3378,46.6330
63.4330,46.6330
63.5283,46.6330
63.5283,46.4531
63.7188,46.4531
63.7188,46.5430
63.7188,46.6330
63.8034,46.6330
63.8881,46.6330
63.8881,46.5430
63.8881,46.4531
63.8034,46.4531
63.7188,46.4531
63.5283,46.4531
63.5283,46.3578
63.5283,46.2732
63.8987,46.2732
63.8987,46.3631
63.8987,46.4531
63.9886,46.4531
64.0786,46.4531
64.0786,46.5430
64.0786,46.6330
64.3537,46.6330
64.6289,46.6330
64.6289,46.5430
64.6289,46.4531
64.7189,46.4531
64.8088,46.4531
64.8088,46.3631
64.8088,46.2732
64.7189,46.2732
64.6289,46.2732
64.6289,46.1779
64.6289,46.0827
64.7189,46.0827
64.8088,46.0827
64.8194,46.0827
64.8194,46.1726
64.8194,46.2626
64.9094,46.2626
64.9993,46.2626
64.9993,46.3578
64.9993,46.4531
64.9094,46.4531
64.8194,46.4531
64.8194,46.5430
64.8194,46.6330
64.9094,46.6330
64.9993,46.6330
64.9993,46.7230
64.9993,46.8129
65.1792,46.8129
65.3592,46.8129
65.3592,46.7282
65.3592,46.6436
65.2692,46.6436
65.1792,46.6436
65.1792,46.6436
66.1000,46.6436
66.1000,46.7282
66.1000,46.8129
66.1953,46.8129
66.2905,46.8129
66.2905,46.9082
66.2905,47.0034
66.1953,47.0034
66.1000,47.0034
66.1000,47.0934
66.1000,47.1833
66.2799,47.1833
66.4598,47.1833
66.4598,47.0934
66.4598,47.0034
66.5551,47.0034
66.6503,47.0034
66.6503,47.0987
66.6503,47.1939
66.5604,47.1939
66.4704,47.1939
66.4704,47.2786
66.4704,47.3633
66.7456,47.3633
67.0208,47.3633
67.0208,47.2733
67.0208,47.1939
67.5711,47.1939
67.5711,47.2786
67.5711,47.3633
67.6610,47.3633
67.7510,47.3633
67.7510,47.2786
67.7510,47.1939
67.6610,47.1939
67.5711,47.1939
67.0208,47.1939
67.0208,47.1833
67.2959,47.1833
67.5711,47.1833
67.5711,47.0934
67.5711,47.0034
67.7510,47.0034
67.9309,47.0034
67.9415,47.0034
67.9415,47.0934
67.9415,47.1833
68.0315,47.1833
68.1214,47.1833
68.1214,47.0934
68.1214,47.0034
68.3119,47.0034
68.3119,47.0934
68.3119,47.0934
68.3119,47.1833
68.4019,47.1833
68.4918,47.1833
68.4918,47.2733
68.4918,47.2786
68.4918,47.3633
68.5818,47.3633
68.6718,47.3633
68.6718,47.2733
68.6718,47.1939
69.2221,47.1939
69.2221,47.2786
69.2221,47.3633
69.3120,47.3633
69.4020,47.3633
69.4020,47.2786
69.4020,47.1939
69.3120,47.1939
69.2221,47.1939
68.6718,47.1939
68.6718,47.1833
68.8570,47.1833
69.0422,47.1833
69.0422,47.0934
69.0422,47.0034
68.8570,47.0034
68.6718,47.0034
68.6718,46.8235
68.6718,46.6436
68.8623,46.6436
68.8623,46.7282
68.8623,46.8129
68.9522,46.8129
69.0422,46.8129
69.2221,46.8129
69.3173,46.8129
69.4126,46.8129
69.4126,46.9981
69.4126,47.0034
69.4126,47.1833
69.5025,47.1833
69.5925,47.1833
69.5925,47.0934
69.5925,47.0034
69.6825,47.0034
69.7724,47.0034
69.7724,46.8235
69.7724,46.6436
69.4972,46.6436
69.2221,46.6436
69.2221,46.7282
69.2221,46.8129
69.0422,46.8129
69.0422,46.7282
69.0422,46.6436
68.9522,46.6436
68.8623,46.6436
68.6718,46.6436
68.6718,46.6436
68.5818,46.6436
68.4918,46.6436
68.4918,46.6436
68.4918,46.7282
68.4918,46.8235
68.4918,47.0034
68.4019,47.0034
68.3119,47.0034
68.1214,47.0034
68.0315,47.0034
67.9415,47.0034
67.9309,47.0034
67.9309,46.8235
67.9309,46.6436
68.1214,46.6436
68.1214,46.7282
68.1214,46.8129
68.2114,46.8129
68.3013,46.8129
68.3013,46.7282
68.3013,46.6436
68.2114,46.6436
68.1214,46.6436
67.9309,46.6436
67.9309,46.6436
67.8463,46.6436
67.7616,46.6436
67.7616,46.7335
67.7616,46.8235
67.6663,46.8235
67.5711,46.8235
67.5711,46.7282
67.5711,46.6330
67.6610,46.6330
67.7510,46.6330
67.7510,46.3578
67.7510,46.2732
68.1214,46.2732
68.1214,46.3631
68.1214,46.4531
68.2167,46.4531
68.3119,46.4531
68.3119,46.5430
68.3119,46.6330
68.3966,46.6330
68.4813,46.6330
68.4813,46.5430
68.4813,46.4531
68.5765,46.4531
68.6718,46.4531
68.6718,46.3631
68.6718,46.2732
68.8623,46.2732
68.8623,46.3631
68.8623,46.4531
68.9522,46.4531
69.0422,46.4531
69.0422,46.5430
69.0422,46.6330
69.1321,46.6330
69.2221,46.6330
69.2221,46.4531
69.2221,46.2732
69.5925,46.2732
69.5925,46.3631
69.5925,46.4531
69.6825,46.4531
69.7724,46.4531
69.7724,46.3631
69.7724,46.2732
69.6825,46.2732
69.5925,46.2732
69.2221,46.2732
69.0422,46.2732
68.8623,46.2732
68.6718,46.2732
68.5765,46.2732
68.4813,46.2732
68.4813,46.1779
68.4813,46.0827
68.6718,46.0827
68.6718,46.1726
68.6718,46.2626
68.7617,46.2626
68.8517,46.2626
68.8517,46.1726
68.8517,46.0827
68.7617,46.0827
68.6718,46.0827
68.4813,46.0827
68.3966,46.0827
68.3119,46.0827
68.3119,46.1779
68.3119,46.2732
68.2167,46.2732
68.1214,46.2732
67.7510,46.2732
67.7510,46.0827
67.6610,46.0827
67.5711,46.0827
67.5711,46.2679
67.5711,46.2679
67.5711,46.4531
67.4811,46.4531
67.3912,46.4531
67.3912,46.5483
67.3912,46.6436
67.2959,46.6436
67.2007,46.6436
67.2007,46.7282
67.2007,46.8129
67.2959,46.8129
67.3912,46.8129
67.3912,46.9082
67.3912,47.0034
67.2959,47.0034
67.2007,47.0034
67.2007,46.9135
67.2007,46.8235
66.8303,46.8235
66.4598,46.8235
66.4598,46.7335
66.4598,46.6436
66.2799,46.6436
66.1000,46.6436
65.1792,46.6436
65.1792,46.5483
65.1792,46.4531
65.2692,46.4531
65.3592,46.4531
65.7402,46.4531
65.7402,46.5430
65.7402,46.6330
65.8248,46.6330
65.9095,46.6330
65.9095,46.5430
65.9095,46.4531
65.8248,46.4531
65.7402,46.4531
65.3592,46.4531
65.3592,46.2732
66.4704,46.2732
66.4704,46.3631
66.4704,46.4531
66.5604,46.4531
66.6503,46.4531
66.6503,46.5430
66.6503,46.6330
66.7403,46.6330
66.8302,46.6330
66.8302,46.4531
66.8302,46.2732
66.6503,46.2732
66.4704,46.2732
65.3592,46.2732
65.3592,46.2679
67.2007,46.2679
67.2007,46.4531
67.2906,46.4531
67.3806,46.4531
67.3806,46.2679
67.3806,46.0827
67.2906,46.0827
67.2007,46.0827
67.2007,46.1726
67.2007,46.2679
65.3592,46.2679
65.3592,46.0827
65.0893,46.0827
64.8194,46.0827
64.8088,46.0827
64.8088,45.9927
64.8088,45.9027
64.8194,45.9027
64.9094,45.9027
64.9993,45.9027
64.9993,45.8128
64.9993,45.7228
64.9094,45.7228
64.8194,45.7228
64.8194,45.8128
64.8194,45.9027
64.8194,45.9027
64.8088,45.9027
64.8088,45.9027
64.7189,45.9027
64.6289,45.9027
64.6289,45.8128
64.6289,45.7228
64.5390,45.7228
64.4490,45.7228
64.4490,45.8128
64.4490,45.9027
64.5390,45.9027
64.6289,45.9027
64.6289,45.9927
64.6289,46.0827
64.5337,46.0827
64.4384,46.0827
64.4384,45.9927
64.4384,45.9027
64.2585,45.9027
64.0786,45.9027
64.0786,45.9927
64.0786,46.0827
64.1738,46.0827
64.2691,46.0827
64.2691,46.1779
64.2691,46.2732
64.0839,46.2732
63.8987,46.2732
63.5283,46.2732
63.5283,46.0827
63.4383,46.0827
63.3483,46.0827
63.3483,46.2679
63.3483,46.4531
63.2531,46.4531
63.1578,46.4531
63.1578,46.5483
63.1578,46.6436
63.0679,46.6436
62.9779,46.6436
62.9779,46.7335
62.9779,46.8235
62.7927,46.8235
62.6075,46.8235
62.6075,46.7282
62.6075,46.6330
62.6975,46.6330
62.7874,46.6330
62.7874,46.5430
62.7874,46.4531
62.6975,46.4531
62.6075,46.4531
62.6075,46.3578
62.6075,46.2626
62.7028,46.2626
62.7980,46.2626
62.7980,46.3578
62.7980,46.4531
62.9779,46.4531
63.1578,46.4531
63.1578,46.3631
63.1578,46.2732
63.0679,46.2732
62.9779,46.2732
62.9779,46.1779
62.9779,46.0827
63.1578,46.0827
63.3378,46.0827
63.3378,45.9927
63.3378,45.9027
63.0679,45.9027
62.7980,45.9027
62.7980,45.9927
62.7980,46.0827
62.7028,46.0827
62.6075,46.0827
62.6075,45.9927
62.6075,45.9027
62.6975,45.9027
62.7874,45.9027
62.7874,45.8128
62.7874,45.7228
63.3483,45.7228
63.3483,45.8128
63.3483,45.9027
63.5282,45.9027
63.7082,45.9027
63.7188,45.9027
63.7188,46.0827
63.7188,46.2626
63.8034,46.2626
63.8881,46.2626
63.8881,46.0827
63.8881,45.9027
63.8034,45.9027
63.7188,45.9027
63.7082,45.9027
63.7082,45.9027
63.8987,45.9027
63.9886,45.9027
64.0786,45.9027
64.0786,45.8128
64.0786,45.7228
63.9886,45.7228
63.8987,45.7228
63.8987,45.8128
63.8987,45.9027
63.7082,45.9027
63.7082,45.8128
63.7082,45.7228
63.5282,45.7228
63.3483,45.7228
62.7874,45.7228
62.7874,45.7228
62.6975,45.7228
62.6075,45.7228
62.6075,45.6276
62.6075,45.5323
62.7028,45.5323
62.7980,45.5323
62.7980,45.6223
62.7980,45.7122
62.9779,45.7122
63.1578,45.7122
63.1578,45.6223
63.1578,45.5323
64.2691,45.5323
64.4490,45.5323
64.6289,45.5323
64.6289,45.6223
64.6289,45.7122
64.7189,45.7122
64.8088,45.7122
64.8088,45.6223
64.8088,45.5323
64.7189,45.5323
64.6289,45.5323
64.6289,45.4424
64.6289,45.3524
64.4490,45.3524
64.2691,45.3524
64.2691,45.4424
64.2691,45.5323
63.1578,45.5323
63.1578,45.5323
63.2478,45.5323
63.3378,45.5323
63.3378,45.3524
63.8987,45.3524
63.8987,45.4424
63.8987,45.5323
63.9886,45.5323
64.0786,45.5323
64.0786,45.4424
64.0786,45.3524
63.9886,45.3524
63.8987,45.3524
63.3378,45.3524
63.3378,45.3471
63.3378,45.1619
63.4330,45.1619
63.5283,45.1619
63.5283,45.0720
63.5283,44.9820
64.0786,44.9820
64.0786,45.0720
64.0786,45.1619
64.3537,45.1619
64.6289,45.1619
64.6289,45.0720
64.6289,44.9820
64.7242,44.9820
64.8194,44.9820
64.8194,45.0720
64.8194,45.1619
64.9094,45.1619
64.9993,45.1619
64.9993,45.2519
64.9993,45.3418
65.1845,45.3418
65.3697,45.3418
65.3697,45.4371
65.3697,45.5323
65.2745,45.5323
65.1792,45.5323
65.1792,45.5323
65.1792,45.7175
65.1792,45.8128
65.1793,45.9027
65.2692,45.9027
65.3592,45.9027
65.3592,45.8075
65.3592,45.7228
65.5497,45.7228
65.5497,45.8128
65.5497,45.9027
65.6449,45.9027
65.7402,45.9027
65.7402,45.9927
65.7402,46.0827
65.6449,46.0827
65.5497,46.0827
65.5497,46.1726
65.5497,46.2626
65.7296,46.2626
65.9095,46.2626
65.9095,46.1726
65.9095,46.0827
66.0048,46.0827
66.1000,46.0827
66.1000,46.0827
66.2905,46.0827
66.2905,46.1726
66.2905,46.2626
66.3752,46.2626
66.4598,46.2626
66.4598,46.1726
66.4598,46.0827
66.3752,46.0827
66.2905,46.0827
66.1000,46.0827
66.1000,45.9927
66.1000,45.9027
66.2799,45.9027
66.4598,45.9027
66.4598,45.9027
66.4704,45.9027
66.4704,45.9927
66.4704,46.0827
66.8355,46.0827
67.2007,46.0827
67.2007,45.9927
67.2007,45.9027
67.2906,45.9027
67.3806,45.9027
67.3806,45.8128
67.3806,45.7228
67.2007,45.7228
67.0208,45.7228
67.0208,45.6276
67.0208,45.5323
66.9308,45.5323
66.8408,45.5323
66.8408,45.6276
66.8408,45.7228
66.7456,45.7228
66.6503,45.7228
66.6503,45.8128
66.6503,45.9027
66.5604,45.9027
66.4704,45.9027
66.4598,45.9027
66.4598,45.8075
66.4598,45.7122
66.5551,45.7122
66.6503,45.7122
66.6503,45.6223
66.6503,45.5323
66.5551,45.5323
66.4598,45.5323
66.4598,45.4424
66.4598,45.3524
66.3699,45.3524
66.2799,45.3524
66.2799,45.2572
66.2799,45.1725
66.4704,45.1725
66.4704,45.2572
66.4704,45.3418
66.5604,45.3418
66.6503,45.3418
66.6503,45.2572
66.6503,45.1725
67.2007,45.1725
67.2007,45.2572
67.2007,45.3418
67.2959,45.3418
67.3912,45.3418
67.3912,45.5270
67.3912,45.7122
67.4811,45.7122
67.5711,45.7122
67.5711,45.6223
67.5711,45.5323
67.6663,45.5323
67.7616,45.5323
67.7616,45.7228
67.7616,45.8075
67.7616,46.0827
67.8515,46.0827
67.9415,46.0827
67.9415,46.1726
67.9415,46.2626
68.0315,46.2626
68.1214,46.2626
68.1214,45.8975
68.1214,45.7228
68.6718,45.7228
68.6718,45.8128
68.6718,45.9027
68.7617,45.9027
68.8517,45.9027
68.8623,45.9027
68.8623,45.9927
68.8623,46.0827
69.0422,46.0827
69.2221,46.0827
69.2221,46.0827
69.4126,46.0827
69.4126,46.1726
69.4126,46.2626
69.5025,46.2626
69.5925,46.2626
69.5925,46.0827
69.5925,45.9027
69.5025,45.9027
69.4126,45.9027
69.4126,45.9927
69.4126,46.0827
69.2221,46.0827
69.2221,45.9927
69.2221,45.9027
69.3120,45.9027
69.4020,45.9027
69.4020,45.8128
69.4020,45.7228
69.3120,45.7228
69.2221,45.7228
69.2221,45.8128
69.2221,45.9027
69.0422,45.9027
68.8623,45.9027
68.8517,45.9027
68.8517,45.8128
68.8517,45.7228
68.7617,45.7228
68.6718,45.7228
68.1214,45.7228
68.1214,45.5323
68.2114,45.5323
68.3013,45.5323
68.4918,45.5323
68.4918,45.6223
68.4918,45.7122
68.5818,45.7122
68.6718,45.7122
68.8623,45.7122
68.9522,45.7122
69.0422,45.7122
69.0422,45.6223
69.0422,45.5323
69.1321,45.5323
69.2221,45.5323
69.2221,45.4424
69.2221,45.3524
69.1321,45.3524
69.0422,45.3524
69.0422,45.4424
69.0422,45.5323
68.9522,45.5323
68.8623,45.5323
68.8623,45.6223
68.8623,45.7122
68.6718,45.7122
68.6718,45.6223
68.6718,45.5323
68.5818,45.5323
68.4918,45.5323
68.3013,45.5323
68.3013,45.4424
68.3013,45.3524
68.6718,45.3524
68.6718,45.4424
68.6718,45.5323
68.7617,45.5323
68.8517,45.5323
68.8517,45.4424
68.8517,45.3524
68.7617,45.3524
68.6718,45.3524
68.3013,45.3524
68.0262,45.3524
67.7510,45.3524
67.7510,45.2572
67.7510,45.1619
67.8410,45.1619
67.9309,45.1619
67.9309,45.0720
67.9309,44.9820
67.8410,44.9820
67.7510,44.9820
67.7510,44.9820
68.1214,44.9820
68.1214,45.0720
68.1214,45.1619
68.2167,45.1619
68.3119,45.1619
68.3119,45.2519
68.3119,45.3418
68.3966,45.3418
68.4813,45.3418
68.4813,45.1725
68.8623,45.1725
68.8623,45.2572
68.8623,45.3418
68.9522,45.3418
69.0422,45.3418
69.2221,45.3418
69.4073,45.3418
69.5925,45.3418
69.5925,45.4371
69.5925,45.4424
69.5925,45.5323
69.6825,45.5323
69.7724,45.5323
69.7724,45.3524
69.7724,45.1725
69.4972,45.1725
69.2221,45.1725
69.2221,45.2572
69.2221,45.3418
69.0422,45.3418
69.0422,45.2572
69.0422,45.1725
68.9522,45.1725
68.8623,45.1725
68.4813,45.1725
68.4813,45.1619
68.4813,44.9820
68.3013,44.9820
68.1214,44.9820
67.7510,44.9820
67.7510,44.7968
67.7510,44.6116
67.6610,44.6116
67.5711,44.6116
67.5711,44.7068
67.5711,44.8021
67.3912,44.8021
67.3912,44.9873
67.3912,45.0720
67.3912,45.1725
67.2959,45.1725
67.2007,45.1725
66.6503,45.1725
66.5604,45.1725
66.4704,45.1725
66.2799,45.1725
66.2799,45.1619
66.3699,45.1619
66.4598,45.1619
66.4598,45.0720
66.4598,44.9820
66.2799,44.9820
66.1000,44.9820
66.1000,44.8920
66.1000,44.8021
66.0048,44.8021
65.9095,44.8021
65.9095,44.7068
65.9095,44.6116
66.0048,44.6116
66.1000,44.6116
66.1000,44.7015
66.1000,44.7915
66.1900,44.7915
66.2799,44.7915
66.2799,44.7015
66.2799,44.6116
66.1900,44.6116
66.1000,44.6116
66.1000,44.5216
66.1000,44.4317
65.9201,44.4317
65.7402,44.4317
65.7402,44.6116
65.7402,44.9820
65.7402,45.0772
65.7402,45.7228
65.6449,45.7228
65.5497,45.7228
65.3592,45.7228
65.3592,45.7122
65.4544,45.7122
65.5497,45.7122
65.5497,45.3471
65.5497,44.9820
65.4597,44.9820
65.3698,44.9820
65.3698,45.0772
65.3698,45.1725
65.2745,45.1725
65.1793,45.1725
65.1793,45.0772
65.1793,44.9820
65.2692,44.9820
65.3592,44.9820
65.3592,44.8920
65.3592,44.8021
65.2692,44.8021
65.1793,44.8021
65.1793,44.8920
65.1793,44.9820
65.0893,44.9820
64.9993,44.9820
64.9993,44.8920
64.9993,44.8021
64.9041,44.8021
64.8088,44.8021
64.8088,44.7068
64.8088,44.6116
64.9993,44.6116
64.9993,44.7015
64.9993,44.7915
65.0893,44.7915
65.1792,44.7915
65.1792,44.7015
65.1792,44.6116
65.2745,44.6116
65.3697,44.6116
65.3697,44.7015
65.3697,44.7915
65.4597,44.7915
65.5497,44.7915
65.5497,44.6116
65.5497,44.4317
65.3645,44.4317
65.1792,44.4317
65.1792,44.5216
65.1792,44.6116
65.0893,44.6116
64.9993,44.6116
64.8088,44.6116
64.7189,44.6116
64.6289,44.6116
64.6289,44.5216
64.6289,44.4317
64.4490,44.4317
64.2691,44.4317
64.2691,44.7068
64.2691,44.9820
64.1738,44.9820
64.0786,44.9820
63.5283,44.9820
63.5283,44.9820
63.8034,44.9820
64.0786,44.9820
64.0786,44.6116
64.0786,44.2412
64.3538,44.2412
64.6289,44.2412
64.6289,44.3364
64.6289,44.4317
64.9041,44.4317
65.1793,44.4317
65.1793,44.3417
65.1793,44.2517
65.0893,44.2517
64.9993,44.2517
64.9993,44.1565
64.9993,44.0612
65.0893,44.0612
65.1793,44.0612
65.1793,43.9713
65.1793,43.8813
65.2745,43.8813
65.3698,43.8813
65.3698,43.9713
65.3698,44.0612
65.2745,44.0612
65.1793,44.0612
65.1793,44.1512
65.1793,44.2412
65.3645,44.2412
65.5497,44.2412
65.5497,44.0613
66.1000,44.0613
66.1000,44.1512
66.1000,44.2412
66.1900,44.2412
66.2799,44.2412
66.2799,44.1565
66.4704,44.1565
66.4704,44.4317
66.5604,44.4317
66.6503,44.4317
66.6503,44.5216
66.6503,44.6116
66.5604,44.6116
66.4704,44.6116
66.4704,44.7968
66.4704,44.9820
66.5604,44.9820
66.6503,44.9820
66.6503,45.0720
66.6503,45.1619
66.7403,45.1619
66.8303,45.1619
66.8303,44.9820
67.0208,44.9820
67.0208,45.0720
67.0208,45.1619
67.1107,45.1619
67.2007,45.1619
67.2007,45.0720
67.2007,44.9820
67.1107,44.9820
67.0208,44.9820
66.8303,44.9820
66.8303,44.9820
66.8303,44.8021
66.7403,44.8021
66.6503,44.8021
66.6503,44.7068
66.6503,44.6116
66.7456,44.6116
66.8408,44.6116
66.8408,44.7015
66.8408,44.7915
66.9308,44.7915
67.0208,44.7915
67.0208,44.6116
67.0208,44.4317
67.1107,44.4317
67.2007,44.4317
67.2007,44.6116
67.2007,44.7915
67.2906,44.7915
67.3806,44.7915
67.3806,44.6116
67.3806,44.4317
67.2906,44.4317
67.2007,44.4317
67.2007,44.3417
67.2007,44.2518
66.9255,44.2518
66.6503,44.2518
66.6503,44.1565
66.6503,44.0613
66.8355,44.0613
67.0208,44.0613
67.0208,43.8813
67.0208,43.7014
66.8355,43.7014
66.6503,43.7014
66.6503,43.7914
66.6503,43.8813
66.5604,43.8813
66.4704,43.8813
66.4704,44.1512
66.4704,44.1565
66.2799,44.1565
66.2799,44.1512
66.2799,44.0613
66.1900,44.0613
66.1000,44.0613
65.5497,44.0613
65.5497,44.0612
65.5497,43.8813
65.6449,43.8813
65.7402,43.8813
65.7402,43.9713
65.7402,44.0612
65.9201,44.0612
66.1000,44.0612
66.1000,43.9713
66.1000,43.8813
66.1900,43.8813
66.2799,43.8813
66.2799,43.7914
66.2799,43.7014
66.1900,43.7014
66.1000,43.7014
66.1000,43.6062
66.1000,43.5109
66.6503,43.5109
67.2007,43.5109
67.2007,43.8760
67.2007,44.2412
67.2959,44.2412
67.3912,44.2412
67.3912,44.3364
67.3912,44.4317
67.4811,44.4317
67.5711,44.4317
67.5711,44.3364
67.5711,44.2412
67.6663,44.2412
67.7616,44.2412
67.7616,44.3364
67.7616,44.4317
67.8463,44.4317
67.9309,44.4317
67.9309,44.3364
67.9309,44.2412
68.0262,44.2412
68.1214,44.2412
68.1214,44.1512
68.1214,44.0612
67.8463,44.0612
67.5711,44.0612
67.5711,43.9713
67.5711,43.8813
67.6610,43.8813
67.7510,43.8813
67.7510,43.7914
67.7510,43.7014
67.9415,43.7014
67.9415,43.7914
67.9415,43.8813
68.0315,43.8813
68.1214,43.8813
68.1214,43.7914
68.1214,43.7014
68.0315,43.7014
67.9415,43.7014
67.7510,43.7014
67.7510,43.7014
67.5658,43.7014
67.3806,43.7014
67.3806,43.6062
67.3806,43.5109
67.5711,43.5109
67.7616,43.5109
67.7616,43.6009
67.7616,43.6908
67.8463,43.6908
67.9309,43.6908
67.9309,43.6009
67.9309,43.5109
68.1214,43.5109
68.3119,43.5109
68.3119,43.6961
68.3119,43.7914
Z" /> 
<path style="fill:#000000; fill-opacity:1.0000; stroke:none;fill-rule:evenodd;"
d="M 65.6449,49.5752
65.7402,49.5752
65.7402,49.7604
65.7402,49.9456
65.6449,49.9456
65.5497,49.9456
65.5497,49.7604
65.5497,49.5752
Z" /> 
<path style="fill:#000000; fill-opacity:1.0000; stroke:none;fill-rule:evenodd;"
d="M 64.9993,43.6009
64.9993,43.6908
65.0893,43.6908
65.1793,43.6908
65.1793,43.6009
65.1793,43.5109
65.2745,43.5109
65.3698,43.5109
65.3698,43.6062
65.3698,43.7014
65.2745,43.7014
65.1793,43.7014
65.1793,43.7914
65.1793,43.8813
65.0893,43.8813
64.9993,43.8813
64.9993,43.7914
64.9993,43.7014
64.9094,43.7014
64.8194,43.7014
64.8194,43.8813
64.8194,44.0612
64.6289,44.0612
64.4384,44.0612
64.4384,43.9713
64.4384,43.8813
64.5337,43.8813
64.6289,43.8813
64.6289,43.7914
64.6289,43.7014
64.3538,43.7014
64.0786,43.7014
64.0786,43.6062
64.0786,43.5109
64.5390,43.5109
64.9993,43.5109
Z" /> 
<path style="fill:#000000; fill-opacity:1.0000; stroke:none;fill-rule:evenodd;"
d="M 66.1000,45.2572
66.1000,45.5323
66.0048,45.5323
65.9095,45.5323
65.9095,45.2572
65.9095,44.9820
66.0048,44.9820
66.1000,44.9820
Z" /> 
<path style="fill:#000000; fill-opacity:1.0000; stroke:none;fill-rule:evenodd;"
d="M 70.1428,44.7915
69.5025,44.7915
68.8623,44.7915
68.8623,44.1512
68.8623,43.6908
69.0422,43.6908
69.0422,44.1512
69.0422,44.6116
69.5025,44.6116
69.9629,44.6116
69.9629,44.1512
69.9629,43.6908
69.5025,43.6908
69.0422,43.6908
68.8623,43.6908
68.8623,43.5109
69.5025,43.5109
70.1428,43.5109
70.1428,44.1512
Z" /> 
<path style="fill:#000000; fill-opacity:1.0000; stroke:none;fill-rule:evenodd;"
d="M 69.7830,50.4007
69.7830,50.6758
69.5025,50.6758
69.2221,50.6758
69.2221,50.4007
69.2221,50.1255
69.5025,50.1255
69.7830,50.1255
Z" /> 
<path style="fill:#000000; fill-opacity:1.0000; stroke:none;fill-rule:evenodd;"
d="M 69.7830,44.1565
69.7830,44.4317
69.5025,44.4317
69.2221,44.4317
69.2221,44.1565
69.2221,43.8813
69.5025,43.8813
69.7830,43.8813
Z" /> 
<path style="fill:#000000; fill-opacity:1.0000; stroke:none;fill-rule:evenodd;"
d="M 64.2691,43.9713
64.2691,44.0613
64.1738,44.0613
64.0786,44.0613
64.0786,43.9713
64.0786,43.8813
64.1738,43.8813
64.2691,43.8813
Z" /> 
</g>
<g style="fill:none; 
stroke:#000000; stroke-width:0.3000; stroke-opacity:1; 
stroke-linecap:round; stroke-linejoin:round;">
<text x="69.1000" y="42.7000"
transform="scale(-1 1) translate(-138.200000 0)"
textLength="17.4571" font-size="2.0000" lengthAdjust="spacingAndGlyphs"
text-anchor="start" opacity="0" stroke-opacity="0">lucy m, 05/25</text>
<g class="stroked-text"><desc>lucy m, 05/25</desc>
<path d="M68.3312 42.5008
L68.4741 42.4294
" />
<path d="M68.4741 42.4294
L68.5455 42.2865
" />
<path d="M68.5455 42.2865
L68.5455 41.0008
" />
<path d="M67.1169 41.5008
L67.1169 42.5008
" />
<path d="M67.7598 41.5008
L67.7598 42.2865
" />
<path d="M67.7598 42.2865
L67.6883 42.4294
" />
<path d="M67.6883 42.4294
L67.5455 42.5008
" />
<path d="M67.5455 42.5008
L67.3312 42.5008
" />
<path d="M67.3312 42.5008
L67.1883 42.4294
" />
<path d="M67.1883 42.4294
L67.1169 42.3580
" />
<path d="M65.7598 42.4294
L65.9026 42.5008
" />
<path d="M65.9026 42.5008
L66.1883 42.5008
" />
<path d="M66.1883 42.5008
L66.3312 42.4294
" />
<path d="M66.3312 42.4294
L66.4026 42.3580
" />
<path d="M66.4026 42.3580
L66.4741 42.2151
" />
<path d="M66.4741 42.2151
L66.4741 41.7865
" />
<path d="M66.4741 41.7865
L66.4026 41.6437
" />
<path d="M66.4026 41.6437
L66.3312 41.5723
" />
<path d="M66.3312 41.5723
L66.1883 41.5008
" />
<path d="M66.1883 41.5008
L65.9026 41.5008
" />
<path d="M65.9026 41.5008
L65.7598 41.5723
" />
<path d="M65.2598 41.5008
L64.9026 42.5008
" />
<path d="M64.5455 41.5008
L64.9026 42.5008
" />
<path d="M64.9026 42.5008
L65.0455 42.8580
" />
<path d="M65.0455 42.8580
L65.1169 42.9294
" />
<path d="M65.1169 42.9294
L65.2598 43.0008
" />
<path d="M62.8312 42.5008
L62.8312 41.5008
" />
<path d="M62.8312 41.6437
L62.7598 41.5723
" />
<path d="M62.7598 41.5723
L62.6169 41.5008
" />
<path d="M62.6169 41.5008
L62.4026 41.5008
" />
<path d="M62.4026 41.5008
L62.2598 41.5723
" />
<path d="M62.2598 41.5723
L62.1883 41.7151
" />
<path d="M62.1883 41.7151
L62.1883 42.5008
" />
<path d="M62.1883 41.7151
L62.1169 41.5723
" />
<path d="M62.1169 41.5723
L61.9741 41.5008
" />
<path d="M61.9741 41.5008
L61.7598 41.5008
" />
<path d="M61.7598 41.5008
L61.6169 41.5723
" />
<path d="M61.6169 41.5723
L61.5455 41.7151
" />
<path d="M61.5455 41.7151
L61.5455 42.5008
" />
<path d="M60.7598 42.4294
L60.7598 42.5008
" />
<path d="M60.7598 42.5008
L60.8312 42.6437
" />
<path d="M60.8312 42.6437
L60.9026 42.7151
" />
<path d="M58.6883 41.0008
L58.5455 41.0008
" />
<path d="M58.5455 41.0008
L58.4026 41.0723
" />
<path d="M58.4026 41.0723
L58.3312 41.1437
" />
<path d="M58.3312 41.1437
L58.2598 41.2865
" />
<path d="M58.2598 41.2865
L58.1883 41.5723
" />
<path d="M58.1883 41.5723
L58.1883 41.9294
" />
<path d="M58.1883 41.9294
L58.2598 42.2151
" />
<path d="M58.2598 42.2151
L58.3312 42.3580
" />
<path d="M58.3312 42.3580
L58.4026 42.4294
" />
<path d="M58.4026 42.4294
L58.5455 42.5008
" />
<path d="M58.5455 42.5008
L58.6883 42.5008
" />
<path d="M58.6883 42.5008
L58.8312 42.4294
" />
<path d="M58.8312 42.4294
L58.9026 42.3580
" />
<path d="M58.9026 42.3580
L58.9741 42.2151
" />
<path d="M58.9741 42.2151
L59.0455 41.9294
" />
<path d="M59.0455 41.9294
L59.0455 41.5723
" />
<path d="M59.0455 41.5723
L58.9741 41.2865
" />
<path d="M58.9741 41.2865
L58.9026 41.1437
" />
<path d="M58.9026 41.1437
L58.8312 41.0723
" />
<path d="M58.8312 41.0723
L58.6883 41.0008
" />
<path d="M56.8312 41.0008
L57.5455 41.0008
" />
<path d="M57.5455 41.0008
L57.6169 41.7151
" />
<path d="M57.6169 41.7151
L57.5455 41.6437
" />
<path d="M57.5455 41.6437
L57.4026 41.5723
" />
<path d="M57.4026 41.5723
L57.0455 41.5723
" />
<path d="M57.0455 41.5723
L56.9026 41.6437
" />
<path d="M56.9026 41.6437
L56.8312 41.7151
" />
<path d="M56.8312 41.7151
L56.7598 41.8580
" />
<path d="M56.7598 41.8580
L56.7598 42.2151
" />
<path d="M56.7598 42.2151
L56.8312 42.3580
" />
<path d="M56.8312 42.3580
L56.9026 42.4294
" />
<path d="M56.9026 42.4294
L57.0455 42.5008
" />
<path d="M57.0455 42.5008
L57.4026 42.5008
" />
<path d="M57.4026 42.5008
L57.5455 42.4294
" />
<path d="M57.5455 42.4294
L57.6169 42.3580
" />
<path d="M55.0455 40.9294
L56.3312 42.8580
" />
<path d="M54.6169 41.1437
L54.5455 41.0723
" />
<path d="M54.5455 41.0723
L54.4026 41.0008
" />
<path d="M54.4026 41.0008
L54.0455 41.0008
" />
<path d="M54.0455 41.0008
L53.9026 41.0723
" />
<path d="M53.9026 41.0723
L53.8312 41.1437
" />
<path d="M53.8312 41.1437
L53.7598 41.2865
" />
<path d="M53.7598 41.2865
L53.7598 41.4294
" />
<path d="M53.7598 41.4294
L53.8312 41.6437
" />
<path d="M53.8312 41.6437
L54.6883 42.5008
" />
<path d="M54.6883 42.5008
L53.7598 42.5008
" />
<path d="M52.4026 41.0008
L53.1169 41.0008
" />
<path d="M53.1169 41.0008
L53.1883 41.7151
" />
<path d="M53.1883 41.7151
L53.1169 41.6437
" />
<path d="M53.1169 41.6437
L52.9741 41.5723
" />
<path d="M52.9741 41.5723
L52.6169 41.5723
" />
<path d="M52.6169 41.5723
L52.4741 41.6437
" />
<path d="M52.4741 41.6437
L52.4026 41.7151
" />
<path d="M52.4026 41.7151
L52.3312 41.8580
" />
<path d="M52.3312 41.8580
L52.3312 42.2151
" />
<path d="M52.3312 42.2151
L52.4026 42.3580
" />
<path d="M52.4026 42.3580
L52.4741 42.4294
" />
<path d="M52.4741 42.4294
L52.6169 42.5008
" />
<path d="M52.6169 42.5008
L52.9741 42.5008
" />
<path d="M52.9741 42.5008
L53.1169 42.4294
" />
<path d="M53.1169 42.4294
L53.1883 42.3580
" />
</g></g>
<g style="fill:none; 
stroke:#000000; stroke-width:0.1500; stroke-opacity:1; 
stroke-linecap:round; stroke-linejoin:round;">
<text x="43.6000" y="79.3000"
transform="scale(-1 1) translate(-87.200000 0)"
textLength="5.8214" font-size="1.3333" lengthAdjust="spacingAndGlyphs"
text-anchor="middle" opacity="0" stroke-opacity="0">CUTOFF</text>
<g class="stroked-text"><desc>CUTOFF</desc>
<path d="M45.5762 79.1596
L45.6238 79.2072
" />
<path d="M45.6238 79.2072
L45.7667 79.2548
" />
<path d="M45.7667 79.2548
L45.8619 79.2548
" />
<path d="M45.8619 79.2548
L46.0048 79.2072
" />
<path d="M46.0048 79.2072
L46.1000 79.1120
" />
<path d="M46.1000 79.1120
L46.1476 79.0167
" />
<path d="M46.1476 79.0167
L46.1952 78.8262
" />
<path d="M46.1952 78.8262
L46.1952 78.6834
" />
<path d="M46.1952 78.6834
L46.1476 78.4929
" />
<path d="M46.1476 78.4929
L46.1000 78.3977
" />
<path d="M46.1000 78.3977
L46.0048 78.3024
" />
<path d="M46.0048 78.3024
L45.8619 78.2548
" />
<path d="M45.8619 78.2548
L45.7667 78.2548
" />
<path d="M45.7667 78.2548
L45.6238 78.3024
" />
<path d="M45.6238 78.3024
L45.5762 78.3501
" />
<path d="M45.1476 78.2548
L45.1476 79.0643
" />
<path d="M45.1476 79.0643
L45.1000 79.1596
" />
<path d="M45.1000 79.1596
L45.0524 79.2072
" />
<path d="M45.0524 79.2072
L44.9571 79.2548
" />
<path d="M44.9571 79.2548
L44.7667 79.2548
" />
<path d="M44.7667 79.2548
L44.6714 79.2072
" />
<path d="M44.6714 79.2072
L44.6238 79.1596
" />
<path d="M44.6238 79.1596
L44.5762 79.0643
" />
<path d="M44.5762 79.0643
L44.5762 78.2548
" />
<path d="M44.2429 78.2548
L43.6714 78.2548
" />
<path d="M43.9571 79.2548
L43.9571 78.2548
" />
<path d="M43.1476 78.2548
L42.9571 78.2548
" />
<path d="M42.9571 78.2548
L42.8619 78.3024
" />
<path d="M42.8619 78.3024
L42.7667 78.3977
" />
<path d="M42.7667 78.3977
L42.7190 78.5882
" />
<path d="M42.7190 78.5882
L42.7190 78.9215
" />
<path d="M42.7190 78.9215
L42.7667 79.1120
" />
<path d="M42.7667 79.1120
L42.8619 79.2072
" />
<path d="M42.8619 79.2072
L42.9571 79.2548
" />
<path d="M42.9571 79.2548
L43.1476 79.2548
" />
<path d="M43.1476 79.2548
L43.2429 79.2072
" />
<path d="M43.2429 79.2072
L43.3381 79.1120
" />
<path d="M43.3381 79.1120
L43.3857 78.9215
" />
<path d="M43.3857 78.9215
L43.3857 78.5882
" />
<path d="M43.3857 78.5882
L43.3381 78.3977
" />
<path d="M43.3381 78.3977
L43.2429 78.3024
" />
<path d="M43.2429 78.3024
L43.1476 78.2548
" />
<path d="M41.9571 78.7310
L42.2905 78.7310
" />
<path d="M42.2905 79.2548
L42.2905 78.2548
" />
<path d="M42.2905 78.2548
L41.8143 78.2548
" />
<path d="M41.1000 78.7310
L41.4333 78.7310
" />
<path d="M41.4333 79.2548
L41.4333 78.2548
" />
<path d="M41.4333 78.2548
L40.9571 78.2548
" />
</g><text x="37.4000" y="79.3000"
transform="scale(-1 1) translate(-74.800000 0)"
textLength="5.7262" font-size="1.3333" lengthAdjust="spacingAndGlyphs"
text-anchor="middle" opacity="0" stroke-opacity="0">HEATER</text>
<g class="stroked-text"><desc>HEATER</desc>
<path d="M39.9000 79.2548
L39.9000 78.2548
" />
<path d="M39.9000 78.7310
L39.3286 78.7310
" />
<path d="M39.3286 79.2548
L39.3286 78.2548
" />
<path d="M38.8524 78.7310
L38.5190 78.7310
" />
<path d="M38.3762 79.2548
L38.8524 79.2548
" />
<path d="M38.8524 79.2548
L38.8524 78.2548
" />
<path d="M38.8524 78.2548
L38.3762 78.2548
" />
<path d="M37.9952 78.9691
L37.5190 78.9691
" />
<path d="M38.0905 79.2548
L37.7571 78.2548
" />
<path d="M37.7571 78.2548
L37.4238 79.2548
" />
<path d="M37.2333 78.2548
L36.6619 78.2548
" />
<path d="M36.9476 79.2548
L36.9476 78.2548
" />
<path d="M36.3286 78.7310
L35.9952 78.7310
" />
<path d="M35.8524 79.2548
L36.3286 79.2548
" />
<path d="M36.3286 79.2548
L36.3286 78.2548
" />
<path d="M36.3286 78.2548
L35.8524 78.2548
" />
<path d="M34.8524 79.2548
L35.1857 78.7786
" />
<path d="M35.4238 79.2548
L35.4238 78.2548
" />
<path d="M35.4238 78.2548
L35.0429 78.2548
" />
<path d="M35.0429 78.2548
L34.9476 78.3024
" />
<path d="M34.9476 78.3024
L34.9000 78.3501
" />
<path d="M34.9000 78.3501
L34.8524 78.4453
" />
<path d="M34.8524 78.4453
L34.8524 78.5882
" />
<path d="M34.8524 78.5882
L34.9000 78.6834
" />
<path d="M34.9000 78.6834
L34.9476 78.7310
" />
<path d="M34.9476 78.7310
L35.0429 78.7786
" />
<path d="M35.0429 78.7786
L35.4238 78.7786
" />
</g><text x="66.7500" y="79.2500"
transform="scale(-1 1) translate(-133.500000 0)"
textLength="6.3929" font-size="1.3333" lengthAdjust="spacingAndGlyphs"
text-anchor="middle" opacity="0" stroke-opacity="0">BATTERY</text>
<g class="stroked-text"><desc>BATTERY</desc>
<path d="M69.2500 78.6810
L69.1071 78.7286
" />
<path d="M69.1071 78.7286
L69.0595 78.7762
" />
<path d="M69.0595 78.7762
L69.0119 78.8715
" />
<path d="M69.0119 78.8715
L69.0119 79.0143
" />
<path d="M69.0119 79.0143
L69.0595 79.1096
" />
<path d="M69.0595 79.1096
L69.1071 79.1572
" />
<path d="M69.1071 79.1572
L69.2024 79.2048
" />
<path d="M69.2024 79.2048
L69.5833 79.2048
" />
<path d="M69.5833 79.2048
L69.5833 78.2048
" />
<path d="M69.5833 78.2048
L69.2500 78.2048
" />
<path d="M69.2500 78.2048
L69.1548 78.2524
" />
<path d="M69.1548 78.2524
L69.1071 78.3001
" />
<path d="M69.1071 78.3001
L69.0595 78.3953
" />
<path d="M69.0595 78.3953
L69.0595 78.4905
" />
<path d="M69.0595 78.4905
L69.1071 78.5858
" />
<path d="M69.1071 78.5858
L69.1548 78.6334
" />
<path d="M69.1548 78.6334
L69.2500 78.6810
" />
<path d="M69.2500 78.6810
L69.5833 78.6810
" />
<path d="M68.6310 78.9191
L68.1548 78.9191
" />
<path d="M68.7262 79.2048
L68.3929 78.2048
" />
<path d="M68.3929 78.2048
L68.0595 79.2048
" />
<path d="M67.8690 78.2048
L67.2976 78.2048
" />
<path d="M67.5833 79.2048
L67.5833 78.2048
" />
<path d="M67.1071 78.2048
L66.5357 78.2048
" />
<path d="M66.8214 79.2048
L66.8214 78.2048
" />
<path d="M66.2024 78.6810
L65.8690 78.6810
" />
<path d="M65.7262 79.2048
L66.2024 79.2048
" />
<path d="M66.2024 79.2048
L66.2024 78.2048
" />
<path d="M66.2024 78.2048
L65.7262 78.2048
" />
<path d="M64.7262 79.2048
L65.0595 78.7286
" />
<path d="M65.2976 79.2048
L65.2976 78.2048
" />
<path d="M65.2976 78.2048
L64.9167 78.2048
" />
<path d="M64.9167 78.2048
L64.8214 78.2524
" />
<path d="M64.8214 78.2524
L64.7738 78.3001
" />
<path d="M64.7738 78.3001
L64.7262 78.3953
" />
<path d="M64.7262 78.3953
L64.7262 78.5382
" />
<path d="M64.7262 78.5382
L64.7738 78.6334
" />
<path d="M64.7738 78.6334
L64.8214 78.6810
" />
<path d="M64.8214 78.6810
L64.9167 78.7286
" />
<path d="M64.9167 78.7286
L65.2976 78.7286
" />
<path d="M64.1071 78.7286
L64.1071 79.2048
" />
<path d="M64.4405 78.2048
L64.1071 78.7286
" />
<path d="M64.1071 78.7286
L63.7738 78.2048
" />
</g><g transform="rotate(-90.000000 54.4000 53.6000)">
<text x="54.4000" y="54.1000"
transform="scale(-1 1) translate(-108.800000 0)"
textLength="3.1548" font-size="1.3333" lengthAdjust="spacingAndGlyphs"
text-anchor="middle" opacity="0" stroke-opacity="0">C10</text>
</g>
<g class="stroked-text"><desc>C10</desc>
<path d="M54.7596 52.9571
L54.8072 52.9095
" />
<path d="M54.8072 52.9095
L54.8548 52.7667
" />
<path d="M54.8548 52.7667
L54.8548 52.6714
" />
<path d="M54.8548 52.6714
L54.8072 52.5286
" />
<path d="M54.8072 52.5286
L54.7120 52.4333
" />
<path d="M54.7120 52.4333
L54.6167 52.3857
" />
<path d="M54.6167 52.3857
L54.4262 52.3381
" />
<path d="M54.4262 52.3381
L54.2834 52.3381
" />
<path d="M54.2834 52.3381
L54.0929 52.3857
" />
<path d="M54.0929 52.3857
L53.9977 52.4333
" />
<path d="M53.9977 52.4333
L53.9024 52.5286
" />
<path d="M53.9024 52.5286
L53.8548 52.6714
" />
<path d="M53.8548 52.6714
L53.8548 52.7667
" />
<path d="M53.8548 52.7667
L53.9024 52.9095
" />
<path d="M53.9024 52.9095
L53.9501 52.9571
" />
<path d="M54.8548 53.9095
L54.8548 53.3381
" />
<path d="M54.8548 53.6238
L53.8548 53.6238
" />
<path d="M53.8548 53.6238
L53.9977 53.5286
" />
<path d="M53.9977 53.5286
L54.0929 53.4333
" />
<path d="M54.0929 53.4333
L54.1405 53.3381
" />
<path d="M53.8548 54.5286
L53.8548 54.6238
" />
<path d="M53.8548 54.6238
L53.9024 54.7190
" />
<path d="M53.9024 54.7190
L53.9501 54.7667
" />
<path d="M53.9501 54.7667
L54.0453 54.8143
" />
<path d="M54.0453 54.8143
L54.2358 54.8619
" />
<path d="M54.2358 54.8619
L54.4739 54.8619
" />
<path d="M54.4739 54.8619
L54.6643 54.8143
" />
<path d="M54.6643 54.8143
L54.7596 54.7667
" />
<path d="M54.7596 54.7667
L54.8072 54.7190
" />
<path d="M54.8072 54.7190
L54.8548 54.6238
" />
<path d="M54.8548 54.6238
L54.8548 54.5286
" />
<path d="M54.8548 54.5286
L54.8072 54.4333
" />
<path d="M54.8072 54.4333
L54.7596 54.3857
" />
<path d="M54.7596 54.3857
L54.6643 54.3381
" />
<path d="M54.6643 54.3381
L54.4739 54.2905
" />
<path d="M54.4739 54.2905
L54.2358 54.2905
" />
<path d="M54.2358 54.2905
L54.0453 54.3381
" />
<path d="M54.0453 54.3381
L53.9501 54.3857
" />
<path d="M53.9501 54.3857
L53.9024 54.4333
" />
<path d="M53.9024 54.4333
L53.8548 54.5286
" />
</g><text x="37.0000" y="53.9000"
transform="scale(-1 1) translate(-74.000000 0)"
textLength="4.6786" font-size="1.3333" lengthAdjust="spacingAndGlyphs"
text-anchor="middle" opacity="0" stroke-opacity="0">G_ANT</text>
<g class="stroked-text"><desc>G_ANT</desc>
<path d="M38.4524 52.9024
L38.5476 52.8548
" />
<path d="M38.5476 52.8548
L38.6905 52.8548
" />
<path d="M38.6905 52.8548
L38.8333 52.9024
" />
<path d="M38.8333 52.9024
L38.9286 52.9977
" />
<path d="M38.9286 52.9977
L38.9762 53.0929
" />
<path d="M38.9762 53.0929
L39.0238 53.2834
" />
<path d="M39.0238 53.2834
L39.0238 53.4262
" />
<path d="M39.0238 53.4262
L38.9762 53.6167
" />
<path d="M38.9762 53.6167
L38.9286 53.7120
" />
<path d="M38.9286 53.7120
L38.8333 53.8072
" />
<path d="M38.8333 53.8072
L38.6905 53.8548
" />
<path d="M38.6905 53.8548
L38.5952 53.8548
" />
<path d="M38.5952 53.8548
L38.4524 53.8072
" />
<path d="M38.4524 53.8072
L38.4048 53.7596
" />
<path d="M38.4048 53.7596
L38.4048 53.4262
" />
<path d="M38.4048 53.4262
L38.5952 53.4262
" />
<path d="M38.2143 53.9501
L37.4524 53.9501
" />
<path d="M37.2619 53.5691
L36.7857 53.5691
" />
<path d="M37.3571 53.8548
L37.0238 52.8548
" />
<path d="M37.0238 52.8548
L36.6905 53.8548
" />
<path d="M36.3571 53.8548
L36.3571 52.8548
" />
<path d="M36.3571 52.8548
L35.7857 53.8548
" />
<path d="M35.7857 53.8548
L35.7857 52.8548
" />
<path d="M35.4524 52.8548
L34.8810 52.8548
" />
<path d="M35.1667 53.8548
L35.1667 52.8548
" />
</g><text x="43.6000" y="54.0000"
transform="scale(-1 1) translate(-87.200000 0)"
textLength="3.1548" font-size="1.3333" lengthAdjust="spacingAndGlyphs"
text-anchor="middle" opacity="0" stroke-opacity="0">R14</text>
<g class="stroked-text"><desc>R14</desc>
<path d="M44.2429 53.9548
L44.5762 53.4786
" />
<path d="M44.8143 53.9548
L44.8143 52.9548
" />
<path d="M44.8143 52.9548
L44.4333 52.9548
" />
<path d="M44.4333 52.9548
L44.3381 53.0024
" />
<path d="M44.3381 53.0024
L44.2905 53.0501
" />
<path d="M44.2905 53.0501
L44.2429 53.1453
" />
<path d="M44.2429 53.1453
L44.2429 53.2882
" />
<path d="M44.2429 53.2882
L44.2905 53.3834
" />
<path d="M44.2905 53.3834
L44.3381 53.4310
" />
<path d="M44.3381 53.4310
L44.4333 53.4786
" />
<path d="M44.4333 53.4786
L44.8143 53.4786
" />
<path d="M43.2905 53.9548
L43.8619 53.9548
" />
<path d="M43.5762 53.9548
L43.5762 52.9548
" />
<path d="M43.5762 52.9548
L43.6714 53.0977
" />
<path d="M43.6714 53.0977
L43.7667 53.1929
" />
<path d="M43.7667 53.1929
L43.8619 53.2405
" />
<path d="M42.4333 53.2882
L42.4333 53.9548
" />
<path d="M42.6714 52.9072
L42.9095 53.6215
" />
<path d="M42.9095 53.6215
L42.2905 53.6215
" />
</g><text x="39.3000" y="71.5000"
transform="scale(-1 1) translate(-78.600000 0)"
textLength="3.9643" font-size="1.3333" lengthAdjust="spacingAndGlyphs"
text-anchor="middle" opacity="0" stroke-opacity="0">LORA</text>
<g class="stroked-text"><desc>LORA</desc>
<path d="M40.4429 71.4548
L40.9190 71.4548
" />
<path d="M40.9190 71.4548
L40.9190 70.4548
" />
<path d="M39.9190 70.4548
L39.7286 70.4548
" />
<path d="M39.7286 70.4548
L39.6333 70.5024
" />
<path d="M39.6333 70.5024
L39.5381 70.5977
" />
<path d="M39.5381 70.5977
L39.4905 70.7882
" />
<path d="M39.4905 70.7882
L39.4905 71.1215
" />
<path d="M39.4905 71.1215
L39.5381 71.3120
" />
<path d="M39.5381 71.3120
L39.6333 71.4072
" />
<path d="M39.6333 71.4072
L39.7286 71.4548
" />
<path d="M39.7286 71.4548
L39.9190 71.4548
" />
<path d="M39.9190 71.4548
L40.0143 71.4072
" />
<path d="M40.0143 71.4072
L40.1095 71.3120
" />
<path d="M40.1095 71.3120
L40.1571 71.1215
" />
<path d="M40.1571 71.1215
L40.1571 70.7882
" />
<path d="M40.1571 70.7882
L40.1095 70.5977
" />
<path d="M40.1095 70.5977
L40.0143 70.5024
" />
<path d="M40.0143 70.5024
L39.9190 70.4548
" />
<path d="M38.4905 71.4548
L38.8238 70.9786
" />
<path d="M39.0619 71.4548
L39.0619 70.4548
" />
<path d="M39.0619 70.4548
L38.6810 70.4548
" />
<path d="M38.6810 70.4548
L38.5857 70.5024
" />
<path d="M38.5857 70.5024
L38.5381 70.5501
" />
<path d="M38.5381 70.5501
L38.4905 70.6453
" />
<path d="M38.4905 70.6453
L38.4905 70.7882
" />
<path d="M38.4905 70.7882
L38.5381 70.8834
" />
<path d="M38.5381 70.8834
L38.5857 70.9310
" />
<path d="M38.5857 70.9310
L38.6810 70.9786
" />
<path d="M38.6810 70.9786
L39.0619 70.9786
" />
<path d="M38.1095 71.1691
L37.6333 71.1691
" />
<path d="M38.2048 71.4548
L37.8714 70.4548
" />
<path d="M37.8714 70.4548
L37.5381 71.4548
" />
</g><g transform="rotate(-90.000000 54.3000 50.9000)">
<text x="54.3000" y="51.4000"
transform="scale(-1 1) translate(-108.600000 0)"
textLength="3.1548" font-size="1.3333" lengthAdjust="spacingAndGlyphs"
text-anchor="middle" opacity="0" stroke-opacity="0">C11</text>
</g>
<g class="stroked-text"><desc>C11</desc>
<path d="M54.6596 50.2571
L54.7072 50.2095
" />
<path d="M54.7072 50.2095
L54.7548 50.0667
" />
<path d="M54.7548 50.0667
L54.7548 49.9714
" />
<path d="M54.7548 49.9714
L54.7072 49.8286
" />
<path d="M54.7072 49.8286
L54.6120 49.7333
" />
<path d="M54.6120 49.7333
L54.5167 49.6857
" />
<path d="M54.5167 49.6857
L54.3262 49.6381
" />
<path d="M54.3262 49.6381
L54.1834 49.6381
" />
<path d="M54.1834 49.6381
L53.9929 49.6857
" />
<path d="M53.9929 49.6857
L53.8977 49.7333
" />
<path d="M53.8977 49.7333
L53.8024 49.8286
" />
<path d="M53.8024 49.8286
L53.7548 49.9714
" />
<path d="M53.7548 49.9714
L53.7548 50.0667
" />
<path d="M53.7548 50.0667
L53.8024 50.2095
" />
<path d="M53.8024 50.2095
L53.8501 50.2571
" />
<path d="M54.7548 51.2095
L54.7548 50.6381
" />
<path d="M54.7548 50.9238
L53.7548 50.9238
" />
<path d="M53.7548 50.9238
L53.8977 50.8286
" />
<path d="M53.8977 50.8286
L53.9929 50.7333
" />
<path d="M53.9929 50.7333
L54.0405 50.6381
" />
<path d="M54.7548 52.1619
L54.7548 51.5905
" />
<path d="M54.7548 51.8762
L53.7548 51.8762
" />
<path d="M53.7548 51.8762
L53.8977 51.7810
" />
<path d="M53.8977 51.7810
L53.9929 51.6857
" />
<path d="M53.9929 51.6857
L54.0405 51.5905
" />
</g><text x="51.5500" y="53.8000"
transform="scale(-1 1) translate(-103.100000 0)"
textLength="2.2024" font-size="1.3333" lengthAdjust="spacingAndGlyphs"
text-anchor="middle" opacity="0" stroke-opacity="0">C3</text>
<g class="stroked-text"><desc>C3</desc>
<path d="M51.7167 53.6596
L51.7643 53.7072
" />
<path d="M51.7643 53.7072
L51.9071 53.7548
" />
<path d="M51.9071 53.7548
L52.0024 53.7548
" />
<path d="M52.0024 53.7548
L52.1452 53.7072
" />
<path d="M52.1452 53.7072
L52.2405 53.6120
" />
<path d="M52.2405 53.6120
L52.2881 53.5167
" />
<path d="M52.2881 53.5167
L52.3357 53.3262
" />
<path d="M52.3357 53.3262
L52.3357 53.1834
" />
<path d="M52.3357 53.1834
L52.2881 52.9929
" />
<path d="M52.2881 52.9929
L52.2405 52.8977
" />
<path d="M52.2405 52.8977
L52.1452 52.8024
" />
<path d="M52.1452 52.8024
L52.0024 52.7548
" />
<path d="M52.0024 52.7548
L51.9071 52.7548
" />
<path d="M51.9071 52.7548
L51.7643 52.8024
" />
<path d="M51.7643 52.8024
L51.7167 52.8501
" />
<path d="M51.3833 52.7548
L50.7643 52.7548
" />
<path d="M50.7643 52.7548
L51.0976 53.1358
" />
<path d="M51.0976 53.1358
L50.9548 53.1358
" />
<path d="M50.9548 53.1358
L50.8595 53.1834
" />
<path d="M50.8595 53.1834
L50.8119 53.2310
" />
<path d="M50.8119 53.2310
L50.7643 53.3262
" />
<path d="M50.7643 53.3262
L50.7643 53.5643
" />
<path d="M50.7643 53.5643
L50.8119 53.6596
" />
<path d="M50.8119 53.6596
L50.8595 53.7072
" />
<path d="M50.8595 53.7072
L50.9548 53.7548
" />
<path d="M50.9548 53.7548
L51.2405 53.7548
" />
<path d="M51.2405 53.7548
L51.3357 53.7072
" />
<path d="M51.3357 53.7072
L51.3833 53.6596
" />
</g><text x="52.7000" y="48.4000"
transform="scale(-1 1) translate(-105.400000 0)"
textLength="2.2024" font-size="1.3333" lengthAdjust="spacingAndGlyphs"
text-anchor="middle" opacity="0" stroke-opacity="0">C3</text>
<g class="stroked-text"><desc>C3</desc>
<path d="M52.8667 48.2596
L52.9143 48.3072
" />
<path d="M52.9143 48.3072
L53.0571 48.3548
" />
<path d="M53.0571 48.3548
L53.1524 48.3548
" />
<path d="M53.1524 48.3548
L53.2952 48.3072
" />
<path d="M53.2952 48.3072
L53.3905 48.2120
" />
<path d="M53.3905 48.2120
L53.4381 48.1167
" />
<path d="M53.4381 48.1167
L53.4857 47.9262
" />
<path d="M53.4857 47.9262
L53.4857 47.7834
" />
<path d="M53.4857 47.7834
L53.4381 47.5929
" />
<path d="M53.4381 47.5929
L53.3905 47.4977
" />
<path d="M53.3905 47.4977
L53.2952 47.4024
" />
<path d="M53.2952 47.4024
L53.1524 47.3548
" />
<path d="M53.1524 47.3548
L53.0571 47.3548
" />
<path d="M53.0571 47.3548
L52.9143 47.4024
" />
<path d="M52.9143 47.4024
L52.8667 47.4501
" />
<path d="M52.5333 47.3548
L51.9143 47.3548
" />
<path d="M51.9143 47.3548
L52.2476 47.7358
" />
<path d="M52.2476 47.7358
L52.1048 47.7358
" />
<path d="M52.1048 47.7358
L52.0095 47.7834
" />
<path d="M52.0095 47.7834
L51.9619 47.8310
" />
<path d="M51.9619 47.8310
L51.9143 47.9262
" />
<path d="M51.9143 47.9262
L51.9143 48.1643
" />
<path d="M51.9143 48.1643
L51.9619 48.2596
" />
<path d="M51.9619 48.2596
L52.0095 48.3072
" />
<path d="M52.0095 48.3072
L52.1048 48.3548
" />
<path d="M52.1048 48.3548
L52.3905 48.3548
" />
<path d="M52.3905 48.3548
L52.4857 48.3072
" />
<path d="M52.4857 48.3072
L52.5333 48.2596
" />
</g><g transform="rotate(-90.000000 54.3000 48.5000)">
<text x="54.3000" y="49.0000"
transform="scale(-1 1) translate(-108.600000 0)"
textLength="2.2024" font-size="1.3333" lengthAdjust="spacingAndGlyphs"
text-anchor="middle" opacity="0" stroke-opacity="0">C4</text>
</g>
<g class="stroked-text"><desc>C4</desc>
<path d="M54.6596 48.3333
L54.7072 48.2857
" />
<path d="M54.7072 48.2857
L54.7548 48.1429
" />
<path d="M54.7548 48.1429
L54.7548 48.0476
" />
<path d="M54.7548 48.0476
L54.7072 47.9048
" />
<path d="M54.7072 47.9048
L54.6120 47.8095
" />
<path d="M54.6120 47.8095
L54.5167 47.7619
" />
<path d="M54.5167 47.7619
L54.3262 47.7143
" />
<path d="M54.3262 47.7143
L54.1834 47.7143
" />
<path d="M54.1834 47.7143
L53.9929 47.7619
" />
<path d="M53.9929 47.7619
L53.8977 47.8095
" />
<path d="M53.8977 47.8095
L53.8024 47.9048
" />
<path d="M53.8024 47.9048
L53.7548 48.0476
" />
<path d="M53.7548 48.0476
L53.7548 48.1429
" />
<path d="M53.7548 48.1429
L53.8024 48.2857
" />
<path d="M53.8024 48.2857
L53.8501 48.3333
" />
<path d="M54.0882 49.1905
L54.7548 49.1905
" />
<path d="M53.7072 48.9524
L54.4215 48.7143
" />
<path d="M54.4215 48.7143
L54.4215 49.3333
" />
</g><text x="58.8000" y="60.7000"
transform="scale(-1 1) translate(-117.600000 0)"
textLength="3.8214" font-size="1.3333" lengthAdjust="spacingAndGlyphs"
text-anchor="middle" opacity="0" stroke-opacity="0">BAT1</text>
<g class="stroked-text"><desc>BAT1</desc>
<path d="M60.0143 60.1310
L59.8714 60.1786
" />
<path d="M59.8714 60.1786
L59.8238 60.2262
" />
<path d="M59.8238 60.2262
L59.7762 60.3215
" />
<path d="M59.7762 60.3215
L59.7762 60.4643
" />
<path d="M59.7762 60.4643
L59.8238 60.5596
" />
<path d="M59.8238 60.5596
L59.8714 60.6072
" />
<path d="M59.8714 60.6072
L59.9667 60.6548
" />
<path d="M59.9667 60.6548
L60.3476 60.6548
" />
<path d="M60.3476 60.6548
L60.3476 59.6548
" />
<path d="M60.3476 59.6548
L60.0143 59.6548
" />
<path d="M60.0143 59.6548
L59.9190 59.7024
" />
<path d="M59.9190 59.7024
L59.8714 59.7501
" />
<path d="M59.8714 59.7501
L59.8238 59.8453
" />
<path d="M59.8238 59.8453
L59.8238 59.9405
" />
<path d="M59.8238 59.9405
L59.8714 60.0358
" />
<path d="M59.8714 60.0358
L59.9190 60.0834
" />
<path d="M59.9190 60.0834
L60.0143 60.1310
" />
<path d="M60.0143 60.1310
L60.3476 60.1310
" />
<path d="M59.3952 60.3691
L58.9190 60.3691
" />
<path d="M59.4905 60.6548
L59.1571 59.6548
" />
<path d="M59.1571 59.6548
L58.8238 60.6548
" />
<path d="M58.6333 59.6548
L58.0619 59.6548
" />
<path d="M58.3476 60.6548
L58.3476 59.6548
" />
<path d="M57.2048 60.6548
L57.7762 60.6548
" />
<path d="M57.4905 60.6548
L57.4905 59.6548
" />
<path d="M57.4905 59.6548
L57.5857 59.7977
" />
<path d="M57.5857 59.7977
L57.6810 59.8929
" />
<path d="M57.6810 59.8929
L57.7762 59.9405
" />
</g><text x="36.3000" y="47.3000"
transform="scale(-1 1) translate(-72.600000 0)"
textLength="2.0119" font-size="1.3333" lengthAdjust="spacingAndGlyphs"
text-anchor="middle" opacity="0" stroke-opacity="0">L2</text>
<g class="stroked-text"><desc>L2</desc>
<path d="M36.4667 47.2548
L36.9429 47.2548
" />
<path d="M36.9429 47.2548
L36.9429 46.2548
" />
<path d="M36.1810 46.3501
L36.1333 46.3024
" />
<path d="M36.1333 46.3024
L36.0381 46.2548
" />
<path d="M36.0381 46.2548
L35.8000 46.2548
" />
<path d="M35.8000 46.2548
L35.7048 46.3024
" />
<path d="M35.7048 46.3024
L35.6571 46.3501
" />
<path d="M35.6571 46.3501
L35.6095 46.4453
" />
<path d="M35.6095 46.4453
L35.6095 46.5405
" />
<path d="M35.6095 46.5405
L35.6571 46.6834
" />
<path d="M35.6571 46.6834
L36.2286 47.2548
" />
<path d="M36.2286 47.2548
L35.6095 47.2548
" />
</g><text x="44.2000" y="52.8000"
transform="scale(-1 1) translate(-88.400000 0)"
textLength="3.1548" font-size="1.3333" lengthAdjust="spacingAndGlyphs"
text-anchor="middle" opacity="0" stroke-opacity="0">R15</text>
<g class="stroked-text"><desc>R15</desc>
<path d="M44.8429 52.7548
L45.1762 52.2786
" />
<path d="M45.4143 52.7548
L45.4143 51.7548
" />
<path d="M45.4143 51.7548
L45.0333 51.7548
" />
<path d="M45.0333 51.7548
L44.9381 51.8024
" />
<path d="M44.9381 51.8024
L44.8905 51.8501
" />
<path d="M44.8905 51.8501
L44.8429 51.9453
" />
<path d="M44.8429 51.9453
L44.8429 52.0882
" />
<path d="M44.8429 52.0882
L44.8905 52.1834
" />
<path d="M44.8905 52.1834
L44.9381 52.2310
" />
<path d="M44.9381 52.2310
L45.0333 52.2786
" />
<path d="M45.0333 52.2786
L45.4143 52.2786
" />
<path d="M43.8905 52.7548
L44.4619 52.7548
" />
<path d="M44.1762 52.7548
L44.1762 51.7548
" />
<path d="M44.1762 51.7548
L44.2714 51.8977
" />
<path d="M44.2714 51.8977
L44.3667 51.9929
" />
<path d="M44.3667 51.9929
L44.4619 52.0405
" />
<path d="M42.9857 51.7548
L43.4619 51.7548
" />
<path d="M43.4619 51.7548
L43.5095 52.2310
" />
<path d="M43.5095 52.2310
L43.4619 52.1834
" />
<path d="M43.4619 52.1834
L43.3667 52.1358
" />
<path d="M43.3667 52.1358
L43.1286 52.1358
" />
<path d="M43.1286 52.1358
L43.0333 52.1834
" />
<path d="M43.0333 52.1834
L42.9857 52.2310
" />
<path d="M42.9857 52.2310
L42.9381 52.3262
" />
<path d="M42.9381 52.3262
L42.9381 52.5643
" />
<path d="M42.9381 52.5643
L42.9857 52.6596
" />
<path d="M42.9857 52.6596
L43.0333 52.7072
" />
<path d="M43.0333 52.7072
L43.1286 52.7548
" />
<path d="M43.1286 52.7548
L43.3667 52.7548
" />
<path d="M43.3667 52.7548
L43.4619 52.7072
" />
<path d="M43.4619 52.7072
L43.5095 52.6596
" />
</g><text x="36.7500" y="42.3500"
transform="scale(-1 1) translate(-73.500000 0)"
textLength="3.2024" font-size="1.3333" lengthAdjust="spacingAndGlyphs"
text-anchor="middle" opacity="0" stroke-opacity="0">GPS</text>
<g class="stroked-text"><desc>GPS</desc>
<path d="M37.4643 41.3524
L37.5595 41.3048
" />
<path d="M37.5595 41.3048
L37.7024 41.3048
" />
<path d="M37.7024 41.3048
L37.8452 41.3524
" />
<path d="M37.8452 41.3524
L37.9405 41.4477
" />
<path d="M37.9405 41.4477
L37.9881 41.5429
" />
<path d="M37.9881 41.5429
L38.0357 41.7334
" />
<path d="M38.0357 41.7334
L38.0357 41.8762
" />
<path d="M38.0357 41.8762
L37.9881 42.0667
" />
<path d="M37.9881 42.0667
L37.9405 42.1620
" />
<path d="M37.9405 42.1620
L37.8452 42.2572
" />
<path d="M37.8452 42.2572
L37.7024 42.3048
" />
<path d="M37.7024 42.3048
L37.6071 42.3048
" />
<path d="M37.6071 42.3048
L37.4643 42.2572
" />
<path d="M37.4643 42.2572
L37.4167 42.2096
" />
<path d="M37.4167 42.2096
L37.4167 41.8762
" />
<path d="M37.4167 41.8762
L37.6071 41.8762
" />
<path d="M36.9881 42.3048
L36.9881 41.3048
" />
<path d="M36.9881 41.3048
L36.6071 41.3048
" />
<path d="M36.6071 41.3048
L36.5119 41.3524
" />
<path d="M36.5119 41.3524
L36.4643 41.4001
" />
<path d="M36.4643 41.4001
L36.4167 41.4953
" />
<path d="M36.4167 41.4953
L36.4167 41.6382
" />
<path d="M36.4167 41.6382
L36.4643 41.7334
" />
<path d="M36.4643 41.7334
L36.5119 41.7810
" />
<path d="M36.5119 41.7810
L36.6071 41.8286
" />
<path d="M36.6071 41.8286
L36.9881 41.8286
" />
<path d="M36.0357 42.2572
L35.8929 42.3048
" />
<path d="M35.8929 42.3048
L35.6548 42.3048
" />
<path d="M35.6548 42.3048
L35.5595 42.2572
" />
<path d="M35.5595 42.2572
L35.5119 42.2096
" />
<path d="M35.5119 42.2096
L35.4643 42.1143
" />
<path d="M35.4643 42.1143
L35.4643 42.0191
" />
<path d="M35.4643 42.0191
L35.5119 41.9239
" />
<path d="M35.5119 41.9239
L35.5595 41.8762
" />
<path d="M35.5595 41.8762
L35.6548 41.8286
" />
<path d="M35.6548 41.8286
L35.8452 41.7810
" />
<path d="M35.8452 41.7810
L35.9405 41.7334
" />
<path d="M35.9405 41.7334
L35.9881 41.6858
" />
<path d="M35.9881 41.6858
L36.0357 41.5905
" />
<path d="M36.0357 41.5905
L36.0357 41.4953
" />
<path d="M36.0357 41.4953
L35.9881 41.4001
" />
<path d="M35.9881 41.4001
L35.9405 41.3524
" />
<path d="M35.9405 41.3524
L35.8452 41.3048
" />
<path d="M35.8452 41.3048
L35.6071 41.3048
" />
<path d="M35.6071 41.3048
L35.4643 41.3524
" />
</g><path d="M49.2850 53.8000
L49.2850 52.3000
" />
<path d="M49.4350 52.1500
L50.8450 52.1500
" />
<path d="M50.8450 53.9500
L49.4350 53.9500
" />
<path d="M51.6450 53.9500
L53.0550 53.9500
" />
<path d="M53.0550 52.1500
L51.6450 52.1500
" />
<path d="M53.2050 53.8000
L53.2050 52.3000
" />
<path d="M49.4350 52.1500 A0.1500 0.1500 0.0 0 0 49.2850 52.3000" />
<path d="M49.2850 53.8000 A0.1500 0.1500 0.0 0 0 49.4350 53.9500" />
<path d="M53.2050 52.3000 A0.1500 0.1500 0.0 0 0 53.0550 52.1500" />
<path d="M53.0550 53.9500 A0.1500 0.1500 0.0 0 0 53.2050 53.8000" />
</g>
<g style="fill:none; 
stroke:#000000; stroke-width:0.1000; stroke-opacity:1; 
stroke-linecap:round; stroke-linejoin:round;">
<path d="M35.0400 49.4900
L35.0400 49.6500
" />
<path d="M35.0400 51.9500
L35.0400 52.1600
" />
<path d="M35.0400 52.1600
L35.7500 52.1600
" />
<path d="M35.8500 49.4900
L35.0400 49.4900
" />
<path d="M37.0400 52.1500
L37.7300 52.1500
" />
<path d="M37.7300 49.4900
L36.9500 49.4900
" />
<path d="M37.7300 49.6500
L37.7300 49.4900
" />
<path d="M37.7300 52.1500
L37.7300 51.9500
" />
</g>
<g style="fill:none; 
stroke:#000000; stroke-width:0.4000; stroke-opacity:1; 
stroke-linecap:round; stroke-linejoin:round;">
<circle cx="36.4000" cy="50.8000" r="0.2000" /> 
</g>
<g style="fill:none; 
stroke:#000000; stroke-width:0.1500; stroke-opacity:1; 
stroke-linecap:round; stroke-linejoin:round;">
<path d="M45.7000 52.0300
L46.7000 52.0300
" />
<path d="M45.7000 52.7400
L45.7000 52.0300
" />
<path d="M45.7000 53.2000
L45.7000 53.9100
" />
<path d="M45.7000 53.9100
L46.7000 53.9100
" />
<path d="M46.7000 52.0300
L46.7000 52.7400
" />
<path d="M46.7000 53.9100
L46.7000 53.2000
" />
</g>
<g style="fill:none; 
stroke:#000000; stroke-width:0.2500; stroke-opacity:1; 
stroke-linecap:round; stroke-linejoin:round;">
<path d="M34.4500 55.1500
L34.4500 69.1400
" />
<path d="M34.7700 55.1500
L34.4500 55.1500
" />
<path d="M34.7700 69.1500
L34.4500 69.1500
" />
<path d="M36.5700 60.8800
L40.3900 60.8800
" />
<path d="M36.5700 67.2300
L36.5700 60.8800
" />
<path d="M40.3900 57.0700
L53.0800 57.0700
" />
<path d="M40.3900 60.8800
L40.3900 57.0700
" />
<path d="M42.8800 55.1500
L38.6700 55.1500
" />
<path d="M42.8800 69.1500
L38.6700 69.1500
" />
<path d="M53.0800 57.0700
L53.0800 67.2300
" />
<path d="M53.0800 67.2300
L36.5700 67.2300
" />
<path d="M54.4500 55.1500
L53.1300 55.1500
" />
<path d="M54.4500 69.1500
L53.1300 69.1500
" />
<path d="M54.4500 69.1500
L54.4500 55.1500
" />
<circle cx="34.5200" cy="69.6100" r="0.2050" /> 
</g>
<g style="fill:none; 
stroke:#000000; stroke-width:0.1500; stroke-opacity:1; 
stroke-linecap:round; stroke-linejoin:round;">
<path d="M50.0750 52.0000
L50.0750 51.3000
" />
<path d="M50.2250 51.1500
L51.0150 51.1500
" />
<path d="M51.0150 52.1500
L50.2250 52.1500
" />
<path d="M51.4750 52.1500
L52.2650 52.1500
" />
<path d="M52.2650 51.1500
L51.4750 51.1500
" />
<path d="M52.4150 52.0000
L52.4150 51.3000
" />
<path d="M50.2250 51.1500 A0.1500 0.1500 0.0 0 0 50.0750 51.3000" />
<path d="M50.0750 52.0000 A0.1500 0.1500 0.0 0 0 50.2250 52.1500" />
<path d="M52.4150 51.3000 A0.1500 0.1500 0.0 0 0 52.2650 51.1500" />
<path d="M52.2650 52.1500 A0.1500 0.1500 0.0 0 0 52.4150 52.0000" />
</g>
<g style="fill:none; 
stroke:#000000; stroke-width:0.2500; stroke-opacity:1; 
stroke-linecap:round; stroke-linejoin:round;">
<path d="M50.1600 48.9000
L50.1600 49.7000
" />
<path d="M51.2700 48.5900
L50.4700 48.5900
" />
<path d="M51.2700 50.0100
L50.4700 50.0100
" />
<path d="M51.8300 48.5900
L52.6300 48.5900
" />
<path d="M51.8300 50.0100
L52.6300 50.0100
" />
<path d="M52.9400 49.7000
L52.9400 48.9000
" />
<path d="M50.4700 48.5900 A0.3100 0.3100 0.0 0 0 50.1600 48.9000" />
<path d="M50.1600 49.7000 A0.3100 0.3100 0.0 0 0 50.4700 50.0100" />
<path d="M52.9400 48.9000 A0.3100 0.3100 0.0 0 0 52.6300 48.5900" />
<path d="M52.6300 50.0100 A0.3100 0.3100 0.0 0 0 52.9400 49.7000" />
</g>
<g style="fill:none; 
stroke:#000000; stroke-width:0.1500; stroke-opacity:1; 
stroke-linecap:round; stroke-linejoin:round;">
<path d="M50.3800 50.1500
L50.3800 50.8500
" />
<path d="M50.5300 51.0000
L51.3200 51.0000
" />
<path d="M51.3200 50.0000
L50.5300 50.0000
" />
<path d="M51.7800 50.0000
L52.5700 50.0000
" />
<path d="M52.5700 51.0000
L51.7800 51.0000
" />
<path d="M52.7200 50.1500
L52.7200 50.8500
" />
<path d="M50.5300 50.0000 A0.1500 0.1500 0.0 0 0 50.3800 50.1500" />
<path d="M50.3800 50.8500 A0.1500 0.1500 0.0 0 0 50.5300 51.0000" />
<path d="M52.7200 50.1500 A0.1500 0.1500 0.0 0 0 52.5700 50.0000" />
<path d="M52.5700 51.0000 A0.1500 0.1500 0.0 0 0 52.7200 50.8500" />
</g>
<g style="fill:none; 
stroke:#000000; stroke-width:0.2500; stroke-opacity:1; 
stroke-linecap:round; stroke-linejoin:round;">
<path d="M55.0000 49.5000
L55.0000 57.5000
" />
<path d="M55.0000 57.5000
L56.1600 57.5000
" />
<path d="M56.2900 49.5000
L55.0000 49.5000
" />
<path d="M61.7000 57.2900
L63.0000 56.0000
" />
<path d="M63.0000 51.0000
L61.8000 49.8000
" />
<path d="M63.0000 51.0000
L63.0000 56.0000
" />
</g>
<g style="fill:none; 
stroke:#000000; stroke-width:0.1500; stroke-opacity:1; 
stroke-linecap:round; stroke-linejoin:round;">
<path d="M36.0100 47.6000
L36.0100 47.9600
" />
<path d="M36.0100 48.6600
L36.0100 48.3000
" />
<path d="M36.1600 47.4400
L36.0100 47.6000
" />
<path d="M36.1600 48.8200
L36.0100 48.6600
" />
<path d="M36.6400 47.4400
L36.1600 47.4400
" />
<path d="M36.6400 48.8200
L36.1600 48.8200
" />
<path d="M36.7900 47.6000
L36.6400 47.4400
" />
<path d="M36.7900 47.9600
L36.7900 47.6000
" />
<path d="M36.7900 48.3000
L36.7900 48.6600
" />
<path d="M36.7900 48.6600
L36.6400 48.8200
" />
<path d="M46.9000 51.9900
L47.9000 51.9900
" />
<path d="M46.9000 52.7000
L46.9000 51.9900
" />
<path d="M46.9000 53.1600
L46.9000 53.8700
" />
<path d="M46.9000 53.8700
L47.9000 53.8700
" />
<path d="M47.9000 51.9900
L47.9000 52.7000
" />
<path d="M47.9000 53.8700
L47.9000 53.1600
" />
</g>
<g style="fill:#000000; fill-opacity:1.0000; stroke:none;">
<circle cx="39.3800" cy="41.2200" r="0.0750" /> 
</g>
<g style="fill:none; 
stroke:#000000; stroke-width:0.1500; stroke-opacity:1; 
stroke-linecap:round; stroke-linejoin:round;">
<path d="M39.3800 41.2200
L39.3800 41.4500
" />
<path d="M39.3800 51.4800
L39.3800 51.2500
" />
</g>
<g style="fill:#000000; fill-opacity:1.0000; stroke:none;">
<circle cx="39.3800" cy="51.4800" r="0.0750" /> 
</g>
<g style="fill:none; 
stroke:#000000; stroke-width:0.1500; stroke-opacity:1; 
stroke-linecap:round; stroke-linejoin:round;">
<path d="M49.2300 41.2200
L39.3800 41.2200
" />
</g>
<g style="fill:#000000; fill-opacity:1.0000; stroke:none;">
<circle cx="49.2300" cy="41.2200" r="0.0750" /> 
</g>
<g style="fill:none; 
stroke:#000000; stroke-width:0.1500; stroke-opacity:1; 
stroke-linecap:round; stroke-linejoin:round;">
<path d="M49.2300 41.4500
L49.2300 41.2200
" />
<path d="M49.2300 51.2500
L49.2300 51.4800
" />
<path d="M49.2300 51.4800
L39.3800 51.4800
" />
</g>
<g style="fill:#000000; fill-opacity:1.0000; stroke:none;">
<circle cx="49.2300" cy="51.4800" r="0.0750" /> 
</g>
<g style="fill:none; 
stroke:#000000; stroke-width:0.2500; stroke-opacity:1; 
stroke-linecap:round; stroke-linejoin:round;">
<circle cx="50.3400" cy="41.9500" r="0.2450" /> 
</g> 
</svg>
