<?xml version="1.0" standalone="no"?>
 <!DOCTYPE svg PUBLIC "-//W3C//DTD SVG 1.1//EN" 
 "http://www.w3.org/Graphics/SVG/1.1/DTD/svg11.dtd"> 
<svg
  xmlns:svg="http://www.w3.org/2000/svg"
  xmlns="http://www.w3.org/2000/svg"
  xmlns:xlink="http://www.w3.org/1999/xlink"
  version="1.1"
  width="297.0022mm" height="210.0072mm" viewBox="0.0000 0.0000 297.0022 210.0072">
<title>SVG Image created as default-F_Mask.svg date 2025/06/02 11:08:05 </title>
  <desc>Image generated by PCBNEW </desc>
<g style="fill:#000000; fill-opacity:1.0000;stroke:#000000; stroke-opacity:1.0000;
stroke-linecap:round; stroke-linejoin:round;"
 transform="translate(0 0) scale(1 1)">
<path style="fill:#000000; fill-opacity:1.0000; stroke:none;fill-rule:evenodd;"
d="M 58.4500,68.1500
59.0500,68.1500
59.0500,69.2500
58.4500,69.2500
Z" /> 
<path style="fill:#000000; fill-opacity:1.0000; stroke:none;fill-rule:evenodd;"
d="M 59.4000,68.1500
60.0000,68.1500
60.0000,69.2500
59.4000,69.2500
Z" /> 
<path style="fill:#000000; fill-opacity:1.0000; stroke:none;fill-rule:evenodd;"
d="M 60.3500,68.1500
60.9500,68.1500
60.9500,69.2500
60.3500,69.2500
Z" /> 
<path style="fill:#000000; fill-opacity:1.0000; stroke:none;fill-rule:evenodd;"
d="M 60.3500,65.5500
60.9500,65.5500
60.9500,66.6500
60.3500,66.6500
Z" /> 
<path style="fill:#000000; fill-opacity:1.0000; stroke:none;fill-rule:evenodd;"
d="M 58.4500,65.5500
59.0500,65.5500
59.0500,66.6500
58.4500,66.6500
Z" /> 
<path style="fill:#000000; fill-opacity:1.0000; stroke:none;fill-rule:evenodd;"
d="M 45.2300,64.8550
45.7700,64.8550
45.7700,65.6450
45.2300,65.6450
Z" /> 
<path style="fill:#000000; fill-opacity:1.0000; stroke:none;fill-rule:evenodd;"
d="M 45.2300,65.9550
45.7700,65.9550
45.7700,66.7450
45.2300,66.7450
Z" /> 
<path style="fill:#000000; fill-opacity:1.0000; stroke:none;fill-rule:evenodd;"
d="M 44.4850,69.0700
44.4850,68.5300
45.0550,68.5300
45.0550,69.0700
Z" /> 
<path style="fill:#000000; fill-opacity:1.0000; stroke:none;fill-rule:evenodd;"
d="M 45.3450,69.0700
45.3450,68.5300
45.9150,68.5300
45.9150,69.0700
Z" /> 
<path style="fill:#000000; fill-opacity:1.0000; stroke:none;fill-rule:evenodd;"
d="M 56.4700,67.6950
55.9300,67.6950
55.9300,66.9050
56.4700,66.9050
Z" /> 
<path style="fill:#000000; fill-opacity:1.0000; stroke:none;fill-rule:evenodd;"
d="M 56.4700,66.5950
55.9300,66.5950
55.9300,65.8050
56.4700,65.8050
Z" /> 
</g>
<g style="fill:#000000; fill-opacity:1.0000; stroke:none;">
<circle cx="43.6000" cy="76.6000" r="0.9000" /> 
</g>
<g style="fill:#000000; fill-opacity:1.0000; stroke:none;">
<circle cx="43.6000" cy="74.1000" r="0.9000" /> 
<path style="fill:#000000; fill-opacity:1.0000; stroke:none;fill-rule:evenodd;"
d="M 62.0300,66.2650
62.5700,66.2650
62.5700,66.8350
62.0300,66.8350
Z" /> 
<path style="fill:#000000; fill-opacity:1.0000; stroke:none;fill-rule:evenodd;"
d="M 62.0300,67.2850
62.5700,67.2850
62.5700,67.8550
62.0300,67.8550
Z" /> 
<path style="fill:#000000; fill-opacity:1.0000; stroke:none;fill-rule:evenodd;"
d="M 62.5700,69.7450
62.0300,69.7450
62.0300,69.1750
62.5700,69.1750
Z" /> 
<path style="fill:#000000; fill-opacity:1.0000; stroke:none;fill-rule:evenodd;"
d="M 62.5700,68.7250
62.0300,68.7250
62.0300,68.1550
62.5700,68.1550
Z" /> 
<path style="fill:#000000; fill-opacity:1.0000; stroke:none;fill-rule:evenodd;"
d="M 46.2300,64.8550
46.7700,64.8550
46.7700,65.6450
46.2300,65.6450
Z" /> 
<path style="fill:#000000; fill-opacity:1.0000; stroke:none;fill-rule:evenodd;"
d="M 46.2300,65.9550
46.7700,65.9550
46.7700,66.7450
46.2300,66.7450
Z" /> 
<path style="fill:#000000; fill-opacity:1.0000; stroke:none;fill-rule:evenodd;"
d="M 59.7800,73.0100
59.7800,69.6900
61.2800,69.6900
61.2800,73.0100
Z" /> 
<path style="fill:#000000; fill-opacity:1.0000; stroke:none;fill-rule:evenodd;"
d="M 57.1200,73.0100
57.1200,69.6900
58.6200,69.6900
58.6200,73.0100
Z" /> 
<path style="fill:#000000; fill-opacity:1.0000; stroke:none;fill-rule:evenodd;"
d="M 46.4100,69.4350
47.7900,69.4350
47.7900,70.5650
46.4100,70.5650
Z" /> 
<path style="fill:#000000; fill-opacity:1.0000; stroke:none;fill-rule:evenodd;"
d="M 46.4100,71.4350
47.7900,71.4350
47.7900,72.5650
46.4100,72.5650
Z" /> 
<path style="fill:#000000; fill-opacity:1.0000; stroke:none;fill-rule:evenodd;"
d="M 59.6750,78.9500
59.6750,78.2500
60.9250,78.2500
60.9250,78.9500
Z" /> 
<path style="fill:#000000; fill-opacity:1.0000; stroke:none;fill-rule:evenodd;"
d="M 59.6750,77.0500
59.6750,76.3500
60.9250,76.3500
60.9250,77.0500
Z" /> 
<path style="fill:#000000; fill-opacity:1.0000; stroke:none;fill-rule:evenodd;"
d="M 57.6750,78.0000
57.6750,77.3000
58.9250,77.3000
58.9250,78.0000
Z" /> 
<path style="fill:#000000; fill-opacity:1.0000; stroke:none;fill-rule:evenodd;"
d="M 61.6951,43.2521
61.6951,42.7121
62.4851,42.7121
62.4851,43.2521
Z" /> 
<path style="fill:#000000; fill-opacity:1.0000; stroke:none;fill-rule:evenodd;"
d="M 62.6551,43.2521
62.6551,42.7121
63.4451,42.7121
63.4451,43.2521
Z" /> 
</g>
<g style="fill:#000000; fill-opacity:1.0000; stroke:none;">
<circle cx="56.1825" cy="50.5175" r="0.2500" /> 
</g>
<g style="fill:#000000; fill-opacity:1.0000; stroke:none;">
<circle cx="56.1825" cy="50.5175" r="0.2500" /> 
</g>
<g style="fill:#000000; fill-opacity:1.0000; stroke:none;">
<circle cx="56.1825" cy="50.5175" r="0.2500" /> 
</g>
<g style="fill:#000000; fill-opacity:1.0000; stroke:none;">
<circle cx="56.1825" cy="50.5175" r="0.2500" /> 
</g>
<g style="fill:#000000; fill-opacity:1.0000; stroke:none;">
<circle cx="56.1825" cy="50.5175" r="0.2500" /> 
</g>
<g style="fill:#000000; fill-opacity:1.0000; stroke:none;">
<circle cx="56.1825" cy="50.5175" r="0.2500" /> 
</g>
<g style="fill:#000000; fill-opacity:1.0000; stroke:none;">
<circle cx="56.1825" cy="50.5175" r="0.2500" /> 
</g>
<g style="fill:#000000; fill-opacity:1.0000; stroke:none;">
<circle cx="56.1825" cy="50.5175" r="0.2500" /> 
</g>
<g style="fill:#000000; fill-opacity:1.0000; stroke:none;">
<circle cx="56.1825" cy="50.5175" r="0.2500" /> 
</g>
<g style="fill:#000000; fill-opacity:1.0000; stroke:none;">
<circle cx="56.1825" cy="50.5175" r="0.2500" /> 
</g>
<g style="fill:#000000; fill-opacity:1.0000; stroke:none;">
<circle cx="56.1825" cy="50.5175" r="0.2500" /> 
</g>
<g style="fill:#000000; fill-opacity:1.0000; stroke:none;">
<circle cx="56.1825" cy="50.5175" r="0.2500" /> 
<path style="fill:#000000; fill-opacity:1.0000; stroke:none;fill-rule:evenodd;"
d="M 62.7525,43.9175
63.6525,43.9175
63.6525,45.4175
62.7525,45.4175
Z" /> 
<path style="fill:#000000; fill-opacity:1.0000; stroke:none;fill-rule:evenodd;"
d="M 61.4825,43.9175
62.3825,43.9175
62.3825,45.4175
61.4825,45.4175
Z" /> 
<path style="fill:#000000; fill-opacity:1.0000; stroke:none;fill-rule:evenodd;"
d="M 60.2125,43.9175
61.1125,43.9175
61.1125,45.4175
60.2125,45.4175
Z" /> 
<path style="fill:#000000; fill-opacity:1.0000; stroke:none;fill-rule:evenodd;"
d="M 58.9425,43.9175
59.8425,43.9175
59.8425,45.4175
58.9425,45.4175
Z" /> 
<path style="fill:#000000; fill-opacity:1.0000; stroke:none;fill-rule:evenodd;"
d="M 57.6725,43.9175
58.5725,43.9175
58.5725,45.4175
57.6725,45.4175
Z" /> 
<path style="fill:#000000; fill-opacity:1.0000; stroke:none;fill-rule:evenodd;"
d="M 56.4025,43.9175
57.3025,43.9175
57.3025,45.4175
56.4025,45.4175
Z" /> 
<path style="fill:#000000; fill-opacity:1.0000; stroke:none;fill-rule:evenodd;"
d="M 55.1325,43.9175
56.0325,43.9175
56.0325,45.4175
55.1325,45.4175
Z" /> 
<path style="fill:#000000; fill-opacity:1.0000; stroke:none;fill-rule:evenodd;"
d="M 53.8625,43.9175
54.7625,43.9175
54.7625,45.4175
53.8625,45.4175
Z" /> 
<path style="fill:#000000; fill-opacity:1.0000; stroke:none;fill-rule:evenodd;"
d="M 52.5925,43.9175
53.4925,43.9175
53.4925,45.4175
52.5925,45.4175
Z" /> 
<path style="fill:#000000; fill-opacity:1.0000; stroke:none;fill-rule:evenodd;"
d="M 51.3225,43.9175
52.2225,43.9175
52.2225,45.4175
51.3225,45.4175
Z" /> 
<path style="fill:#000000; fill-opacity:1.0000; stroke:none;fill-rule:evenodd;"
d="M 50.0525,43.9175
50.9525,43.9175
50.9525,45.4175
50.0525,45.4175
Z" /> 
<path style="fill:#000000; fill-opacity:1.0000; stroke:none;fill-rule:evenodd;"
d="M 48.7825,43.9175
49.6825,43.9175
49.6825,45.4175
48.7825,45.4175
Z" /> 
<path style="fill:#000000; fill-opacity:1.0000; stroke:none;fill-rule:evenodd;"
d="M 47.5125,43.9175
48.4125,43.9175
48.4125,45.4175
47.5125,45.4175
Z" /> 
<path style="fill:#000000; fill-opacity:1.0000; stroke:none;fill-rule:evenodd;"
d="M 46.2425,43.9175
47.1425,43.9175
47.1425,45.4175
46.2425,45.4175
Z" /> 
<path style="fill:#000000; fill-opacity:1.0000; stroke:none;fill-rule:evenodd;"
d="M 44.6725,46.8775
44.6725,45.9775
46.1725,45.9775
46.1725,46.8775
Z" /> 
<path style="fill:#000000; fill-opacity:1.0000; stroke:none;fill-rule:evenodd;"
d="M 44.6725,48.1475
44.6725,47.2475
46.1725,47.2475
46.1725,48.1475
Z" /> 
<path style="fill:#000000; fill-opacity:1.0000; stroke:none;fill-rule:evenodd;"
d="M 44.6725,49.4175
44.6725,48.5175
46.1725,48.5175
46.1725,49.4175
Z" /> 
<path style="fill:#000000; fill-opacity:1.0000; stroke:none;fill-rule:evenodd;"
d="M 44.6725,50.6875
44.6725,49.7875
46.1725,49.7875
46.1725,50.6875
Z" /> 
<path style="fill:#000000; fill-opacity:1.0000; stroke:none;fill-rule:evenodd;"
d="M 44.6725,51.9575
44.6725,51.0575
46.1725,51.0575
46.1725,51.9575
Z" /> 
<path style="fill:#000000; fill-opacity:1.0000; stroke:none;fill-rule:evenodd;"
d="M 44.6725,53.2375
44.6725,52.3375
46.1725,52.3375
46.1725,53.2375
Z" /> 
<path style="fill:#000000; fill-opacity:1.0000; stroke:none;fill-rule:evenodd;"
d="M 44.6725,54.4975
44.6725,53.5975
46.1725,53.5975
46.1725,54.4975
Z" /> 
<path style="fill:#000000; fill-opacity:1.0000; stroke:none;fill-rule:evenodd;"
d="M 44.6725,55.7675
44.6725,54.8675
46.1725,54.8675
46.1725,55.7675
Z" /> 
<path style="fill:#000000; fill-opacity:1.0000; stroke:none;fill-rule:evenodd;"
d="M 44.6725,57.0375
44.6725,56.1375
46.1725,56.1375
46.1725,57.0375
Z" /> 
<path style="fill:#000000; fill-opacity:1.0000; stroke:none;fill-rule:evenodd;"
d="M 44.6725,58.3175
44.6725,57.4175
46.1725,57.4175
46.1725,58.3175
Z" /> 
<path style="fill:#000000; fill-opacity:1.0000; stroke:none;fill-rule:evenodd;"
d="M 44.6725,59.5875
44.6725,58.6875
46.1725,58.6875
46.1725,59.5875
Z" /> 
<path style="fill:#000000; fill-opacity:1.0000; stroke:none;fill-rule:evenodd;"
d="M 44.7025,60.8575
44.7025,59.9575
46.2025,59.9575
46.2025,60.8575
Z" /> 
<path style="fill:#000000; fill-opacity:1.0000; stroke:none;fill-rule:evenodd;"
d="M 47.1425,62.9175
46.2425,62.9175
46.2425,61.4175
47.1425,61.4175
Z" /> 
<path style="fill:#000000; fill-opacity:1.0000; stroke:none;fill-rule:evenodd;"
d="M 48.4125,62.9175
47.5125,62.9175
47.5125,61.4175
48.4125,61.4175
Z" /> 
<path style="fill:#000000; fill-opacity:1.0000; stroke:none;fill-rule:evenodd;"
d="M 49.6825,62.9175
48.7825,62.9175
48.7825,61.4175
49.6825,61.4175
Z" /> 
<path style="fill:#000000; fill-opacity:1.0000; stroke:none;fill-rule:evenodd;"
d="M 50.9525,62.9175
50.0525,62.9175
50.0525,61.4175
50.9525,61.4175
Z" /> 
<path style="fill:#000000; fill-opacity:1.0000; stroke:none;fill-rule:evenodd;"
d="M 52.2225,62.9175
51.3225,62.9175
51.3225,61.4175
52.2225,61.4175
Z" /> 
<path style="fill:#000000; fill-opacity:1.0000; stroke:none;fill-rule:evenodd;"
d="M 53.4925,62.9175
52.5925,62.9175
52.5925,61.4175
53.4925,61.4175
Z" /> 
<path style="fill:#000000; fill-opacity:1.0000; stroke:none;fill-rule:evenodd;"
d="M 54.7625,62.9175
53.8625,62.9175
53.8625,61.4175
54.7625,61.4175
Z" /> 
<path style="fill:#000000; fill-opacity:1.0000; stroke:none;fill-rule:evenodd;"
d="M 56.0325,62.9175
55.1325,62.9175
55.1325,61.4175
56.0325,61.4175
Z" /> 
<path style="fill:#000000; fill-opacity:1.0000; stroke:none;fill-rule:evenodd;"
d="M 57.3025,62.9175
56.4025,62.9175
56.4025,61.4175
57.3025,61.4175
Z" /> 
<path style="fill:#000000; fill-opacity:1.0000; stroke:none;fill-rule:evenodd;"
d="M 58.5725,62.9175
57.6725,62.9175
57.6725,61.4175
58.5725,61.4175
Z" /> 
<path style="fill:#000000; fill-opacity:1.0000; stroke:none;fill-rule:evenodd;"
d="M 59.8425,62.9175
58.9425,62.9175
58.9425,61.4175
59.8425,61.4175
Z" /> 
<path style="fill:#000000; fill-opacity:1.0000; stroke:none;fill-rule:evenodd;"
d="M 61.1125,62.9175
60.2125,62.9175
60.2125,61.4175
61.1125,61.4175
Z" /> 
<path style="fill:#000000; fill-opacity:1.0000; stroke:none;fill-rule:evenodd;"
d="M 62.3825,62.9175
61.4825,62.9175
61.4825,61.4175
62.3825,61.4175
Z" /> 
<path style="fill:#000000; fill-opacity:1.0000; stroke:none;fill-rule:evenodd;"
d="M 63.6525,62.9175
62.7525,62.9175
62.7525,61.4175
63.6525,61.4175
Z" /> 
<path style="fill:#000000; fill-opacity:1.0000; stroke:none;fill-rule:evenodd;"
d="M 56.4325,50.9675
56.4325,50.0675
57.3325,50.0675
57.3325,50.9675
Z" /> 
<path style="fill:#000000; fill-opacity:1.0000; stroke:none;fill-rule:evenodd;"
d="M 56.4325,50.9675
56.4325,50.0675
57.3325,50.0675
57.3325,50.9675
Z" /> 
<path style="fill:#000000; fill-opacity:1.0000; stroke:none;fill-rule:evenodd;"
d="M 56.4325,50.9675
56.4325,50.0675
57.3325,50.0675
57.3325,50.9675
Z" /> 
<path style="fill:#000000; fill-opacity:1.0000; stroke:none;fill-rule:evenodd;"
d="M 56.4325,50.9675
56.4325,50.0675
57.3325,50.0675
57.3325,50.9675
Z" /> 
<path style="fill:#000000; fill-opacity:1.0000; stroke:none;fill-rule:evenodd;"
d="M 56.4325,50.9675
56.4325,50.0675
57.3325,50.0675
57.3325,50.9675
Z" /> 
<path style="fill:#000000; fill-opacity:1.0000; stroke:none;fill-rule:evenodd;"
d="M 56.4325,50.9675
56.4325,50.0675
57.3325,50.0675
57.3325,50.9675
Z" /> 
<path style="fill:#000000; fill-opacity:1.0000; stroke:none;fill-rule:evenodd;"
d="M 56.4325,50.9675
56.4325,50.0675
57.3325,50.0675
57.3325,50.9675
Z" /> 
<path style="fill:#000000; fill-opacity:1.0000; stroke:none;fill-rule:evenodd;"
d="M 56.4325,50.9675
56.4325,50.0675
57.3325,50.0675
57.3325,50.9675
Z" /> 
<path style="fill:#000000; fill-opacity:1.0000; stroke:none;fill-rule:evenodd;"
d="M 56.4325,50.9675
56.4325,50.0675
57.3325,50.0675
57.3325,50.9675
Z" /> 
<path style="fill:#000000; fill-opacity:1.0000; stroke:none;fill-rule:evenodd;"
d="M 53.6700,41.5400
53.6700,41.8600
53.3700,41.8600
53.3700,41.5400
Z" /> 
<path style="fill:#000000; fill-opacity:1.0000; stroke:none;fill-rule:evenodd;"
d="M 53.1900,41.5400
53.1900,41.8600
52.8900,41.8600
52.8900,41.5400
Z" /> 
</g>
<g style="fill:#000000; fill-opacity:1.0000; stroke:none;">
<circle cx="37.4000" cy="76.6000" r="0.9000" /> 
</g>
<g style="fill:#000000; fill-opacity:1.0000; stroke:none;">
<circle cx="37.4000" cy="74.1000" r="0.9000" /> 
<path style="fill:#000000; fill-opacity:1.0000; stroke:none;fill-rule:evenodd;"
d="M 52.0200,67.3950
51.4800,67.3950
51.4800,66.8250
52.0200,66.8250
Z" /> 
<path style="fill:#000000; fill-opacity:1.0000; stroke:none;fill-rule:evenodd;"
d="M 52.0200,66.5350
51.4800,66.5350
51.4800,65.9650
52.0200,65.9650
Z" /> 
<path style="fill:#000000; fill-opacity:1.0000; stroke:none;fill-rule:evenodd;"
d="M 39.3750,65.2800
39.3750,64.5800
40.4250,64.5800
40.4250,65.2800
Z" /> 
<path style="fill:#000000; fill-opacity:1.0000; stroke:none;fill-rule:evenodd;"
d="M 43.5750,65.2800
43.5750,64.5800
44.6250,64.5800
44.6250,65.2800
Z" /> 
<path style="fill:#000000; fill-opacity:1.0000; stroke:none;fill-rule:evenodd;"
d="M 39.3750,67.4200
39.3750,66.7200
40.4250,66.7200
40.4250,67.4200
Z" /> 
<path style="fill:#000000; fill-opacity:1.0000; stroke:none;fill-rule:evenodd;"
d="M 43.5750,67.4200
43.5750,66.7200
44.6250,66.7200
44.6250,67.4200
Z" /> 
<path style="fill:#000000; fill-opacity:1.0000; stroke:none;fill-rule:evenodd;"
d="M 42.5700,47.4950
42.0300,47.4950
42.0300,46.7050
42.5700,46.7050
Z" /> 
<path style="fill:#000000; fill-opacity:1.0000; stroke:none;fill-rule:evenodd;"
d="M 42.5700,46.3950
42.0300,46.3950
42.0300,45.6050
42.5700,45.6050
Z" /> 
<path style="fill:#000000; fill-opacity:1.0000; stroke:none;fill-rule:evenodd;"
d="M 51.9100,41.5400
51.9100,41.8600
51.6100,41.8600
51.6100,41.5400
Z" /> 
<path style="fill:#000000; fill-opacity:1.0000; stroke:none;fill-rule:evenodd;"
d="M 51.4300,41.5400
51.4300,41.8600
51.1300,41.8600
51.1300,41.5400
Z" /> 
<path style="fill:#000000; fill-opacity:1.0000; stroke:none;fill-rule:evenodd;"
d="M 48.2550,70.0700
48.2550,69.5300
48.8250,69.5300
48.8250,70.0700
Z" /> 
<path style="fill:#000000; fill-opacity:1.0000; stroke:none;fill-rule:evenodd;"
d="M 49.1150,70.0700
49.1150,69.5300
49.6850,69.5300
49.6850,70.0700
Z" /> 
<path style="fill:#000000; fill-opacity:1.0000; stroke:none;fill-rule:evenodd;"
d="M 43.5250,60.7000
43.5250,61.3000
41.9750,61.3000
41.9750,60.7000
Z" /> 
<path style="fill:#000000; fill-opacity:1.0000; stroke:none;fill-rule:evenodd;"
d="M 43.5250,59.7000
43.5250,60.3000
41.9750,60.3000
41.9750,59.7000
Z" /> 
<path style="fill:#000000; fill-opacity:1.0000; stroke:none;fill-rule:evenodd;"
d="M 43.5250,58.7000
43.5250,59.3000
41.9750,59.3000
41.9750,58.7000
Z" /> 
<path style="fill:#000000; fill-opacity:1.0000; stroke:none;fill-rule:evenodd;"
d="M 43.5250,57.7000
43.5250,58.3000
41.9750,58.3000
41.9750,57.7000
Z" /> 
<path style="fill:#000000; fill-opacity:1.0000; stroke:none;fill-rule:evenodd;"
d="M 43.5250,56.7000
43.5250,57.3000
41.9750,57.3000
41.9750,56.7000
Z" /> 
<path style="fill:#000000; fill-opacity:1.0000; stroke:none;fill-rule:evenodd;"
d="M 43.5250,55.7000
43.5250,56.3000
41.9750,56.3000
41.9750,55.7000
Z" /> 
<path style="fill:#000000; fill-opacity:1.0000; stroke:none;fill-rule:evenodd;"
d="M 43.5250,54.7000
43.5250,55.3000
41.9750,55.3000
41.9750,54.7000
Z" /> 
<path style="fill:#000000; fill-opacity:1.0000; stroke:none;fill-rule:evenodd;"
d="M 41.1300,53.1000
41.1300,54.3000
39.3300,54.3000
39.3300,53.1000
Z" /> 
<path style="fill:#000000; fill-opacity:1.0000; stroke:none;fill-rule:evenodd;"
d="M 41.1300,61.7000
41.1300,62.9000
39.3300,62.9000
39.3300,61.7000
Z" /> 
<path style="fill:#000000; fill-opacity:1.0000; stroke:none;fill-rule:evenodd;"
d="M 49.0000,74.8000
47.0000,74.8000
47.0000,72.8000
49.0000,72.8000
Z" /> 
<path style="fill:#000000; fill-opacity:1.0000; stroke:none;fill-rule:evenodd;"
d="M 49.0000,79.2000
47.0000,79.2000
47.0000,77.2000
49.0000,77.2000
Z" /> 
<path style="fill:#000000; fill-opacity:1.0000; stroke:none;fill-rule:evenodd;"
d="M 45.2950,63.4800
45.2950,64.0200
44.7250,64.0200
44.7250,63.4800
Z" /> 
<path style="fill:#000000; fill-opacity:1.0000; stroke:none;fill-rule:evenodd;"
d="M 44.2750,63.4800
44.2750,64.0200
43.7050,64.0200
43.7050,63.4800
Z" /> 
<path style="fill:#000000; fill-opacity:1.0000; stroke:none;fill-rule:evenodd;"
d="M 57.6700,67.4450
57.1300,67.4450
57.1300,66.8750
57.6700,66.8750
Z" /> 
<path style="fill:#000000; fill-opacity:1.0000; stroke:none;fill-rule:evenodd;"
d="M 57.6700,66.5850
57.1300,66.5850
57.1300,66.0150
57.6700,66.0150
Z" /> 
<path style="fill:#000000; fill-opacity:1.0000; stroke:none;fill-rule:evenodd;"
d="M 58.8000,64.9500
58.8000,64.0500
59.6000,64.0500
59.6000,64.9500
Z" /> 
<path style="fill:#000000; fill-opacity:1.0000; stroke:none;fill-rule:evenodd;"
d="M 60.2000,64.9500
60.2000,64.0500
61.0000,64.0500
61.0000,64.9500
Z" /> 
<path style="fill:#000000; fill-opacity:1.0000; stroke:none;fill-rule:evenodd;"
d="M 61.0112,42.2250
61.0112,40.8750
62.4212,40.8750
62.4212,42.2250
Z" /> 
<path style="fill:#000000; fill-opacity:1.0000; stroke:none;fill-rule:evenodd;"
d="M 62.9112,42.2250
62.9112,40.8750
64.3212,40.8750
64.3212,42.2250
Z" /> 
</g>
<g style="fill:#000000; fill-opacity:1.0000; stroke:none;">
<circle cx="68.0000" cy="76.0000" r="0.9000" /> 
</g>
<g style="fill:#000000; fill-opacity:1.0000; stroke:none;">
<circle cx="65.5000" cy="76.0000" r="0.9000" /> 
<path style="fill:#000000; fill-opacity:1.0000; stroke:none;fill-rule:evenodd;"
d="M 37.6250,67.9500
37.6250,68.6500
36.3750,68.6500
36.3750,67.9500
Z" /> 
<path style="fill:#000000; fill-opacity:1.0000; stroke:none;fill-rule:evenodd;"
d="M 37.6250,69.8500
37.6250,70.5500
36.3750,70.5500
36.3750,69.8500
Z" /> 
<path style="fill:#000000; fill-opacity:1.0000; stroke:none;fill-rule:evenodd;"
d="M 39.6250,68.9000
39.6250,69.6000
38.3750,69.6000
38.3750,68.9000
Z" /> 
<path style="fill:#000000; fill-opacity:1.0000; stroke:none;fill-rule:evenodd;"
d="M 48.9200,72.3450
48.3800,72.3450
48.3800,71.7750
48.9200,71.7750
Z" /> 
<path style="fill:#000000; fill-opacity:1.0000; stroke:none;fill-rule:evenodd;"
d="M 48.9200,71.4850
48.3800,71.4850
48.3800,70.9150
48.9200,70.9150
Z" /> 
<path style="fill:#000000; fill-opacity:1.0000; stroke:none;fill-rule:evenodd;"
d="M 61.9550,74.0750
61.9550,75.4250
60.5450,75.4250
60.5450,74.0750
Z" /> 
<path style="fill:#000000; fill-opacity:1.0000; stroke:none;fill-rule:evenodd;"
d="M 59.9550,74.0750
59.9550,75.4250
58.5450,75.4250
58.5450,74.0750
Z" /> 
<path style="fill:#000000; fill-opacity:1.0000; stroke:none;fill-rule:evenodd;"
d="M 36.0300,60.1500
34.2300,60.1500
34.2300,58.9500
36.0300,58.9500
Z" /> 
<path style="fill:#000000; fill-opacity:1.0000; stroke:none;fill-rule:evenodd;"
d="M 36.0300,54.5500
34.2300,54.5500
34.2300,53.3500
36.0300,53.3500
Z" /> 
<path style="fill:#000000; fill-opacity:1.0000; stroke:none;fill-rule:evenodd;"
d="M 38.4250,58.5500
36.8750,58.5500
36.8750,57.9500
38.4250,57.9500
Z" /> 
<path style="fill:#000000; fill-opacity:1.0000; stroke:none;fill-rule:evenodd;"
d="M 38.4250,57.5500
36.8750,57.5500
36.8750,56.9500
38.4250,56.9500
Z" /> 
<path style="fill:#000000; fill-opacity:1.0000; stroke:none;fill-rule:evenodd;"
d="M 38.4250,56.5500
36.8750,56.5500
36.8750,55.9500
38.4250,55.9500
Z" /> 
<path style="fill:#000000; fill-opacity:1.0000; stroke:none;fill-rule:evenodd;"
d="M 38.4250,55.5500
36.8750,55.5500
36.8750,54.9500
38.4250,54.9500
Z" /> 
<path style="fill:#000000; fill-opacity:1.0000; stroke:none;fill-rule:evenodd;"
d="M 57.8850,64.4300
57.8850,64.9700
57.3150,64.9700
57.3150,64.4300
Z" /> 
<path style="fill:#000000; fill-opacity:1.0000; stroke:none;fill-rule:evenodd;"
d="M 57.0250,64.4300
57.0250,64.9700
56.4550,64.9700
56.4550,64.4300
Z" /> 
<path style="fill:#000000; fill-opacity:1.0000; stroke:none;fill-rule:evenodd;"
d="M 36.0500,67.6000
34.2500,67.6000
34.2500,66.4000
36.0500,66.4000
Z" /> 
<path style="fill:#000000; fill-opacity:1.0000; stroke:none;fill-rule:evenodd;"
d="M 36.0500,62.0000
34.2500,62.0000
34.2500,60.8000
36.0500,60.8000
Z" /> 
<path style="fill:#000000; fill-opacity:1.0000; stroke:none;fill-rule:evenodd;"
d="M 38.4450,66.0000
36.8950,66.0000
36.8950,65.4000
38.4450,65.4000
Z" /> 
<path style="fill:#000000; fill-opacity:1.0000; stroke:none;fill-rule:evenodd;"
d="M 38.4450,65.0000
36.8950,65.0000
36.8950,64.4000
38.4450,64.4000
Z" /> 
<path style="fill:#000000; fill-opacity:1.0000; stroke:none;fill-rule:evenodd;"
d="M 38.4450,64.0000
36.8950,64.0000
36.8950,63.4000
38.4450,63.4000
Z" /> 
<path style="fill:#000000; fill-opacity:1.0000; stroke:none;fill-rule:evenodd;"
d="M 38.4450,63.0000
36.8950,63.0000
36.8950,62.4000
38.4450,62.4000
Z" /> 
<path style="fill:#000000; fill-opacity:1.0000; stroke:none;fill-rule:evenodd;"
d="M 50.2250,65.3250
51.1150,65.3250
51.1150,65.7750
50.2250,65.7750
Z" /> 
<path style="fill:#000000; fill-opacity:1.0000; stroke:none;fill-rule:evenodd;"
d="M 50.2250,66.1250
51.1150,66.1250
51.1150,66.5750
50.2250,66.5750
Z" /> 
<path style="fill:#000000; fill-opacity:1.0000; stroke:none;fill-rule:evenodd;"
d="M 50.2250,66.9250
51.1150,66.9250
51.1150,67.3750
50.2250,67.3750
Z" /> 
<path style="fill:#000000; fill-opacity:1.0000; stroke:none;fill-rule:evenodd;"
d="M 50.2250,67.7250
51.1150,67.7250
51.1150,68.1750
50.2250,68.1750
Z" /> 
<path style="fill:#000000; fill-opacity:1.0000; stroke:none;fill-rule:evenodd;"
d="M 47.3850,67.7250
48.2750,67.7250
48.2750,68.1750
47.3850,68.1750
Z" /> 
<path style="fill:#000000; fill-opacity:1.0000; stroke:none;fill-rule:evenodd;"
d="M 47.3850,66.9250
48.2750,66.9250
48.2750,67.3750
47.3850,67.3750
Z" /> 
<path style="fill:#000000; fill-opacity:1.0000; stroke:none;fill-rule:evenodd;"
d="M 47.3850,66.1250
48.2750,66.1250
48.2750,66.5750
47.3850,66.5750
Z" /> 
<path style="fill:#000000; fill-opacity:1.0000; stroke:none;fill-rule:evenodd;"
d="M 47.3850,65.3250
48.2750,65.3250
48.2750,65.7750
47.3850,65.7750
Z" /> 
</g>
<g style="fill:#000000; fill-opacity:1.0000; stroke:none;">
<circle cx="52.0000" cy="75.5000" r="0.8000" /> 
</g>
<g style="fill:#000000; fill-opacity:1.0000; stroke:none;">
<circle cx="55.5000" cy="75.5000" r="0.8000" /> 
<path style="fill:#000000; fill-opacity:1.0000; stroke:none;fill-rule:evenodd;"
d="M 34.7900,52.3800
34.7900,50.3000
35.6300,50.3000
35.6300,52.3800
Z" /> 
<path style="fill:#000000; fill-opacity:1.0000; stroke:none;fill-rule:evenodd;"
d="M 37.3300,52.3800
37.3300,50.3000
38.1700,50.3000
38.1700,52.3800
Z" /> 
<path style="fill:#000000; fill-opacity:1.0000; stroke:none;fill-rule:evenodd;"
d="M 39.8700,52.3800
39.8700,50.3000
40.7100,50.3000
40.7100,52.3800
Z" /> 
<path style="fill:#000000; fill-opacity:1.0000; stroke:none;fill-rule:evenodd;"
d="M 39.8700,43.2000
39.8700,41.1200
40.7100,41.1200
40.7100,43.2000
Z" /> 
<path style="fill:#000000; fill-opacity:1.0000; stroke:none;fill-rule:evenodd;"
d="M 37.3300,43.2000
37.3300,41.1200
38.1700,41.1200
38.1700,43.2000
Z" /> 
<path style="fill:#000000; fill-opacity:1.0000; stroke:none;fill-rule:evenodd;"
d="M 34.7900,43.2000
34.7900,41.1200
35.6300,41.1200
35.6300,43.2000
Z" /> 
<path style="fill:#000000; fill-opacity:1.0000; stroke:none;fill-rule:evenodd;"
d="M 60.2050,40.8750
60.2050,42.2250
58.7950,42.2250
58.7950,40.8750
Z" /> 
<path style="fill:#000000; fill-opacity:1.0000; stroke:none;fill-rule:evenodd;"
d="M 58.3050,40.8750
58.3050,42.2250
56.8950,42.2250
56.8950,40.8750
Z" /> 
<path style="fill:#000000; fill-opacity:1.0000; stroke:none;fill-rule:evenodd;"
d="M 43.9700,70.7450
43.2700,70.7450
43.2700,70.3950
43.9700,70.3950
Z" /> 
<path style="fill:#000000; fill-opacity:1.0000; stroke:none;fill-rule:evenodd;"
d="M 43.9700,70.0950
43.2700,70.0950
43.2700,69.7450
43.9700,69.7450
Z" /> 
<path style="fill:#000000; fill-opacity:1.0000; stroke:none;fill-rule:evenodd;"
d="M 43.9700,69.4550
43.2700,69.4550
43.2700,69.1050
43.9700,69.1050
Z" /> 
<path style="fill:#000000; fill-opacity:1.0000; stroke:none;fill-rule:evenodd;"
d="M 43.9700,68.8050
43.2700,68.8050
43.2700,68.4550
43.9700,68.4550
Z" /> 
<path style="fill:#000000; fill-opacity:1.0000; stroke:none;fill-rule:evenodd;"
d="M 40.1346,70.3346
40.1700,70.3200
40.6900,70.3200
40.6900,70.1700
40.1700,70.1700
40.1346,70.1554
40.1200,70.1200
40.1200,69.7200
40.1346,69.6846
40.1700,69.6700
40.6900,69.6700
40.6900,69.5200
40.1700,69.5200
40.1346,69.5054
40.1200,69.4700
40.1200,69.0700
40.1346,69.0346
40.1700,69.0200
40.6900,69.0200
40.6900,68.8700
40.1700,68.8700
40.1346,68.8554
40.1200,68.8200
40.1200,68.4200
40.1346,68.3846
40.1700,68.3700
42.6700,68.3700
42.7054,68.3846
42.7200,68.4200
42.7200,70.7700
42.7054,70.8054
42.6700,70.8200
40.1700,70.8200
40.1346,70.8054
40.1200,70.7700
40.1200,70.3700
Z" /> 
</g>
<g style="fill:#000000; fill-opacity:1.0000; stroke:none;">
<circle cx="65.2025" cy="71.1400" r="0.3500" /> 
</g>
<g style="fill:#000000; fill-opacity:1.0000; stroke:none;">
<circle cx="65.2025" cy="71.1400" r="0.3500" /> 
</g>
<g style="fill:none; 
stroke:#000000; stroke-width:1.2000; stroke-opacity:1; 
stroke-linecap:round; stroke-linejoin:round;">
<path d="M64.2625 72.5700
L65.0625 72.5700
" />
<path d="M64.2625 63.9300
L65.0625 63.9300
" />
<path d="M68.5525 72.5700
L69.1525 72.5700
" />
<path d="M68.5525 63.9300
L69.1525 63.9300
" />
<path style="fill:#000000; fill-opacity:1.0000; stroke:none;fill-rule:evenodd;"
d="M 64.6625,71.7500
63.3625,71.7500
63.3625,71.4500
64.6625,71.4500
Z" /> 
<path style="fill:#000000; fill-opacity:1.0000; stroke:none;fill-rule:evenodd;"
d="M 64.6625,70.9500
63.3625,70.9500
63.3625,70.6500
64.6625,70.6500
Z" /> 
<path style="fill:#000000; fill-opacity:1.0000; stroke:none;fill-rule:evenodd;"
d="M 64.6625,69.6500
63.3625,69.6500
63.3625,69.3500
64.6625,69.3500
Z" /> 
<path style="fill:#000000; fill-opacity:1.0000; stroke:none;fill-rule:evenodd;"
d="M 64.6625,68.6500
63.3625,68.6500
63.3625,68.3500
64.6625,68.3500
Z" /> 
<path style="fill:#000000; fill-opacity:1.0000; stroke:none;fill-rule:evenodd;"
d="M 64.6625,68.1500
63.3625,68.1500
63.3625,67.8500
64.6625,67.8500
Z" /> 
<path style="fill:#000000; fill-opacity:1.0000; stroke:none;fill-rule:evenodd;"
d="M 64.6625,67.1500
63.3625,67.1500
63.3625,66.8500
64.6625,66.8500
Z" /> 
<path style="fill:#000000; fill-opacity:1.0000; stroke:none;fill-rule:evenodd;"
d="M 64.6725,65.8500
63.3725,65.8500
63.3725,65.5500
64.6725,65.5500
Z" /> 
<path style="fill:#000000; fill-opacity:1.0000; stroke:none;fill-rule:evenodd;"
d="M 64.6625,65.0500
63.3625,65.0500
63.3625,64.7500
64.6625,64.7500
Z" /> 
<path style="fill:#000000; fill-opacity:1.0000; stroke:none;fill-rule:evenodd;"
d="M 64.6625,65.3500
63.3625,65.3500
63.3625,65.0500
64.6625,65.0500
Z" /> 
<path style="fill:#000000; fill-opacity:1.0000; stroke:none;fill-rule:evenodd;"
d="M 64.6725,66.1500
63.3725,66.1500
63.3725,65.8500
64.6725,65.8500
Z" /> 
<path style="fill:#000000; fill-opacity:1.0000; stroke:none;fill-rule:evenodd;"
d="M 64.6625,66.6500
63.3625,66.6500
63.3625,66.3500
64.6625,66.3500
Z" /> 
<path style="fill:#000000; fill-opacity:1.0000; stroke:none;fill-rule:evenodd;"
d="M 64.6625,67.6500
63.3625,67.6500
63.3625,67.3500
64.6625,67.3500
Z" /> 
<path style="fill:#000000; fill-opacity:1.0000; stroke:none;fill-rule:evenodd;"
d="M 64.6625,69.1500
63.3625,69.1500
63.3625,68.8500
64.6625,68.8500
Z" /> 
<path style="fill:#000000; fill-opacity:1.0000; stroke:none;fill-rule:evenodd;"
d="M 64.6625,70.1500
63.3625,70.1500
63.3625,69.8500
64.6625,69.8500
Z" /> 
<path style="fill:#000000; fill-opacity:1.0000; stroke:none;fill-rule:evenodd;"
d="M 64.6625,70.6500
63.3625,70.6500
63.3625,70.3500
64.6625,70.3500
Z" /> 
<path style="fill:#000000; fill-opacity:1.0000; stroke:none;fill-rule:evenodd;"
d="M 64.6625,71.4500
63.3625,71.4500
63.3625,71.1500
64.6625,71.1500
Z" /> 
<path style="fill:#000000; fill-opacity:1.0000; stroke:none;fill-rule:evenodd;"
d="M 56.6500,71.1000
55.7500,71.1000
55.7500,70.3000
56.6500,70.3000
Z" /> 
<path style="fill:#000000; fill-opacity:1.0000; stroke:none;fill-rule:evenodd;"
d="M 56.6500,69.7000
55.7500,69.7000
55.7500,68.9000
56.6500,68.9000
Z" /> 
<path style="fill:#000000; fill-opacity:1.0000; stroke:none;fill-rule:evenodd;"
d="M 53.2700,68.1450
52.7300,68.1450
52.7300,67.5750
53.2700,67.5750
Z" /> 
<path style="fill:#000000; fill-opacity:1.0000; stroke:none;fill-rule:evenodd;"
d="M 53.2700,67.2850
52.7300,67.2850
52.7300,66.7150
53.2700,66.7150
Z" /> 
</g> 
</svg>
