<?xml version="1.0" standalone="no"?>
 <!DOCTYPE svg PUBLIC "-//W3C//DTD SVG 1.1//EN" 
 "http://www.w3.org/Graphics/SVG/1.1/DTD/svg11.dtd"> 
<svg
  xmlns:svg="http://www.w3.org/2000/svg"
  xmlns="http://www.w3.org/2000/svg"
  xmlns:xlink="http://www.w3.org/1999/xlink"
  version="1.1"
  width="297.0022mm" height="210.0072mm" viewBox="0.0000 0.0000 297.0022 210.0072">
<title>SVG Image created as default-In1_Cu.svg date 2025/06/02 11:08:05 </title>
  <desc>Image generated by PCBNEW </desc>
<g style="fill:#000000; fill-opacity:1.0000;stroke:#000000; stroke-opacity:1.0000;
stroke-linecap:round; stroke-linejoin:round;"
 transform="translate(0 0) scale(1 1)">
</g>
<g style="fill:#000000; fill-opacity:1.0000; stroke:none;">
<circle cx="43.6000" cy="76.6000" r="0.9000" /> 
</g>
<g style="fill:#000000; fill-opacity:1.0000; stroke:none;">
<circle cx="43.6000" cy="74.1000" r="0.9000" /> 
</g>
<g style="fill:#000000; fill-opacity:1.0000; stroke:none;">
<circle cx="56.1825" cy="50.5175" r="0.2500" /> 
</g>
<g style="fill:#000000; fill-opacity:1.0000; stroke:none;">
<circle cx="56.1825" cy="50.5175" r="0.2500" /> 
</g>
<g style="fill:#000000; fill-opacity:1.0000; stroke:none;">
<circle cx="56.1825" cy="50.5175" r="0.2500" /> 
</g>
<g style="fill:#000000; fill-opacity:1.0000; stroke:none;">
<circle cx="56.1825" cy="50.5175" r="0.2500" /> 
</g>
<g style="fill:#000000; fill-opacity:1.0000; stroke:none;">
<circle cx="56.1825" cy="50.5175" r="0.2500" /> 
</g>
<g style="fill:#000000; fill-opacity:1.0000; stroke:none;">
<circle cx="56.1825" cy="50.5175" r="0.2500" /> 
</g>
<g style="fill:#000000; fill-opacity:1.0000; stroke:none;">
<circle cx="56.1825" cy="50.5175" r="0.2500" /> 
</g>
<g style="fill:#000000; fill-opacity:1.0000; stroke:none;">
<circle cx="56.1825" cy="50.5175" r="0.2500" /> 
</g>
<g style="fill:#000000; fill-opacity:1.0000; stroke:none;">
<circle cx="56.1825" cy="50.5175" r="0.2500" /> 
</g>
<g style="fill:#000000; fill-opacity:1.0000; stroke:none;">
<circle cx="56.1825" cy="50.5175" r="0.2500" /> 
</g>
<g style="fill:#000000; fill-opacity:1.0000; stroke:none;">
<circle cx="56.1825" cy="50.5175" r="0.2500" /> 
</g>
<g style="fill:#000000; fill-opacity:1.0000; stroke:none;">
<circle cx="56.1825" cy="50.5175" r="0.2500" /> 
</g>
<g style="fill:#000000; fill-opacity:1.0000; stroke:none;">
<circle cx="37.4000" cy="76.6000" r="0.9000" /> 
</g>
<g style="fill:#000000; fill-opacity:1.0000; stroke:none;">
<circle cx="37.4000" cy="74.1000" r="0.9000" /> 
</g>
<g style="fill:#000000; fill-opacity:1.0000; stroke:none;">
<circle cx="68.0000" cy="76.0000" r="0.9000" /> 
</g>
<g style="fill:#000000; fill-opacity:1.0000; stroke:none;">
<circle cx="65.5000" cy="76.0000" r="0.9000" /> 
</g>
<g style="fill:#000000; fill-opacity:1.0000; stroke:none;">
<circle cx="52.0000" cy="75.5000" r="0.8000" /> 
</g>
<g style="fill:#000000; fill-opacity:1.0000; stroke:none;">
<circle cx="55.5000" cy="75.5000" r="0.8000" /> 
</g>
<g style="fill:#000000; fill-opacity:1.0000; stroke:none;">
<circle cx="65.2025" cy="71.1400" r="0.3500" /> 
</g>
<g style="fill:#000000; fill-opacity:1.0000; stroke:none;">
<circle cx="65.2025" cy="71.1400" r="0.3500" /> 
</g>
<g style="fill:none; 
stroke:#000000; stroke-width:1.2000; stroke-opacity:1; 
stroke-linecap:round; stroke-linejoin:round;">
<path d="M64.2625 72.5700
L65.0625 72.5700
" />
<path d="M64.2625 63.9300
L65.0625 63.9300
" />
<path d="M68.5525 72.5700
L69.1525 72.5700
" />
<path d="M68.5525 63.9300
L69.1525 63.9300
" />
</g>
<g style="fill:#000000; fill-opacity:1.0000; stroke:none;">
<circle cx="41.3000" cy="64.6000" r="0.3000" /> 
</g>
<g style="fill:#000000; fill-opacity:1.0000; stroke:none;">
<circle cx="46.9000" cy="47.3000" r="0.3000" /> 
</g>
<g style="fill:#000000; fill-opacity:1.0000; stroke:none;">
<circle cx="52.8000" cy="51.7000" r="0.3000" /> 
</g>
<g style="fill:#000000; fill-opacity:1.0000; stroke:none;">
<circle cx="61.8000" cy="68.0000" r="0.3000" /> 
</g>
<g style="fill:#000000; fill-opacity:1.0000; stroke:none;">
<circle cx="36.5000" cy="59.5500" r="0.3000" /> 
</g>
<g style="fill:#000000; fill-opacity:1.0000; stroke:none;">
<circle cx="48.0000" cy="76.9000" r="0.3000" /> 
</g>
<g style="fill:#000000; fill-opacity:1.0000; stroke:none;">
<circle cx="34.5500" cy="53.1000" r="0.3000" /> 
</g>
<g style="fill:#000000; fill-opacity:1.0000; stroke:none;">
<circle cx="35.0000" cy="53.1000" r="0.3000" /> 
</g>
<g style="fill:#000000; fill-opacity:1.0000; stroke:none;">
<circle cx="56.2000" cy="68.6000" r="0.3000" /> 
</g>
<g style="fill:#000000; fill-opacity:1.0000; stroke:none;">
<circle cx="64.2500" cy="42.5000" r="0.3000" /> 
</g>
<g style="fill:#000000; fill-opacity:1.0000; stroke:none;">
<circle cx="50.9800" cy="42.0000" r="0.3000" /> 
</g>
<g style="fill:#000000; fill-opacity:1.0000; stroke:none;">
<circle cx="61.4000" cy="67.3000" r="0.3000" /> 
</g>
<g style="fill:#000000; fill-opacity:1.0000; stroke:none;">
<circle cx="49.4250" cy="65.8250" r="0.3000" /> 
</g>
<g style="fill:#000000; fill-opacity:1.0000; stroke:none;">
<circle cx="34.3000" cy="69.3000" r="0.3000" /> 
</g>
<g style="fill:#000000; fill-opacity:1.0000; stroke:none;">
<circle cx="40.5000" cy="67.0700" r="0.3000" /> 
</g>
<g style="fill:#000000; fill-opacity:1.0000; stroke:none;">
<circle cx="58.2000" cy="50.5000" r="0.3000" /> 
</g>
<g style="fill:#000000; fill-opacity:1.0000; stroke:none;">
<circle cx="56.1500" cy="64.7000" r="0.3000" /> 
</g>
<g style="fill:#000000; fill-opacity:1.0000; stroke:none;">
<circle cx="53.3000" cy="53.0000" r="0.3000" /> 
</g>
<g style="fill:#000000; fill-opacity:1.0000; stroke:none;">
<circle cx="41.2500" cy="50.7500" r="0.3000" /> 
</g>
<g style="fill:#000000; fill-opacity:1.0000; stroke:none;">
<circle cx="53.0000" cy="49.3000" r="0.3000" /> 
</g>
<g style="fill:#000000; fill-opacity:1.0000; stroke:none;">
<circle cx="58.1000" cy="74.3000" r="0.3000" /> 
</g>
<g style="fill:#000000; fill-opacity:1.0000; stroke:none;">
<circle cx="36.5100" cy="66.8000" r="0.3000" /> 
</g>
<g style="fill:#000000; fill-opacity:1.0000; stroke:none;">
<circle cx="37.0000" cy="70.7250" r="0.3000" /> 
</g>
<g style="fill:#000000; fill-opacity:1.0000; stroke:none;">
<circle cx="56.3000" cy="41.8000" r="0.3000" /> 
</g>
<g style="fill:#000000; fill-opacity:1.0000; stroke:none;">
<circle cx="38.2000" cy="48.5500" r="0.3000" /> 
</g>
<g style="fill:#000000; fill-opacity:1.0000; stroke:none;">
<circle cx="37.2100" cy="66.8000" r="0.3000" /> 
</g>
<g style="fill:#000000; fill-opacity:1.0000; stroke:none;">
<circle cx="52.8000" cy="50.5000" r="0.3000" /> 
</g>
<g style="fill:#000000; fill-opacity:1.0000; stroke:none;">
<circle cx="42.3000" cy="44.9000" r="0.3000" /> 
</g>
<g style="fill:#000000; fill-opacity:1.0000; stroke:none;">
<circle cx="39.0000" cy="68.1000" r="0.3000" /> 
</g>
<g style="fill:#000000; fill-opacity:1.0000; stroke:none;">
<circle cx="36.0000" cy="42.9000" r="0.3000" /> 
</g>
<g style="fill:#000000; fill-opacity:1.0000; stroke:none;">
<circle cx="58.1000" cy="74.8000" r="0.3000" /> 
</g>
<g style="fill:#000000; fill-opacity:1.0000; stroke:none;">
<circle cx="59.0000" cy="53.5000" r="0.3000" /> 
</g>
<g style="fill:#000000; fill-opacity:1.0000; stroke:none;">
<circle cx="63.6500" cy="43.0000" r="0.3000" /> 
</g>
<g style="fill:#000000; fill-opacity:1.0000; stroke:none;">
<circle cx="37.2000" cy="59.5500" r="0.3000" /> 
</g>
<g style="fill:#000000; fill-opacity:1.0000; stroke:none;">
<circle cx="56.3000" cy="41.2000" r="0.3000" /> 
</g>
<g style="fill:#000000; fill-opacity:1.0000; stroke:none;">
<circle cx="41.0000" cy="46.9000" r="0.3000" /> 
</g>
<g style="fill:#000000; fill-opacity:1.0000; stroke:none;">
<circle cx="40.6000" cy="65.9000" r="0.3000" /> 
</g>
<g style="fill:#000000; fill-opacity:1.0000; stroke:none;">
<circle cx="41.0000" cy="46.4000" r="0.3000" /> 
</g>
<g style="fill:#000000; fill-opacity:1.0000; stroke:none;">
<circle cx="60.3000" cy="43.0000" r="0.3000" /> 
</g>
<g style="fill:#000000; fill-opacity:1.0000; stroke:none;">
<circle cx="42.6500" cy="49.3500" r="0.3000" /> 
</g>
<g style="fill:#000000; fill-opacity:1.0000; stroke:none;">
<circle cx="42.3000" cy="49.2000" r="0.3000" /> 
</g>
<g style="fill:#000000; fill-opacity:1.0000; stroke:none;">
<circle cx="42.3000" cy="49.7000" r="0.3000" /> 
</g>
<g style="fill:#000000; fill-opacity:1.0000; stroke:none;">
<circle cx="52.3000" cy="64.1000" r="0.3000" /> 
</g>
<g style="fill:#000000; fill-opacity:1.0000; stroke:none;">
<circle cx="52.6500" cy="64.4500" r="0.3000" /> 
</g>
<g style="fill:#000000; fill-opacity:1.0000; stroke:none;">
<circle cx="48.7000" cy="52.4000" r="0.3000" /> 
</g>
<g style="fill:#000000; fill-opacity:1.0000; stroke:none;">
<circle cx="40.5000" cy="57.2000" r="0.3000" /> 
</g>
<g style="fill:#000000; fill-opacity:1.0000; stroke:none;">
<circle cx="51.9500" cy="63.7500" r="0.3000" /> 
</g>
<g style="fill:#000000; fill-opacity:1.0000; stroke:none;">
<circle cx="60.7000" cy="77.9000" r="0.3000" /> 
</g>
<g style="fill:#000000; fill-opacity:1.0000; stroke:none;">
<circle cx="47.8000" cy="60.8000" r="0.3000" /> 
</g>
<g style="fill:#000000; fill-opacity:1.0000; stroke:none;">
<circle cx="61.8500" cy="60.9500" r="0.3000" /> 
</g>
<g style="fill:#000000; fill-opacity:1.0000; stroke:none;">
<circle cx="41.3000" cy="67.7000" r="0.3000" /> 
</g>
<g style="fill:#000000; fill-opacity:1.0000; stroke:none;">
<circle cx="37.9000" cy="67.6000" r="0.3000" /> 
</g>
<g style="fill:#000000; fill-opacity:1.0000; stroke:none;">
<circle cx="56.7000" cy="45.6000" r="0.3000" /> 
</g>
<g style="fill:#000000; fill-opacity:1.0000; stroke:none;">
<circle cx="37.1000" cy="42.2000" r="0.3000" /> 
</g>
<g style="fill:#000000; fill-opacity:1.0000; stroke:none;">
<circle cx="36.7000" cy="62.7000" r="0.3000" /> 
</g>
<g style="fill:#000000; fill-opacity:1.0000; stroke:none;">
<circle cx="38.9400" cy="55.2000" r="0.3000" /> 
</g>
<g style="fill:#000000; fill-opacity:1.0000; stroke:none;">
<circle cx="53.8000" cy="67.5000" r="0.3000" /> 
</g>
<g style="fill:#000000; fill-opacity:1.0000; stroke:none;">
<circle cx="55.5000" cy="45.6000" r="0.3000" /> 
</g>
<g style="fill:#000000; fill-opacity:1.0000; stroke:none;">
<circle cx="49.9879" cy="67.2848" r="0.3000" /> 
</g>
<g style="fill:#000000; fill-opacity:1.0000; stroke:none;">
<circle cx="40.9000" cy="43.0000" r="0.3000" /> 
</g>
<g style="fill:#000000; fill-opacity:1.0000; stroke:none;">
<circle cx="36.7000" cy="63.7000" r="0.3000" /> 
</g>
<g style="fill:#000000; fill-opacity:1.0000; stroke:none;">
<circle cx="39.7000" cy="55.9000" r="0.3000" /> 
</g>
<g style="fill:#000000; fill-opacity:1.0000; stroke:none;">
<circle cx="47.1000" cy="51.4000" r="0.3000" /> 
</g>
<g style="fill:#000000; fill-opacity:1.0000; stroke:none;">
<circle cx="45.4015" cy="67.4329" r="0.3000" /> 
</g>
<g style="fill:#000000; fill-opacity:1.0000; stroke:none;">
<circle cx="48.0500" cy="57.7500" r="0.3000" /> 
</g>
<g style="fill:#000000; fill-opacity:1.0000; stroke:none;">
<circle cx="46.8000" cy="67.7000" r="0.3000" /> 
</g>
<g style="fill:#000000; fill-opacity:1.0000; stroke:none;">
<circle cx="48.9000" cy="56.9000" r="0.3000" /> 
</g>
<g style="fill:#000000; fill-opacity:1.0000; stroke:none;">
<circle cx="44.7342" cy="67.8742" r="0.3000" /> 
</g>
<g style="fill:#000000; fill-opacity:1.0000; stroke:none;">
<circle cx="43.9382" cy="67.9550" r="0.3000" /> 
</g>
<g style="fill:#000000; fill-opacity:1.0000; stroke:none;">
<circle cx="46.2500" cy="50.4500" r="0.3000" /> 
</g>
<g style="fill:#000000; fill-opacity:1.0000; stroke:none;">
<circle cx="47.6000" cy="42.8000" r="0.3000" /> 
</g>
<g style="fill:#000000; fill-opacity:1.0000; stroke:none;">
<circle cx="65.3000" cy="66.7000" r="0.3000" /> 
</g>
<g style="fill:#000000; fill-opacity:1.0000; stroke:none;">
<circle cx="46.2500" cy="42.8500" r="0.3000" /> 
</g>
<g style="fill:#000000; fill-opacity:1.0000; stroke:none;">
<circle cx="65.1000" cy="67.6000" r="0.3000" /> 
</g>
<g style="fill:#000000; fill-opacity:1.0000; stroke:none;">
<circle cx="65.6000" cy="70.0000" r="0.3000" /> 
</g>
<g style="fill:#000000; fill-opacity:1.0000; stroke:none;">
<circle cx="65.9000" cy="69.6000" r="0.3000" /> 
</g>
<g style="fill:#000000; fill-opacity:1.0000; stroke:none;">
<circle cx="46.3000" cy="70.7000" r="0.3000" /> 
</g>
<g style="fill:#000000; fill-opacity:1.0000; stroke:none;">
<circle cx="60.0000" cy="66.0000" r="0.3000" /> 
</g>
<g style="fill:#000000; fill-opacity:1.0000; stroke:none;">
<circle cx="50.5025" cy="62.1675" r="0.3000" /> 
</g>
<g style="fill:#000000; fill-opacity:1.0000; stroke:none;">
<circle cx="49.6000" cy="71.3000" r="0.3000" /> 
</g>
<g style="fill:none; 
stroke:#000000; stroke-width:0.6000; stroke-opacity:1; 
stroke-linecap:round; stroke-linejoin:round;">
<path d="M43.0500 48.9500
L42.6500 49.3500
" />
<path d="M43.0500 54.6500
L40.5000 57.2000
" />
<path d="M51.9500 55.6500
L48.7000 52.4000
" />
<path d="M54.0000 46.9000
L57.2000 46.9000
" />
<path d="M51.9500 48.9500
L54.0000 46.9000
" />
<path d="M42.6500 49.3500
L42.3000 49.7000
" />
<path d="M51.9500 48.9500
L43.0500 48.9500
" />
<path d="M40.5000 57.2000
L40.5000 65.8000
" />
<path d="M40.5000 65.8000
L40.6000 65.9000
" />
<path d="M60.3000 43.8000
L60.3000 43.0000
" />
<path d="M51.9500 63.7500
L51.9500 55.6500
" />
<path d="M52.3000 64.1000
L51.9500 63.7500
" />
<path d="M57.2000 46.9000
L60.3000 43.8000
" />
<path d="M51.9500 55.6500
L51.9500 48.9500
" />
<path d="M43.0500 48.9500
L41.0000 46.9000
" />
<path d="M43.0500 48.9500
L43.0500 54.6500
" />
<path d="M52.6500 64.4500
L52.3000 64.1000
" />
</g>
<g style="fill:none; 
stroke:#000000; stroke-width:0.2000; stroke-opacity:1; 
stroke-linecap:round; stroke-linejoin:round;">
<path d="M36.7000 62.7000
L38.0000 62.7000
" />
<path d="M52.2000 69.1000
L40.9000 69.1000
" />
<path d="M35.9000 64.1000
L35.9000 63.3000
" />
<path d="M38.9400 42.2000
L37.1000 42.2000
" />
<path d="M37.1000 42.2000
L41.8000 42.2000
" />
<path d="M38.0000 62.7000
L38.9400 61.7600
" />
<path d="M53.8000 67.5000
L52.2000 69.1000
" />
<path d="M35.9000 63.3000
L36.5000 62.7000
" />
<path d="M40.9000 69.1000
L35.9000 64.1000
" />
<path d="M41.8000 42.2000
L44.5990 44.9990
" />
<path d="M38.9400 55.2000
L38.9400 42.2000
" />
<path d="M56.0990 44.9990
L56.7000 45.6000
" />
<path d="M44.5990 44.9990
L56.0990 44.9990
" />
<path d="M36.5000 62.7000
L36.7000 62.7000
" />
<path d="M38.9400 61.7600
L38.9400 55.2000
" />
<path d="M39.7000 55.9000
L39.7000 44.2000
" />
<path d="M39.7000 55.9000
L39.4000 56.2000
" />
<path d="M48.5737 68.6990
L41.0661 68.6990
" />
<path d="M39.4000 67.0329
L39.4000 63.7000
" />
<path d="M41.0661 68.6990
L39.4000 67.0329
" />
<path d="M41.7000 43.0000
L44.3000 45.6000
" />
<path d="M44.3000 45.6000
L55.5000 45.6000
" />
<path d="M39.4000 63.7000
L36.7000 63.7000
" />
<path d="M49.9879 67.2848
L48.5737 68.6990
" />
<path d="M40.9000 43.0000
L41.7000 43.0000
" />
<path d="M39.7000 44.2000
L40.9000 43.0000
" />
<path d="M39.4000 56.2000
L39.4000 64.2000
" />
<path d="M47.1000 51.4000
L46.6529 51.4000
" />
<path d="M45.4015 52.6515
L45.4015 67.3647
" />
<path d="M45.4697 67.4329
L45.4015 67.4329
" />
<path d="M46.6529 51.4000
L45.4015 52.6515
" />
<path d="M45.4015 67.3647
L45.4697 67.4329
" />
<path d="M46.8000 59.0000
L48.0500 57.7500
" />
<path d="M46.8000 67.7000
L46.8000 59.0000
" />
<path d="M46.1000 58.4000
L47.6000 56.9000
" />
<path d="M46.1000 67.6000
L46.1000 58.4000
" />
<path d="M44.7342 67.8742
L44.9600 68.1000
" />
<path d="M45.6000 68.1000
L46.1000 67.6000
" />
<path d="M44.9600 68.1000
L45.6000 68.1000
" />
<path d="M47.6000 56.9000
L48.9000 56.9000
" />
<path d="M43.9382 67.9550
L43.9000 67.9168
" />
<path d="M43.9000 67.9168
L43.9000 52.8000
" />
<path d="M43.9000 52.8000
L46.2500 50.4500
" />
<path d="M57.1000 42.8000
L47.6000 42.8000
" />
<path d="M62.9000 63.2000
L63.9000 62.2000
" />
<path d="M47.6000 42.8000
L47.5000 42.8000
" />
<path d="M60.8000 41.5000
L58.4000 41.5000
" />
<path d="M63.9000 44.6000
L60.8000 41.5000
" />
<path d="M58.4000 41.5000
L57.1000 42.8000
" />
<path d="M62.9000 64.3000
L62.9000 63.2000
" />
<path d="M63.9000 62.2000
L63.9000 44.6000
" />
<path d="M65.3000 66.7000
L62.9000 64.3000
" />
<path d="M62.1000 64.6000
L62.1000 62.6000
" />
<path d="M65.1000 67.6000
L62.1000 64.6000
" />
<path d="M57.3000 43.6000
L47.0000 43.6000
" />
<path d="M46.2500 42.8500
L46.2000 42.8000
" />
<path d="M63.1000 61.6000
L63.1000 44.7000
" />
<path d="M47.0000 43.6000
L46.2500 42.8500
" />
<path d="M58.7000 42.2000
L57.3000 43.6000
" />
<path d="M62.1000 62.6000
L63.1000 61.6000
" />
<path d="M63.1000 44.7000
L60.6000 42.2000
" />
<path d="M60.6000 42.2000
L58.7000 42.2000
" />
</g>
<g style="fill:none; 
stroke:#000000; stroke-width:1.0000; stroke-opacity:1; 
stroke-linecap:round; stroke-linejoin:round;">
<path d="M65.6585 70.0390
L46.9610 70.0390
" />
<path d="M46.9610 70.0390
L46.3000 70.7000
" />
<path d="M66.8000 71.1805
L66.8000 74.8000
" />
<path d="M65.6196 70.0000
L66.0098 70.3902
" />
<path d="M65.6000 70.0000
L65.6000 69.9805
" />
<path d="M65.6000 70.0000
L65.6196 70.0000
" />
<path d="M66.8000 74.8000
L68.0000 76.0000
" />
<path d="M66.0098 70.3902
L65.6585 70.0390
" />
<path d="M61.6195 66.0000
L60.0000 66.0000
" />
<path d="M65.6000 69.9805
L61.6195 66.0000
" />
<path d="M66.0098 70.3902
L66.8000 71.1805
" />
<path style="fill:#000000; fill-opacity:1.0000; stroke:none;fill-rule:evenodd;"
d="M 57.9679,40.8702
58.0137,40.9230
58.0236,40.9921
57.9946,41.0557
57.9886,41.0622
56.8876,42.1632
56.8263,42.1967
56.7999,42.1995
48.1798,42.1995
48.1127,42.1798
48.1109,42.1786
47.9792,42.0906
47.9792,42.0906
47.8335,42.0303
47.8335,42.0303
47.6788,41.9995
47.6788,41.9995
47.5212,41.9995
47.5212,41.9995
47.3665,42.0303
47.3665,42.0303
47.2208,42.0906
47.2208,42.0906
47.0897,42.1782
47.0897,42.1782
46.9877,42.2802
46.9264,42.3137
46.8567,42.3087
46.8123,42.2802
46.7603,42.2282
46.7603,42.2282
46.6292,42.1406
46.6292,42.1406
46.4835,42.0803
46.4835,42.0803
46.3288,42.0495
46.3288,42.0495
46.1712,42.0495
46.1712,42.0495
46.0165,42.0803
46.0165,42.0803
45.8708,42.1406
45.8708,42.1406
45.7397,42.2282
45.7397,42.2282
45.6282,42.3397
45.6282,42.3397
45.5406,42.4708
45.5406,42.4708
45.4803,42.6165
45.4803,42.6165
45.4495,42.7712
45.4495,42.9288
45.4803,43.0835
45.4803,43.0835
45.5406,43.2292
45.5406,43.2292
45.6282,43.3603
45.6282,43.3603
45.7397,43.4718
45.7397,43.4718
45.8708,43.5594
45.8708,43.5594
45.9701,43.6005
46.0165,43.6197
46.0807,43.6325
46.1718,43.6506
46.2338,43.6830
46.2353,43.6846
46.5151,43.9644
46.5151,43.9644
46.5195,43.9687
46.5195,43.9687
46.6313,44.0805
46.7181,44.1306
46.7682,44.1596
46.7719,44.1606
46.7819,44.1661
46.8016,44.1862
46.8235,44.2038
46.8258,44.2107
46.8309,44.2159
46.8367,44.2434
46.8456,44.2701
46.8437,44.2772
46.8452,44.2843
46.8352,44.3106
46.8283,44.3378
46.8229,44.3428
46.8203,44.3496
46.7977,44.3662
46.7771,44.3854
46.7691,44.3873
46.7640,44.3910
46.7493,44.3920
46.7216,44.3985
44.8991,44.3985
44.8321,44.3788
44.8114,44.3622
42.2876,41.8384
42.2876,41.8384
42.1687,41.7195
42.1687,41.7195
42.0819,41.6694
42.0819,41.6694
42.0819,41.6694
42.0318,41.6404
41.8791,41.5995
41.7209,41.5995
41.7133,41.5995
41.7133,41.5995
37.6798,41.5995
37.6127,41.5798
37.6109,41.5786
37.4792,41.4906
37.4792,41.4906
37.3335,41.4303
37.3335,41.4303
37.1788,41.3995
37.1788,41.3995
37.0212,41.3995
37.0212,41.3995
36.8665,41.4303
36.8665,41.4303
36.7208,41.4906
36.7208,41.4906
36.5897,41.5782
36.5897,41.5782
36.4782,41.6897
36.4782,41.6897
36.3906,41.8208
36.3906,41.8208
36.3303,41.9665
36.3303,41.9665
36.2995,42.1212
36.2995,42.2788
36.3303,42.4335
36.3303,42.4335
36.3906,42.5792
36.3906,42.5792
36.4782,42.7103
36.4782,42.7103
36.5897,42.8218
36.5897,42.8218
36.7208,42.9094
36.7208,42.9094
36.7999,42.9421
36.8665,42.9697
37.0212,43.0005
37.0212,43.0005
37.0212,43.0005
37.1788,43.0005
37.1788,43.0005
37.3335,42.9697
37.4792,42.9094
37.5337,42.8730
37.6109,42.8214
37.6776,42.8005
37.6798,42.8005
38.2155,42.8005
38.2825,42.8202
38.3283,42.8730
38.3395,42.9245
38.3395,54.6202
38.3198,54.6873
38.3186,54.6891
38.2306,54.8208
38.2306,54.8208
38.1703,54.9665
38.1703,54.9665
38.1395,55.1212
38.1395,55.2788
38.1703,55.4335
38.1703,55.4335
38.2306,55.5792
38.2306,55.5792
38.3186,55.7109
38.3395,55.7776
38.3395,55.7798
38.3395,61.4599
38.3198,61.5269
38.3032,61.5476
37.7876,62.0632
37.7263,62.0967
37.6999,62.0995
37.2798,62.0995
37.2127,62.0798
37.2109,62.0786
37.0792,61.9906
37.0792,61.9906
36.9335,61.9303
36.9335,61.9303
36.7788,61.8995
36.7788,61.8995
36.6212,61.8995
36.6212,61.8995
36.4665,61.9303
36.4665,61.9303
36.3208,61.9906
36.3208,61.9906
36.1897,62.0782
36.1897,62.0782
36.0782,62.1897
36.0782,62.1897
35.9906,62.3208
35.9906,62.3208
35.9722,62.3652
35.9453,62.4054
35.5313,62.8195
35.4195,62.9313
35.4195,62.9313
35.3983,62.9680
35.3852,62.9906
35.3404,63.0682
35.2995,63.2209
35.2995,63.2209
35.2995,63.3890
35.2995,63.3891
35.2995,64.0133
35.2995,64.0133
35.2995,64.1791
35.2995,64.1791
35.3095,64.2165
35.3404,64.3318
35.3605,64.3665
35.3907,64.4189
35.4195,64.4687
35.5383,64.5876
35.5384,64.5876
37.6163,66.6655
37.6497,66.7268
37.6448,66.7965
37.6029,66.8524
37.5760,66.8677
37.5208,66.8906
37.5208,66.8906
37.3897,66.9782
37.3897,66.9782
37.2782,67.0897
37.2782,67.0897
37.1906,67.2208
37.1906,67.2208
37.1303,67.3665
37.1303,67.3665
37.0995,67.5212
37.0995,67.6788
37.1303,67.8335
37.1303,67.8335
37.1906,67.9792
37.1906,67.9792
37.2782,68.1103
37.2782,68.1103
37.3897,68.2218
37.3897,68.2218
37.5208,68.3094
37.5208,68.3094
37.6378,68.3579
37.6665,68.3697
37.8212,68.4005
37.8212,68.4005
37.8212,68.4005
37.9788,68.4005
37.9788,68.4005
38.1335,68.3697
38.2792,68.3094
38.4103,68.2218
38.5218,68.1103
38.6094,67.9792
38.6186,67.9569
38.6323,67.9240
38.6761,67.8696
38.7424,67.8475
38.8101,67.8648
38.8345,67.8837
40.4151,69.4644
40.4151,69.4644
40.4195,69.4687
40.4195,69.4687
40.5313,69.5805
40.6011,69.6208
40.6682,69.6596
40.8209,69.7005
40.8209,69.7005
40.9867,69.7005
40.9867,69.7005
45.5852,69.7005
45.6523,69.7202
45.6980,69.7730
45.7080,69.8421
45.6789,69.9057
45.6729,69.9122
45.5229,70.0622
45.5229,70.0622
45.4134,70.2261
45.4134,70.2261
45.3379,70.4082
45.3379,70.4082
45.2995,70.6015
45.2995,70.7985
45.3379,70.9918
45.3379,70.9918
45.4134,71.1739
45.4134,71.1739
45.5229,71.3378
45.5229,71.3378
45.6622,71.4771
45.6622,71.4771
45.8261,71.5866
45.8261,71.5866
45.8261,71.5866
46.0082,71.6621
46.2015,71.7005
46.2015,71.7005
46.2015,71.7005
46.3985,71.7005
46.3985,71.7005
46.5918,71.6621
46.7739,71.5866
46.9378,71.4771
47.3391,71.0758
47.4004,71.0423
47.4268,71.0395
48.6845,71.0395
48.7516,71.0592
48.7973,71.1120
48.8073,71.1811
48.8062,71.1877
48.7995,71.2212
48.7995,71.3788
48.8303,71.5335
48.8303,71.5335
48.8906,71.6792
48.8906,71.6792
48.9782,71.8103
48.9782,71.8103
49.0897,71.9218
49.0897,71.9218
49.2208,72.0094
49.2208,72.0094
49.3665,72.0697
49.3665,72.0697
49.4814,72.0926
49.5212,72.1005
49.5212,72.1005
49.5212,72.1005
49.6788,72.1005
49.6788,72.1005
49.8335,72.0697
49.9792,72.0094
50.1103,71.9218
50.2218,71.8103
50.3094,71.6792
50.3697,71.5335
50.4005,71.3788
50.4005,71.2212
50.3938,71.1877
50.4001,71.1181
50.4429,71.0629
50.5088,71.0397
50.5155,71.0395
64.2280,71.0395
64.2294,71.0399
64.2309,71.0395
64.2629,71.0497
64.2950,71.0592
64.2960,71.0603
64.2975,71.0608
64.3189,71.0867
64.3408,71.1120
64.3413,71.1139
64.3420,71.1146
64.3431,71.1203
64.3511,71.1487
64.3520,71.1561
64.3520,71.2238
64.3724,71.3265
64.3730,71.3312
64.3680,71.3612
64.3653,71.3914
64.3623,71.3953
64.3614,71.4001
64.3410,71.4226
64.3224,71.4466
64.3178,71.4482
64.3145,71.4519
64.2851,71.4597
64.2565,71.4698
64.2499,71.4700
64.1759,71.4700
64.0049,71.4971
63.8402,71.5506
63.6860,71.6292
63.5459,71.7310
63.4235,71.8534
63.3217,71.9935
63.2431,72.1477
63.1896,72.3124
63.1884,72.3200
63.1884,72.3200
63.9175,72.3200
63.8824,72.3551
63.8364,72.4349
63.8125,72.5239
63.8125,72.6161
63.8364,72.7051
63.8824,72.7849
63.9175,72.8200
63.1884,72.8200
63.1896,72.8276
63.2431,72.9923
63.3217,73.1465
63.4235,73.2866
63.5459,73.4090
63.6860,73.5108
63.8402,73.5894
64.0049,73.6429
64.1759,73.6700
64.4125,73.6700
64.4125,72.9200
64.9125,72.9200
64.9125,73.6700
65.1491,73.6700
65.3201,73.6429
65.4848,73.5894
65.6192,73.5209
65.6879,73.5080
65.7526,73.5343
65.7929,73.5914
65.7995,73.6314
65.7995,74.4848
65.7798,74.5518
65.7270,74.5976
65.6579,74.6075
65.6561,74.6073
65.6102,74.6000
65.3898,74.6000
65.1722,74.6345
64.9626,74.7026
64.7662,74.8026
64.7025,74.8489
64.7025,74.8489
65.3298,75.4762
65.2877,75.4875
65.1623,75.5599
65.0599,75.6623
64.9875,75.7877
64.9762,75.8298
64.3489,75.2025
64.3489,75.2025
64.3026,75.2662
64.2026,75.4626
64.1345,75.6722
64.1000,75.8898
64.1000,76.1102
64.1345,76.3278
64.2026,76.5374
64.3026,76.7338
64.3489,76.7975
64.9762,76.1702
64.9875,76.2123
65.0599,76.3377
65.1623,76.4401
65.2877,76.5125
65.3298,76.5238
64.7025,77.1511
64.7025,77.1511
64.7662,77.1974
64.9626,77.2974
65.1722,77.3655
65.3898,77.4000
65.6102,77.4000
65.8278,77.3655
66.0374,77.2974
66.2338,77.1974
66.2975,77.1511
66.2975,77.1511
65.6702,76.5238
65.7123,76.5125
65.8377,76.4401
65.9401,76.3377
66.0125,76.2123
66.0238,76.1702
66.6511,76.7975
66.6525,76.7974
66.7047,76.7572
66.7743,76.7512
66.8361,76.7838
66.8500,76.7998
66.9318,76.9124
67.0876,77.0682
67.0876,77.0682
67.1831,77.1376
67.2660,77.1978
67.3944,77.2632
67.4624,77.2979
67.4624,77.2979
67.5672,77.3320
67.6720,77.3660
67.8898,77.4005
67.8898,77.4005
68.1102,77.4005
68.1102,77.4005
68.3280,77.3660
68.5376,77.2979
68.7340,77.1978
68.9124,77.0682
69.0682,76.9124
69.1978,76.7340
69.2979,76.5376
69.3660,76.3280
69.4005,76.1102
69.4005,75.8898
69.3660,75.6720
69.3296,75.5599
69.2979,75.4624
69.2979,75.4624
69.2532,75.3746
69.1978,75.2660
69.1517,75.2025
69.0682,75.0876
69.0682,75.0876
68.9124,74.9318
68.9124,74.9318
68.7340,74.8022
68.7340,74.8022
68.7340,74.8022
68.6711,74.7701
68.5376,74.7021
68.5376,74.7021
68.3280,74.6340
68.1593,74.6073
68.1102,74.5995
68.1102,74.5995
68.0658,74.5995
68.0363,74.5909
68.0064,74.5843
68.0013,74.5806
67.9987,74.5798
67.9781,74.5632
67.8368,74.4219
67.8033,74.3606
67.8005,74.3342
67.8005,73.6237
67.8202,73.5567
67.8730,73.5109
67.9421,73.5010
67.9808,73.5133
68.1302,73.5894
68.2949,73.6429
68.4659,73.6700
68.6025,73.6700
68.6025,72.9200
69.1025,72.9200
69.1025,73.6700
69.2391,73.6700
69.4101,73.6429
69.5748,73.5894
69.7290,73.5108
69.8691,73.4090
69.9915,73.2866
70.0933,73.1465
70.1150,73.1039
70.1630,73.0531
70.2308,73.0363
70.2969,73.0589
70.3404,73.1136
70.3495,73.1602
70.3495,79.1501
70.3298,79.2171
70.2770,79.2629
70.2254,79.2741
33.8748,79.2499
33.8078,79.2302
33.7621,79.1773
33.7509,79.1258
33.7542,73.9898
35.9995,73.9898
35.9995,74.2102
36.0340,74.4280
36.1021,74.6376
36.1021,74.6376
36.2022,74.8340
36.3318,75.0124
36.3318,75.0124
36.4876,75.1682
36.4876,75.1682
36.5997,75.2497
36.6424,75.3050
36.6484,75.3746
36.6158,75.4364
36.5997,75.4503
36.4876,75.5318
36.4876,75.5318
36.3318,75.6876
36.3318,75.6876
36.2022,75.8660
36.1021,76.0624
36.1021,76.0624
36.0340,76.2720
36.0340,76.2720
35.9995,76.4898
35.9995,76.7102
36.0087,76.7685
36.0340,76.9280
36.1021,77.1376
36.1021,77.1376
36.2022,77.3340
36.3318,77.5124
36.3318,77.5124
36.4876,77.6682
36.4876,77.6682
36.5516,77.7147
36.6660,77.7978
36.7944,77.8632
36.8624,77.8979
36.8624,77.8979
36.9672,77.9320
37.0720,77.9660
37.2898,78.0005
37.2898,78.0005
37.5102,78.0005
37.5102,78.0005
37.7280,77.9660
37.9376,77.8979
38.1340,77.7978
38.3124,77.6682
38.4682,77.5124
38.5978,77.3340
38.6979,77.1376
38.7660,76.9280
38.8005,76.7102
38.8005,76.4898
38.7660,76.2720
38.7134,76.1102
38.6979,76.0624
38.6979,76.0624
38.6292,75.9276
38.5978,75.8660
38.5409,75.7877
38.4682,75.6876
38.4682,75.6876
38.3124,75.5318
38.3124,75.5318
38.2003,75.4503
38.1576,75.3950
38.1516,75.3254
38.1842,75.2636
38.2003,75.2497
38.3124,75.1682
38.4682,75.0124
38.5978,74.8340
38.6979,74.6376
38.7660,74.4280
38.8005,74.2102
38.8005,73.9898
42.1995,73.9898
42.1995,74.2102
42.2340,74.4280
42.3021,74.6376
42.3021,74.6376
42.4022,74.8340
42.5318,75.0124
42.5318,75.0124
42.6876,75.1682
42.6876,75.1682
42.7997,75.2497
42.8424,75.3050
42.8484,75.3746
42.8158,75.4364
42.7997,75.4503
42.6876,75.5318
42.6876,75.5318
42.5318,75.6876
42.5318,75.6876
42.4022,75.8660
42.3021,76.0624
42.3021,76.0624
42.2340,76.2720
42.2340,76.2720
42.1995,76.4898
42.1995,76.7102
42.2087,76.7685
42.2340,76.9280
42.3021,77.1376
42.3021,77.1376
42.4022,77.3340
42.5318,77.5124
42.5318,77.5124
42.6876,77.6682
42.6876,77.6682
42.7516,77.7147
42.8660,77.7978
42.9944,77.8632
43.0624,77.8979
43.0624,77.8979
43.1672,77.9320
43.2720,77.9660
43.4898,78.0005
43.4898,78.0005
43.7102,78.0005
43.7102,78.0005
43.9280,77.9660
44.1376,77.8979
44.2882,77.8212
59.8995,77.8212
59.8995,77.9788
59.9303,78.1335
59.9303,78.1335
59.9906,78.2792
59.9906,78.2792
60.0782,78.4103
60.0782,78.4103
60.1897,78.5218
60.1897,78.5218
60.3208,78.6094
60.3208,78.6094
60.4665,78.6697
60.4665,78.6697
60.6212,78.7005
60.6212,78.7005
60.6212,78.7005
60.7788,78.7005
60.7788,78.7005
60.9335,78.6697
61.0792,78.6094
61.2103,78.5218
61.3218,78.4103
61.4094,78.2792
61.4697,78.1335
61.5005,77.9788
61.5005,77.8212
61.5005,77.8212
61.5005,77.8212
61.4959,77.7978
61.4697,77.6665
61.4697,77.6665
61.4094,77.5208
61.4094,77.5208
61.3218,77.3897
61.3218,77.3897
61.2103,77.2782
61.2103,77.2782
61.1036,77.2069
61.0792,77.1906
61.0792,77.1906
60.9335,77.1303
60.9335,77.1303
60.7788,77.0995
60.7788,77.0995
60.6212,77.0995
60.6212,77.0995
60.4665,77.1303
60.4665,77.1303
60.3208,77.1906
60.3208,77.1906
60.1897,77.2782
60.1897,77.2782
60.0782,77.3897
60.0782,77.3897
59.9906,77.5208
59.9906,77.5208
59.9303,77.6665
59.9303,77.6665
59.8995,77.8212
44.2882,77.8212
44.3340,77.7978
44.3851,77.7607
44.4484,77.7147
44.5124,77.6682
44.5124,77.6682
44.5124,77.6682
44.6682,77.5124
44.7978,77.3340
44.8979,77.1376
44.9660,76.9280
45.0005,76.7102
45.0005,76.4898
44.9660,76.2720
44.9134,76.1102
44.8979,76.0624
44.8979,76.0624
44.8292,75.9276
44.7978,75.8660
44.7409,75.7877
44.6682,75.6876
44.6682,75.6876
44.5124,75.5318
44.5124,75.5318
44.4003,75.4503
44.3597,75.3976
50.6995,75.3976
50.6995,75.6024
50.7315,75.8045
50.7948,75.9992
50.8877,76.1816
51.0080,76.3472
51.1528,76.4920
51.3077,76.6046
51.3184,76.6123
51.4346,76.6715
51.5008,76.7052
51.5008,76.7052
51.5008,76.7052
51.5894,76.7340
51.6955,76.7685
51.7922,76.7838
51.8976,76.8005
51.8976,76.8005
52.1024,76.8005
52.1024,76.8005
52.3045,76.7685
52.4992,76.7052
52.6816,76.6123
52.7746,76.5447
52.8472,76.4920
52.8472,76.4920
52.8472,76.4920
52.9920,76.3472
52.9920,76.3472
52.9920,76.3472
53.0466,76.2720
53.1123,76.1816
53.2052,75.9992
53.2685,75.8045
53.3005,75.6024
53.3005,75.3976
54.1995,75.3976
54.1995,75.6024
54.2315,75.8045
54.2948,75.9992
54.3877,76.1816
54.5080,76.3472
54.6528,76.4920
54.8077,76.6046
54.8184,76.6123
54.9346,76.6715
55.0008,76.7052
55.0008,76.7052
55.0008,76.7052
55.0894,76.7340
55.1955,76.7685
55.2922,76.7838
55.3976,76.8005
55.3976,76.8005
55.6024,76.8005
55.6024,76.8005
55.8045,76.7685
55.9992,76.7052
56.1816,76.6123
56.2746,76.5447
56.3472,76.4920
56.3472,76.4920
56.3472,76.4920
56.4920,76.3472
56.4920,76.3472
56.4920,76.3472
56.5466,76.2720
56.6123,76.1816
56.7052,75.9992
56.7685,75.8045
56.8005,75.6024
56.8005,75.3976
56.7685,75.1955
56.7596,75.1682
56.7348,75.0918
56.7052,75.0008
56.7052,75.0008
56.7052,75.0008
56.6700,74.9318
56.6123,74.8184
56.6005,74.8022
56.4920,74.6528
56.3472,74.5080
56.1816,74.3877
56.1816,74.3877
56.1816,74.3877
56.1247,74.3587
55.9992,74.2948
55.8045,74.2315
55.6300,74.2039
55.6024,74.1995
55.3976,74.1995
55.3733,74.2034
55.1955,74.2315
55.0008,74.2948
54.8184,74.3877
54.6528,74.5080
54.5080,74.6528
54.3877,74.8184
54.2948,75.0008
54.2315,75.1955
54.1995,75.3976
53.3005,75.3976
53.2685,75.1955
53.2596,75.1682
53.2348,75.0918
53.2052,75.0008
53.2052,75.0008
53.2052,75.0008
53.1700,74.9318
53.1123,74.8184
53.1005,74.8022
52.9920,74.6528
52.8472,74.5080
52.6816,74.3877
52.6816,74.3877
52.6816,74.3877
52.6247,74.3587
52.4992,74.2948
52.3045,74.2315
52.1300,74.2039
52.1024,74.1995
51.8976,74.1995
51.8733,74.2034
51.6955,74.2315
51.5008,74.2948
51.3184,74.3877
51.1528,74.5080
51.0080,74.6528
50.8877,74.8184
50.7948,75.0008
50.7315,75.1955
50.6995,75.3976
44.3597,75.3976
44.3576,75.3950
44.3516,75.3254
44.3842,75.2636
44.4003,75.2497
44.5124,75.1682
44.6682,75.0124
44.7978,74.8340
44.8979,74.6376
44.9660,74.4280
45.0005,74.2102
45.0005,73.9898
44.9660,73.7720
44.9073,73.5914
44.8979,73.5624
44.8979,73.5624
44.8198,73.4090
44.7978,73.3660
44.7813,73.3432
44.6682,73.1876
44.6682,73.1876
44.5124,73.0318
44.5124,73.0318
44.3340,72.9022
44.3168,72.8934
44.3168,72.8934
44.1376,72.8021
44.1376,72.8021
43.9280,72.7340
43.8191,72.7167
43.7102,72.6995
43.4898,72.6995
43.4172,72.7110
43.2720,72.7340
43.0624,72.8021
43.0624,72.8021
42.8660,72.9022
42.6876,73.0318
42.6876,73.0318
42.5318,73.1876
42.5318,73.1876
42.4022,73.3660
42.3021,73.5624
42.3021,73.5624
42.2340,73.7720
42.1995,73.9898
38.8005,73.9898
38.7660,73.7720
38.7073,73.5914
38.6979,73.5624
38.6979,73.5624
38.6198,73.4090
38.5978,73.3660
38.5813,73.3432
38.4682,73.1876
38.4682,73.1876
38.3124,73.0318
38.3124,73.0318
38.1340,72.9022
38.1340,72.9022
38.1340,72.9022
38.0711,72.8701
37.9376,72.8021
37.9376,72.8021
37.7280,72.7340
37.6191,72.7167
37.5102,72.6995
37.2898,72.6995
37.2172,72.7110
37.0720,72.7340
36.8624,72.8021
36.8624,72.8021
36.6660,72.9022
36.4876,73.0318
36.4876,73.0318
36.3318,73.1876
36.3318,73.1876
36.2022,73.3660
36.1021,73.5624
36.1021,73.5624
36.0340,73.7720
35.9995,73.9898
33.7542,73.9898
33.7751,40.9744
33.7948,40.9074
33.8477,40.8617
33.8991,40.8505
57.9009,40.8505
Z" /> 
<path style="fill:#000000; fill-opacity:1.0000; stroke:none;fill-rule:evenodd;"
d="M 67.6945,63.0197
67.7403,63.0725
67.7502,63.1416
67.7212,63.2052
67.7152,63.2117
67.7135,63.2134
67.6117,63.3535
67.5331,63.5077
67.4796,63.6724
67.4784,63.6800
67.4784,63.6800
68.2575,63.6800
68.2224,63.7151
68.1764,63.7949
68.1525,63.8839
68.1525,63.9761
68.1764,64.0651
68.2224,64.1449
68.2575,64.1800
67.4784,64.1800
67.4796,64.1876
67.5331,64.3523
67.6117,64.5065
67.7135,64.6466
67.8359,64.7690
67.9760,64.8708
68.1302,64.9494
68.2949,65.0029
68.4659,65.0300
68.6025,65.0300
68.6025,64.2800
69.1025,64.2800
69.1025,65.0300
69.2391,65.0300
69.4101,65.0029
69.5748,64.9494
69.7290,64.8708
69.8691,64.7690
69.9915,64.6466
70.0933,64.5065
70.1150,64.4639
70.1630,64.4131
70.2308,64.3963
70.2969,64.4189
70.3404,64.4736
70.3495,64.5202
70.3495,71.9798
70.3298,72.0468
70.2770,72.0926
70.2079,72.1025
70.1443,72.0735
70.1150,72.0361
70.0933,71.9935
69.9915,71.8534
69.8691,71.7310
69.7290,71.6292
69.5748,71.5506
69.4101,71.4971
69.2391,71.4700
69.1025,71.4700
69.1025,72.2200
68.6025,72.2200
68.6025,71.4700
68.4659,71.4700
68.2949,71.4971
68.1302,71.5506
67.9808,71.6267
67.9121,71.6396
67.8474,71.6134
67.8071,71.5563
67.8005,71.5163
67.8005,71.1487
67.8005,71.0819
67.7621,70.8886
67.6993,70.7371
67.6993,70.7371
67.6866,70.7065
67.6866,70.7065
67.5771,70.5427
67.5771,70.5427
67.4378,70.4033
66.7368,69.7023
66.7033,69.6410
66.7005,69.6147
66.7005,69.5212
66.7005,69.5212
66.6697,69.3665
66.6697,69.3665
66.6094,69.2208
66.6094,69.2208
66.5218,69.0897
66.5218,69.0897
66.4103,68.9782
66.4103,68.9782
66.2792,68.8906
66.2792,68.8906
66.1335,68.8303
66.1335,68.8303
65.9788,68.7995
65.9788,68.7995
65.8853,68.7995
65.8183,68.7798
65.7976,68.7632
65.5049,68.4704
65.4714,68.4091
65.4764,68.3394
65.5183,68.2835
65.5237,68.2797
65.6103,68.2218
65.7218,68.1103
65.8094,67.9792
65.8697,67.8335
65.9005,67.6788
65.9005,67.5212
65.9005,67.5212
65.9005,67.5212
65.8966,67.5014
65.8697,67.3665
65.8697,67.3665
65.8680,67.3607
65.8699,67.3601
65.8635,67.2999
65.8947,67.2375
65.8978,67.2343
65.9218,67.2103
66.0094,67.0792
66.0697,66.9335
66.1005,66.7788
66.1005,66.6212
66.1005,66.6212
66.1005,66.6212
66.0926,66.5814
66.0697,66.4665
66.0465,66.4103
66.0094,66.3208
66.0094,66.3208
65.9218,66.1897
65.9218,66.1897
65.8103,66.0782
65.8103,66.0782
65.6792,65.9906
65.6792,65.9906
65.5335,65.9303
65.5335,65.9303
65.3782,65.8994
65.3162,65.8670
65.3147,65.8654
64.4488,64.9996
64.4153,64.9383
64.4125,64.9119
64.4125,64.2800
64.9125,64.2800
64.9125,65.0300
65.1491,65.0300
65.3201,65.0029
65.4848,64.9494
65.6390,64.8708
65.7791,64.7690
65.9015,64.6466
66.0033,64.5065
66.0819,64.3523
66.1354,64.1876
66.1366,64.1800
65.4075,64.1800
65.4426,64.1449
65.4886,64.0651
65.5125,63.9761
65.5125,63.8839
65.4886,63.7949
65.4426,63.7151
65.4075,63.6800
66.1366,63.6800
66.1366,63.6800
66.1354,63.6724
66.0819,63.5077
66.0033,63.3535
65.9015,63.2134
65.8998,63.2117
65.8994,63.2109
65.8984,63.2097
65.8986,63.2095
65.8663,63.1504
65.8713,63.0807
65.9132,63.0247
65.9787,63.0003
65.9875,63.0000
67.6275,63.0000
Z" /> 
<path style="fill:#000000; fill-opacity:1.0000; stroke:none;fill-rule:evenodd;"
d="M 61.3057,43.7554
61.3122,43.7614
62.4632,44.9124
62.4967,44.9737
62.4995,45.0001
62.4995,60.1892
62.4798,60.2563
62.4270,60.3020
62.3579,60.3120
62.3066,60.2923
62.2292,60.2406
62.2292,60.2406
62.0835,60.1803
62.0835,60.1803
61.9288,60.1495
61.9288,60.1495
61.7712,60.1495
61.7712,60.1495
61.6165,60.1803
61.6165,60.1803
61.4708,60.2406
61.4708,60.2406
61.3397,60.3282
61.3397,60.3282
61.2282,60.4397
61.2282,60.4397
61.1406,60.5708
61.1406,60.5708
61.0803,60.7165
61.0803,60.7165
61.0495,60.8712
61.0495,61.0288
61.0803,61.1835
61.0803,61.1835
61.1406,61.3292
61.1406,61.3292
61.2282,61.4603
61.2282,61.4603
61.3397,61.5718
61.3397,61.5718
61.4708,61.6594
61.4708,61.6594
61.6165,61.7197
61.6165,61.7197
61.7712,61.7505
61.7712,61.7505
61.8009,61.7505
61.8679,61.7702
61.9137,61.8230
61.9236,61.8921
61.8946,61.9557
61.8886,61.9622
61.6195,62.2313
61.6195,62.2313
61.5694,62.3181
61.5694,62.3181
61.5404,62.3682
61.5404,62.3682
61.5316,62.4010
61.4995,62.5209
61.4995,62.5209
61.4995,62.6890
61.4995,62.6891
61.4995,64.5133
61.4995,64.5133
61.4995,64.6791
61.4995,64.6791
61.5007,64.6835
61.5397,64.8292
61.5425,64.8396
61.5402,64.8403
61.5463,64.8975
61.5151,64.9600
61.4550,64.9956
61.4243,64.9995
59.9015,64.9995
59.7082,65.0379
59.7082,65.0379
59.5261,65.1134
59.5261,65.1134
59.3622,65.2229
59.3622,65.2229
59.2229,65.3622
59.2229,65.3622
59.1134,65.5261
59.1134,65.5261
59.0379,65.7082
59.0379,65.7082
58.9995,65.9015
58.9995,65.9015
58.9995,66.0985
58.9995,66.0985
58.9995,66.0985
59.0379,66.2918
59.0379,66.2918
59.1134,66.4739
59.1134,66.4739
59.2229,66.6378
59.2229,66.6378
59.3622,66.7771
59.3622,66.7771
59.5261,66.8866
59.5261,66.8866
59.7082,66.9620
59.7082,66.9621
59.7082,66.9621
59.7082,66.9621
59.9015,67.0005
59.9015,67.0005
61.1538,67.0005
61.2208,67.0202
61.2414,67.0368
63.0314,68.8268
63.0649,68.8881
63.0599,68.9578
63.0181,69.0138
62.9526,69.0382
62.9438,69.0385
53.4101,69.0385
53.3431,69.0188
53.2973,68.9660
53.2874,68.8969
53.3164,68.8333
53.3224,68.8268
53.3861,68.7632
53.8147,68.3346
53.8760,68.3011
53.8782,68.3006
53.8788,68.3005
53.8788,68.3005
54.0335,68.2697
54.1792,68.2094
54.3103,68.1218
54.4218,68.0103
54.5094,67.8792
54.5697,67.7335
54.6005,67.5788
54.6005,67.4212
54.6005,67.4212
54.6005,67.4212
54.5885,67.3607
54.5697,67.2665
54.5613,67.2460
54.5094,67.1208
54.5094,67.1208
54.4218,66.9897
54.4218,66.9897
54.3103,66.8782
54.3103,66.8782
54.1792,66.7906
54.1792,66.7906
54.0335,66.7303
54.0335,66.7303
53.8788,66.6995
53.8788,66.6995
53.7212,66.6995
53.7212,66.6995
53.5665,66.7303
53.5665,66.7303
53.4208,66.7906
53.4208,66.7906
53.2897,66.8782
53.2897,66.8782
53.1782,66.9897
53.1782,66.9897
53.0906,67.1208
53.0906,67.1208
53.0303,67.2665
53.0303,67.2665
52.9994,67.4218
52.9670,67.4838
52.9654,67.4853
51.9876,68.4632
51.9263,68.4967
51.8999,68.4995
49.9218,68.4995
49.9006,68.4933
49.8785,68.4917
49.8677,68.4836
49.8548,68.4798
49.8403,68.4631
49.8225,68.4498
49.8178,68.4372
49.8090,68.4270
49.8059,68.4051
49.7981,68.3843
49.8010,68.3712
49.7991,68.3579
49.8083,68.3377
49.8130,68.3161
49.8262,68.2983
49.8281,68.2943
49.8341,68.2878
50.0026,68.1193
50.0639,68.0859
50.0661,68.0854
50.1240,68.0739
50.2214,68.0545
50.3671,67.9942
50.4982,67.9066
50.6097,67.7951
50.6973,67.6639
50.7577,67.5183
50.7884,67.3636
50.7884,67.2059
50.7884,67.2059
50.7884,67.2059
50.7718,67.1224
50.7577,67.0513
50.7517,67.0368
50.6973,66.9056
50.6973,66.9056
50.6097,66.7745
50.6097,66.7745
50.4982,66.6630
50.4982,66.6630
50.3671,66.5754
50.3671,66.5754
50.2214,66.5150
50.2214,66.5150
50.0668,66.4843
50.0668,66.4843
49.9091,66.4843
49.9091,66.4843
49.7545,66.5150
49.7544,66.5150
49.6088,66.5754
49.6088,66.5754
49.4777,66.6630
49.4777,66.6630
49.3662,66.7745
49.3662,66.7745
49.2786,66.9056
49.2786,66.9056
49.2182,67.0513
49.2182,67.0513
49.1873,67.2066
49.1549,67.2685
49.1534,67.2701
48.3613,68.0622
48.3000,68.0957
48.2736,68.0985
47.6869,68.0985
47.6198,68.0788
47.5741,68.0260
47.5641,67.9569
47.5682,67.9385
47.5697,67.9335
47.5697,67.9335
47.6005,67.7788
47.6005,67.6212
47.6005,67.6212
47.6005,67.6212
47.5697,67.4665
47.5556,67.4325
47.5094,67.3208
47.5094,67.3208
47.4214,67.1891
47.4005,67.1224
47.4005,67.1202
47.4005,61.6866
47.4202,61.6195
47.4730,61.5738
47.5421,61.5638
47.5604,61.5688
47.5607,61.5680
47.5665,61.5697
47.5665,61.5697
47.7212,61.6005
47.7212,61.6005
47.7212,61.6005
47.8788,61.6005
47.8788,61.6005
48.0335,61.5697
48.1462,61.5231
48.1792,61.5094
48.1792,61.5094
48.1792,61.5094
48.3103,61.4218
48.4218,61.3103
48.5094,61.1792
48.5697,61.0335
48.6005,60.8788
48.6005,60.7212
48.6005,60.7212
48.6005,60.7212
48.5706,60.5708
48.5697,60.5665
48.5344,60.4812
48.5094,60.4208
48.5094,60.4208
48.4218,60.2897
48.4218,60.2897
48.3103,60.1782
48.3103,60.1782
48.1792,60.0906
48.1792,60.0906
48.0335,60.0303
48.0335,60.0303
47.8788,59.9995
47.8788,59.9995
47.7212,59.9995
47.7212,59.9995
47.5665,60.0303
47.5607,60.0320
47.5599,60.0294
47.5021,60.0354
47.4397,60.0039
47.4042,59.9437
47.4005,59.9134
47.4005,59.3001
47.4202,59.2331
47.4368,59.2124
48.0647,58.5846
48.1260,58.5511
48.1281,58.5506
48.1861,58.5391
48.2835,58.5197
48.4292,58.4594
48.5603,58.3718
48.6718,58.2603
48.7594,58.1292
48.8197,57.9835
48.8505,57.8288
48.8505,57.8245
48.8702,57.7575
48.9230,57.7117
48.9745,57.7005
48.9788,57.7005
48.9788,57.7005
49.1335,57.6697
49.2792,57.6094
49.4103,57.5218
49.5218,57.4103
49.6094,57.2792
49.6697,57.1335
49.7005,56.9788
49.7005,56.8212
49.7005,56.8212
49.7005,56.8212
49.6697,56.6665
49.6697,56.6665
49.6137,56.5313
49.6094,56.5208
49.6094,56.5208
49.5218,56.3897
49.5218,56.3897
49.4103,56.2782
49.4103,56.2782
49.2792,56.1906
49.2792,56.1906
49.1335,56.1303
49.1335,56.1303
48.9788,56.0995
48.9788,56.0995
48.8212,56.0995
48.8212,56.0995
48.6665,56.1303
48.6665,56.1303
48.5208,56.1906
48.5208,56.1906
48.3891,56.2786
48.3224,56.2995
48.3202,56.2995
47.5209,56.2995
47.4800,56.3105
47.4800,56.3105
47.4428,56.3205
47.3682,56.3404
47.3682,56.3404
47.2313,56.4195
47.2313,56.4195
46.2136,57.4371
46.1523,57.4706
46.0826,57.4656
46.0267,57.4237
46.0023,57.3583
46.0020,57.3494
46.0020,52.9516
46.0216,52.8845
46.0383,52.8639
46.7131,52.1890
46.7744,52.1556
46.8441,52.1606
46.8482,52.1622
46.8665,52.1697
47.0212,52.2005
47.0212,52.2005
47.0212,52.2005
47.1788,52.2005
47.1788,52.2005
47.3335,52.1697
47.4792,52.1094
47.6103,52.0218
47.7218,51.9103
47.8094,51.7792
47.8697,51.6335
47.9005,51.4788
47.9005,51.3212
47.9005,51.3212
47.9005,51.3212
47.8842,51.2392
47.8697,51.1665
47.8424,51.1005
47.8094,51.0208
47.8094,51.0208
47.7218,50.8897
47.7218,50.8897
47.6103,50.7782
47.6103,50.7782
47.4792,50.6906
47.4792,50.6906
47.3335,50.6303
47.3335,50.6303
47.1788,50.5995
47.1788,50.5995
47.1745,50.5995
47.1075,50.5798
47.0617,50.5270
47.0505,50.4755
47.0505,50.3712
47.0505,50.3712
47.0407,50.3218
47.0197,50.2165
46.9972,50.1620
46.9594,50.0708
46.9594,50.0708
46.8742,49.9434
46.8534,49.8767
46.8719,49.8093
46.9238,49.7626
46.9774,49.7505
51.0255,49.7505
51.0925,49.7702
51.1383,49.8230
51.1495,49.8745
51.1495,53.4181
51.1298,53.4851
51.0770,53.5309
51.0079,53.5408
50.9443,53.5118
50.9378,53.5057
49.2103,51.7782
49.2103,51.7782
49.0792,51.6906
49.0792,51.6906
48.9335,51.6303
48.9335,51.6303
48.7788,51.5995
48.7788,51.5995
48.6212,51.5995
48.6212,51.5995
48.4665,51.6303
48.4665,51.6303
48.3208,51.6906
48.3208,51.6906
48.1897,51.7782
48.1897,51.7782
48.0782,51.8897
48.0782,51.8897
47.9906,52.0208
47.9906,52.0208
47.9303,52.1665
47.9303,52.1665
47.8995,52.3212
47.8995,52.4788
47.9303,52.6335
47.9303,52.6335
47.9906,52.7792
47.9906,52.7792
48.0782,52.9103
48.0782,52.9103
51.1132,55.9453
51.1467,56.0066
51.1495,56.0329
51.1495,61.4051
51.1298,61.4721
51.0770,61.5179
51.0079,61.5278
50.9566,61.5082
50.8817,61.4581
50.8817,61.4581
50.7360,61.3978
50.7360,61.3978
50.5813,61.3670
50.5813,61.3670
50.4237,61.3670
50.4237,61.3670
50.2690,61.3978
50.2690,61.3978
50.1233,61.4581
50.1233,61.4581
49.9922,61.5457
49.9922,61.5457
49.8807,61.6572
49.8807,61.6572
49.7931,61.7883
49.7931,61.7883
49.7328,61.9340
49.7328,61.9340
49.7020,62.0887
49.7020,62.2463
49.7328,62.4010
49.7328,62.4010
49.7931,62.5467
49.7931,62.5467
49.8807,62.6778
49.8807,62.6778
49.9922,62.7893
49.9922,62.7893
50.1233,62.8769
50.1233,62.8769
50.2546,62.9313
50.2690,62.9372
50.4237,62.9680
50.4237,62.9680
50.4237,62.9680
50.5813,62.9680
50.5813,62.9680
50.7360,62.9372
50.8817,62.8769
50.9566,62.8268
51.0233,62.8059
51.0907,62.8244
51.1374,62.8764
51.1495,62.9299
51.1495,63.8288
51.1803,63.9835
51.1803,63.9835
51.2406,64.1292
51.2406,64.1292
51.3282,64.2603
51.3282,64.2603
51.6782,64.6103
52.1397,65.0718
52.1397,65.0718
52.2708,65.1594
52.2708,65.1594
52.2708,65.1594
52.4165,65.2197
52.5712,65.2505
52.5712,65.2505
52.5712,65.2505
52.7288,65.2505
52.7288,65.2505
52.8835,65.2197
53.0292,65.1594
53.1603,65.0718
53.2718,64.9603
53.3594,64.8292
53.4197,64.6835
53.4505,64.5288
53.4505,64.3712
53.4197,64.2165
53.3594,64.0708
53.3594,64.0708
53.3594,64.0708
53.2718,63.9397
53.2718,63.9397
52.8103,63.4782
52.7868,63.4547
52.7533,63.3934
52.7505,63.3671
52.7505,50.5914
55.4320,50.5914
55.4608,50.7364
55.4608,50.7364
55.5174,50.8730
55.5174,50.8730
55.5995,50.9959
55.5996,50.9959
55.7041,51.1004
55.7041,51.1005
55.8270,51.1826
55.8270,51.1826
55.9636,51.2392
55.9636,51.2392
55.9636,51.2392
55.9636,51.2392
56.1086,51.2680
56.1086,51.2680
56.2564,51.2680
56.3540,51.2486
56.4014,51.2392
56.5380,51.1826
56.6609,51.1005
56.7655,50.9959
56.8476,50.8730
56.9042,50.7364
56.9253,50.6303
56.9330,50.5914
56.9330,50.4436
56.9042,50.2986
56.9042,50.2986
56.9042,50.2986
56.8676,50.2103
56.8476,50.1620
56.8476,50.1620
56.7655,50.0391
56.7654,50.0391
56.6609,49.9346
56.6609,49.9345
56.5380,49.8524
56.5380,49.8524
56.4014,49.7958
56.4014,49.7958
56.2564,49.7670
56.2564,49.7670
56.1086,49.7670
56.1086,49.7670
55.9636,49.7958
55.9636,49.7958
55.8270,49.8524
55.8270,49.8524
55.7041,49.9345
55.7041,49.9346
55.5996,50.0391
55.5995,50.0391
55.5174,50.1620
55.5174,50.1620
55.4608,50.2986
55.4608,50.2986
55.4320,50.4436
55.4320,50.4436
55.4320,50.5914
55.4320,50.5914
55.4320,50.5914
52.7505,50.5914
52.7505,49.3329
52.7702,49.2659
52.7868,49.2453
54.2953,47.7368
54.3566,47.7033
54.3829,47.7005
57.2788,47.7005
57.2788,47.7005
57.4335,47.6697
57.5792,47.6094
57.7103,47.5218
60.9218,44.3103
61.0094,44.1792
61.0697,44.0335
61.1005,43.8788
61.1005,43.8491
61.1202,43.7821
61.1730,43.7363
61.2421,43.7264
Z" /> 
<path style="fill:#000000; fill-opacity:1.0000; stroke:none;fill-rule:evenodd;"
d="M 43.2188,55.7158
43.2748,55.7576
43.2992,55.8231
43.2995,55.8319
43.2995,67.4325
43.2798,67.4995
43.2786,67.5013
43.2673,67.5183
43.2289,67.5758
43.2288,67.5758
43.1685,67.7215
43.1685,67.7215
43.1377,67.8762
43.1377,67.9745
43.1181,68.0415
43.0653,68.0873
43.0137,68.0985
42.1869,68.0985
42.1198,68.0788
42.0741,68.0260
42.0641,67.9569
42.0682,67.9385
42.0697,67.9335
42.0697,67.9335
42.1005,67.7788
42.1005,67.6212
42.1005,67.6212
42.1005,67.6212
42.0697,67.4665
42.0556,67.4325
42.0094,67.3208
42.0094,67.3208
41.9218,67.1897
41.9218,67.1897
41.8103,67.0782
41.8103,67.0782
41.6792,66.9906
41.6792,66.9906
41.5335,66.9303
41.5335,66.9303
41.3788,66.8995
41.3788,66.8995
41.2212,66.8995
41.2212,66.8995
41.0665,66.9303
41.0665,66.9303
40.9208,66.9906
40.9208,66.9906
40.7897,67.0782
40.7897,67.0782
40.6782,67.1897
40.6531,67.2272
40.5995,67.2720
40.5302,67.2807
40.4672,67.2506
40.4624,67.2460
40.0368,66.8205
40.0221,66.7936
40.0055,66.7677
40.0046,66.7615
40.0033,66.7592
40.0005,66.7328
40.0005,66.6942
40.0202,66.6271
40.0730,66.5814
40.1421,66.5714
40.1934,66.5911
40.2208,66.6094
40.3238,66.6521
40.3665,66.6697
40.4893,66.6942
40.5212,66.7005
40.5212,66.7005
40.5212,66.7005
40.6788,66.7005
40.6788,66.7005
40.8335,66.6697
40.9792,66.6094
41.1103,66.5218
41.2218,66.4103
41.3094,66.2792
41.3697,66.1335
41.4005,65.9788
41.4005,65.8212
41.3983,65.8103
41.3780,65.7082
41.3697,65.6665
41.3697,65.6665
41.3697,65.6665
41.3550,65.6310
41.3388,65.5919
41.3388,65.5919
41.3265,65.5620
41.3190,65.4925
41.3503,65.4301
41.4104,65.3944
41.4168,65.3929
41.4724,65.3819
41.5335,65.3697
41.6792,65.3094
41.8103,65.2218
41.9218,65.1103
42.0094,64.9792
42.0697,64.8335
42.1005,64.6788
42.1005,64.5212
42.1005,64.5212
42.1005,64.5212
42.0910,64.4736
42.0697,64.3665
42.0561,64.3337
42.0094,64.2208
42.0094,64.2208
41.9218,64.0897
41.9218,64.0897
41.8103,63.9782
41.8103,63.9782
41.6792,63.8906
41.6792,63.8906
41.5335,63.8303
41.5335,63.8303
41.4003,63.8038
41.3384,63.7714
41.3038,63.7107
41.3005,63.6822
41.3005,57.5829
41.3202,57.5159
41.3368,57.4953
43.0878,55.7443
43.1491,55.7108
Z" /> 
<path style="fill:#000000; fill-opacity:1.0000; stroke:none;fill-rule:evenodd;"
d="M 40.5057,47.5382
40.5122,47.5443
41.5980,48.6301
41.6315,48.6914
41.6265,48.7611
41.6134,48.7867
41.5906,48.8208
41.5906,48.8208
41.5303,48.9665
41.5303,48.9665
41.4995,49.1212
41.4995,49.2788
41.5287,49.4258
41.5287,49.4742
41.4995,49.6212
41.4995,49.7788
41.5303,49.9335
41.5303,49.9335
41.5906,50.0792
41.5906,50.0792
41.6782,50.2103
41.6782,50.2103
41.7897,50.3218
41.7897,50.3218
41.9208,50.4094
41.9208,50.4094
42.0665,50.4697
42.0665,50.4697
42.1497,50.4863
42.2116,50.5187
42.2462,50.5794
42.2495,50.6079
42.2495,54.2671
42.2298,54.3341
42.2132,54.3547
40.7054,55.8625
40.6441,55.8960
40.5744,55.8910
40.5184,55.8492
40.4961,55.7990
40.4785,55.7108
40.4697,55.6665
40.4336,55.5792
40.4094,55.5208
40.4094,55.5208
40.3214,55.3891
40.3005,55.3224
40.3005,55.3202
40.3005,47.6319
40.3202,47.5649
40.3730,47.5191
40.4421,47.5092
Z" /> 
<path style="fill:#000000; fill-opacity:1.0000; stroke:none;fill-rule:evenodd;"
d="M 41.4971,43.6510
41.5196,43.6688
43.8151,45.9644
43.8151,45.9644
43.8195,45.9687
43.8195,45.9687
43.9313,46.0805
44.0174,46.1303
44.0682,46.1596
44.2209,46.2005
44.2209,46.2005
53.2681,46.2005
53.3351,46.2202
53.3809,46.2730
53.3908,46.3421
53.3618,46.4057
53.3557,46.4122
51.6547,48.1132
51.5934,48.1467
51.5671,48.1495
47.4783,48.1495
47.4112,48.1298
47.3655,48.0770
47.3555,48.0079
47.3846,47.9443
47.4056,47.9257
47.4056,47.9257
47.4071,47.9244
47.4094,47.9224
47.4103,47.9218
47.5218,47.8103
47.6094,47.6792
47.6697,47.5335
47.7005,47.3788
47.7005,47.2212
47.7005,47.2212
47.7005,47.2212
47.6697,47.0665
47.6697,47.0665
47.6697,47.0665
47.6094,46.9208
47.6094,46.9208
47.5218,46.7897
47.5218,46.7897
47.4103,46.6782
47.4103,46.6782
47.2792,46.5906
47.2792,46.5906
47.1335,46.5303
47.1335,46.5303
46.9788,46.4995
46.9788,46.4995
46.8212,46.4995
46.8212,46.4995
46.6665,46.5303
46.6665,46.5303
46.5208,46.5906
46.5208,46.5906
46.3897,46.6782
46.3897,46.6782
46.2782,46.7897
46.2782,46.7897
46.1906,46.9208
46.1906,46.9208
46.1303,47.0665
46.1303,47.0665
46.0995,47.2212
46.0995,47.3788
46.1303,47.5335
46.1303,47.5335
46.1906,47.6792
46.1906,47.6792
46.2782,47.8103
46.2782,47.8103
46.3897,47.9218
46.3906,47.9224
46.3910,47.9228
46.3944,47.9257
46.3939,47.9263
46.4354,47.9760
46.4441,48.0453
46.4140,48.1084
46.3545,48.1451
46.3217,48.1495
43.4329,48.1495
43.3659,48.1298
43.3453,48.1132
41.8325,46.6004
41.7990,46.5391
41.7986,46.4885
41.8005,46.4788
41.8005,46.3212
41.8005,46.3212
41.8005,46.3212
41.7920,46.2782
41.7697,46.1665
41.7547,46.1303
41.7094,46.0208
41.7094,46.0208
41.6218,45.8897
41.6218,45.8897
41.5103,45.7782
41.5103,45.7782
41.3792,45.6906
41.3792,45.6906
41.2335,45.6303
41.2335,45.6303
41.0788,45.5995
41.0788,45.5995
40.9212,45.5995
40.9212,45.5995
40.7665,45.6303
40.7665,45.6303
40.6208,45.6906
40.6208,45.6906
40.4934,45.7758
40.4267,45.7966
40.3593,45.7781
40.3126,45.7262
40.3005,45.6726
40.3005,44.5001
40.3202,44.4331
40.3368,44.4124
40.6251,44.1241
40.9147,43.8346
40.9760,43.8011
40.9781,43.8006
41.0361,43.7891
41.1335,43.7697
41.2792,43.7094
41.3630,43.6534
41.4297,43.6325
Z" /> 
<path style="fill:#000000; fill-opacity:1.0000; stroke:none;fill-rule:evenodd;"
d="M 64.3930,40.8702
64.4388,40.9230
64.4500,40.9745
64.4500,44.0014
64.4303,44.0684
64.3775,44.1142
64.3084,44.1241
64.2448,44.0951
64.2383,44.0891
61.2876,41.1384
61.2805,41.1313
61.2805,41.1313
61.2114,41.0622
61.1898,41.0225
61.1779,41.0009
61.1829,40.9312
61.2069,40.8992
61.2248,40.8752
61.2725,40.8574
61.2903,40.8508
61.2991,40.8505
64.3260,40.8505
Z" /> 
</g> 
</svg>
