<?xml version="1.0" standalone="no"?>
 <!DOCTYPE svg PUBLIC "-//W3C//DTD SVG 1.1//EN" 
 "http://www.w3.org/Graphics/SVG/1.1/DTD/svg11.dtd"> 
<svg
  xmlns:svg="http://www.w3.org/2000/svg"
  xmlns="http://www.w3.org/2000/svg"
  xmlns:xlink="http://www.w3.org/1999/xlink"
  version="1.1"
  width="297.0022mm" height="210.0072mm" viewBox="0.0000 0.0000 297.0022 210.0072">
<title>SVG Image created as default-B_Cu.svg date 2025/06/02 11:08:05 </title>
  <desc>Image generated by PCBNEW </desc>
<g style="fill:#000000; fill-opacity:1.0000;stroke:#000000; stroke-opacity:1.0000;
stroke-linecap:round; stroke-linejoin:round;"
 transform="translate(0 0) scale(1 1)">
</g>
<g style="fill:#000000; fill-opacity:1.0000; stroke:none;">
<circle cx="43.6000" cy="76.6000" r="0.9000" /> 
</g>
<g style="fill:#000000; fill-opacity:1.0000; stroke:none;">
<circle cx="43.6000" cy="74.1000" r="0.9000" /> 
</g>
<g style="fill:#000000; fill-opacity:1.0000; stroke:none;">
<circle cx="56.1825" cy="50.5175" r="0.2500" /> 
</g>
<g style="fill:#000000; fill-opacity:1.0000; stroke:none;">
<circle cx="56.1825" cy="50.5175" r="0.2500" /> 
</g>
<g style="fill:#000000; fill-opacity:1.0000; stroke:none;">
<circle cx="56.1825" cy="50.5175" r="0.2500" /> 
</g>
<g style="fill:#000000; fill-opacity:1.0000; stroke:none;">
<circle cx="56.1825" cy="50.5175" r="0.2500" /> 
</g>
<g style="fill:#000000; fill-opacity:1.0000; stroke:none;">
<circle cx="56.1825" cy="50.5175" r="0.2500" /> 
</g>
<g style="fill:#000000; fill-opacity:1.0000; stroke:none;">
<circle cx="56.1825" cy="50.5175" r="0.2500" /> 
</g>
<g style="fill:#000000; fill-opacity:1.0000; stroke:none;">
<circle cx="56.1825" cy="50.5175" r="0.2500" /> 
</g>
<g style="fill:#000000; fill-opacity:1.0000; stroke:none;">
<circle cx="56.1825" cy="50.5175" r="0.2500" /> 
</g>
<g style="fill:#000000; fill-opacity:1.0000; stroke:none;">
<circle cx="56.1825" cy="50.5175" r="0.2500" /> 
</g>
<g style="fill:#000000; fill-opacity:1.0000; stroke:none;">
<circle cx="56.1825" cy="50.5175" r="0.2500" /> 
</g>
<g style="fill:#000000; fill-opacity:1.0000; stroke:none;">
<circle cx="56.1825" cy="50.5175" r="0.2500" /> 
</g>
<g style="fill:#000000; fill-opacity:1.0000; stroke:none;">
<circle cx="56.1825" cy="50.5175" r="0.2500" /> 
</g>
<g style="fill:#000000; fill-opacity:1.0000; stroke:none;">
<circle cx="37.4000" cy="76.6000" r="0.9000" /> 
</g>
<g style="fill:#000000; fill-opacity:1.0000; stroke:none;">
<circle cx="37.4000" cy="74.1000" r="0.9000" /> 
</g>
<g style="fill:#000000; fill-opacity:1.0000; stroke:none;">
<circle cx="68.0000" cy="76.0000" r="0.9000" /> 
</g>
<g style="fill:#000000; fill-opacity:1.0000; stroke:none;">
<circle cx="65.5000" cy="76.0000" r="0.9000" /> 
</g>
<g style="fill:#000000; fill-opacity:1.0000; stroke:none;">
<circle cx="52.0000" cy="75.5000" r="0.8000" /> 
</g>
<g style="fill:#000000; fill-opacity:1.0000; stroke:none;">
<circle cx="55.5000" cy="75.5000" r="0.8000" /> 
</g>
<g style="fill:#000000; fill-opacity:1.0000; stroke:none;">
<circle cx="65.2025" cy="71.1400" r="0.3500" /> 
</g>
<g style="fill:#000000; fill-opacity:1.0000; stroke:none;">
<circle cx="65.2025" cy="71.1400" r="0.3500" /> 
</g>
<g style="fill:none; 
stroke:#000000; stroke-width:1.2000; stroke-opacity:1; 
stroke-linecap:round; stroke-linejoin:round;">
<path d="M64.2625 72.5700
L65.0625 72.5700
" />
<path d="M64.2625 63.9300
L65.0625 63.9300
" />
<path d="M68.5525 72.5700
L69.1525 72.5700
" />
<path d="M68.5525 63.9300
L69.1525 63.9300
" />
<path style="fill:#000000; fill-opacity:1.0000; stroke:none;fill-rule:evenodd;"
d="M 49.5400,53.7250
49.5400,52.3750
50.9500,52.3750
50.9500,53.7250
Z" /> 
<path style="fill:#000000; fill-opacity:1.0000; stroke:none;fill-rule:evenodd;"
d="M 51.5400,53.7250
51.5400,52.3750
52.9500,52.3750
52.9500,53.7250
Z" /> 
<path style="fill:#000000; fill-opacity:1.0000; stroke:none;fill-rule:evenodd;"
d="M 34.7000,49.8000
35.5000,49.8000
35.5000,51.8000
34.7000,51.8000
Z" /> 
<path style="fill:#000000; fill-opacity:1.0000; stroke:none;fill-rule:evenodd;"
d="M 36.8000,51.7000
36.8000,52.5000
36.0000,52.5000
36.0000,51.7000
Z" /> 
<path style="fill:#000000; fill-opacity:1.0000; stroke:none;fill-rule:evenodd;"
d="M 37.3000,49.8000
38.1000,49.8000
38.1000,51.8000
37.3000,51.8000
Z" /> 
<path style="fill:#000000; fill-opacity:1.0000; stroke:none;fill-rule:evenodd;"
d="M 36.8000,49.9000
36.0000,49.9000
36.0000,49.1000
36.8000,49.1000
Z" /> 
<path style="fill:#000000; fill-opacity:1.0000; stroke:none;fill-rule:evenodd;"
d="M 45.9300,52.2550
46.4700,52.2550
46.4700,52.8250
45.9300,52.8250
Z" /> 
<path style="fill:#000000; fill-opacity:1.0000; stroke:none;fill-rule:evenodd;"
d="M 45.9300,53.1150
46.4700,53.1150
46.4700,53.6850
45.9300,53.6850
Z" /> 
<path style="fill:#000000; fill-opacity:1.0000; stroke:none;fill-rule:evenodd;"
d="M 35.9000,56.0500
35.0000,56.0500
35.0000,54.2500
35.9000,54.2500
Z" /> 
<path style="fill:#000000; fill-opacity:1.0000; stroke:none;fill-rule:evenodd;"
d="M 37.1700,56.0500
36.2700,56.0500
36.2700,54.2500
37.1700,54.2500
Z" /> 
<path style="fill:#000000; fill-opacity:1.0000; stroke:none;fill-rule:evenodd;"
d="M 38.4400,56.0500
37.5400,56.0500
37.5400,54.2500
38.4400,54.2500
Z" /> 
<path style="fill:#000000; fill-opacity:1.0000; stroke:none;fill-rule:evenodd;"
d="M 44.0100,56.0500
43.1100,56.0500
43.1100,54.2500
44.0100,54.2500
Z" /> 
<path style="fill:#000000; fill-opacity:1.0000; stroke:none;fill-rule:evenodd;"
d="M 45.2800,56.0500
44.3800,56.0500
44.3800,54.2500
45.2800,54.2500
Z" /> 
<path style="fill:#000000; fill-opacity:1.0000; stroke:none;fill-rule:evenodd;"
d="M 46.5500,56.0500
45.6500,56.0500
45.6500,54.2500
46.5500,54.2500
Z" /> 
<path style="fill:#000000; fill-opacity:1.0000; stroke:none;fill-rule:evenodd;"
d="M 47.8200,56.0500
46.9200,56.0500
46.9200,54.2500
47.8200,54.2500
Z" /> 
<path style="fill:#000000; fill-opacity:1.0000; stroke:none;fill-rule:evenodd;"
d="M 49.0900,56.0500
48.1900,56.0500
48.1900,54.2500
49.0900,54.2500
Z" /> 
<path style="fill:#000000; fill-opacity:1.0000; stroke:none;fill-rule:evenodd;"
d="M 50.3600,56.0500
49.4600,56.0500
49.4600,54.2500
50.3600,54.2500
Z" /> 
<path style="fill:#000000; fill-opacity:1.0000; stroke:none;fill-rule:evenodd;"
d="M 51.6300,56.0500
50.7300,56.0500
50.7300,54.2500
51.6300,54.2500
Z" /> 
<path style="fill:#000000; fill-opacity:1.0000; stroke:none;fill-rule:evenodd;"
d="M 52.9000,56.0500
52.0000,56.0500
52.0000,54.2500
52.9000,54.2500
Z" /> 
<path style="fill:#000000; fill-opacity:1.0000; stroke:none;fill-rule:evenodd;"
d="M 52.9000,70.0500
52.0000,70.0500
52.0000,68.2500
52.9000,68.2500
Z" /> 
<path style="fill:#000000; fill-opacity:1.0000; stroke:none;fill-rule:evenodd;"
d="M 51.6300,70.0500
50.7300,70.0500
50.7300,68.2500
51.6300,68.2500
Z" /> 
<path style="fill:#000000; fill-opacity:1.0000; stroke:none;fill-rule:evenodd;"
d="M 50.3600,70.0500
49.4600,70.0500
49.4600,68.2500
50.3600,68.2500
Z" /> 
<path style="fill:#000000; fill-opacity:1.0000; stroke:none;fill-rule:evenodd;"
d="M 49.0900,70.0500
48.1900,70.0500
48.1900,68.2500
49.0900,68.2500
Z" /> 
<path style="fill:#000000; fill-opacity:1.0000; stroke:none;fill-rule:evenodd;"
d="M 47.8200,70.0500
46.9200,70.0500
46.9200,68.2500
47.8200,68.2500
Z" /> 
<path style="fill:#000000; fill-opacity:1.0000; stroke:none;fill-rule:evenodd;"
d="M 46.5500,70.0500
45.6500,70.0500
45.6500,68.2500
46.5500,68.2500
Z" /> 
<path style="fill:#000000; fill-opacity:1.0000; stroke:none;fill-rule:evenodd;"
d="M 45.2800,70.0500
44.3800,70.0500
44.3800,68.2500
45.2800,68.2500
Z" /> 
<path style="fill:#000000; fill-opacity:1.0000; stroke:none;fill-rule:evenodd;"
d="M 44.0100,70.0500
43.1100,70.0500
43.1100,68.2500
44.0100,68.2500
Z" /> 
<path style="fill:#000000; fill-opacity:1.0000; stroke:none;fill-rule:evenodd;"
d="M 38.4400,70.0500
37.5400,70.0500
37.5400,68.2500
38.4400,68.2500
Z" /> 
<path style="fill:#000000; fill-opacity:1.0000; stroke:none;fill-rule:evenodd;"
d="M 37.1700,70.0500
36.2700,70.0500
36.2700,68.2500
37.1700,68.2500
Z" /> 
<path style="fill:#000000; fill-opacity:1.0000; stroke:none;fill-rule:evenodd;"
d="M 35.9000,70.0500
35.0000,70.0500
35.0000,68.2500
35.9000,68.2500
Z" /> 
<path style="fill:#000000; fill-opacity:1.0000; stroke:none;fill-rule:evenodd;"
d="M 50.3000,51.9200
50.3000,51.3800
51.0900,51.3800
51.0900,51.9200
Z" /> 
<path style="fill:#000000; fill-opacity:1.0000; stroke:none;fill-rule:evenodd;"
d="M 51.4000,51.9200
51.4000,51.3800
52.1900,51.3800
52.1900,51.9200
Z" /> 
<path style="fill:#000000; fill-opacity:1.0000; stroke:none;fill-rule:evenodd;"
d="M 50.4500,49.7500
50.4500,48.8500
51.2500,48.8500
51.2500,49.7500
Z" /> 
<path style="fill:#000000; fill-opacity:1.0000; stroke:none;fill-rule:evenodd;"
d="M 51.8500,49.7500
51.8500,48.8500
52.6500,48.8500
52.6500,49.7500
Z" /> 
<path style="fill:#000000; fill-opacity:1.0000; stroke:none;fill-rule:evenodd;"
d="M 50.6050,50.7700
50.6050,50.2300
51.3950,50.2300
51.3950,50.7700
Z" /> 
<path style="fill:#000000; fill-opacity:1.0000; stroke:none;fill-rule:evenodd;"
d="M 51.7050,50.7700
51.7050,50.2300
52.4950,50.2300
52.4950,50.7700
Z" /> 
<path style="fill:#000000; fill-opacity:1.0000; stroke:none;fill-rule:evenodd;"
d="M 56.4600,47.9100
61.5400,47.9100
61.5400,49.6900
56.4600,49.6900
Z" /> 
<path style="fill:#000000; fill-opacity:1.0000; stroke:none;fill-rule:evenodd;"
d="M 56.4600,57.3100
61.5400,57.3100
61.5400,59.0900
56.4600,59.0900
Z" /> 
<path style="fill:#000000; fill-opacity:1.0000; stroke:none;fill-rule:evenodd;"
d="M 57.2500,51.5200
60.7500,51.5200
60.7500,55.4800
57.2500,55.4800
Z" /> 
<path style="fill:#000000; fill-opacity:1.0000; stroke:none;fill-rule:evenodd;"
d="M 36.2400,47.6750
36.5600,47.6750
36.5600,48.0450
36.2400,48.0450
Z" /> 
<path style="fill:#000000; fill-opacity:1.0000; stroke:none;fill-rule:evenodd;"
d="M 36.2400,48.2150
36.5600,48.2150
36.5600,48.5850
36.2400,48.5850
Z" /> 
<path style="fill:#000000; fill-opacity:1.0000; stroke:none;fill-rule:evenodd;"
d="M 47.1300,52.2150
47.6700,52.2150
47.6700,52.7850
47.1300,52.7850
Z" /> 
<path style="fill:#000000; fill-opacity:1.0000; stroke:none;fill-rule:evenodd;"
d="M 47.1300,53.0750
47.6700,53.0750
47.6700,53.6450
47.1300,53.6450
Z" /> 
</g>
<g style="fill:none; 
stroke:#000000; stroke-width:0.7000; stroke-opacity:1; 
stroke-linecap:round; stroke-linejoin:round;">
<path d="M49.6550 41.9500
L48.5850 41.9500
" />
<path d="M49.6550 43.0500
L48.5850 43.0500
" />
<path d="M49.6550 44.1500
L48.5850 44.1500
" />
<path d="M49.6550 45.2500
L48.5850 45.2500
" />
<path d="M49.6550 46.3500
L48.5850 46.3500
" />
<path d="M49.6550 47.4500
L48.5850 47.4500
" />
<path d="M49.6550 48.5500
L48.5850 48.5500
" />
<path d="M49.6550 49.6500
L48.5850 49.6500
" />
<path d="M49.6550 50.7500
L48.5850 50.7500
" />
<path d="M40.0350 50.7500
L38.9650 50.7500
" />
<path d="M40.0350 49.6500
L38.9650 49.6500
" />
<path d="M40.0350 48.5500
L38.9650 48.5500
" />
<path d="M40.0350 47.4500
L38.9650 47.4500
" />
<path d="M40.0350 46.3500
L38.9650 46.3500
" />
<path d="M40.0350 45.2500
L38.9650 45.2500
" />
<path d="M40.0350 44.1500
L38.9650 44.1500
" />
<path d="M40.0350 43.0500
L38.9650 43.0500
" />
<path d="M40.0350 41.9500
L38.9650 41.9500
" />
</g>
<g style="fill:#000000; fill-opacity:1.0000; stroke:none;">
<circle cx="41.3000" cy="64.6000" r="0.3000" /> 
</g>
<g style="fill:#000000; fill-opacity:1.0000; stroke:none;">
<circle cx="46.9000" cy="47.3000" r="0.3000" /> 
</g>
<g style="fill:#000000; fill-opacity:1.0000; stroke:none;">
<circle cx="52.8000" cy="51.7000" r="0.3000" /> 
</g>
<g style="fill:#000000; fill-opacity:1.0000; stroke:none;">
<circle cx="61.8000" cy="68.0000" r="0.3000" /> 
</g>
<g style="fill:#000000; fill-opacity:1.0000; stroke:none;">
<circle cx="36.5000" cy="59.5500" r="0.3000" /> 
</g>
<g style="fill:#000000; fill-opacity:1.0000; stroke:none;">
<circle cx="48.0000" cy="76.9000" r="0.3000" /> 
</g>
<g style="fill:#000000; fill-opacity:1.0000; stroke:none;">
<circle cx="34.5500" cy="53.1000" r="0.3000" /> 
</g>
<g style="fill:#000000; fill-opacity:1.0000; stroke:none;">
<circle cx="35.0000" cy="53.1000" r="0.3000" /> 
</g>
<g style="fill:#000000; fill-opacity:1.0000; stroke:none;">
<circle cx="56.2000" cy="68.6000" r="0.3000" /> 
</g>
<g style="fill:#000000; fill-opacity:1.0000; stroke:none;">
<circle cx="64.2500" cy="42.5000" r="0.3000" /> 
</g>
<g style="fill:#000000; fill-opacity:1.0000; stroke:none;">
<circle cx="50.9800" cy="42.0000" r="0.3000" /> 
</g>
<g style="fill:#000000; fill-opacity:1.0000; stroke:none;">
<circle cx="61.4000" cy="67.3000" r="0.3000" /> 
</g>
<g style="fill:#000000; fill-opacity:1.0000; stroke:none;">
<circle cx="49.4250" cy="65.8250" r="0.3000" /> 
</g>
<g style="fill:#000000; fill-opacity:1.0000; stroke:none;">
<circle cx="34.3000" cy="69.3000" r="0.3000" /> 
</g>
<g style="fill:#000000; fill-opacity:1.0000; stroke:none;">
<circle cx="40.5000" cy="67.0700" r="0.3000" /> 
</g>
<g style="fill:#000000; fill-opacity:1.0000; stroke:none;">
<circle cx="58.2000" cy="50.5000" r="0.3000" /> 
</g>
<g style="fill:#000000; fill-opacity:1.0000; stroke:none;">
<circle cx="56.1500" cy="64.7000" r="0.3000" /> 
</g>
<g style="fill:#000000; fill-opacity:1.0000; stroke:none;">
<circle cx="53.3000" cy="53.0000" r="0.3000" /> 
</g>
<g style="fill:#000000; fill-opacity:1.0000; stroke:none;">
<circle cx="41.2500" cy="50.7500" r="0.3000" /> 
</g>
<g style="fill:#000000; fill-opacity:1.0000; stroke:none;">
<circle cx="53.0000" cy="49.3000" r="0.3000" /> 
</g>
<g style="fill:#000000; fill-opacity:1.0000; stroke:none;">
<circle cx="58.1000" cy="74.3000" r="0.3000" /> 
</g>
<g style="fill:#000000; fill-opacity:1.0000; stroke:none;">
<circle cx="36.5100" cy="66.8000" r="0.3000" /> 
</g>
<g style="fill:#000000; fill-opacity:1.0000; stroke:none;">
<circle cx="37.0000" cy="70.7250" r="0.3000" /> 
</g>
<g style="fill:#000000; fill-opacity:1.0000; stroke:none;">
<circle cx="56.3000" cy="41.8000" r="0.3000" /> 
</g>
<g style="fill:#000000; fill-opacity:1.0000; stroke:none;">
<circle cx="38.2000" cy="48.5500" r="0.3000" /> 
</g>
<g style="fill:#000000; fill-opacity:1.0000; stroke:none;">
<circle cx="37.2100" cy="66.8000" r="0.3000" /> 
</g>
<g style="fill:#000000; fill-opacity:1.0000; stroke:none;">
<circle cx="52.8000" cy="50.5000" r="0.3000" /> 
</g>
<g style="fill:#000000; fill-opacity:1.0000; stroke:none;">
<circle cx="42.3000" cy="44.9000" r="0.3000" /> 
</g>
<g style="fill:#000000; fill-opacity:1.0000; stroke:none;">
<circle cx="39.0000" cy="68.1000" r="0.3000" /> 
</g>
<g style="fill:#000000; fill-opacity:1.0000; stroke:none;">
<circle cx="36.0000" cy="42.9000" r="0.3000" /> 
</g>
<g style="fill:#000000; fill-opacity:1.0000; stroke:none;">
<circle cx="58.1000" cy="74.8000" r="0.3000" /> 
</g>
<g style="fill:#000000; fill-opacity:1.0000; stroke:none;">
<circle cx="59.0000" cy="53.5000" r="0.3000" /> 
</g>
<g style="fill:#000000; fill-opacity:1.0000; stroke:none;">
<circle cx="63.6500" cy="43.0000" r="0.3000" /> 
</g>
<g style="fill:#000000; fill-opacity:1.0000; stroke:none;">
<circle cx="37.2000" cy="59.5500" r="0.3000" /> 
</g>
<g style="fill:#000000; fill-opacity:1.0000; stroke:none;">
<circle cx="56.3000" cy="41.2000" r="0.3000" /> 
</g>
<g style="fill:#000000; fill-opacity:1.0000; stroke:none;">
<circle cx="41.0000" cy="46.9000" r="0.3000" /> 
</g>
<g style="fill:#000000; fill-opacity:1.0000; stroke:none;">
<circle cx="40.6000" cy="65.9000" r="0.3000" /> 
</g>
<g style="fill:#000000; fill-opacity:1.0000; stroke:none;">
<circle cx="41.0000" cy="46.4000" r="0.3000" /> 
</g>
<g style="fill:#000000; fill-opacity:1.0000; stroke:none;">
<circle cx="60.3000" cy="43.0000" r="0.3000" /> 
</g>
<g style="fill:#000000; fill-opacity:1.0000; stroke:none;">
<circle cx="42.6500" cy="49.3500" r="0.3000" /> 
</g>
<g style="fill:#000000; fill-opacity:1.0000; stroke:none;">
<circle cx="42.3000" cy="49.2000" r="0.3000" /> 
</g>
<g style="fill:#000000; fill-opacity:1.0000; stroke:none;">
<circle cx="42.3000" cy="49.7000" r="0.3000" /> 
</g>
<g style="fill:#000000; fill-opacity:1.0000; stroke:none;">
<circle cx="52.3000" cy="64.1000" r="0.3000" /> 
</g>
<g style="fill:#000000; fill-opacity:1.0000; stroke:none;">
<circle cx="52.6500" cy="64.4500" r="0.3000" /> 
</g>
<g style="fill:#000000; fill-opacity:1.0000; stroke:none;">
<circle cx="48.7000" cy="52.4000" r="0.3000" /> 
</g>
<g style="fill:#000000; fill-opacity:1.0000; stroke:none;">
<circle cx="40.5000" cy="57.2000" r="0.3000" /> 
</g>
<g style="fill:#000000; fill-opacity:1.0000; stroke:none;">
<circle cx="51.9500" cy="63.7500" r="0.3000" /> 
</g>
<g style="fill:#000000; fill-opacity:1.0000; stroke:none;">
<circle cx="60.7000" cy="77.9000" r="0.3000" /> 
</g>
<g style="fill:#000000; fill-opacity:1.0000; stroke:none;">
<circle cx="47.8000" cy="60.8000" r="0.3000" /> 
</g>
<g style="fill:#000000; fill-opacity:1.0000; stroke:none;">
<circle cx="61.8500" cy="60.9500" r="0.3000" /> 
</g>
<g style="fill:#000000; fill-opacity:1.0000; stroke:none;">
<circle cx="41.3000" cy="67.7000" r="0.3000" /> 
</g>
<g style="fill:#000000; fill-opacity:1.0000; stroke:none;">
<circle cx="37.9000" cy="67.6000" r="0.3000" /> 
</g>
<g style="fill:#000000; fill-opacity:1.0000; stroke:none;">
<circle cx="56.7000" cy="45.6000" r="0.3000" /> 
</g>
<g style="fill:#000000; fill-opacity:1.0000; stroke:none;">
<circle cx="37.1000" cy="42.2000" r="0.3000" /> 
</g>
<g style="fill:#000000; fill-opacity:1.0000; stroke:none;">
<circle cx="36.7000" cy="62.7000" r="0.3000" /> 
</g>
<g style="fill:#000000; fill-opacity:1.0000; stroke:none;">
<circle cx="38.9400" cy="55.2000" r="0.3000" /> 
</g>
<g style="fill:#000000; fill-opacity:1.0000; stroke:none;">
<circle cx="53.8000" cy="67.5000" r="0.3000" /> 
</g>
<g style="fill:#000000; fill-opacity:1.0000; stroke:none;">
<circle cx="55.5000" cy="45.6000" r="0.3000" /> 
</g>
<g style="fill:#000000; fill-opacity:1.0000; stroke:none;">
<circle cx="49.9879" cy="67.2848" r="0.3000" /> 
</g>
<g style="fill:#000000; fill-opacity:1.0000; stroke:none;">
<circle cx="40.9000" cy="43.0000" r="0.3000" /> 
</g>
<g style="fill:#000000; fill-opacity:1.0000; stroke:none;">
<circle cx="36.7000" cy="63.7000" r="0.3000" /> 
</g>
<g style="fill:#000000; fill-opacity:1.0000; stroke:none;">
<circle cx="39.7000" cy="55.9000" r="0.3000" /> 
</g>
<g style="fill:#000000; fill-opacity:1.0000; stroke:none;">
<circle cx="47.1000" cy="51.4000" r="0.3000" /> 
</g>
<g style="fill:#000000; fill-opacity:1.0000; stroke:none;">
<circle cx="45.4015" cy="67.4329" r="0.3000" /> 
</g>
<g style="fill:#000000; fill-opacity:1.0000; stroke:none;">
<circle cx="48.0500" cy="57.7500" r="0.3000" /> 
</g>
<g style="fill:#000000; fill-opacity:1.0000; stroke:none;">
<circle cx="46.8000" cy="67.7000" r="0.3000" /> 
</g>
<g style="fill:#000000; fill-opacity:1.0000; stroke:none;">
<circle cx="48.9000" cy="56.9000" r="0.3000" /> 
</g>
<g style="fill:#000000; fill-opacity:1.0000; stroke:none;">
<circle cx="44.7342" cy="67.8742" r="0.3000" /> 
</g>
<g style="fill:#000000; fill-opacity:1.0000; stroke:none;">
<circle cx="43.9382" cy="67.9550" r="0.3000" /> 
</g>
<g style="fill:#000000; fill-opacity:1.0000; stroke:none;">
<circle cx="46.2500" cy="50.4500" r="0.3000" /> 
</g>
<g style="fill:#000000; fill-opacity:1.0000; stroke:none;">
<circle cx="47.6000" cy="42.8000" r="0.3000" /> 
</g>
<g style="fill:#000000; fill-opacity:1.0000; stroke:none;">
<circle cx="65.3000" cy="66.7000" r="0.3000" /> 
</g>
<g style="fill:#000000; fill-opacity:1.0000; stroke:none;">
<circle cx="46.2500" cy="42.8500" r="0.3000" /> 
</g>
<g style="fill:#000000; fill-opacity:1.0000; stroke:none;">
<circle cx="65.1000" cy="67.6000" r="0.3000" /> 
</g>
<g style="fill:#000000; fill-opacity:1.0000; stroke:none;">
<circle cx="65.6000" cy="70.0000" r="0.3000" /> 
</g>
<g style="fill:#000000; fill-opacity:1.0000; stroke:none;">
<circle cx="65.9000" cy="69.6000" r="0.3000" /> 
</g>
<g style="fill:#000000; fill-opacity:1.0000; stroke:none;">
<circle cx="46.3000" cy="70.7000" r="0.3000" /> 
</g>
<g style="fill:#000000; fill-opacity:1.0000; stroke:none;">
<circle cx="60.0000" cy="66.0000" r="0.3000" /> 
</g>
<g style="fill:#000000; fill-opacity:1.0000; stroke:none;">
<circle cx="50.5025" cy="62.1675" r="0.3000" /> 
</g>
<g style="fill:#000000; fill-opacity:1.0000; stroke:none;">
<circle cx="49.6000" cy="71.3000" r="0.3000" /> 
</g>
<g style="fill:none; 
stroke:#000000; stroke-width:0.2000; stroke-opacity:1; 
stroke-linecap:round; stroke-linejoin:round;">
<path d="M41.3000 52.9000
L41.3000 64.6000
" />
<path d="M46.9000 47.3000
L41.3000 52.9000
" />
</g>
<g style="fill:none; 
stroke:#000000; stroke-width:0.6000; stroke-opacity:1; 
stroke-linecap:round; stroke-linejoin:round;">
<path d="M56.2000 64.7000
L58.8000 67.3000
" />
</g>
<g style="fill:none; 
stroke:#000000; stroke-width:0.5080; stroke-opacity:1; 
stroke-linecap:round; stroke-linejoin:round;">
<path d="M52.2450 54.9450
L52.4500 55.1500
" />
</g>
<g style="fill:none; 
stroke:#000000; stroke-width:0.2000; stroke-opacity:1; 
stroke-linecap:round; stroke-linejoin:round;">
<path d="M52.4500 55.1500
L51.1800 55.1500
" />
</g>
<g style="fill:none; 
stroke:#000000; stroke-width:0.5080; stroke-opacity:1; 
stroke-linecap:round; stroke-linejoin:round;">
<path d="M35.4500 55.1500
L35.1500 55.1500
" />
</g>
<g style="fill:none; 
stroke:#000000; stroke-width:0.6000; stroke-opacity:1; 
stroke-linecap:round; stroke-linejoin:round;">
<path d="M56.1500 64.7000
L56.2000 64.7000
" />
</g>
<g style="fill:none; 
stroke:#000000; stroke-width:0.5080; stroke-opacity:1; 
stroke-linecap:round; stroke-linejoin:round;">
<path d="M34.4500 69.1500
L34.3000 69.3000
" />
</g>
<g style="fill:none; 
stroke:#000000; stroke-width:0.2000; stroke-opacity:1; 
stroke-linecap:round; stroke-linejoin:round;">
<path d="M35.4000 53.1000
L34.5500 53.1000
" />
</g>
<g style="fill:none; 
stroke:#000000; stroke-width:0.5080; stroke-opacity:1; 
stroke-linecap:round; stroke-linejoin:round;">
<path d="M52.2500 49.3000
L53.0000 49.3000
" />
<path d="M52.1000 50.5000
L52.8000 50.5000
" />
<path d="M52.2450 53.0500
L52.2450 54.9450
" />
<path d="M37.9900 69.1100
L39.0000 68.1000
" />
<path d="M52.2500 52.0950
L52.2500 49.3000
" />
<path d="M52.2450 51.6950
L52.2000 51.6500
" />
<path d="M39.5000 48.5500
L38.2000 48.5500
" />
<path d="M52.2000 51.6500
L52.7500 51.6500
" />
<path d="M39.5000 50.7500
L41.2500 50.7500
" />
<path d="M37.9900 69.1500
L37.9900 69.1100
" />
<path d="M51.7950 51.6500
L52.2000 51.6500
" />
<path d="M52.2450 53.0500
L53.2500 53.0500
" />
<path d="M35.4500 55.1500
L37.9900 55.1500
" />
<path d="M52.2450 52.3000
L52.2450 51.6950
" />
<path d="M52.2450 52.3000
L52.2450 52.1000
" />
<path d="M52.7500 51.6500
L52.8000 51.7000
" />
</g>
<g style="fill:none; 
stroke:#000000; stroke-width:0.2000; stroke-opacity:1; 
stroke-linecap:round; stroke-linejoin:round;">
<path d="M35.4000 53.1000
L36.4000 52.1000
" />
</g>
<g style="fill:none; 
stroke:#000000; stroke-width:0.5080; stroke-opacity:1; 
stroke-linecap:round; stroke-linejoin:round;">
<path d="M53.2500 53.0500
L53.3000 53.0000
" />
</g>
<g style="fill:none; 
stroke:#000000; stroke-width:0.2000; stroke-opacity:1; 
stroke-linecap:round; stroke-linejoin:round;">
<path d="M52.2500 49.5000
L52.1000 49.6500
" />
</g>
<g style="fill:none; 
stroke:#000000; stroke-width:0.6000; stroke-opacity:1; 
stroke-linecap:round; stroke-linejoin:round;">
<path d="M58.5000 67.0000
L58.8000 67.3000
" />
</g>
<g style="fill:none; 
stroke:#000000; stroke-width:0.5080; stroke-opacity:1; 
stroke-linecap:round; stroke-linejoin:round;">
<path d="M35.4500 69.1500
L34.4500 69.1500
" />
<path d="M52.2450 52.1000
L52.2500 52.0950
" />
</g>
<g style="fill:none; 
stroke:#000000; stroke-width:0.6000; stroke-opacity:1; 
stroke-linecap:round; stroke-linejoin:round;">
<path d="M58.8000 67.3000
L61.4000 67.3000
" />
</g>
<g style="fill:none; 
stroke:#000000; stroke-width:0.5080; stroke-opacity:1; 
stroke-linecap:round; stroke-linejoin:round;">
<path d="M52.2450 53.0500
L52.2450 52.3000
" />
<path d="M47.3700 53.3900
L47.4000 53.3600
" />
<path d="M47.3700 55.1500
L47.3700 53.3900
" />
<path d="M46.1000 53.5000
L46.2000 53.4000
" />
<path d="M46.1000 55.1500
L46.1000 53.5000
" />
<path d="M47.4000 52.5000
L48.6000 52.5000
" />
<path d="M49.9100 55.1500
L49.9100 53.3850
" />
<path d="M50.8500 49.3000
L50.8500 51.4950
" />
</g>
<g style="fill:none; 
stroke:#000000; stroke-width:0.2000; stroke-opacity:1; 
stroke-linecap:round; stroke-linejoin:round;">
<path d="M37.9100 46.3500
L36.4000 47.8600
" />
</g>
<g style="fill:none; 
stroke:#000000; stroke-width:0.5080; stroke-opacity:1; 
stroke-linecap:round; stroke-linejoin:round;">
<path d="M50.8500 51.4950
L50.6950 51.6500
" />
</g>
<g style="fill:none; 
stroke:#000000; stroke-width:0.6000; stroke-opacity:1; 
stroke-linecap:round; stroke-linejoin:round;">
<path d="M40.5000 46.4000
L39.5500 46.4000
" />
</g>
<g style="fill:none; 
stroke:#000000; stroke-width:0.2000; stroke-opacity:1; 
stroke-linecap:round; stroke-linejoin:round;">
<path d="M51.0000 49.6500
L50.8500 49.5000
" />
</g>
<g style="fill:none; 
stroke:#000000; stroke-width:0.6000; stroke-opacity:1; 
stroke-linecap:round; stroke-linejoin:round;">
<path d="M39.5500 46.4000
L39.5000 46.3500
" />
<path d="M36.6300 47.5000
L36.5000 47.6300
" />
</g>
<g style="fill:none; 
stroke:#000000; stroke-width:0.5080; stroke-opacity:1; 
stroke-linecap:round; stroke-linejoin:round;">
<path d="M50.8500 49.3000
L50.8500 49.6500
" />
</g>
<g style="fill:none; 
stroke:#000000; stroke-width:0.2000; stroke-opacity:1; 
stroke-linecap:round; stroke-linejoin:round;">
<path d="M40.9500 46.3500
L41.0000 46.4000
" />
</g>
<g style="fill:none; 
stroke:#000000; stroke-width:1.0000; stroke-opacity:1; 
stroke-linecap:round; stroke-linejoin:round;">
<path d="M50.2450 52.1000
L50.6950 51.6500
" />
</g>
<g style="fill:none; 
stroke:#000000; stroke-width:0.6000; stroke-opacity:1; 
stroke-linecap:round; stroke-linejoin:round;">
<path d="M36.6300 47.4840
L36.6300 47.5000
" />
<path d="M40.5000 46.4000
L37.7140 46.4000
" />
</g>
<g style="fill:none; 
stroke:#000000; stroke-width:0.5080; stroke-opacity:1; 
stroke-linecap:round; stroke-linejoin:round;">
<path d="M50.8500 49.6500
L49.1200 49.6500
" />
</g>
<g style="fill:none; 
stroke:#000000; stroke-width:0.2000; stroke-opacity:1; 
stroke-linecap:round; stroke-linejoin:round;">
<path d="M39.5000 46.3500
L40.9500 46.3500
" />
<path d="M39.5000 46.3500
L37.9100 46.3500
" />
</g>
<g style="fill:none; 
stroke:#000000; stroke-width:0.5080; stroke-opacity:1; 
stroke-linecap:round; stroke-linejoin:round;">
<path d="M49.9100 53.3850
L50.2450 53.0500
" />
</g>
<g style="fill:none; 
stroke:#000000; stroke-width:0.6000; stroke-opacity:1; 
stroke-linecap:round; stroke-linejoin:round;">
<path d="M37.7140 46.4000
L36.6300 47.4840
" />
</g>
<g style="fill:none; 
stroke:#000000; stroke-width:0.5080; stroke-opacity:1; 
stroke-linecap:round; stroke-linejoin:round;">
<path d="M50.2450 52.1000
L49.9450 52.4000
" />
<path d="M49.9450 52.4000
L48.7000 52.4000
" />
</g>
<g style="fill:none; 
stroke:#000000; stroke-width:0.6000; stroke-opacity:1; 
stroke-linecap:round; stroke-linejoin:round;">
<path d="M41.0000 46.4000
L40.5000 46.4000
" />
</g>
<g style="fill:none; 
stroke:#000000; stroke-width:0.5080; stroke-opacity:1; 
stroke-linecap:round; stroke-linejoin:round;">
<path d="M46.2000 52.5400
L47.3600 52.5400
" />
<path d="M48.6000 52.5000
L48.7000 52.4000
" />
<path d="M47.3600 52.5400
L47.4000 52.5000
" />
</g>
<g style="fill:none; 
stroke:#000000; stroke-width:1.0000; stroke-opacity:1; 
stroke-linecap:round; stroke-linejoin:round;">
<path d="M50.2450 53.0500
L50.2450 52.1000
" />
</g>
<g style="fill:none; 
stroke:#000000; stroke-width:0.2000; stroke-opacity:1; 
stroke-linecap:round; stroke-linejoin:round;">
<path d="M51.0000 50.5000
L51.0000 49.6500
" />
<path d="M50.4000 60.8000
L60.7000 71.1000
" />
<path d="M47.8000 60.8000
L50.4000 60.8000
" />
<path d="M60.7000 71.1000
L60.7000 77.9000
" />
<path d="M60.9000 60.0000
L61.8500 60.9500
" />
<path d="M41.6000 65.8000
L47.4000 60.0000
" />
<path d="M41.3000 67.7000
L41.6000 67.4000
" />
<path d="M41.6000 67.4000
L41.6000 65.8000
" />
<path d="M47.4000 60.0000
L60.9000 60.0000
" />
<path d="M61.8500 60.9500
L61.9000 61.0000
" />
<path d="M39.0000 55.2600
L39.0000 55.3000
" />
<path d="M39.0000 55.3000
L38.9990 55.3010
" />
<path d="M38.9400 55.2000
L39.0000 55.2600
" />
<path d="M39.5000 43.0500
L37.9500 43.0500
" />
<path d="M37.9500 43.0500
L37.1000 42.2000
" />
<path d="M40.9000 43.1350
L40.9000 43.0000
" />
<path d="M39.5000 44.1500
L39.8850 44.1500
" />
<path d="M39.8850 44.1500
L40.9000 43.1350
" />
<path d="M36.7000 63.7000
L36.7000 63.9000
" />
<path d="M45.4790 67.3554
L45.5761 67.3554
" />
<path d="M45.7500 69.5000
L46.1000 69.1500
" />
<path d="M45.9000 68.9500
L46.1000 69.1500
" />
<path d="M45.4015 67.4329
L45.4790 67.3554
" />
<path d="M45.9000 67.6793
L45.9000 68.9500
" />
<path d="M45.5761 67.3554
L45.9000 67.6793
" />
<path d="M46.8000 67.7000
L47.3700 68.2700
" />
<path d="M47.3700 68.2700
L47.3700 69.1500
" />
<path d="M44.7767 67.8742
L44.8400 67.8109
" />
<path d="M44.8400 67.8109
L44.8400 69.1400
" />
<path d="M44.8400 67.8109
L44.8400 68.6200
" />
<path d="M44.7342 67.8742
L44.7767 67.8742
" />
<path d="M44.8400 68.6200
L45.1000 68.8800
" />
<path d="M44.8400 69.1400
L44.8300 69.1500
" />
<path d="M43.5600 68.7100
L43.5600 69.1500
" />
<path d="M46.2500 50.4500
L46.1500 50.4500
" />
<path d="M43.9382 67.9550
L43.9000 67.9932
" />
<path d="M43.9000 67.9932
L43.9000 68.8100
" />
<path d="M43.9000 68.8100
L43.5600 69.1500
" />
<path d="M35.1000 50.8000
L37.7000 50.8000
" />
<path d="M39.2500 49.4000
L36.5000 49.4000
" />
<path d="M36.4000 48.4000
L36.4000 49.5000
" />
<path d="M39.5000 49.6500
L39.2500 49.4000
" />
<path d="M36.5000 49.4000
L36.2500 49.6500
" />
</g>
<g style="fill:none; 
stroke:#000000; stroke-width:0.5080; stroke-opacity:1; 
stroke-linecap:round; stroke-linejoin:round;">
<path d="M59.0000 48.8000
L60.5000 48.8000
" />
<path d="M61.7000 57.4000
L60.9000 58.2000
" />
<path d="M60.9000 58.2000
L59.0000 58.2000
" />
<path d="M61.7000 50.0000
L61.7000 57.4000
" />
</g>
<g style="fill:none; 
stroke:#000000; stroke-width:0.2000; stroke-opacity:1; 
stroke-linecap:round; stroke-linejoin:round;">
<path d="M60.7000 58.2000
L59.0000 58.2000
" />
</g>
<g style="fill:none; 
stroke:#000000; stroke-width:0.5080; stroke-opacity:1; 
stroke-linecap:round; stroke-linejoin:round;">
<path d="M57.3000 48.8000
L55.9500 47.4500
" />
<path d="M59.0000 48.8000
L57.3000 48.8000
" />
<path d="M60.5000 48.8000
L61.7000 50.0000
" />
<path d="M55.9500 47.4500
L49.1200 47.4500
" />
</g>
<g style="fill:none; 
stroke:#000000; stroke-width:0.2000; stroke-opacity:1; 
stroke-linecap:round; stroke-linejoin:round;">
<path d="M53.7000 65.9000
L52.5000 65.9000
" />
<path d="M49.6000 71.3000
L52.8000 71.3000
" />
<path d="M55.0000 69.1000
L55.0000 67.2000
" />
<path d="M52.5000 65.9000
L50.5025 63.9025
" />
<path d="M52.8000 71.3000
L55.0000 69.1000
" />
<path d="M55.0000 67.2000
L53.7000 65.9000
" />
<path d="M50.5025 63.9025
L50.5025 62.1675
" />
<path style="fill:#000000; fill-opacity:1.0000; stroke:none;fill-rule:evenodd;"
d="M 47.7052,47.6844
47.7153,47.6848
47.7362,47.6992
47.7590,47.7102
47.7659,47.7199
47.7727,47.7246
47.7907,47.7550
47.8313,47.8529
47.8533,47.8858
47.8836,47.9311
47.9045,47.9978
47.8860,48.0652
47.8836,48.0689
47.8313,48.1471
47.7672,48.3019
47.7672,48.3019
47.7345,48.4662
47.7345,48.6338
47.7635,48.7798
47.7672,48.7981
47.8313,48.9529
47.8557,48.9894
47.8836,49.0311
47.9045,49.0978
47.8860,49.1652
47.8836,49.1689
47.8313,49.2471
47.7672,49.4019
47.7672,49.4019
47.7345,49.5662
47.7345,49.7338
47.7672,49.8981
47.7672,49.8981
47.8254,50.0387
47.8313,50.0529
47.8489,50.0792
47.8836,50.1311
47.9045,50.1978
47.8860,50.2652
47.8836,50.2689
47.8313,50.3471
47.7672,50.5019
47.7672,50.5019
47.7365,50.6563
47.7041,50.7182
47.6434,50.7528
47.5736,50.7491
47.5460,50.7352
47.4792,50.6906
47.4792,50.6906
47.3335,50.6303
47.3335,50.6303
47.1788,50.5995
47.1788,50.5995
47.1745,50.5995
47.1075,50.5798
47.0617,50.5270
47.0505,50.4755
47.0505,50.3712
47.0505,50.3712
47.0440,50.3387
47.0197,50.2165
47.0055,50.1822
46.9594,50.0708
46.9594,50.0708
46.8718,49.9397
46.8718,49.9397
46.7603,49.8282
46.7603,49.8282
46.6292,49.7406
46.6292,49.7406
46.4835,49.6803
46.4835,49.6803
46.3288,49.6495
46.3288,49.6495
46.1712,49.6495
46.1712,49.6495
46.0165,49.6803
46.0165,49.6803
45.8708,49.7406
45.8708,49.7406
45.7397,49.8282
45.7397,49.8282
45.6282,49.9397
45.6282,49.9397
45.5406,50.0708
45.5406,50.0708
45.4803,50.2165
45.4803,50.2165
45.4495,50.3712
45.4495,50.5288
45.4803,50.6835
45.4803,50.6835
45.5406,50.8292
45.5406,50.8292
45.6282,50.9603
45.6282,50.9603
45.7397,51.0718
45.7397,51.0718
45.8708,51.1594
45.8708,51.1594
45.9991,51.2125
46.0165,51.2197
46.1371,51.2437
46.1712,51.2505
46.1712,51.2505
46.1712,51.2505
46.1755,51.2505
46.2425,51.2702
46.2883,51.3230
46.2995,51.3745
46.2995,51.4788
46.3249,51.6063
46.3186,51.6759
46.2758,51.7311
46.2099,51.7543
46.2032,51.7545
45.8821,51.7545
45.8821,51.7545
45.8225,51.7609
45.6877,51.8112
45.6877,51.8112
45.5725,51.8975
45.5725,51.8975
45.4862,52.0127
45.4862,52.0127
45.4359,52.1475
45.4359,52.1475
45.4295,52.2071
45.4295,52.2071
45.4295,52.2071
45.4295,52.8729
45.4295,52.8729
45.4359,52.9325
45.4377,52.9400
45.4357,52.9405
45.4412,52.9798
45.4398,52.9971
45.4359,53.0075
45.4295,53.0671
45.4295,53.1274
45.4291,53.1322
45.4261,53.1402
45.4206,53.1685
45.4206,53.1685
45.4201,53.1699
45.3804,53.2657
45.3748,53.2791
45.3745,53.2799
45.3455,53.4257
45.3455,53.5804
45.3455,53.5804
45.3455,53.6260
45.3258,53.6930
45.2730,53.7388
45.2215,53.7500
45.0800,53.7500
45.0800,56.5500
45.3278,56.5500
45.3278,56.5500
45.3874,56.5436
45.3874,56.5436
45.4209,56.5311
45.4906,56.5261
45.5076,56.5311
45.5425,56.5441
45.5425,56.5441
45.5425,56.5441
45.6021,56.5505
46.5979,56.5505
46.6575,56.5441
46.6917,56.5313
46.7614,56.5264
46.7783,56.5313
46.8125,56.5441
46.8721,56.5505
47.8679,56.5505
47.9275,56.5441
47.9617,56.5313
47.9880,56.5295
48.0139,56.5238
48.0269,56.5267
48.0314,56.5264
48.0483,56.5313
48.0508,56.5323
48.1067,56.5741
48.1311,56.6396
48.1290,56.6726
48.0995,56.8212
48.0995,56.8255
48.0798,56.8925
48.0270,56.9383
47.9755,56.9495
47.9712,56.9495
47.8165,56.9803
47.8165,56.9803
47.6708,57.0406
47.6708,57.0406
47.5397,57.1282
47.5397,57.1282
47.4282,57.2397
47.4282,57.2397
47.3406,57.3708
47.3406,57.3708
47.2803,57.5165
47.2803,57.5165
47.2495,57.6712
47.2495,57.8288
47.2803,57.9835
47.2803,57.9835
47.3406,58.1292
47.3406,58.1292
47.4282,58.2603
47.4282,58.2603
47.5397,58.3718
47.5397,58.3718
47.6708,58.4594
47.6708,58.4594
47.8165,58.5197
47.8165,58.5197
47.9712,58.5505
47.9712,58.5505
47.9712,58.5505
48.1288,58.5505
48.1288,58.5505
48.2835,58.5197
48.4292,58.4594
48.5603,58.3718
48.6718,58.2603
48.7594,58.1292
48.8197,57.9835
48.8505,57.8288
48.8505,57.8245
48.8702,57.7575
48.9230,57.7117
48.9745,57.7005
48.9788,57.7005
48.9788,57.7005
49.1335,57.6697
49.2792,57.6094
49.4103,57.5218
49.5218,57.4103
49.6094,57.2792
49.6697,57.1335
49.7005,56.9788
49.7005,56.8212
49.7005,56.8212
49.7005,56.8212
49.6761,56.6987
49.6824,56.6291
49.7252,56.5739
49.7911,56.5507
49.7978,56.5505
50.4079,56.5505
50.4079,56.5505
50.4675,56.5441
50.5024,56.5311
50.5721,56.5261
50.5891,56.5311
50.6226,56.5436
50.6822,56.5500
50.6822,56.5500
50.9300,56.5500
51.4300,56.5500
51.6778,56.5500
51.6778,56.5500
51.7374,56.5436
51.7374,56.5436
51.7717,56.5308
51.8414,56.5258
51.8583,56.5308
51.8926,56.5436
51.8926,56.5436
51.9522,56.5500
51.9522,56.5500
52.2000,56.5500
52.7000,56.5500
52.9478,56.5500
52.9478,56.5500
53.0074,56.5436
53.0074,56.5436
53.1421,56.4934
53.1421,56.4933
53.2572,56.4072
53.2572,56.4072
53.3434,56.2921
53.3434,56.2921
53.3936,56.1574
53.3936,56.1574
53.4000,56.0978
53.4000,56.0978
53.4000,55.5278
56.7500,55.5278
56.7564,55.5874
56.7564,55.5874
56.8066,55.7221
56.8066,55.7221
56.8928,55.8372
56.8928,55.8372
57.0079,55.9233
57.0079,55.9234
57.1426,55.9736
57.1426,55.9736
57.2022,55.9800
57.2022,55.9800
58.7500,55.9800
58.7500,53.7500
56.7500,53.7500
56.7500,55.5278
53.4000,55.5278
53.4000,55.4000
52.7000,55.4000
52.7000,56.5500
52.2000,56.5500
52.2000,55.4000
51.4300,55.4000
51.4300,56.5500
50.9300,56.5500
50.9300,55.2740
50.9497,55.2070
51.0025,55.1612
51.0540,55.1500
51.1800,55.1500
51.1800,55.0240
51.1997,54.9570
51.2525,54.9112
51.3040,54.9000
52.2000,54.9000
52.2000,54.3550
52.1190,54.3550
52.0520,54.3353
52.0062,54.2825
51.9950,54.2310
51.9950,53.6200
52.4950,53.6200
52.5760,53.6200
52.6430,53.6397
52.6888,53.6925
52.7000,53.7440
52.7000,54.9000
53.4000,54.9000
53.4000,54.2022
53.4000,54.2022
53.3936,54.1426
53.3735,54.0887
53.3685,54.0190
53.3904,53.9710
53.3934,53.9671
53.4436,53.8324
53.4436,53.8324
53.4500,53.7728
53.4500,53.7728
53.4500,53.3000
52.4950,53.3000
52.4950,53.6200
51.9950,53.6200
51.9950,53.1740
52.0147,53.1070
52.0675,53.0612
52.1190,53.0500
52.2450,53.0500
52.2450,52.9240
52.2647,52.8570
52.3175,52.8112
52.3690,52.8000
53.4500,52.8000
53.4500,52.3272
53.4500,52.3272
53.4436,52.2676
53.4436,52.2676
53.3934,52.1329
53.3933,52.1329
53.3072,52.0178
53.3072,52.0178
53.1921,51.9316
53.1921,51.9316
53.0574,51.8814
53.0574,51.8814
52.9978,51.8750
52.8106,51.8750
52.7700,51.8972
52.7436,51.9000
51.9190,51.9000
51.8520,51.8803
51.8062,51.8275
51.7950,51.7760
51.7950,51.5240
51.8147,51.4570
51.8675,51.4112
51.9190,51.4000
52.6900,51.4000
52.6900,51.3322
52.6900,51.3322
52.6892,51.3250
52.7016,51.2563
52.7382,51.2125
52.8522,51.1272
52.9383,51.0121
52.9384,51.0121
52.9886,50.8774
52.9886,50.8774
52.9950,50.8178
52.9950,50.8178
52.9950,50.7500
52.2240,50.7500
52.1570,50.7303
52.1112,50.6775
52.1000,50.6260
52.1000,50.5000
52.0195,50.5000
51.9525,50.4803
51.9067,50.4275
51.8955,50.3760
51.8955,50.2500
52.5000,50.2500
52.9950,50.2500
52.9950,50.1822
52.9950,50.1822
52.9947,50.1794
53.0071,50.1106
53.0187,50.0918
53.0934,49.9921
53.0934,49.9921
53.1436,49.8574
53.1436,49.8574
53.1500,49.7978
53.1500,49.7978
53.1500,49.5500
52.5000,49.5500
52.5000,50.2500
51.8955,50.2500
51.8955,50.1821
51.8955,50.1821
51.8952,50.1794
51.8891,50.1225
51.8729,50.0792
51.8578,50.0387
51.8500,49.9953
51.8500,49.7240
51.8697,49.6570
51.9225,49.6112
51.9740,49.6000
52.0000,49.6000
52.0000,49.4240
52.0197,49.3570
52.0725,49.3112
52.1240,49.3000
52.2500,49.3000
52.2500,49.1740
52.2697,49.1070
52.3225,49.0612
52.3740,49.0500
53.1500,49.0500
53.1500,48.8022
53.1500,48.8022
53.1436,48.7426
53.1436,48.7426
53.0934,48.6079
53.0934,48.6079
53.0072,48.4928
53.0072,48.4928
52.9203,48.4278
52.8784,48.3718
52.8734,48.3021
52.9069,48.2408
52.9683,48.2073
52.9946,48.2045
55.5861,48.2045
55.6532,48.2242
55.6738,48.2408
55.9232,48.4902
55.9567,48.5515
55.9595,48.5779
55.9595,49.7147
55.9398,49.7817
55.8870,49.8275
55.8830,49.8292
55.8270,49.8524
55.8270,49.8524
55.7041,49.9345
55.7041,49.9346
55.5996,50.0391
55.5995,50.0391
55.5174,50.1620
55.5174,50.1620
55.4608,50.2986
55.4608,50.2986
55.4320,50.4436
55.4320,50.4436
55.4320,50.5914
55.4320,50.5914
55.4320,50.5914
55.4608,50.7364
55.4608,50.7364
55.5174,50.8730
55.5174,50.8730
55.5995,50.9959
55.5996,50.9959
55.7041,51.1004
55.7041,51.1005
55.8270,51.1826
55.8270,51.1826
55.9446,51.2313
55.9636,51.2392
55.9636,51.2392
55.9636,51.2392
56.1086,51.2680
56.1086,51.2680
56.2564,51.2680
56.3540,51.2486
56.4014,51.2392
56.5380,51.1826
56.5380,51.1826
56.5380,51.1826
56.6204,51.1275
56.6239,51.1252
56.6906,51.1043
56.7580,51.1228
56.8047,51.1747
56.8158,51.2437
56.8090,51.2716
56.7564,51.4126
56.7564,51.4126
56.7500,51.4722
56.7500,53.2500
58.7500,53.2500
58.7500,51.0200
57.2022,51.0200
57.1426,51.0264
57.1426,51.0264
57.0079,51.0766
57.0079,51.0766
56.9946,51.0866
56.9292,51.1110
56.8609,51.0961
56.8115,51.0467
56.7967,50.9785
56.8172,50.9184
56.8476,50.8730
56.8476,50.8730
56.8476,50.8730
56.9042,50.7364
56.9147,50.6835
56.9330,50.5914
56.9330,50.4436
56.9121,50.3387
56.9184,50.2691
56.9612,50.2139
57.0271,50.1907
57.0338,50.1905
60.7721,50.1905
60.8015,50.1991
60.8315,50.2057
60.8366,50.2094
60.8391,50.2102
60.8598,50.2268
60.9092,50.2762
60.9427,50.3375
60.9455,50.3639
60.9455,50.8978
60.9258,50.9649
60.8730,51.0106
60.8082,51.0211
60.7978,51.0200
60.7978,51.0200
59.2500,51.0200
59.2500,55.9800
60.7978,55.9800
60.8082,55.9789
60.8770,55.9913
60.9281,56.0389
60.9455,56.1022
60.9455,56.6855
60.9258,56.7525
60.8730,56.7983
60.8215,56.8095
56.4121,56.8095
56.4121,56.8095
56.3525,56.8159
56.2177,56.8662
56.2177,56.8662
56.1025,56.9525
56.1025,56.9525
56.0162,57.0677
56.0162,57.0677
55.9659,57.2025
55.9595,57.2621
55.9595,57.2621
55.9595,59.1379
55.9595,59.1379
55.9659,59.1975
55.9788,59.2322
55.9838,59.3019
55.9503,59.3632
55.8890,59.3967
55.8627,59.3995
47.4867,59.3995
47.4867,59.3995
47.4791,59.3995
47.3209,59.3995
47.2446,59.4200
47.1682,59.4404
47.1682,59.4404
47.0313,59.5195
47.0313,59.5195
42.2345,64.3163
42.2129,64.3280
42.1937,64.3434
42.1828,64.3445
42.1732,64.3497
42.1487,64.3480
42.1242,64.3505
42.1144,64.3455
42.1035,64.3448
42.0838,64.3300
42.0619,64.3189
42.0543,64.3079
42.0476,64.3029
42.0399,64.2914
42.0355,64.2840
42.0094,64.2208
41.9218,64.0897
41.9211,64.0890
41.9176,64.0830
41.9099,64.0525
41.9005,64.0224
41.9005,64.0202
41.9005,56.0978
42.6100,56.0978
42.6164,56.1574
42.6164,56.1574
42.6666,56.2921
42.6666,56.2921
42.7528,56.4072
42.7528,56.4072
42.8679,56.4933
42.8679,56.4934
43.0026,56.5436
43.0026,56.5436
43.0622,56.5500
43.0622,56.5500
43.3100,56.5500
43.8100,56.5500
44.0578,56.5500
44.0578,56.5500
44.1174,56.5436
44.1174,56.5436
44.1517,56.5308
44.2214,56.5258
44.2383,56.5308
44.2726,56.5436
44.2726,56.5436
44.3322,56.5500
44.3322,56.5500
44.5800,56.5500
44.5800,55.4000
43.8100,55.4000
43.8100,56.5500
43.3100,56.5500
43.3100,55.4000
42.6100,55.4000
42.6100,56.0978
41.9005,56.0978
41.9005,54.2022
42.6100,54.2022
42.6100,54.9000
43.3100,54.9000
43.8100,54.9000
44.5800,54.9000
44.5800,53.7500
44.3322,53.7500
44.2726,53.7564
44.2726,53.7564
44.2383,53.7692
44.1686,53.7742
44.1517,53.7692
44.1174,53.7564
44.1174,53.7564
44.0578,53.7500
43.8100,53.7500
43.8100,54.9000
43.3100,54.9000
43.3100,53.7500
43.0622,53.7500
43.0026,53.7564
43.0026,53.7564
42.8679,53.8066
42.8679,53.8066
42.7528,53.8928
42.7528,53.8928
42.6666,54.0079
42.6666,54.0079
42.6164,54.1426
42.6164,54.1426
42.6100,54.2022
41.9005,54.2022
41.9005,53.2001
41.9202,53.1331
41.9368,53.1124
44.4247,50.6245
46.9147,48.1346
46.9760,48.1011
46.9781,48.1006
47.0361,48.0891
47.1335,48.0697
47.2792,48.0094
47.4103,47.9218
47.5218,47.8103
47.5731,47.7335
47.5809,47.7270
47.5854,47.7179
47.6072,47.7050
47.6267,47.6887
47.6368,47.6875
47.6455,47.6823
47.6709,47.6832
47.6960,47.6800
Z" /> 
<path style="fill:#000000; fill-opacity:1.0000; stroke:none;fill-rule:evenodd;"
d="M 64.3930,40.8702
64.4388,40.9230
64.4500,40.9745
64.4500,62.7060
64.4303,62.7730
64.3775,62.8188
64.3260,62.8300
64.1759,62.8300
64.0049,62.8571
63.8402,62.9106
63.6860,62.9892
63.5459,63.0910
63.4235,63.2134
63.3217,63.3535
63.2431,63.5077
63.1896,63.6724
63.1884,63.6800
63.1884,63.6800
63.9175,63.6800
63.8824,63.7151
63.8364,63.7949
63.8125,63.8839
63.8125,63.9761
63.8364,64.0651
63.8824,64.1449
63.9175,64.1800
63.1884,64.1800
63.1896,64.1876
63.2431,64.3523
63.3217,64.5065
63.4235,64.6466
63.5459,64.7690
63.6860,64.8708
63.8402,64.9494
64.0049,65.0029
64.1759,65.0300
64.4125,65.0300
64.4125,64.2800
64.9125,64.2800
64.9125,65.0300
65.1491,65.0300
65.3201,65.0029
65.4848,64.9494
65.6390,64.8708
65.7791,64.7690
65.9015,64.6466
66.0033,64.5065
66.0819,64.3523
66.1354,64.1876
66.1366,64.1800
65.4075,64.1800
65.4426,64.1449
65.4886,64.0651
65.5125,63.9761
65.5125,63.8839
65.4886,63.7949
65.4426,63.7151
65.4075,63.6800
66.1366,63.6800
66.1366,63.6800
66.1354,63.6724
66.0819,63.5077
66.0033,63.3535
65.9015,63.2134
65.8998,63.2117
65.8994,63.2109
65.8984,63.2097
65.8986,63.2095
65.8663,63.1504
65.8713,63.0807
65.9132,63.0247
65.9787,63.0003
65.9875,63.0000
67.6275,63.0000
67.6945,63.0197
67.7403,63.0725
67.7502,63.1416
67.7212,63.2052
67.7152,63.2117
67.7135,63.2134
67.6117,63.3535
67.5331,63.5077
67.4796,63.6724
67.4784,63.6800
67.4784,63.6800
68.2575,63.6800
68.2224,63.7151
68.1764,63.7949
68.1525,63.8839
68.1525,63.9761
68.1764,64.0651
68.2224,64.1449
68.2575,64.1800
67.4784,64.1800
67.4796,64.1876
67.5331,64.3523
67.6117,64.5065
67.7135,64.6466
67.8359,64.7690
67.9760,64.8708
68.1302,64.9494
68.2949,65.0029
68.4659,65.0300
68.6025,65.0300
68.6025,64.2800
69.1025,64.2800
69.1025,65.0300
69.2391,65.0300
69.4101,65.0029
69.5748,64.9494
69.7290,64.8708
69.8691,64.7690
69.9915,64.6466
70.0933,64.5065
70.1150,64.4639
70.1630,64.4131
70.2308,64.3963
70.2969,64.4189
70.3404,64.4736
70.3495,64.5202
70.3495,71.9798
70.3298,72.0468
70.2770,72.0926
70.2079,72.1025
70.1443,72.0735
70.1150,72.0361
70.0933,71.9935
69.9915,71.8534
69.8691,71.7310
69.7290,71.6292
69.5748,71.5506
69.4101,71.4971
69.2391,71.4700
69.1025,71.4700
69.1025,72.2200
68.6025,72.2200
68.6025,71.4700
68.4659,71.4700
68.2949,71.4971
68.1302,71.5506
67.9760,71.6292
67.8359,71.7310
67.7135,71.8534
67.6117,71.9935
67.5331,72.1477
67.4796,72.3124
67.4784,72.3200
67.4784,72.3200
68.2575,72.3200
68.2224,72.3551
68.1764,72.4349
68.1525,72.5239
68.1525,72.6161
68.1764,72.7051
68.2224,72.7849
68.2575,72.8200
67.4784,72.8200
67.4796,72.8276
67.5331,72.9923
67.6117,73.1465
67.7135,73.2866
67.8359,73.4090
67.9760,73.5108
68.1302,73.5894
68.2949,73.6429
68.4659,73.6700
68.6025,73.6700
68.6025,72.9200
69.1025,72.9200
69.1025,73.6700
69.2391,73.6700
69.4101,73.6429
69.5748,73.5894
69.7290,73.5108
69.8691,73.4090
69.9915,73.2866
70.0933,73.1465
70.1150,73.1039
70.1630,73.0531
70.2308,73.0363
70.2969,73.0589
70.3404,73.1136
70.3495,73.1602
70.3495,79.1501
70.3298,79.2171
70.2770,79.2629
70.2254,79.2741
33.8748,79.2499
33.8078,79.2302
33.7621,79.1773
33.7509,79.1258
33.7542,73.9898
35.9995,73.9898
35.9995,74.2102
36.0340,74.4280
36.1021,74.6376
36.1021,74.6376
36.2022,74.8340
36.3318,75.0124
36.3318,75.0124
36.4876,75.1682
36.4876,75.1682
36.5997,75.2497
36.6424,75.3050
36.6484,75.3746
36.6158,75.4364
36.5997,75.4503
36.4876,75.5318
36.4876,75.5318
36.3318,75.6876
36.3318,75.6876
36.2022,75.8660
36.1021,76.0624
36.1021,76.0624
36.0340,76.2720
36.0340,76.2720
35.9995,76.4898
35.9995,76.7102
36.0087,76.7685
36.0340,76.9280
36.1021,77.1376
36.1021,77.1376
36.1328,77.1978
36.1963,77.3224
36.2022,77.3340
36.3318,77.5124
36.3318,77.5124
36.4876,77.6682
36.4876,77.6682
36.6432,77.7813
36.6660,77.7978
36.7944,77.8632
36.8624,77.8979
36.8624,77.8979
36.9672,77.9320
37.0720,77.9660
37.2898,78.0005
37.2898,78.0005
37.5102,78.0005
37.5102,78.0005
37.7280,77.9660
37.9376,77.8979
38.1340,77.7978
38.3124,77.6682
38.4682,77.5124
38.5978,77.3340
38.6979,77.1376
38.7660,76.9280
38.8005,76.7102
38.8005,76.4898
38.7660,76.2720
38.7134,76.1102
38.6979,76.0624
38.6979,76.0624
38.6292,75.9276
38.5978,75.8660
38.5409,75.7877
38.4682,75.6876
38.4682,75.6876
38.3124,75.5318
38.3124,75.5318
38.2003,75.4503
38.1576,75.3950
38.1516,75.3254
38.1842,75.2636
38.2003,75.2497
38.3124,75.1682
38.4682,75.0124
38.5978,74.8340
38.6979,74.6376
38.7660,74.4280
38.8005,74.2102
38.8005,73.9898
42.1995,73.9898
42.1995,74.2102
42.2340,74.4280
42.3021,74.6376
42.3021,74.6376
42.4022,74.8340
42.5318,75.0124
42.5318,75.0124
42.6876,75.1682
42.6876,75.1682
42.7997,75.2497
42.8424,75.3050
42.8484,75.3746
42.8158,75.4364
42.7997,75.4503
42.6876,75.5318
42.6876,75.5318
42.5318,75.6876
42.5318,75.6876
42.4022,75.8660
42.3021,76.0624
42.3021,76.0624
42.2340,76.2720
42.2340,76.2720
42.1995,76.4898
42.1995,76.7102
42.2087,76.7685
42.2340,76.9280
42.3021,77.1376
42.3021,77.1376
42.3328,77.1978
42.3963,77.3224
42.4022,77.3340
42.5318,77.5124
42.5318,77.5124
42.6876,77.6682
42.6876,77.6682
42.8432,77.7813
42.8660,77.7978
42.9944,77.8632
43.0624,77.8979
43.0624,77.8979
43.1672,77.9320
43.2720,77.9660
43.4898,78.0005
43.4898,78.0005
43.7102,78.0005
43.7102,78.0005
43.9280,77.9660
44.1376,77.8979
44.3340,77.7978
44.5124,77.6682
44.6682,77.5124
44.7978,77.3340
44.8979,77.1376
44.9660,76.9280
45.0005,76.7102
45.0005,76.4898
44.9660,76.2720
44.9134,76.1102
44.8979,76.0624
44.8979,76.0624
44.8292,75.9276
44.7978,75.8660
44.7409,75.7877
44.6682,75.6876
44.6682,75.6876
44.5124,75.5318
44.5124,75.5318
44.4003,75.4503
44.3597,75.3976
50.6995,75.3976
50.6995,75.6024
50.7315,75.8045
50.7948,75.9992
50.8877,76.1816
51.0080,76.3472
51.1528,76.4920
51.3077,76.6046
51.3184,76.6123
51.4346,76.6715
51.5008,76.7052
51.5008,76.7052
51.5008,76.7052
51.5894,76.7340
51.6955,76.7685
51.7922,76.7838
51.8976,76.8005
51.8976,76.8005
52.1024,76.8005
52.1024,76.8005
52.3045,76.7685
52.4992,76.7052
52.6816,76.6123
52.7746,76.5447
52.8472,76.4920
52.8472,76.4920
52.8472,76.4920
52.9920,76.3472
52.9920,76.3472
52.9920,76.3472
53.0466,76.2720
53.1123,76.1816
53.2052,75.9992
53.2685,75.8045
53.3005,75.6024
53.3005,75.3976
54.1995,75.3976
54.1995,75.6024
54.2315,75.8045
54.2948,75.9992
54.3877,76.1816
54.5080,76.3472
54.6528,76.4920
54.8077,76.6046
54.8184,76.6123
54.9346,76.6715
55.0008,76.7052
55.0008,76.7052
55.0008,76.7052
55.0894,76.7340
55.1955,76.7685
55.2922,76.7838
55.3976,76.8005
55.3976,76.8005
55.6024,76.8005
55.6024,76.8005
55.8045,76.7685
55.9992,76.7052
56.1816,76.6123
56.2746,76.5447
56.3472,76.4920
56.3472,76.4920
56.3472,76.4920
56.4920,76.3472
56.4920,76.3472
56.4920,76.3472
56.5466,76.2720
56.6123,76.1816
56.7052,75.9992
56.7685,75.8045
56.8005,75.6024
56.8005,75.3976
56.7696,75.2025
56.7685,75.1955
56.7391,75.1051
56.7052,75.0008
56.7052,75.0008
56.7052,75.0008
56.6700,74.9318
56.6123,74.8184
56.6005,74.8022
56.4920,74.6528
56.3472,74.5080
56.1816,74.3877
56.1816,74.3877
56.1816,74.3877
56.1247,74.3587
55.9992,74.2948
55.8045,74.2315
55.6300,74.2039
55.6024,74.1995
55.3976,74.1995
55.3733,74.2034
55.1955,74.2315
55.0008,74.2948
54.8184,74.3877
54.6528,74.5080
54.5080,74.6528
54.3877,74.8184
54.2948,75.0008
54.2315,75.1955
54.1995,75.3976
53.3005,75.3976
53.2696,75.2025
53.2685,75.1955
53.2391,75.1051
53.2052,75.0008
53.2052,75.0008
53.2052,75.0008
53.1700,74.9318
53.1123,74.8184
53.1005,74.8022
52.9920,74.6528
52.8472,74.5080
52.6816,74.3877
52.6816,74.3877
52.6816,74.3877
52.6247,74.3587
52.4992,74.2948
52.3045,74.2315
52.1300,74.2039
52.1024,74.1995
51.8976,74.1995
51.8733,74.2034
51.6955,74.2315
51.5008,74.2948
51.3184,74.3877
51.1528,74.5080
51.0080,74.6528
50.8877,74.8184
50.7948,75.0008
50.7315,75.1955
50.6995,75.3976
44.3597,75.3976
44.3576,75.3950
44.3516,75.3254
44.3842,75.2636
44.4003,75.2497
44.5124,75.1682
44.6682,75.0124
44.7978,74.8340
44.8979,74.6376
44.9660,74.4280
45.0005,74.2102
45.0005,73.9898
44.9660,73.7720
44.9241,73.6429
44.8979,73.5624
44.8979,73.5624
44.8198,73.4090
44.7978,73.3660
44.7813,73.3432
44.6682,73.1876
44.6682,73.1876
44.5124,73.0318
44.5124,73.0318
44.3340,72.9022
44.3340,72.9022
44.3340,72.9022
44.2711,72.8701
44.1376,72.8021
44.1376,72.8021
43.9280,72.7340
43.8191,72.7167
43.7102,72.6995
43.4898,72.6995
43.4172,72.7110
43.2720,72.7340
43.0624,72.8021
43.0624,72.8021
42.8660,72.9022
42.6876,73.0318
42.6876,73.0318
42.5318,73.1876
42.5318,73.1876
42.4022,73.3660
42.3021,73.5624
42.3021,73.5624
42.2340,73.7720
42.1995,73.9898
38.8005,73.9898
38.7660,73.7720
38.7241,73.6429
38.6979,73.5624
38.6979,73.5624
38.6198,73.4090
38.5978,73.3660
38.5813,73.3432
38.4682,73.1876
38.4682,73.1876
38.3124,73.0318
38.3124,73.0318
38.1340,72.9022
38.1340,72.9022
38.1340,72.9022
38.0711,72.8701
37.9376,72.8021
37.9376,72.8021
37.7280,72.7340
37.6191,72.7167
37.5102,72.6995
37.2898,72.6995
37.2172,72.7110
37.0720,72.7340
36.8624,72.8021
36.8624,72.8021
36.6660,72.9022
36.4876,73.0318
36.4876,73.0318
36.3318,73.1876
36.3318,73.1876
36.2022,73.3660
36.1021,73.5624
36.1021,73.5624
36.0340,73.7720
35.9995,73.9898
33.7542,73.9898
33.7566,70.0978
34.5000,70.0978
34.5064,70.1574
34.5064,70.1574
34.5566,70.2921
34.5566,70.2921
34.6428,70.4072
34.6428,70.4072
34.7579,70.4933
34.7579,70.4934
34.8926,70.5436
34.8926,70.5436
34.9522,70.5500
34.9522,70.5500
35.2000,70.5500
35.2000,69.4000
34.5000,69.4000
34.5000,70.0978
33.7566,70.0978
33.7578,68.2022
34.5000,68.2022
34.5000,68.9000
35.2000,68.9000
35.2000,67.7500
35.7000,67.7500
35.7000,70.5500
35.9478,70.5500
35.9478,70.5500
36.0074,70.5436
36.0074,70.5436
36.0409,70.5311
36.1106,70.5261
36.1276,70.5311
36.1625,70.5441
36.1625,70.5441
36.1625,70.5441
36.2221,70.5505
37.2179,70.5505
37.2775,70.5441
37.3124,70.5311
37.3821,70.5261
37.3990,70.5311
37.4326,70.5436
37.4922,70.5500
37.4922,70.5500
37.7400,70.5500
38.2400,70.5500
38.4878,70.5500
38.4878,70.5500
38.5474,70.5436
38.5474,70.5436
38.6821,70.4934
38.6821,70.4933
38.7972,70.4072
38.7972,70.4072
38.8834,70.2921
38.8834,70.2921
38.9336,70.1574
38.9336,70.1574
38.9400,70.0978
38.9400,70.0978
38.9400,69.4000
38.2400,69.4000
38.2400,70.5500
37.7400,70.5500
37.7400,69.2740
37.7597,69.2070
37.8125,69.1612
37.8640,69.1500
37.9900,69.1500
37.9900,69.0240
38.0097,68.9570
38.0625,68.9112
38.1140,68.9000
38.9400,68.9000
38.9400,68.2022
38.9400,68.2022
38.9336,68.1426
38.9336,68.1426
38.8834,68.0079
38.8834,68.0079
38.7972,67.8928
38.7385,67.8489
38.6967,67.7930
38.6912,67.7254
38.6920,67.7215
38.6961,67.7008
38.7005,67.6788
38.7005,67.5212
38.7005,67.5212
38.6999,67.5183
38.6697,67.3665
38.6685,67.3636
38.6094,67.2208
38.6094,67.2208
38.5218,67.0897
38.5218,67.0897
38.4103,66.9782
38.4103,66.9782
38.2792,66.8906
38.2792,66.8906
38.1335,66.8303
38.1335,66.8303
37.9788,66.7995
37.9788,66.7995
37.8212,66.7995
37.8212,66.7995
37.6665,66.8303
37.6665,66.8303
37.5208,66.8906
37.5208,66.8906
37.3897,66.9782
37.3897,66.9782
37.2782,67.0897
37.2782,67.0897
37.1906,67.2208
37.1906,67.2208
37.1303,67.3665
37.1303,67.3665
37.0995,67.5212
37.0995,67.6255
37.0798,67.6925
37.0270,67.7383
36.9755,67.7495
36.2221,67.7495
36.2221,67.7495
36.1625,67.7559
36.1625,67.7559
36.1625,67.7559
36.1276,67.7689
36.1276,67.7689
36.0579,67.7739
36.0410,67.7689
36.0074,67.7564
36.0074,67.7564
35.9478,67.7500
35.7000,67.7500
35.2000,67.7500
34.9522,67.7500
34.8926,67.7564
34.8926,67.7564
34.7579,67.8066
34.7579,67.8066
34.6428,67.8928
34.6428,67.8928
34.5566,68.0079
34.5566,68.0079
34.5064,68.1426
34.5064,68.1426
34.5000,68.2022
33.7578,68.2022
33.7614,62.6212
35.8995,62.6212
35.8995,62.7788
35.9303,62.9335
35.9303,62.9335
35.9906,63.0792
35.9906,63.0792
36.0253,63.1311
36.0462,63.1978
36.0277,63.2652
36.0253,63.2689
35.9906,63.3208
35.9906,63.3208
35.9303,63.4665
35.9303,63.4665
35.8995,63.6212
35.8995,63.7788
35.9303,63.9335
35.9303,63.9335
35.9906,64.0792
35.9906,64.0792
36.0782,64.2103
36.0782,64.2103
36.1897,64.3218
36.1897,64.3218
36.3208,64.4094
36.3208,64.4094
36.4479,64.4620
36.4665,64.4697
36.6203,64.5003
36.6209,64.5005
36.6212,64.5005
36.7788,64.5005
36.7791,64.5005
36.7797,64.5003
36.9335,64.4697
37.0563,64.4189
37.0792,64.4094
37.0792,64.4094
37.0792,64.4094
37.2103,64.3218
37.3218,64.2103
37.4094,64.0792
37.4697,63.9335
37.5005,63.7788
37.5005,63.6212
37.5005,63.6212
37.5005,63.6212
37.4923,63.5800
37.4697,63.4665
37.4229,63.3535
37.4094,63.3208
37.4094,63.3208
37.4094,63.3208
37.3747,63.2689
37.3538,63.2022
37.3723,63.1348
37.3747,63.1311
37.4094,63.0792
37.4697,62.9335
37.5005,62.7788
37.5005,62.6212
37.5005,62.6212
37.5005,62.6212
37.5005,62.6210
37.4697,62.4665
37.4697,62.4665
37.4094,62.3208
37.4094,62.3208
37.3218,62.1897
37.3218,62.1897
37.2103,62.0782
37.2103,62.0782
37.0792,61.9906
37.0792,61.9906
36.9335,61.9303
36.9335,61.9303
36.7788,61.8995
36.7788,61.8995
36.6212,61.8995
36.6212,61.8995
36.4665,61.9303
36.4665,61.9303
36.3208,61.9906
36.3208,61.9906
36.1897,62.0782
36.1897,62.0782
36.0782,62.1897
36.0782,62.1897
35.9906,62.3208
35.9906,62.3208
35.9303,62.4665
35.9303,62.4665
35.8995,62.6212
33.7614,62.6212
33.7655,56.0978
34.5000,56.0978
34.5064,56.1574
34.5064,56.1574
34.5566,56.2921
34.5566,56.2921
34.6428,56.4072
34.6428,56.4072
34.7579,56.4933
34.7579,56.4934
34.8926,56.5436
34.8926,56.5436
34.9522,56.5500
34.9522,56.5500
35.2000,56.5500
35.7000,56.5500
35.9478,56.5500
35.9478,56.5500
36.0074,56.5436
36.0074,56.5436
36.0417,56.5308
36.1114,56.5258
36.1283,56.5308
36.1626,56.5436
36.1626,56.5436
36.2222,56.5500
36.2222,56.5500
36.4700,56.5500
36.9700,56.5500
37.2178,56.5500
37.2178,56.5500
37.2774,56.5436
37.2774,56.5436
37.3117,56.5308
37.3814,56.5258
37.3983,56.5308
37.4326,56.5436
37.4326,56.5436
37.4922,56.5500
37.4922,56.5500
37.7400,56.5500
37.7400,55.4000
36.9700,55.4000
36.9700,56.5500
36.4700,56.5500
36.4700,55.4000
35.7000,55.4000
35.7000,56.5500
35.2000,56.5500
35.2000,55.4000
34.5000,55.4000
34.5000,56.0978
33.7655,56.0978
33.7661,55.1212
38.1395,55.1212
38.1395,55.2788
38.1703,55.4335
38.1703,55.4335
38.2306,55.5791
38.2400,55.6265
38.2400,56.5500
38.4878,56.5500
38.4878,56.5500
38.5474,56.5436
38.5474,56.5436
38.6821,56.4934
38.6821,56.4933
38.7972,56.4072
38.7972,56.4072
38.8396,56.3506
38.8955,56.3087
38.9652,56.3037
39.0265,56.3372
39.0419,56.3560
39.0782,56.4103
39.0782,56.4103
39.1897,56.5218
39.1897,56.5218
39.3208,56.6094
39.3208,56.6094
39.4587,56.6665
39.4665,56.6697
39.6121,56.6987
39.6212,56.7005
39.6212,56.7005
39.6549,56.7005
39.7219,56.7202
39.7677,56.7730
39.7776,56.8421
39.7694,56.8720
39.7303,56.9665
39.7303,56.9665
39.6995,57.1212
39.6995,57.2788
39.7303,57.4335
39.7303,57.4335
39.7906,57.5792
39.7906,57.5792
39.8782,57.7103
39.8782,57.7103
39.9897,57.8218
39.9897,57.8218
40.1208,57.9094
40.1208,57.9094
40.2665,57.9697
40.2665,57.9697
40.3999,57.9963
40.4212,58.0005
40.4212,58.0005
40.5755,58.0005
40.6425,58.0202
40.6883,58.0730
40.6995,58.1245
40.6995,64.0202
40.6798,64.0873
40.6786,64.0891
40.5906,64.2208
40.5906,64.2208
40.5303,64.3665
40.5303,64.3665
40.4995,64.5212
40.4995,64.6788
40.5303,64.8335
40.5303,64.8335
40.5735,64.9380
40.5810,65.0075
40.5497,65.0699
40.4896,65.1056
40.4832,65.1071
40.3665,65.1303
40.3665,65.1303
40.2208,65.1906
40.2208,65.1906
40.0897,65.2782
40.0897,65.2782
39.9782,65.3897
39.9782,65.3897
39.8906,65.5208
39.8906,65.5208
39.8303,65.6665
39.8303,65.6665
39.7995,65.8212
39.7995,65.9788
39.8303,66.1335
39.8303,66.1335
39.8906,66.2792
39.8906,66.2792
39.9782,66.4103
39.9782,66.4103
40.0897,66.5218
40.0897,66.5218
40.2208,66.6094
40.2208,66.6094
40.3635,66.6685
40.3665,66.6697
40.4827,66.6928
40.5212,66.7005
40.5212,66.7005
40.5212,66.7005
40.6788,66.7005
40.6788,66.7005
40.8335,66.6697
40.8335,66.6697
40.8393,66.6680
40.8402,66.6707
40.8606,66.6685
40.8931,66.6638
40.8952,66.6647
40.8974,66.6645
40.9268,66.6792
40.9567,66.6928
40.9579,66.6947
40.9599,66.6957
40.9767,66.7239
40.9945,66.7516
40.9949,66.7545
40.9956,66.7557
40.9995,66.7866
40.9995,66.8752
40.9798,66.9422
40.9270,66.9880
40.9230,66.9897
40.9208,66.9906
40.9208,66.9906
40.7897,67.0782
40.7897,67.0782
40.6782,67.1897
40.6782,67.1897
40.5906,67.3208
40.5906,67.3208
40.5303,67.4665
40.5303,67.4665
40.4995,67.6212
40.4995,67.7788
40.5303,67.9335
40.5303,67.9335
40.5906,68.0792
40.5906,68.0792
40.6782,68.2103
40.6782,68.2103
40.7897,68.3218
40.7897,68.3218
40.9208,68.4094
40.9208,68.4094
41.0665,68.4697
41.0665,68.4697
41.2212,68.5005
41.2212,68.5005
41.2212,68.5005
41.3788,68.5005
41.3788,68.5005
41.5335,68.4697
41.6792,68.4094
41.8103,68.3218
41.9218,68.2103
42.0094,68.0792
42.0697,67.9335
42.1005,67.7788
42.1005,67.7673
42.1171,67.7053
42.1406,67.6647
42.1596,67.6318
42.2005,67.4791
42.2005,67.3209
42.2005,66.1001
42.2202,66.0331
42.2368,66.0124
44.5993,63.6499
46.9755,61.2737
47.0369,61.2402
47.1065,61.2452
47.1625,61.2871
47.1663,61.2925
47.1782,61.3103
47.2897,61.4218
47.2897,61.4218
47.4208,61.5094
47.4208,61.5094
47.5665,61.5697
47.5665,61.5697
47.7212,61.6005
47.7212,61.6005
47.7212,61.6005
47.8788,61.6005
47.8788,61.6005
48.0335,61.5697
48.1792,61.5094
48.2337,61.4730
48.3109,61.4214
48.3776,61.4005
48.3798,61.4005
49.8381,61.4005
49.9051,61.4202
49.9509,61.4730
49.9608,61.5421
49.9318,61.6057
49.9257,61.6122
49.8807,61.6572
49.8807,61.6572
49.7931,61.7883
49.7931,61.7883
49.7328,61.9340
49.7328,61.9340
49.7020,62.0887
49.7020,62.2463
49.7328,62.4010
49.7328,62.4010
49.7931,62.5467
49.7931,62.5467
49.8811,62.6784
49.9020,62.7451
49.9020,62.7473
49.9020,63.8158
49.9020,63.8158
49.9020,63.9816
49.9020,63.9816
49.9020,63.9816
49.9429,64.1343
49.9686,64.1788
50.0220,64.2712
50.0220,64.2712
50.1408,64.3901
50.1409,64.3901
52.1313,66.3805
52.1313,66.3805
52.1313,66.3805
52.2682,66.4596
52.2682,66.4596
52.4209,66.5005
52.4209,66.5005
52.5867,66.5005
52.5867,66.5005
53.3999,66.5005
53.4293,66.5091
53.4593,66.5157
53.4643,66.5194
53.4669,66.5202
53.4876,66.5368
53.5163,66.5655
53.5497,66.6268
53.5448,66.6965
53.5029,66.7524
53.4760,66.7677
53.4208,66.7906
53.4208,66.7906
53.2897,66.8782
53.2897,66.8782
53.1782,66.9897
53.1782,66.9897
53.0906,67.1208
53.0906,67.1208
53.0303,67.2665
53.0303,67.2665
52.9995,67.4212
52.9995,67.5788
53.0041,67.6018
52.9978,67.6714
52.9550,67.7266
52.8891,67.7498
52.8825,67.7500
52.7000,67.7500
52.7000,68.9000
53.4000,68.9000
53.4000,68.3863
53.4197,68.3193
53.4725,68.2736
53.5416,68.2636
53.5604,68.2688
53.5607,68.2680
53.5665,68.2697
53.5665,68.2697
53.7212,68.3005
53.7212,68.3005
53.7212,68.3005
53.8788,68.3005
53.8788,68.3005
54.0335,68.2697
54.1792,68.2094
54.1792,68.2094
54.1792,68.2094
54.2066,68.1911
54.2733,68.1702
54.3407,68.1887
54.3874,68.2407
54.3995,68.2942
54.3995,68.7999
54.3798,68.8669
54.3632,68.8876
53.6117,69.6391
53.5504,69.6726
53.4807,69.6676
53.4247,69.6257
53.4003,69.5602
53.4000,69.5514
53.4000,69.4000
52.5740,69.4000
52.5070,69.3803
52.4612,69.3275
52.4500,69.2760
52.4500,69.1500
52.3240,69.1500
52.2570,69.1303
52.2112,69.0775
52.2000,69.0260
52.2000,67.7500
51.9522,67.7500
51.8926,67.7564
51.8926,67.7564
51.8590,67.7689
51.7894,67.7739
51.7724,67.7689
51.7375,67.7559
51.7375,67.7559
51.6779,67.7495
51.6779,67.7495
51.6779,67.7495
51.6779,67.7495
50.8475,67.7495
50.7804,67.7298
50.7347,67.6770
50.7247,67.6079
50.7329,67.5780
50.7577,67.5183
50.7884,67.3636
50.7884,67.2059
50.7884,67.2059
50.7884,67.2059
50.7771,67.1490
50.7577,67.0513
50.7385,67.0049
50.6973,66.9056
50.6973,66.9056
50.6097,66.7745
50.6097,66.7745
50.4982,66.6630
50.4982,66.6630
50.3671,66.5754
50.3671,66.5754
50.2214,66.5150
50.2214,66.5150
50.0668,66.4843
50.0668,66.4843
49.9091,66.4843
49.9091,66.4843
49.7545,66.5150
49.7544,66.5150
49.6088,66.5754
49.6088,66.5754
49.4777,66.6630
49.4777,66.6630
49.3662,66.7745
49.3662,66.7745
49.2786,66.9056
49.2786,66.9056
49.2182,67.0513
49.2182,67.0513
49.1874,67.2059
49.1874,67.3636
49.2182,67.5183
49.2182,67.5183
49.2430,67.5780
49.2504,67.6475
49.2192,67.7100
49.1591,67.7456
49.1284,67.7495
48.1421,67.7495
48.1421,67.7495
48.0825,67.7559
48.0483,67.7687
47.9786,67.7736
47.9617,67.7687
47.9375,67.7596
47.9275,67.7559
47.9275,67.7559
47.8679,67.7495
47.8679,67.7495
47.8679,67.7495
47.8679,67.7495
47.7501,67.7495
47.7207,67.7409
47.6907,67.7343
47.6857,67.7306
47.6831,67.7298
47.6624,67.7132
47.6346,67.6853
47.6011,67.6240
47.6006,67.6218
47.5919,67.5780
47.5697,67.4665
47.5283,67.3665
47.5094,67.3208
47.5094,67.3208
47.4218,67.1897
47.4218,67.1897
47.3103,67.0782
47.3103,67.0782
47.1792,66.9906
47.1792,66.9906
47.0335,66.9303
47.0335,66.9303
46.8788,66.8995
46.8788,66.8995
46.7212,66.8995
46.7212,66.8995
46.5665,66.9303
46.5665,66.9303
46.4208,66.9906
46.4208,66.9906
46.2895,67.0784
46.2592,67.0879
46.2294,67.0990
46.2261,67.0982
46.2228,67.0992
46.1922,67.0909
46.1612,67.0841
46.1574,67.0813
46.1554,67.0808
46.1329,67.0630
46.0937,67.0237
46.0783,67.0049
46.0687,66.9906
46.0348,66.9399
46.0233,66.9226
45.9118,66.8111
45.9118,66.8111
45.7806,66.7235
45.7806,66.7235
45.6350,66.6632
45.6350,66.6632
45.4803,66.6324
45.4803,66.6324
45.3226,66.6324
45.3226,66.6324
45.1680,66.6632
45.1680,66.6632
45.0223,66.7235
45.0223,66.7235
44.8912,66.8111
44.8912,66.8111
44.7797,66.9226
44.7797,66.9226
44.7109,67.0256
44.6573,67.0704
44.6320,67.0783
44.5007,67.1044
44.5006,67.1044
44.3550,67.1648
44.3550,67.1648
44.3210,67.1874
44.2543,67.2083
44.2047,67.1989
44.1717,67.1853
44.1717,67.1853
44.1717,67.1853
44.0171,67.1545
44.0171,67.1545
43.8594,67.1545
43.8594,67.1545
43.7048,67.1853
43.7047,67.1853
43.5591,67.2456
43.5591,67.2456
43.4280,67.3332
43.4280,67.3332
43.3165,67.4447
43.3165,67.4447
43.2289,67.5758
43.2288,67.5758
43.1886,67.6730
43.1448,67.7274
43.0785,67.7494
43.0741,67.7495
43.0621,67.7495
43.0621,67.7495
43.0025,67.7559
42.8677,67.8062
42.8677,67.8062
42.7525,67.8925
42.7525,67.8925
42.6662,68.0077
42.6662,68.0077
42.6159,68.1425
42.6095,68.2021
42.6095,68.2021
42.6095,70.0979
42.6095,70.0979
42.6159,70.1575
42.6662,70.2923
42.6662,70.2923
42.7525,70.4075
42.7525,70.4075
42.8677,70.4938
42.8677,70.4938
43.0025,70.5441
43.0025,70.5441
43.0094,70.5448
43.0621,70.5505
44.0579,70.5505
44.1175,70.5441
44.1517,70.5313
44.2214,70.5264
44.2383,70.5313
44.2725,70.5441
44.3321,70.5505
45.3279,70.5505
45.3279,70.5505
45.3279,70.5505
45.3568,70.5474
45.3622,70.5468
45.4310,70.5592
45.4821,70.6068
45.4995,70.6701
45.4995,70.7788
45.5303,70.9335
45.5303,70.9335
45.5906,71.0792
45.5906,71.0792
45.6782,71.2103
45.6782,71.2103
45.7897,71.3218
45.7897,71.3218
45.9208,71.4094
45.9208,71.4094
46.0665,71.4697
46.0665,71.4697
46.2040,71.4971
46.2212,71.5005
46.2212,71.5005
46.2212,71.5005
46.3788,71.5005
46.3788,71.5005
46.5335,71.4697
46.6792,71.4094
46.8103,71.3218
46.9218,71.2103
47.0094,71.0792
47.0189,71.0562
47.0231,71.0462
47.0697,70.9335
47.1005,70.7788
47.1005,70.6745
47.1202,70.6075
47.1730,70.5617
47.2245,70.5505
47.8679,70.5505
47.8679,70.5505
47.9275,70.5441
47.9617,70.5313
48.0314,70.5264
48.0483,70.5313
48.0825,70.5441
48.1421,70.5505
48.9181,70.5505
48.9851,70.5702
49.0309,70.6230
49.0408,70.6921
49.0118,70.7557
49.0057,70.7622
48.9782,70.7897
48.8906,70.9208
48.8906,70.9208
48.8303,71.0665
48.8303,71.0665
48.7995,71.2212
48.7995,71.3788
48.8303,71.5335
48.8303,71.5335
48.8906,71.6792
48.8906,71.6792
48.9782,71.8103
48.9782,71.8103
49.0897,71.9218
49.0897,71.9218
49.2208,72.0094
49.2208,72.0094
49.3665,72.0697
49.3665,72.0697
49.4814,72.0926
49.5212,72.1005
49.5212,72.1005
49.5212,72.1005
49.6788,72.1005
49.6788,72.1005
49.8335,72.0697
49.9792,72.0094
49.9792,72.0094
50.1109,71.9214
50.1776,71.9005
50.1798,71.9005
52.7133,71.9005
52.7133,71.9005
52.7209,71.9005
52.8791,71.9005
52.8791,71.9005
53.0318,71.8596
53.0819,71.8306
53.1687,71.7805
53.2805,71.6687
53.2805,71.6687
53.2907,71.6585
53.2907,71.6585
55.3585,69.5907
55.3585,69.5907
55.3687,69.5805
55.3687,69.5805
55.4805,69.4687
55.5365,69.3718
55.5596,69.3318
55.6005,69.1791
55.6005,69.0209
55.6005,69.0133
55.6005,69.0133
55.6005,67.2891
55.6005,67.2791
55.6005,67.2791
55.6005,67.1491
55.6202,67.0821
55.6730,67.0363
55.7335,67.0276
55.7421,67.0264
55.7421,67.0264
55.7621,67.0355
55.8057,67.0554
55.8122,67.0614
56.7611,68.0103
60.0632,71.3124
60.0967,71.3737
60.0995,71.4001
60.0995,77.3202
60.0798,77.3873
60.0786,77.3891
59.9906,77.5208
59.9906,77.5208
59.9303,77.6665
59.9303,77.6665
59.8995,77.8212
59.8995,77.9788
59.9303,78.1335
59.9303,78.1335
59.9906,78.2792
59.9906,78.2792
60.0782,78.4103
60.0782,78.4103
60.1897,78.5218
60.1897,78.5218
60.3208,78.6094
60.3208,78.6094
60.4665,78.6697
60.4665,78.6697
60.6212,78.7005
60.6212,78.7005
60.6212,78.7005
60.7788,78.7005
60.7788,78.7005
60.9335,78.6697
61.0792,78.6094
61.2103,78.5218
61.3218,78.4103
61.4094,78.2792
61.4697,78.1335
61.5005,77.9788
61.5005,77.8212
61.5005,77.8212
61.5005,77.8212
61.4697,77.6665
61.4697,77.6665
61.4697,77.6665
61.4094,77.5208
61.4094,77.5208
61.3214,77.3891
61.3157,77.3711
61.3055,77.3552
61.3011,77.3242
61.3005,77.3224
61.3005,77.3202
61.3005,75.8898
64.1000,75.8898
64.1000,76.1102
64.1345,76.3278
64.2026,76.5374
64.3026,76.7338
64.3489,76.7975
64.9762,76.1702
64.9875,76.2123
65.0599,76.3377
65.1623,76.4401
65.2877,76.5125
65.3298,76.5238
64.7025,77.1511
64.7025,77.1511
64.7662,77.1974
64.9626,77.2974
65.1722,77.3655
65.3898,77.4000
65.6102,77.4000
65.8278,77.3655
66.0374,77.2974
66.2338,77.1974
66.2975,77.1511
66.2975,77.1511
65.6702,76.5238
65.7123,76.5125
65.8377,76.4401
65.9401,76.3377
66.0125,76.2123
66.0238,76.1702
66.6511,76.7975
66.6525,76.7974
66.7047,76.7572
66.7743,76.7512
66.8361,76.7838
66.8500,76.7998
66.9318,76.9124
67.0876,77.0682
67.0876,77.0682
67.1831,77.1376
67.2660,77.1978
67.3944,77.2632
67.4624,77.2979
67.4624,77.2979
67.5311,77.3202
67.6720,77.3660
67.8898,77.4005
67.8898,77.4005
68.1102,77.4005
68.1102,77.4005
68.3280,77.3660
68.5376,77.2979
68.7340,77.1978
68.9124,77.0682
69.0682,76.9124
69.1978,76.7340
69.2979,76.5376
69.3660,76.3280
69.4005,76.1102
69.4005,75.8898
69.3660,75.6720
69.3296,75.5599
69.2979,75.4624
69.2979,75.4624
69.2532,75.3746
69.1978,75.2660
69.1500,75.2002
69.0682,75.0876
69.0682,75.0876
68.9124,74.9318
68.9124,74.9318
68.7340,74.8022
68.7340,74.8022
68.7340,74.8022
68.6711,74.7701
68.5376,74.7021
68.5376,74.7021
68.3280,74.6340
68.2191,74.6167
68.1102,74.5995
67.8898,74.5995
67.8172,74.6110
67.6720,74.6340
67.4624,74.7021
67.4624,74.7021
67.2660,74.8022
67.0876,74.9318
67.0876,74.9318
66.9318,75.0876
66.8500,75.2002
66.7947,75.2428
66.7251,75.2488
66.6633,75.2162
66.6514,75.2025
66.6511,75.2025
66.0238,75.8298
66.0125,75.7877
65.9401,75.6623
65.8377,75.5599
65.7123,75.4875
65.6702,75.4762
66.2975,74.8489
66.2338,74.8026
66.0374,74.7026
65.8278,74.6345
65.6102,74.6000
65.3898,74.6000
65.1722,74.6345
64.9626,74.7026
64.7662,74.8026
64.7025,74.8489
64.7025,74.8489
65.3298,75.4762
65.2877,75.4875
65.1623,75.5599
65.0599,75.6623
64.9875,75.7877
64.9762,75.8298
64.3489,75.2025
64.3489,75.2025
64.3026,75.2662
64.2026,75.4626
64.1345,75.6722
64.1000,75.8898
61.3005,75.8898
61.3005,72.3200
63.1884,72.3200
63.1884,72.3200
63.9175,72.3200
63.8824,72.3551
63.8364,72.4349
63.8125,72.5239
63.8125,72.6161
63.8364,72.7051
63.8824,72.7849
63.9175,72.8200
63.1884,72.8200
63.1896,72.8276
63.2431,72.9923
63.3217,73.1465
63.4235,73.2866
63.5459,73.4090
63.6860,73.5108
63.8402,73.5894
64.0049,73.6429
64.1759,73.6700
64.4125,73.6700
64.4125,72.9200
64.9125,72.9200
64.9125,73.6700
65.1491,73.6700
65.3201,73.6429
65.4848,73.5894
65.6390,73.5108
65.7791,73.4090
65.9015,73.2866
66.0033,73.1465
66.0819,72.9923
66.1354,72.8276
66.1366,72.8200
65.4075,72.8200
65.4426,72.7849
65.4886,72.7051
65.5125,72.6161
65.5125,72.5239
65.4886,72.4349
65.4426,72.3551
65.4075,72.3200
66.1366,72.3200
66.1366,72.3200
66.1354,72.3124
66.0819,72.1477
66.0033,71.9935
65.9015,71.8534
65.8819,71.8337
65.8484,71.7724
65.8534,71.7027
65.8665,71.6772
65.9562,71.5429
66.0203,71.3881
66.0530,71.2238
66.0530,71.0562
66.0203,70.8919
65.9911,70.8214
65.9837,70.7520
66.0149,70.6895
66.0368,70.6709
66.1103,70.6218
66.2218,70.5103
66.3094,70.3792
66.3465,70.2895
66.3904,70.2351
66.3921,70.2340
66.4103,70.2218
66.5218,70.1103
66.6094,69.9792
66.6697,69.8335
66.7005,69.6788
66.7005,69.5212
66.7005,69.5212
66.7005,69.5212
66.6942,69.4897
66.6697,69.3665
66.6696,69.3661
66.6094,69.2208
66.6094,69.2208
66.5218,69.0897
66.5218,69.0897
66.4103,68.9782
66.4103,68.9782
66.2792,68.8906
66.2792,68.8906
66.1335,68.8303
66.1335,68.8303
65.9788,68.7995
65.9788,68.7995
65.8212,68.7995
65.8212,68.7995
65.6665,68.8303
65.6665,68.8303
65.5208,68.8906
65.5208,68.8906
65.3897,68.9782
65.3897,68.9782
65.2782,69.0897
65.2782,69.0897
65.1906,69.2208
65.1906,69.2208
65.1535,69.3105
65.1096,69.3649
65.1078,69.3661
65.0897,69.3782
65.0897,69.3782
64.9782,69.4897
64.9782,69.4897
64.8906,69.6208
64.8906,69.6208
64.8303,69.7665
64.8303,69.7665
64.7995,69.9212
64.7995,70.0788
64.8303,70.2335
64.8303,70.2335
64.8343,70.2431
64.8417,70.3126
64.8104,70.3751
64.7886,70.3937
64.6603,70.4794
64.6603,70.4794
64.5419,70.5978
64.4488,70.7371
64.3847,70.8919
64.3847,70.8919
64.3520,71.0562
64.3520,71.2238
64.3715,71.3218
64.3653,71.3914
64.3224,71.4466
64.2565,71.4698
64.2499,71.4700
64.1759,71.4700
64.0049,71.4971
63.8402,71.5506
63.6860,71.6292
63.5459,71.7310
63.4235,71.8534
63.3217,71.9935
63.2431,72.1477
63.1896,72.3124
63.1884,72.3200
61.3005,72.3200
61.3005,71.1891
61.3005,71.1890
61.3005,71.0209
61.2737,70.9208
61.2596,70.8682
61.2596,70.8682
61.1805,70.7313
61.1805,70.7313
57.9704,67.5212
64.2995,67.5212
64.2995,67.6788
64.3303,67.8335
64.3303,67.8335
64.3906,67.9792
64.3906,67.9792
64.4782,68.1103
64.4782,68.1103
64.5897,68.2218
64.5897,68.2218
64.7208,68.3094
64.7208,68.3094
64.8665,68.3697
64.8665,68.3697
64.9500,68.3863
65.0212,68.4005
65.0212,68.4005
65.0212,68.4005
65.1788,68.4005
65.1788,68.4005
65.3335,68.3697
65.4792,68.3094
65.6103,68.2218
65.7218,68.1103
65.8094,67.9792
65.8697,67.8335
65.9005,67.6788
65.9005,67.5212
65.9005,67.5212
65.9005,67.5212
65.8999,67.5183
65.8697,67.3665
65.8697,67.3665
65.8680,67.3607
65.8699,67.3601
65.8635,67.2999
65.8947,67.2375
65.8978,67.2343
65.9218,67.2103
66.0094,67.0792
66.0150,67.0657
66.0401,67.0049
66.0697,66.9335
66.1005,66.7788
66.1005,66.6212
66.1005,66.6212
66.1005,66.6212
66.0955,66.5958
66.0697,66.4665
66.0336,66.3792
66.0094,66.3208
66.0094,66.3208
65.9218,66.1897
65.9218,66.1897
65.8103,66.0782
65.8103,66.0782
65.6792,65.9906
65.6792,65.9906
65.5335,65.9303
65.5335,65.9303
65.3788,65.8995
65.3788,65.8995
65.2212,65.8995
65.2212,65.8995
65.0665,65.9303
65.0665,65.9303
64.9208,65.9906
64.9208,65.9906
64.7897,66.0782
64.7897,66.0782
64.6782,66.1897
64.6782,66.1897
64.5906,66.3208
64.5906,66.3208
64.5303,66.4665
64.5303,66.4665
64.4995,66.6212
64.4995,66.7788
64.5303,66.9335
64.5320,66.9393
64.5301,66.9399
64.5365,67.0001
64.5053,67.0626
64.5022,67.0657
64.4782,67.0897
64.4782,67.0897
64.3906,67.2208
64.3906,67.2208
64.3303,67.3665
64.3303,67.3665
64.2995,67.5212
57.9704,67.5212
56.3704,65.9212
59.1995,65.9212
59.1995,66.0788
59.2303,66.2335
59.2303,66.2335
59.2906,66.3792
59.2906,66.3792
59.3782,66.5103
59.3782,66.5103
59.4897,66.6218
59.4897,66.6218
59.6208,66.7094
59.6208,66.7094
59.7665,66.7697
59.7665,66.7697
59.9161,66.7995
59.9212,66.8005
59.9212,66.8005
59.9212,66.8005
60.0788,66.8005
60.0788,66.8005
60.2335,66.7697
60.3792,66.7094
60.5103,66.6218
60.6218,66.5103
60.7094,66.3792
60.7697,66.2335
60.8005,66.0788
60.8005,65.9212
60.8005,65.9212
60.8005,65.9212
60.7962,65.8995
60.7697,65.7665
60.7283,65.6665
60.7094,65.6208
60.7094,65.6208
60.6218,65.4897
60.6218,65.4897
60.5103,65.3782
60.5103,65.3782
60.3792,65.2906
60.3792,65.2906
60.2335,65.2303
60.2335,65.2303
60.0788,65.1995
60.0788,65.1995
59.9212,65.1995
59.9212,65.1995
59.7665,65.2303
59.7665,65.2303
59.6208,65.2906
59.6208,65.2906
59.4897,65.3782
59.4897,65.3782
59.3782,65.4897
59.3782,65.4897
59.2906,65.6208
59.2906,65.6208
59.2303,65.7665
59.2303,65.7665
59.1995,65.9212
56.3704,65.9212
54.6799,64.2306
51.2614,60.8122
51.2279,60.7509
51.2329,60.6812
51.2748,60.6252
51.3403,60.6008
51.3491,60.6005
60.5999,60.6005
60.6669,60.6202
60.6876,60.6368
61.0154,60.9647
61.0489,61.0260
61.0494,61.0281
61.0803,61.1835
61.0803,61.1835
61.1406,61.3292
61.1406,61.3292
61.2282,61.4603
61.2282,61.4603
61.3397,61.5718
61.3397,61.5718
61.4708,61.6594
61.4708,61.6594
61.6165,61.7197
61.6165,61.7197
61.7712,61.7505
61.7712,61.7505
61.7712,61.7505
61.9288,61.7505
61.9288,61.7505
62.0835,61.7197
62.2292,61.6594
62.3603,61.5718
62.4718,61.4603
62.5594,61.3292
62.6197,61.1835
62.6505,61.0288
62.6505,60.8712
62.6505,60.8712
62.6505,60.8712
62.6388,60.8122
62.6197,60.7165
62.5798,60.6202
62.5594,60.5708
62.5594,60.5708
62.4718,60.4397
62.4718,60.4397
62.3603,60.3282
62.3603,60.3282
62.2292,60.2406
62.2292,60.2406
62.0835,60.1803
62.0835,60.1803
61.9281,60.1494
61.8662,60.1170
61.8647,60.1154
61.5471,59.7979
61.5136,59.7365
61.5186,59.6668
61.5605,59.6109
61.6215,59.5869
61.6475,59.5841
61.7823,59.5338
61.8975,59.4475
61.9838,59.3323
62.0341,59.1975
62.0405,59.1379
62.0405,58.1779
62.0491,58.1484
62.0557,58.1185
62.0594,58.1134
62.0602,58.1108
62.0768,58.0902
62.1810,57.9861
62.1810,57.9861
62.2861,57.8810
62.3686,57.7574
62.3686,57.7574
62.4049,57.6697
62.4054,57.6686
62.4054,57.6685
62.4255,57.6201
62.4255,57.6201
62.4374,57.5603
62.4545,57.4743
62.4545,57.3257
62.4545,57.3206
62.4545,57.3206
62.4545,49.9257
62.4545,49.9257
62.4409,49.8575
62.4255,49.7799
62.3686,49.6426
62.3543,49.6212
62.2861,49.5190
62.2861,49.5190
62.1766,49.4096
62.1766,49.4096
62.0768,49.3098
62.0433,49.2485
62.0405,49.2221
62.0405,47.8621
62.0405,47.8621
62.0395,47.8529
62.0341,47.8025
62.0202,47.7654
61.9838,47.6677
61.9838,47.6677
61.8975,47.5525
61.8975,47.5525
61.7823,47.4662
61.7823,47.4662
61.6475,47.4159
61.6475,47.4159
61.5879,47.4095
61.5879,47.4095
61.5879,47.4095
61.5879,47.4095
57.0279,47.4095
56.9608,47.3898
56.9402,47.3732
56.4310,46.8639
56.4310,46.8639
56.3074,46.7814
56.3074,46.7814
56.3074,46.7814
56.3074,46.7814
56.3074,46.7814
56.2135,46.7425
56.2134,46.7425
56.2085,46.7404
56.1701,46.7245
56.1410,46.7187
56.1343,46.7174
56.0243,46.6955
56.0243,46.6955
55.8757,46.6955
55.8696,46.6955
55.8696,46.6955
50.6045,46.6955
50.5375,46.6758
50.4917,46.6230
50.4818,46.5539
50.4829,46.5473
50.5055,46.4338
50.5055,46.4338
50.5055,46.2662
50.5055,46.2662
50.4857,46.1665
50.4728,46.1019
50.4087,45.9471
50.3564,45.8689
50.3355,45.8022
50.3540,45.7348
50.3564,45.7311
50.4087,45.6529
50.4633,45.5212
54.6995,45.5212
54.6995,45.6788
54.7303,45.8335
54.7303,45.8335
54.7906,45.9792
54.7906,45.9792
54.8782,46.1103
54.8782,46.1103
54.9897,46.2218
54.9897,46.2218
55.1208,46.3094
55.1208,46.3094
55.2665,46.3697
55.2665,46.3697
55.4212,46.4005
55.4212,46.4005
55.4212,46.4005
55.5788,46.4005
55.5788,46.4005
55.7335,46.3697
55.8792,46.3094
56.0103,46.2218
56.0123,46.2198
56.0136,46.2190
56.0150,46.2179
56.0152,46.2182
56.0736,46.1863
56.1433,46.1913
56.1849,46.2180
56.1850,46.2179
56.1856,46.2185
56.1877,46.2198
56.1897,46.2218
56.3208,46.3094
56.3208,46.3094
56.4665,46.3697
56.4665,46.3697
56.6212,46.4005
56.6212,46.4005
56.6212,46.4005
56.7788,46.4005
56.7788,46.4005
56.9335,46.3697
57.0792,46.3094
57.2103,46.2218
57.3218,46.1103
57.4094,45.9792
57.4697,45.8335
57.5005,45.6788
57.5005,45.5212
57.5005,45.5212
57.5005,45.5212
57.4697,45.3665
57.4697,45.3665
57.4562,45.3338
57.4094,45.2208
57.4094,45.2208
57.3218,45.0897
57.3218,45.0897
57.2103,44.9782
57.2103,44.9782
57.0792,44.8906
57.0792,44.8906
56.9335,44.8303
56.9335,44.8303
56.7788,44.7995
56.7788,44.7995
56.6212,44.7995
56.6212,44.7995
56.4665,44.8303
56.4665,44.8303
56.3208,44.8906
56.3208,44.8906
56.1897,44.9782
56.1897,44.9782
56.1877,44.9802
56.1864,44.9810
56.1850,44.9821
56.1848,44.9818
56.1264,45.0137
56.0567,45.0087
56.0151,44.9820
56.0150,44.9821
56.0144,44.9816
56.0123,44.9802
56.0103,44.9782
56.0103,44.9782
55.8792,44.8906
55.8792,44.8906
55.7335,44.8303
55.7335,44.8303
55.5788,44.7995
55.5788,44.7995
55.4212,44.7995
55.4212,44.7995
55.2665,44.8303
55.2665,44.8303
55.1208,44.8906
55.1208,44.8906
54.9897,44.9782
54.9897,44.9782
54.8782,45.0897
54.8782,45.0897
54.7906,45.2208
54.7906,45.2208
54.7303,45.3665
54.7303,45.3665
54.6995,45.5212
50.4633,45.5212
50.4728,45.4981
50.5055,45.3338
50.5055,45.1662
50.4728,45.0019
50.4087,44.8471
50.3564,44.7689
50.3355,44.7022
50.3540,44.6348
50.3564,44.6311
50.4087,44.5529
50.4728,44.3981
50.5055,44.2338
50.5055,44.0662
50.4728,43.9019
50.4181,43.7697
50.4087,43.7471
50.4087,43.7471
50.3564,43.6689
50.3355,43.6022
50.3540,43.5348
50.3564,43.5311
50.3568,43.5305
50.4087,43.4529
50.4728,43.2981
50.5055,43.1338
50.5055,42.9662
50.5001,42.9393
50.5001,42.9393
50.4965,42.9212
59.4995,42.9212
59.4995,43.0788
59.5303,43.2335
59.5303,43.2335
59.5906,43.3792
59.5906,43.3792
59.6782,43.5103
59.6782,43.5103
59.7897,43.6218
59.7897,43.6218
59.9208,43.7094
59.9208,43.7094
60.0119,43.7471
60.0665,43.7697
60.1792,43.7921
60.2212,43.8005
60.2212,43.8005
60.2212,43.8005
60.3788,43.8005
60.3788,43.8005
60.5335,43.7697
60.6792,43.7094
60.8103,43.6218
60.9218,43.5103
61.0094,43.3792
61.0133,43.3698
61.0430,43.2981
61.0697,43.2335
61.1005,43.0788
61.1005,42.9212
61.1005,42.9212
61.1005,42.9212
61.0807,42.8218
61.0697,42.7665
61.0203,42.6471
61.0094,42.6208
61.0094,42.6208
60.9218,42.4897
60.9218,42.4897
60.8103,42.3782
60.8103,42.3782
60.6792,42.2906
60.6792,42.2906
60.5335,42.2303
60.5335,42.2303
60.3788,42.1995
60.3788,42.1995
60.2212,42.1995
60.2212,42.1995
60.0665,42.2303
60.0665,42.2303
59.9208,42.2906
59.9208,42.2906
59.7897,42.3782
59.7897,42.3782
59.6782,42.4897
59.6782,42.4897
59.5906,42.6208
59.5906,42.6208
59.5303,42.7665
59.5303,42.7665
59.4995,42.9212
50.4965,42.9212
50.4835,42.8557
50.4728,42.8019
50.4087,42.6471
50.3911,42.6208
50.3561,42.5684
50.3352,42.5018
50.3537,42.4344
50.3561,42.4307
50.4083,42.3526
50.4715,42.2000
49.7499,42.2000
49.7398,42.1995
49.7388,42.1995
48.5012,42.1995
48.5002,42.1995
48.4901,42.2000
48.1805,42.2000
48.1135,42.1803
48.1116,42.1791
47.9792,42.0906
47.9792,42.0906
47.8335,42.0303
47.8335,42.0303
47.6788,41.9995
47.6788,41.9995
47.5212,41.9995
47.5212,41.9995
47.3665,42.0303
47.3665,42.0303
47.2208,42.0906
47.2208,42.0906
47.0897,42.1782
47.0897,42.1782
46.9877,42.2802
46.9264,42.3137
46.8567,42.3087
46.8123,42.2802
46.7603,42.2282
46.7603,42.2282
46.6292,42.1406
46.6292,42.1406
46.4835,42.0803
46.4835,42.0803
46.3288,42.0495
46.3288,42.0495
46.1712,42.0495
46.1712,42.0495
46.0165,42.0803
46.0165,42.0803
45.8708,42.1406
45.8708,42.1406
45.7397,42.2282
45.7397,42.2282
45.6282,42.3397
45.6282,42.3397
45.5406,42.4708
45.5406,42.4708
45.4803,42.6165
45.4803,42.6165
45.4495,42.7712
45.4495,42.9288
45.4803,43.0835
45.4803,43.0835
45.5406,43.2292
45.5406,43.2292
45.6282,43.3603
45.6282,43.3603
45.7397,43.4718
45.7397,43.4718
45.8708,43.5594
45.8708,43.5594
45.9920,43.6096
46.0165,43.6197
46.1617,43.6486
46.1712,43.6505
46.1712,43.6505
46.1712,43.6505
46.3288,43.6505
46.3288,43.6505
46.4835,43.6197
46.6292,43.5594
46.7603,43.4718
46.8103,43.4218
46.8623,43.3698
46.9236,43.3363
46.9933,43.3413
47.0377,43.3698
47.0897,43.4218
47.0897,43.4218
47.2208,43.5094
47.2208,43.5094
47.3665,43.5697
47.3665,43.5697
47.5164,43.5995
47.5212,43.6005
47.5212,43.6005
47.5212,43.6005
47.6788,43.6005
47.6788,43.6005
47.6836,43.5995
47.7532,43.6058
47.8084,43.6486
47.8317,43.7145
47.8224,43.7686
47.7672,43.9019
47.7672,43.9019
47.7345,44.0662
47.7345,44.2338
47.7672,44.3981
47.7672,44.3981
47.8313,44.5529
47.8721,44.6139
47.8836,44.6311
47.9045,44.6978
47.8860,44.7652
47.8836,44.7689
47.8313,44.8471
47.7672,45.0019
47.7672,45.0019
47.7345,45.1662
47.7345,45.3338
47.7672,45.4981
47.7672,45.4981
47.8219,45.6303
47.8313,45.6529
47.8565,45.6906
47.8836,45.7311
47.9045,45.7978
47.8860,45.8652
47.8836,45.8689
47.8313,45.9471
47.7672,46.1019
47.7672,46.1019
47.7345,46.2662
47.7345,46.4338
47.7672,46.5981
47.7672,46.5981
47.8172,46.7187
47.8313,46.7529
47.8559,46.7897
47.8836,46.8311
47.8896,46.8502
47.9001,46.8672
47.8998,46.8828
47.9045,46.8978
47.8992,46.9171
47.8988,46.9371
47.8868,46.9622
47.8860,46.9652
47.8836,46.9689
47.8555,47.0109
47.8019,47.0557
47.7326,47.0644
47.6695,47.0343
47.6378,46.9895
47.6094,46.9208
47.6094,46.9208
47.5218,46.7897
47.5218,46.7897
47.4103,46.6782
47.4103,46.6782
47.2792,46.5906
47.2792,46.5906
47.1335,46.5303
47.1335,46.5303
46.9788,46.4995
46.9788,46.4995
46.8212,46.4995
46.8212,46.4995
46.6665,46.5303
46.6665,46.5303
46.5208,46.5906
46.5208,46.5906
46.3897,46.6782
46.3897,46.6782
46.2782,46.7897
46.2782,46.7897
46.1906,46.9208
46.1906,46.9208
46.1303,47.0665
46.1303,47.0665
46.0994,47.2218
46.0670,47.2838
46.0654,47.2853
43.6148,49.7360
43.5535,49.7694
43.4838,49.7645
43.4278,49.7226
43.4034,49.6571
43.4126,49.6008
43.4197,49.5835
43.4505,49.4288
43.4505,49.2712
43.4505,49.2712
43.4505,49.2712
43.4197,49.1165
43.4197,49.1165
43.4097,49.0922
43.3594,48.9708
43.3594,48.9708
43.2718,48.8397
43.2718,48.8397
43.1603,48.7282
43.1603,48.7282
43.0292,48.6406
43.0292,48.6406
42.8835,48.5803
42.8835,48.5803
42.8078,48.5652
42.7631,48.5467
42.6792,48.4906
42.6792,48.4906
42.5335,48.4303
42.5335,48.4303
42.3788,48.3995
42.3788,48.3995
42.2212,48.3995
42.2212,48.3995
42.0665,48.4303
42.0665,48.4303
41.9208,48.4906
41.9208,48.4906
41.7897,48.5782
41.7897,48.5782
41.6782,48.6897
41.6782,48.6897
41.5906,48.8208
41.5906,48.8208
41.5303,48.9665
41.5303,48.9665
41.4995,49.1212
41.4995,49.2788
41.5287,49.4258
41.5287,49.4742
41.4995,49.6212
41.4995,49.7788
41.5303,49.9335
41.5303,49.9335
41.5906,50.0792
41.5906,50.0792
41.6782,50.2103
41.6782,50.2103
41.7897,50.3218
41.7897,50.3218
41.9208,50.4094
41.9208,50.4094
42.0492,50.4626
42.0665,50.4697
42.2186,50.5000
42.2212,50.5005
42.2212,50.5005
42.2212,50.5005
42.3788,50.5005
42.3788,50.5005
42.5335,50.4697
42.5508,50.4626
42.6203,50.4551
42.6828,50.4864
42.7184,50.5464
42.7159,50.6163
42.6860,50.6648
40.9313,52.4195
40.8195,52.5313
40.8195,52.5313
40.7766,52.6055
40.7766,52.6055
40.7404,52.6682
40.7404,52.6682
40.6995,52.8209
40.6995,52.8209
40.6995,52.9890
40.6995,52.9891
40.6995,55.5978
40.6798,55.6648
40.6270,55.7106
40.5579,55.7205
40.4943,55.6915
40.4609,55.6453
40.4094,55.5208
40.4094,55.5208
40.3218,55.3897
40.3218,55.3897
40.2103,55.2782
40.2103,55.2782
40.0792,55.1906
40.0792,55.1906
39.9335,55.1303
39.9335,55.1303
39.8157,55.1068
39.7538,55.0744
39.7192,55.0137
39.7183,55.0094
39.7097,54.9665
39.7097,54.9665
39.7058,54.9570
39.6494,54.8208
39.6494,54.8208
39.5618,54.6897
39.5618,54.6897
39.4503,54.5782
39.4503,54.5782
39.3192,54.4906
39.3192,54.4906
39.1735,54.4303
39.1735,54.4303
39.0398,54.4037
38.9779,54.3713
38.9433,54.3106
38.9400,54.2821
38.9400,54.2022
38.9400,54.2022
38.9336,54.1426
38.9336,54.1426
38.8834,54.0079
38.8834,54.0079
38.7972,53.8928
38.7972,53.8928
38.6821,53.8066
38.6821,53.8066
38.5474,53.7564
38.5474,53.7564
38.4878,53.7500
38.2400,53.7500
38.2400,54.7735
38.2306,54.8209
38.1703,54.9665
38.1703,54.9665
38.1395,55.1212
33.7661,55.1212
33.7667,54.2022
34.5000,54.2022
34.5000,54.9000
35.2000,54.9000
35.7000,54.9000
36.4700,54.9000
36.9700,54.9000
37.7400,54.9000
37.7400,53.7500
37.4922,53.7500
37.4326,53.7564
37.4326,53.7564
37.3983,53.7692
37.3286,53.7742
37.3117,53.7692
37.2774,53.7564
37.2774,53.7564
37.2178,53.7500
36.9700,53.7500
36.9700,54.9000
36.4700,54.9000
36.4700,53.7500
36.2222,53.7500
36.1626,53.7564
36.1626,53.7564
36.1283,53.7692
36.0586,53.7742
36.0417,53.7692
36.0074,53.7564
36.0074,53.7564
35.9478,53.7500
35.7000,53.7500
35.7000,54.9000
35.2000,54.9000
35.2000,53.7500
34.9522,53.7500
34.8926,53.7564
34.8926,53.7564
34.7579,53.8066
34.7579,53.8066
34.6428,53.8928
34.6428,53.8928
34.5566,54.0079
34.5566,54.0079
34.5064,54.1426
34.5064,54.1426
34.5000,54.2022
33.7667,54.2022
33.7695,49.7521
34.1995,49.7521
34.1995,51.8479
34.1995,51.8479
34.2059,51.9075
34.2562,52.0423
34.2562,52.0423
34.3425,52.1575
34.3425,52.1575
34.4577,52.2438
34.4577,52.2438
34.5925,52.2941
34.5925,52.2941
34.5994,52.2948
34.6521,52.3005
35.3760,52.3005
35.4430,52.3202
35.4888,52.3730
35.5000,52.4245
35.5000,52.5478
35.5064,52.6074
35.5064,52.6074
35.5566,52.7421
35.5566,52.7421
35.6428,52.8572
35.6428,52.8572
35.7579,52.9433
35.7579,52.9434
35.8926,52.9936
35.8926,52.9936
35.9522,53.0000
35.9522,53.0000
36.1500,53.0000
36.1500,52.2240
36.1697,52.1570
36.2225,52.1112
36.2740,52.1000
36.5260,52.1000
36.5930,52.1197
36.6388,52.1725
36.6500,52.2240
36.6500,53.0000
36.8478,53.0000
36.8478,53.0000
36.9074,52.9936
36.9074,52.9936
37.0421,52.9434
37.0421,52.9433
37.1572,52.8572
37.1572,52.8572
37.2433,52.7421
37.2434,52.7421
37.2936,52.6074
37.2936,52.6074
37.3000,52.5478
37.3000,52.5478
37.3000,52.4245
37.3197,52.3575
37.3725,52.3117
37.4240,52.3005
38.1479,52.3005
38.2075,52.2941
38.3423,52.2438
38.4575,52.1575
38.5438,52.0423
38.5941,51.9075
38.6005,51.8479
38.6005,51.6952
38.6202,51.6282
38.6730,51.5824
38.7421,51.5725
38.7487,51.5736
38.8813,51.6000
39.2500,51.6000
39.7500,51.6000
40.1187,51.6000
40.1187,51.6000
40.2829,51.5673
40.2829,51.5673
40.4376,51.5033
40.4376,51.5033
40.5768,51.4102
40.5768,51.4102
40.6952,51.2918
40.6952,51.2918
40.7883,51.1526
40.7883,51.1526
40.8515,51.0000
39.7500,51.0000
39.7500,51.6000
39.2500,51.6000
39.2500,50.8740
39.2697,50.8070
39.3225,50.7612
39.3740,50.7500
39.5000,50.7500
39.5000,50.6245
39.5197,50.5575
39.5725,50.5117
39.6240,50.5005
40.1198,50.5005
40.1299,50.5000
40.8515,50.5000
40.8515,50.5000
40.7883,50.3474
40.7361,50.2693
40.7152,50.2027
40.7337,50.1353
40.7361,50.1316
40.7887,50.0529
40.8528,49.8981
40.8855,49.7338
40.8855,49.5662
40.8528,49.4019
40.7887,49.2471
40.7856,49.2425
40.7361,49.1684
40.7152,49.1018
40.7337,49.0344
40.7361,49.0307
40.7883,48.9526
40.8515,48.8000
40.1299,48.8000
40.1198,48.7995
40.1188,48.7995
39.3291,48.7995
39.3291,48.7995
39.1709,48.7995
39.1709,48.7995
37.2623,48.7995
37.1953,48.7798
37.1631,48.7498
37.1631,48.7498
37.1575,48.7425
37.1575,48.7425
37.1575,48.7425
37.1102,48.7070
37.0683,48.6511
37.0605,48.6077
37.0605,48.2529
37.0802,48.1859
37.0968,48.1653
37.2518,48.0103
37.2772,47.9722
37.2926,47.9534
37.6367,47.6094
37.9028,47.3433
37.9641,47.3098
38.0338,47.3148
38.0898,47.3566
38.1142,47.4221
38.1145,47.4309
38.1145,47.5338
38.1472,47.6981
38.1472,47.6981
38.1582,47.7246
38.2113,47.8529
38.2485,47.9086
38.2639,47.9316
38.2848,47.9982
38.2663,48.0656
38.2639,48.0693
38.2117,48.1474
38.1485,48.3000
38.1485,48.3000
38.8701,48.3000
38.8802,48.3005
38.8812,48.3005
40.1198,48.3005
40.1299,48.3000
40.8515,48.3000
40.8515,48.3000
40.7883,48.1474
40.7361,48.0693
40.7318,48.0556
40.7232,48.0441
40.7216,48.0229
40.7152,48.0027
40.7190,47.9875
40.7180,47.9744
40.7278,47.9512
40.7302,47.9413
40.7329,47.9363
40.7887,47.8529
40.8226,47.7711
40.8257,47.7654
40.8459,47.7450
40.8639,47.7226
40.8703,47.7205
40.8749,47.7158
40.9030,47.7096
40.9302,47.7006
40.9347,47.7005
41.0788,47.7005
41.0788,47.7005
41.2335,47.6697
41.3792,47.6094
41.5103,47.5218
41.6218,47.4103
41.7094,47.2792
41.7697,47.1335
41.8005,46.9788
41.8005,46.8212
41.8005,46.8212
41.7801,46.7187
41.7713,46.6742
41.7713,46.6258
41.7718,46.6230
41.7869,46.5473
41.8005,46.4788
41.8005,46.3212
41.8005,46.3212
41.7807,46.2218
41.7697,46.1665
41.7430,46.1019
41.7094,46.0208
41.7094,46.0208
41.6218,45.8897
41.6218,45.8897
41.5103,45.7782
41.5103,45.7782
41.3792,45.6906
41.3792,45.6906
41.2335,45.6303
41.2335,45.6303
41.0788,45.5995
41.0788,45.5995
40.9837,45.5995
40.9167,45.5798
40.8709,45.5270
40.8610,45.4579
40.8621,45.4513
40.8855,45.3338
40.8855,45.3338
40.8855,45.1662
40.8855,45.1662
40.8659,45.0679
40.8528,45.0019
40.7887,44.8471
40.7364,44.7689
40.7155,44.7022
40.7340,44.6348
40.7364,44.6311
40.7887,44.5529
40.8528,44.3981
40.8855,44.2338
40.8855,44.0662
40.8855,44.0662
40.8852,44.0632
40.8855,44.0616
40.8855,44.0614
40.8849,44.0598
40.8920,44.0273
40.8982,43.9945
40.8995,43.9927
40.8998,43.9916
40.9209,43.9633
41.0843,43.8000
41.1285,43.7735
41.1279,43.7721
41.2229,43.7327
41.2792,43.7094
41.4103,43.6218
41.5218,43.5103
41.6094,43.3792
41.6133,43.3698
41.6430,43.2981
41.6697,43.2335
41.7005,43.0788
41.7005,42.9212
41.7005,42.9212
41.7005,42.9212
41.6807,42.8218
41.6697,42.7665
41.6203,42.6471
41.6094,42.6208
41.6094,42.6208
41.5218,42.4897
41.5218,42.4897
41.4103,42.3782
41.4103,42.3782
41.2792,42.2906
41.2792,42.2906
41.1335,42.2303
41.1335,42.2303
40.9790,42.1995
40.9170,42.1671
40.8825,42.1064
40.8815,42.0537
40.8855,42.0338
40.8855,41.8662
40.8528,41.7019
40.8520,41.7000
47.7685,41.7000
47.7685,41.7000
48.8700,41.7000
49.3700,41.7000
50.4715,41.7000
50.4715,41.7000
50.4083,41.5474
50.4083,41.5474
50.3152,41.4082
50.3152,41.4082
50.1968,41.2898
50.1968,41.2898
50.0576,41.1967
49.9029,41.1327
49.9029,41.1327
49.7387,41.1000
49.3700,41.1000
49.3700,41.7000
48.8700,41.7000
48.8700,41.1000
48.5013,41.1000
48.3371,41.1327
48.3371,41.1327
48.1824,41.1967
48.1824,41.1967
48.0432,41.2898
48.0432,41.2898
47.9248,41.4082
47.9248,41.4082
47.8317,41.5474
47.8317,41.5474
47.7685,41.7000
40.8520,41.7000
40.8016,41.5782
40.7887,41.5471
40.6956,41.4078
40.5772,41.2894
40.4379,41.1963
40.2831,41.1322
40.2831,41.1322
40.1188,41.0995
40.1188,41.0995
38.8812,41.0995
38.8812,41.0995
38.7169,41.1322
38.7169,41.1322
38.5621,41.1963
38.4228,41.2894
38.3044,41.4078
38.2113,41.5471
38.1472,41.7019
38.1472,41.7019
38.1145,41.8662
38.1145,41.9380
38.0948,42.0051
38.0420,42.0508
37.9729,42.0608
37.9093,42.0317
37.8715,41.9730
37.8708,41.9700
37.8697,41.9665
37.8094,41.8208
37.8094,41.8208
37.7218,41.6897
37.7218,41.6897
37.6103,41.5782
37.6103,41.5782
37.4792,41.4906
37.4792,41.4906
37.3335,41.4303
37.3335,41.4303
37.1788,41.3995
37.1788,41.3995
37.0212,41.3995
37.0212,41.3995
36.8665,41.4303
36.8665,41.4303
36.7208,41.4906
36.7208,41.4906
36.5897,41.5782
36.5897,41.5782
36.4782,41.6897
36.4782,41.6897
36.3906,41.8208
36.3906,41.8208
36.3303,41.9665
36.3303,41.9665
36.2995,42.1212
36.2995,42.2788
36.3303,42.4335
36.3303,42.4335
36.3906,42.5792
36.3906,42.5792
36.4782,42.7103
36.4782,42.7103
36.5897,42.8218
36.5897,42.8218
36.7208,42.9094
36.7208,42.9094
36.8580,42.9662
36.8665,42.9697
36.9311,42.9826
37.0218,43.0006
37.0838,43.0330
37.0853,43.0346
37.5813,43.5305
37.5813,43.5305
37.5813,43.5305
37.7152,43.6078
37.7182,43.6096
37.8709,43.6505
37.8709,43.6505
38.0367,43.6505
38.0367,43.6505
38.0657,43.6505
38.1328,43.6702
38.1785,43.7230
38.1885,43.7921
38.1803,43.8220
38.1472,43.9019
38.1472,43.9019
38.1145,44.0662
38.1145,44.2338
38.1472,44.3981
38.1472,44.3981
38.2113,44.5529
38.2521,44.6139
38.2636,44.6311
38.2845,44.6978
38.2660,44.7652
38.2636,44.7689
38.2113,44.8471
38.1472,45.0019
38.1472,45.0019
38.1145,45.1662
38.1145,45.3338
38.1379,45.4513
38.1317,45.5209
38.0888,45.5761
38.0229,45.5993
38.0163,45.5995
37.6352,45.5995
37.4805,45.6303
37.4805,45.6303
37.3348,45.6906
37.3348,45.6906
37.2037,45.7782
37.2037,45.7782
36.1219,46.8600
36.1219,46.8600
36.1197,46.8622
36.0082,46.9737
35.9777,47.0193
35.9716,47.0261
35.9704,47.0268
35.9674,47.0306
35.8782,47.1197
35.7906,47.2508
35.7906,47.2508
35.7303,47.3965
35.7303,47.3965
35.6995,47.5512
35.6995,47.7088
35.7303,47.8635
35.7320,47.8693
35.7314,47.8695
35.7315,47.8701
35.7339,47.8738
35.7385,47.9038
35.7395,47.9086
35.7395,47.9096
35.7395,48.0929
35.7427,48.1224
35.7428,48.1281
35.7421,48.1307
35.7421,48.1432
35.7395,48.1671
35.7395,48.6077
35.7198,48.6748
35.6898,48.7070
35.6425,48.7424
35.6425,48.7425
35.5562,48.8577
35.5562,48.8577
35.5059,48.9925
35.4995,49.0521
35.4995,49.0521
35.4995,49.1755
35.4798,49.2425
35.4270,49.2883
35.3755,49.2995
34.6521,49.2995
34.6521,49.2995
34.5925,49.3059
34.4577,49.3562
34.4577,49.3562
34.3425,49.4425
34.3425,49.4425
34.2562,49.5577
34.2562,49.5577
34.2059,49.6925
34.1995,49.7521
34.1995,49.7521
33.7695,49.7521
33.7751,40.9744
33.7948,40.9074
33.8477,40.8617
33.8991,40.8505
64.3260,40.8505
Z" /> 
</g> 
</svg>
