<?xml version="1.0" standalone="no"?>
 <!DOCTYPE svg PUBLIC "-//W3C//DTD SVG 1.1//EN" 
 "http://www.w3.org/Graphics/SVG/1.1/DTD/svg11.dtd"> 
<svg
  xmlns:svg="http://www.w3.org/2000/svg"
  xmlns="http://www.w3.org/2000/svg"
  xmlns:xlink="http://www.w3.org/1999/xlink"
  version="1.1"
  width="297.0022mm" height="210.0072mm" viewBox="0.0000 0.0000 297.0022 210.0072">
<title>SVG Image created as default-B_Mask.svg date 2025/06/02 11:08:05 </title>
  <desc>Image generated by PCBNEW </desc>
<g style="fill:#000000; fill-opacity:1.0000;stroke:#000000; stroke-opacity:1.0000;
stroke-linecap:round; stroke-linejoin:round;"
 transform="translate(0 0) scale(1 1)">
</g>
<g style="fill:#000000; fill-opacity:1.0000; stroke:none;">
<circle cx="43.6000" cy="76.6000" r="0.9000" /> 
</g>
<g style="fill:#000000; fill-opacity:1.0000; stroke:none;">
<circle cx="43.6000" cy="74.1000" r="0.9000" /> 
</g>
<g style="fill:#000000; fill-opacity:1.0000; stroke:none;">
<circle cx="56.1825" cy="50.5175" r="0.2500" /> 
</g>
<g style="fill:#000000; fill-opacity:1.0000; stroke:none;">
<circle cx="56.1825" cy="50.5175" r="0.2500" /> 
</g>
<g style="fill:#000000; fill-opacity:1.0000; stroke:none;">
<circle cx="56.1825" cy="50.5175" r="0.2500" /> 
</g>
<g style="fill:#000000; fill-opacity:1.0000; stroke:none;">
<circle cx="56.1825" cy="50.5175" r="0.2500" /> 
</g>
<g style="fill:#000000; fill-opacity:1.0000; stroke:none;">
<circle cx="56.1825" cy="50.5175" r="0.2500" /> 
</g>
<g style="fill:#000000; fill-opacity:1.0000; stroke:none;">
<circle cx="56.1825" cy="50.5175" r="0.2500" /> 
</g>
<g style="fill:#000000; fill-opacity:1.0000; stroke:none;">
<circle cx="56.1825" cy="50.5175" r="0.2500" /> 
</g>
<g style="fill:#000000; fill-opacity:1.0000; stroke:none;">
<circle cx="56.1825" cy="50.5175" r="0.2500" /> 
</g>
<g style="fill:#000000; fill-opacity:1.0000; stroke:none;">
<circle cx="56.1825" cy="50.5175" r="0.2500" /> 
</g>
<g style="fill:#000000; fill-opacity:1.0000; stroke:none;">
<circle cx="56.1825" cy="50.5175" r="0.2500" /> 
</g>
<g style="fill:#000000; fill-opacity:1.0000; stroke:none;">
<circle cx="56.1825" cy="50.5175" r="0.2500" /> 
</g>
<g style="fill:#000000; fill-opacity:1.0000; stroke:none;">
<circle cx="56.1825" cy="50.5175" r="0.2500" /> 
</g>
<g style="fill:#000000; fill-opacity:1.0000; stroke:none;">
<circle cx="37.4000" cy="76.6000" r="0.9000" /> 
</g>
<g style="fill:#000000; fill-opacity:1.0000; stroke:none;">
<circle cx="37.4000" cy="74.1000" r="0.9000" /> 
</g>
<g style="fill:#000000; fill-opacity:1.0000; stroke:none;">
<circle cx="68.0000" cy="76.0000" r="0.9000" /> 
</g>
<g style="fill:#000000; fill-opacity:1.0000; stroke:none;">
<circle cx="65.5000" cy="76.0000" r="0.9000" /> 
</g>
<g style="fill:#000000; fill-opacity:1.0000; stroke:none;">
<circle cx="52.0000" cy="75.5000" r="0.8000" /> 
</g>
<g style="fill:#000000; fill-opacity:1.0000; stroke:none;">
<circle cx="55.5000" cy="75.5000" r="0.8000" /> 
</g>
<g style="fill:#000000; fill-opacity:1.0000; stroke:none;">
<circle cx="65.2025" cy="71.1400" r="0.3500" /> 
</g>
<g style="fill:#000000; fill-opacity:1.0000; stroke:none;">
<circle cx="65.2025" cy="71.1400" r="0.3500" /> 
</g>
<g style="fill:none; 
stroke:#000000; stroke-width:1.2000; stroke-opacity:1; 
stroke-linecap:round; stroke-linejoin:round;">
<path d="M64.2625 72.5700
L65.0625 72.5700
" />
<path d="M64.2625 63.9300
L65.0625 63.9300
" />
<path d="M68.5525 72.5700
L69.1525 72.5700
" />
<path d="M68.5525 63.9300
L69.1525 63.9300
" />
<path style="fill:#000000; fill-opacity:1.0000; stroke:none;fill-rule:evenodd;"
d="M 49.5400,53.7250
49.5400,52.3750
50.9500,52.3750
50.9500,53.7250
Z" /> 
<path style="fill:#000000; fill-opacity:1.0000; stroke:none;fill-rule:evenodd;"
d="M 51.5400,53.7250
51.5400,52.3750
52.9500,52.3750
52.9500,53.7250
Z" /> 
<path style="fill:#000000; fill-opacity:1.0000; stroke:none;fill-rule:evenodd;"
d="M 34.7000,49.8000
35.5000,49.8000
35.5000,51.8000
34.7000,51.8000
Z" /> 
<path style="fill:#000000; fill-opacity:1.0000; stroke:none;fill-rule:evenodd;"
d="M 36.8000,51.7000
36.8000,52.5000
36.0000,52.5000
36.0000,51.7000
Z" /> 
<path style="fill:#000000; fill-opacity:1.0000; stroke:none;fill-rule:evenodd;"
d="M 37.3000,49.8000
38.1000,49.8000
38.1000,51.8000
37.3000,51.8000
Z" /> 
<path style="fill:#000000; fill-opacity:1.0000; stroke:none;fill-rule:evenodd;"
d="M 36.8000,49.9000
36.0000,49.9000
36.0000,49.1000
36.8000,49.1000
Z" /> 
<path style="fill:#000000; fill-opacity:1.0000; stroke:none;fill-rule:evenodd;"
d="M 45.9300,52.2550
46.4700,52.2550
46.4700,52.8250
45.9300,52.8250
Z" /> 
<path style="fill:#000000; fill-opacity:1.0000; stroke:none;fill-rule:evenodd;"
d="M 45.9300,53.1150
46.4700,53.1150
46.4700,53.6850
45.9300,53.6850
Z" /> 
<path style="fill:#000000; fill-opacity:1.0000; stroke:none;fill-rule:evenodd;"
d="M 35.9000,56.0500
35.0000,56.0500
35.0000,54.2500
35.9000,54.2500
Z" /> 
<path style="fill:#000000; fill-opacity:1.0000; stroke:none;fill-rule:evenodd;"
d="M 37.1700,56.0500
36.2700,56.0500
36.2700,54.2500
37.1700,54.2500
Z" /> 
<path style="fill:#000000; fill-opacity:1.0000; stroke:none;fill-rule:evenodd;"
d="M 38.4400,56.0500
37.5400,56.0500
37.5400,54.2500
38.4400,54.2500
Z" /> 
<path style="fill:#000000; fill-opacity:1.0000; stroke:none;fill-rule:evenodd;"
d="M 44.0100,56.0500
43.1100,56.0500
43.1100,54.2500
44.0100,54.2500
Z" /> 
<path style="fill:#000000; fill-opacity:1.0000; stroke:none;fill-rule:evenodd;"
d="M 45.2800,56.0500
44.3800,56.0500
44.3800,54.2500
45.2800,54.2500
Z" /> 
<path style="fill:#000000; fill-opacity:1.0000; stroke:none;fill-rule:evenodd;"
d="M 46.5500,56.0500
45.6500,56.0500
45.6500,54.2500
46.5500,54.2500
Z" /> 
<path style="fill:#000000; fill-opacity:1.0000; stroke:none;fill-rule:evenodd;"
d="M 47.8200,56.0500
46.9200,56.0500
46.9200,54.2500
47.8200,54.2500
Z" /> 
<path style="fill:#000000; fill-opacity:1.0000; stroke:none;fill-rule:evenodd;"
d="M 49.0900,56.0500
48.1900,56.0500
48.1900,54.2500
49.0900,54.2500
Z" /> 
<path style="fill:#000000; fill-opacity:1.0000; stroke:none;fill-rule:evenodd;"
d="M 50.3600,56.0500
49.4600,56.0500
49.4600,54.2500
50.3600,54.2500
Z" /> 
<path style="fill:#000000; fill-opacity:1.0000; stroke:none;fill-rule:evenodd;"
d="M 51.6300,56.0500
50.7300,56.0500
50.7300,54.2500
51.6300,54.2500
Z" /> 
<path style="fill:#000000; fill-opacity:1.0000; stroke:none;fill-rule:evenodd;"
d="M 52.9000,56.0500
52.0000,56.0500
52.0000,54.2500
52.9000,54.2500
Z" /> 
<path style="fill:#000000; fill-opacity:1.0000; stroke:none;fill-rule:evenodd;"
d="M 52.9000,70.0500
52.0000,70.0500
52.0000,68.2500
52.9000,68.2500
Z" /> 
<path style="fill:#000000; fill-opacity:1.0000; stroke:none;fill-rule:evenodd;"
d="M 51.6300,70.0500
50.7300,70.0500
50.7300,68.2500
51.6300,68.2500
Z" /> 
<path style="fill:#000000; fill-opacity:1.0000; stroke:none;fill-rule:evenodd;"
d="M 50.3600,70.0500
49.4600,70.0500
49.4600,68.2500
50.3600,68.2500
Z" /> 
<path style="fill:#000000; fill-opacity:1.0000; stroke:none;fill-rule:evenodd;"
d="M 49.0900,70.0500
48.1900,70.0500
48.1900,68.2500
49.0900,68.2500
Z" /> 
<path style="fill:#000000; fill-opacity:1.0000; stroke:none;fill-rule:evenodd;"
d="M 47.8200,70.0500
46.9200,70.0500
46.9200,68.2500
47.8200,68.2500
Z" /> 
<path style="fill:#000000; fill-opacity:1.0000; stroke:none;fill-rule:evenodd;"
d="M 46.5500,70.0500
45.6500,70.0500
45.6500,68.2500
46.5500,68.2500
Z" /> 
<path style="fill:#000000; fill-opacity:1.0000; stroke:none;fill-rule:evenodd;"
d="M 45.2800,70.0500
44.3800,70.0500
44.3800,68.2500
45.2800,68.2500
Z" /> 
<path style="fill:#000000; fill-opacity:1.0000; stroke:none;fill-rule:evenodd;"
d="M 44.0100,70.0500
43.1100,70.0500
43.1100,68.2500
44.0100,68.2500
Z" /> 
<path style="fill:#000000; fill-opacity:1.0000; stroke:none;fill-rule:evenodd;"
d="M 38.4400,70.0500
37.5400,70.0500
37.5400,68.2500
38.4400,68.2500
Z" /> 
<path style="fill:#000000; fill-opacity:1.0000; stroke:none;fill-rule:evenodd;"
d="M 37.1700,70.0500
36.2700,70.0500
36.2700,68.2500
37.1700,68.2500
Z" /> 
<path style="fill:#000000; fill-opacity:1.0000; stroke:none;fill-rule:evenodd;"
d="M 35.9000,70.0500
35.0000,70.0500
35.0000,68.2500
35.9000,68.2500
Z" /> 
<path style="fill:#000000; fill-opacity:1.0000; stroke:none;fill-rule:evenodd;"
d="M 50.3000,51.9200
50.3000,51.3800
51.0900,51.3800
51.0900,51.9200
Z" /> 
<path style="fill:#000000; fill-opacity:1.0000; stroke:none;fill-rule:evenodd;"
d="M 51.4000,51.9200
51.4000,51.3800
52.1900,51.3800
52.1900,51.9200
Z" /> 
<path style="fill:#000000; fill-opacity:1.0000; stroke:none;fill-rule:evenodd;"
d="M 50.4500,49.7500
50.4500,48.8500
51.2500,48.8500
51.2500,49.7500
Z" /> 
<path style="fill:#000000; fill-opacity:1.0000; stroke:none;fill-rule:evenodd;"
d="M 51.8500,49.7500
51.8500,48.8500
52.6500,48.8500
52.6500,49.7500
Z" /> 
<path style="fill:#000000; fill-opacity:1.0000; stroke:none;fill-rule:evenodd;"
d="M 50.6050,50.7700
50.6050,50.2300
51.3950,50.2300
51.3950,50.7700
Z" /> 
<path style="fill:#000000; fill-opacity:1.0000; stroke:none;fill-rule:evenodd;"
d="M 51.7050,50.7700
51.7050,50.2300
52.4950,50.2300
52.4950,50.7700
Z" /> 
<path style="fill:#000000; fill-opacity:1.0000; stroke:none;fill-rule:evenodd;"
d="M 56.4600,47.9100
61.5400,47.9100
61.5400,49.6900
56.4600,49.6900
Z" /> 
<path style="fill:#000000; fill-opacity:1.0000; stroke:none;fill-rule:evenodd;"
d="M 56.4600,57.3100
61.5400,57.3100
61.5400,59.0900
56.4600,59.0900
Z" /> 
<path style="fill:#000000; fill-opacity:1.0000; stroke:none;fill-rule:evenodd;"
d="M 57.2500,51.5200
60.7500,51.5200
60.7500,55.4800
57.2500,55.4800
Z" /> 
<path style="fill:#000000; fill-opacity:1.0000; stroke:none;fill-rule:evenodd;"
d="M 36.2400,47.6750
36.5600,47.6750
36.5600,48.0450
36.2400,48.0450
Z" /> 
<path style="fill:#000000; fill-opacity:1.0000; stroke:none;fill-rule:evenodd;"
d="M 36.2400,48.2150
36.5600,48.2150
36.5600,48.5850
36.2400,48.5850
Z" /> 
<path style="fill:#000000; fill-opacity:1.0000; stroke:none;fill-rule:evenodd;"
d="M 47.1300,52.2150
47.6700,52.2150
47.6700,52.7850
47.1300,52.7850
Z" /> 
<path style="fill:#000000; fill-opacity:1.0000; stroke:none;fill-rule:evenodd;"
d="M 47.1300,53.0750
47.6700,53.0750
47.6700,53.6450
47.1300,53.6450
Z" /> 
</g>
<g style="fill:none; 
stroke:#000000; stroke-width:0.7000; stroke-opacity:1; 
stroke-linecap:round; stroke-linejoin:round;">
<path d="M49.6550 41.9500
L48.5850 41.9500
" />
<path d="M49.6550 43.0500
L48.5850 43.0500
" />
<path d="M49.6550 44.1500
L48.5850 44.1500
" />
<path d="M49.6550 45.2500
L48.5850 45.2500
" />
<path d="M49.6550 46.3500
L48.5850 46.3500
" />
<path d="M49.6550 47.4500
L48.5850 47.4500
" />
<path d="M49.6550 48.5500
L48.5850 48.5500
" />
<path d="M49.6550 49.6500
L48.5850 49.6500
" />
<path d="M49.6550 50.7500
L48.5850 50.7500
" />
<path d="M40.0350 50.7500
L38.9650 50.7500
" />
<path d="M40.0350 49.6500
L38.9650 49.6500
" />
<path d="M40.0350 48.5500
L38.9650 48.5500
" />
<path d="M40.0350 47.4500
L38.9650 47.4500
" />
<path d="M40.0350 46.3500
L38.9650 46.3500
" />
<path d="M40.0350 45.2500
L38.9650 45.2500
" />
<path d="M40.0350 44.1500
L38.9650 44.1500
" />
<path d="M40.0350 43.0500
L38.9650 43.0500
" />
<path d="M40.0350 41.9500
L38.9650 41.9500
" />
</g> 
</svg>
